<?xml version="1.0" encoding="UTF-8"?>
<svg width="484.3" height="397.54" version="1.1" viewBox="0 0 484.3 397.54" xmlns="http://www.w3.org/2000/svg"><g transform="matrix(1.3333 0 0 1.3333 17.353 11.043)"><rect x="-13.015" y="-8.2821" width="363.23" height="298.16" fill="#ffffff"/><g><path d="m172.99 252.86h158.25v22.125h-158.25z" fill="#fd6200"/><path d="m51.113 215.35h158.25v22.125h-158.25z" fill="#0025fd"/><path d="m172.99 4.238h158.25v22.125h-158.25z" fill="#dddd00"/><path d="m51.113 41.746h158.25v22.125h-158.25z" fill="#7300fd"/></g><path d="m122.54 1.418h212.27v27.766h-212.27z" fill="none" stroke="#535353" stroke-width="2.8346"/><path d="m1.418 38.926h212.27v27.766h-212.27z" fill="none" stroke="#535353" stroke-width="2.8346"/><path d="m122.54 250.04h212.27v27.766h-212.27z" fill="none" stroke="#535353" stroke-width="2.8346"/><path d="m1.418 212.53h212.27v27.766h-212.27z" fill="none" stroke="#535353" stroke-width="2.8346"/><g fill="#000000"><path d="m131.07 11.887c0 0.597-0.246 1.09-0.742 1.472-0.492 0.383-1.168 0.575-2.023 0.575-0.485 0-0.93-0.059-1.336-0.172-0.403-0.117-0.739-0.242-1.012-0.379v-1.238h0.059c0.347 0.261 0.734 0.472 1.16 0.628 0.426 0.153 0.832 0.227 1.222 0.227 0.485 0 0.864-0.078 1.137-0.234 0.274-0.157 0.41-0.403 0.41-0.739 0-0.257-0.074-0.453-0.222-0.586-0.149-0.132-0.434-0.246-0.856-0.339-0.156-0.036-0.359-0.075-0.613-0.122-0.25-0.046-0.481-0.097-0.688-0.152-0.574-0.152-0.98-0.375-1.222-0.668-0.239-0.297-0.36-0.66-0.36-1.09 0-0.269 0.055-0.523 0.164-0.761 0.114-0.239 0.286-0.454 0.512-0.641 0.219-0.184 0.496-0.328 0.832-0.434 0.34-0.109 0.719-0.164 1.137-0.164 0.391 0 0.785 0.051 1.183 0.149 0.403 0.093 0.735 0.207 1 0.343v1.18h-0.058c-0.281-0.207-0.621-0.383-1.024-0.523-0.402-0.145-0.796-0.215-1.183-0.215-0.402 0-0.742 0.078-1.02 0.234-0.277 0.153-0.418 0.379-0.418 0.684 0 0.269 0.086 0.473 0.254 0.609 0.164 0.137 0.43 0.25 0.797 0.336 0.203 0.047 0.43 0.094 0.68 0.141 0.254 0.047 0.465 0.09 0.633 0.129 0.511 0.117 0.906 0.316 1.183 0.601 0.278 0.289 0.414 0.672 0.414 1.149z"/><path d="m138.12 13.773h-1.101v-3.726c0-0.301-0.02-0.582-0.055-0.844-0.035-0.265-0.098-0.473-0.192-0.621-0.097-0.164-0.238-0.285-0.421-0.363-0.184-0.082-0.422-0.121-0.715-0.121-0.301 0-0.617 0.074-0.946 0.222-0.328 0.149-0.64 0.336-0.941 0.567v4.886h-1.102v-9.117h1.102v3.301c0.344-0.285 0.699-0.508 1.066-0.668 0.368-0.16 0.743-0.242 1.129-0.242 0.707 0 1.246 0.215 1.617 0.641 0.372 0.425 0.559 1.039 0.559 1.839z"/><path d="m145.33 13.773h-1.098v-0.695c-0.097 0.067-0.23 0.16-0.398 0.281-0.164 0.118-0.324 0.211-0.48 0.282-0.184 0.089-0.395 0.164-0.633 0.222-0.239 0.063-0.516 0.094-0.836 0.094-0.59 0-1.09-0.195-1.5-0.586s-0.617-0.891-0.617-1.496c0-0.496 0.105-0.895 0.316-1.199 0.215-0.309 0.52-0.551 0.914-0.727 0.399-0.176 0.879-0.297 1.438-0.359 0.558-0.063 1.156-0.11 1.796-0.141v-0.168c0-0.25-0.042-0.457-0.132-0.621-0.086-0.164-0.211-0.293-0.375-0.387-0.157-0.089-0.344-0.152-0.563-0.183s-0.449-0.047-0.687-0.047c-0.289 0-0.61 0.039-0.965 0.117-0.356 0.074-0.723 0.184-1.102 0.328h-0.058v-1.117c0.214-0.059 0.523-0.125 0.929-0.195 0.407-0.071 0.809-0.106 1.203-0.106 0.461 0 0.86 0.039 1.2 0.118 0.343 0.074 0.64 0.203 0.89 0.386 0.246 0.18 0.434 0.414 0.563 0.699 0.129 0.286 0.195 0.637 0.195 1.059zm-1.098-1.609v-1.824c-0.335 0.019-0.73 0.051-1.187 0.09-0.453 0.039-0.813 0.093-1.078 0.168-0.317 0.09-0.574 0.23-0.77 0.422-0.195 0.187-0.293 0.449-0.293 0.781 0 0.375 0.114 0.656 0.34 0.847 0.227 0.188 0.574 0.282 1.039 0.282 0.387 0 0.739-0.075 1.059-0.223 0.32-0.152 0.617-0.332 0.89-0.543z"/><path d="m151.53 8.43h-0.058c-0.164-0.039-0.325-0.067-0.481-0.082-0.152-0.02-0.332-0.028-0.543-0.028-0.34 0-0.668 0.075-0.984 0.227-0.317 0.148-0.621 0.344-0.914 0.582v4.644h-1.102v-6.543h1.102v0.965c0.437-0.351 0.82-0.597 1.152-0.742 0.336-0.148 0.68-0.223 1.027-0.223 0.192 0 0.329 4e-3 0.415 0.016 0.085 8e-3 0.214 0.027 0.386 0.055z"/><path d="m157.88 13.773h-1.102v-0.683c-0.316 0.273-0.648 0.484-0.992 0.637-0.344 0.152-0.715 0.23-1.117 0.23-0.781 0-1.402-0.301-1.863-0.902-0.457-0.602-0.688-1.438-0.688-2.504 0-0.555 0.078-1.047 0.235-1.481 0.16-0.433 0.375-0.804 0.644-1.109 0.266-0.297 0.574-0.523 0.926-0.68 0.355-0.156 0.723-0.234 1.101-0.234 0.344 0 0.649 0.039 0.915 0.113 0.265 0.07 0.546 0.18 0.839 0.332v-2.836h1.102zm-1.102-1.609v-3.758c-0.297-0.133-0.562-0.222-0.797-0.273-0.234-0.051-0.492-0.078-0.769-0.078-0.617 0-1.098 0.215-1.441 0.644-0.344 0.43-0.516 1.039-0.516 1.828 0 0.778 0.133 1.371 0.398 1.778 0.266 0.402 0.692 0.601 1.278 0.601 0.312 0 0.629-0.066 0.949-0.203 0.32-0.141 0.621-0.32 0.898-0.539z"/><path d="m11.445 49.387c0 0.597-0.246 1.09-0.742 1.472-0.492 0.383-1.168 0.575-2.023 0.575-0.485 0-0.93-0.059-1.336-0.172-0.403-0.117-0.739-0.242-1.012-0.379v-1.238h0.059c0.347 0.261 0.734 0.472 1.16 0.628 0.426 0.153 0.832 0.227 1.222 0.227 0.485 0 0.864-0.078 1.137-0.234 0.274-0.157 0.41-0.403 0.41-0.739 0-0.257-0.074-0.453-0.222-0.586-0.149-0.132-0.434-0.246-0.856-0.339-0.156-0.036-0.359-0.075-0.613-0.122-0.25-0.046-0.481-0.097-0.688-0.152-0.574-0.152-0.98-0.375-1.222-0.668-0.239-0.297-0.36-0.66-0.36-1.09 0-0.269 0.055-0.523 0.164-0.761 0.114-0.239 0.286-0.454 0.512-0.641 0.219-0.184 0.496-0.328 0.832-0.434 0.34-0.109 0.719-0.164 1.137-0.164 0.391 0 0.785 0.051 1.184 0.149 0.402 0.093 0.734 0.207 1 0.343v1.18h-0.059c-0.281-0.207-0.621-0.383-1.024-0.523-0.402-0.145-0.796-0.215-1.183-0.215-0.402 0-0.742 0.078-1.02 0.234-0.277 0.153-0.418 0.379-0.418 0.684 0 0.269 0.086 0.473 0.254 0.609 0.164 0.137 0.43 0.25 0.797 0.336 0.203 0.047 0.43 0.094 0.68 0.141 0.254 0.047 0.465 0.09 0.633 0.129 0.511 0.117 0.906 0.316 1.183 0.601 0.278 0.289 0.414 0.672 0.414 1.149z"/><path d="m18.496 51.273h-1.101v-3.726c0-0.301-0.02-0.582-0.055-0.844-0.035-0.265-0.098-0.473-0.192-0.621-0.097-0.164-0.238-0.285-0.421-0.363-0.184-0.082-0.422-0.121-0.715-0.121-0.301 0-0.617 0.074-0.946 0.222-0.328 0.149-0.64 0.336-0.941 0.567v4.886h-1.102v-9.117h1.102v3.301c0.344-0.285 0.699-0.508 1.066-0.668 0.368-0.16 0.743-0.242 1.129-0.242 0.707 0 1.246 0.215 1.618 0.641 0.371 0.425 0.558 1.039 0.558 1.839z"/><path d="m25.703 51.273h-1.098v-0.695c-0.097 0.067-0.23 0.16-0.398 0.281-0.164 0.118-0.324 0.211-0.48 0.282-0.184 0.089-0.395 0.164-0.633 0.222-0.239 0.063-0.516 0.094-0.836 0.094-0.59 0-1.09-0.195-1.5-0.586s-0.617-0.891-0.617-1.496c0-0.496 0.105-0.895 0.316-1.199 0.215-0.309 0.52-0.551 0.914-0.727 0.399-0.176 0.879-0.297 1.438-0.359 0.558-0.063 1.156-0.11 1.796-0.141v-0.168c0-0.25-0.043-0.457-0.132-0.621-0.086-0.164-0.211-0.293-0.375-0.387-0.157-0.089-0.344-0.152-0.563-0.183s-0.449-0.047-0.687-0.047c-0.289 0-0.61 0.039-0.965 0.117-0.356 0.074-0.723 0.184-1.102 0.328h-0.058v-1.117c0.215-0.059 0.523-0.125 0.929-0.195 0.407-0.071 0.809-0.106 1.203-0.106 0.461 0 0.86 0.039 1.2 0.118 0.343 0.074 0.64 0.203 0.89 0.386 0.246 0.18 0.434 0.414 0.563 0.699 0.129 0.286 0.195 0.637 0.195 1.059zm-1.098-1.609v-1.824c-0.335 0.019-0.73 0.051-1.187 0.09-0.453 0.039-0.813 0.093-1.078 0.168-0.317 0.09-0.574 0.23-0.77 0.422-0.195 0.187-0.293 0.449-0.293 0.781 0 0.375 0.114 0.656 0.34 0.847 0.227 0.188 0.574 0.282 1.039 0.282 0.387 0 0.739-0.075 1.059-0.223 0.32-0.152 0.617-0.332 0.89-0.543z"/><path d="m31.906 45.93h-0.058c-0.164-0.039-0.325-0.067-0.481-0.082-0.152-0.02-0.332-0.028-0.543-0.028-0.34 0-0.668 0.075-0.984 0.227-0.317 0.148-0.621 0.344-0.914 0.582v4.644h-1.102v-6.543h1.102v0.965c0.437-0.351 0.82-0.597 1.152-0.742 0.336-0.148 0.68-0.223 1.027-0.223 0.192 0 0.329 4e-3 0.415 0.016 0.085 8e-3 0.214 0.027 0.386 0.055z"/><path d="m38.254 51.273h-1.102v-0.683c-0.316 0.273-0.648 0.484-0.992 0.637-0.344 0.152-0.715 0.23-1.117 0.23-0.781 0-1.402-0.301-1.863-0.902-0.457-0.602-0.688-1.438-0.688-2.504 0-0.555 0.078-1.047 0.235-1.481 0.16-0.433 0.375-0.804 0.644-1.109 0.266-0.297 0.574-0.523 0.926-0.68 0.355-0.156 0.723-0.234 1.101-0.234 0.344 0 0.649 0.039 0.914 0.113 0.266 0.07 0.547 0.18 0.84 0.332v-2.836h1.102zm-1.102-1.609v-3.758c-0.297-0.133-0.562-0.222-0.797-0.273-0.234-0.051-0.492-0.078-0.769-0.078-0.617 0-1.098 0.215-1.441 0.644-0.344 0.43-0.516 1.039-0.516 1.828 0 0.778 0.133 1.371 0.398 1.778 0.266 0.402 0.692 0.601 1.278 0.601 0.312 0 0.629-0.066 0.949-0.203 0.32-0.141 0.621-0.32 0.898-0.539z"/><path d="m8.82 221.89c0 0.597-0.246 1.09-0.742 1.472-0.492 0.383-1.168 0.575-2.023 0.575-0.485 0-0.93-0.059-1.336-0.172-0.403-0.117-0.739-0.242-1.012-0.379v-1.238h0.059c0.347 0.261 0.734 0.472 1.16 0.628 0.426 0.153 0.832 0.227 1.222 0.227 0.485 0 0.864-0.078 1.137-0.234 0.274-0.157 0.41-0.403 0.41-0.739 0-0.257-0.074-0.453-0.222-0.586-0.149-0.132-0.434-0.246-0.856-0.339-0.156-0.036-0.359-0.075-0.613-0.122-0.25-0.046-0.481-0.097-0.688-0.152-0.574-0.152-0.98-0.375-1.222-0.668-0.239-0.297-0.36-0.66-0.36-1.09 0-0.269 0.055-0.523 0.164-0.761 0.114-0.239 0.286-0.454 0.512-0.641 0.219-0.184 0.496-0.328 0.832-0.434 0.34-0.109 0.719-0.164 1.137-0.164 0.391 0 0.785 0.051 1.183 0.149 0.403 0.093 0.735 0.207 1 0.343v1.18h-0.058c-0.281-0.207-0.621-0.383-1.024-0.523-0.402-0.145-0.796-0.215-1.183-0.215-0.402 0-0.742 0.078-1.02 0.234-0.277 0.153-0.418 0.379-0.418 0.684 0 0.269 0.086 0.473 0.254 0.609 0.164 0.137 0.43 0.25 0.797 0.336 0.203 0.047 0.43 0.094 0.68 0.141 0.254 0.047 0.465 0.09 0.633 0.129 0.511 0.117 0.906 0.316 1.183 0.601 0.278 0.289 0.414 0.672 0.414 1.149z"/><path d="m15.871 223.77h-1.101v-3.726c0-0.301-0.02-0.582-0.055-0.844-0.035-0.265-0.098-0.473-0.192-0.621-0.097-0.164-0.238-0.285-0.421-0.363-0.184-0.082-0.422-0.121-0.715-0.121-0.301 0-0.617 0.074-0.946 0.222-0.328 0.149-0.64 0.336-0.941 0.567v4.886h-1.102v-9.117h1.102v3.301c0.344-0.285 0.699-0.508 1.066-0.668 0.368-0.16 0.743-0.242 1.129-0.242 0.707 0 1.246 0.215 1.617 0.641 0.372 0.425 0.559 1.039 0.559 1.839z"/><path d="m23.078 223.77h-1.098v-0.695c-0.097 0.067-0.23 0.16-0.398 0.281-0.164 0.118-0.324 0.211-0.48 0.282-0.184 0.089-0.395 0.164-0.633 0.222-0.239 0.063-0.516 0.094-0.836 0.094-0.59 0-1.09-0.195-1.5-0.586s-0.617-0.891-0.617-1.496c0-0.496 0.105-0.895 0.316-1.199 0.215-0.309 0.52-0.551 0.914-0.727 0.399-0.176 0.879-0.297 1.438-0.359 0.558-0.063 1.156-0.11 1.796-0.141v-0.168c0-0.25-0.042-0.457-0.132-0.621-0.086-0.164-0.211-0.293-0.375-0.387-0.157-0.089-0.344-0.152-0.563-0.183s-0.449-0.047-0.687-0.047c-0.289 0-0.61 0.039-0.965 0.117-0.356 0.074-0.723 0.184-1.102 0.328h-0.058v-1.117c0.214-0.059 0.523-0.125 0.929-0.195 0.407-0.071 0.809-0.106 1.203-0.106 0.461 0 0.86 0.039 1.2 0.118 0.343 0.074 0.64 0.203 0.89 0.386 0.246 0.18 0.434 0.414 0.563 0.699 0.129 0.286 0.195 0.637 0.195 1.059zm-1.098-1.609v-1.824c-0.335 0.019-0.73 0.051-1.187 0.09-0.453 0.039-0.813 0.093-1.078 0.168-0.317 0.09-0.574 0.23-0.77 0.422-0.195 0.187-0.293 0.449-0.293 0.781 0 0.375 0.114 0.656 0.34 0.847 0.227 0.188 0.574 0.282 1.039 0.282 0.387 0 0.739-0.075 1.059-0.223 0.32-0.152 0.617-0.332 0.89-0.543z"/><path d="m29.281 218.43h-0.058c-0.164-0.039-0.325-0.067-0.481-0.082-0.152-0.02-0.332-0.028-0.543-0.028-0.34 0-0.668 0.075-0.984 0.227-0.317 0.148-0.621 0.344-0.914 0.582v4.644h-1.102v-6.543h1.102v0.965c0.437-0.351 0.82-0.597 1.152-0.742 0.336-0.148 0.68-0.223 1.027-0.223 0.192 0 0.329 4e-3 0.415 0.016 0.085 8e-3 0.214 0.027 0.386 0.055z"/><path d="m35.629 223.77h-1.102v-0.683c-0.316 0.273-0.648 0.484-0.992 0.637-0.344 0.152-0.715 0.23-1.117 0.23-0.781 0-1.402-0.301-1.863-0.902-0.457-0.602-0.688-1.438-0.688-2.504 0-0.555 0.078-1.047 0.235-1.481 0.16-0.433 0.375-0.804 0.644-1.109 0.266-0.297 0.574-0.523 0.926-0.68 0.355-0.156 0.723-0.234 1.101-0.234 0.344 0 0.649 0.039 0.915 0.113 0.265 0.07 0.546 0.18 0.839 0.332v-2.836h1.102zm-1.102-1.609v-3.758c-0.297-0.133-0.562-0.222-0.797-0.273-0.234-0.051-0.492-0.078-0.769-0.078-0.617 0-1.098 0.215-1.441 0.644-0.344 0.43-0.516 1.039-0.516 1.828 0 0.778 0.133 1.371 0.398 1.778 0.266 0.402 0.692 0.601 1.278 0.601 0.312 0 0.629-0.066 0.949-0.203 0.32-0.141 0.621-0.32 0.898-0.539z"/><path d="m132.2 260.89c0 0.597-0.246 1.09-0.742 1.472-0.492 0.383-1.168 0.575-2.023 0.575-0.485 0-0.93-0.059-1.336-0.172-0.403-0.117-0.739-0.242-1.012-0.379v-1.238h0.059c0.347 0.261 0.734 0.472 1.16 0.628 0.426 0.153 0.832 0.227 1.222 0.227 0.485 0 0.864-0.078 1.137-0.234 0.274-0.157 0.41-0.403 0.41-0.739 0-0.257-0.074-0.453-0.222-0.586-0.149-0.132-0.434-0.246-0.856-0.339-0.156-0.036-0.359-0.075-0.613-0.122-0.25-0.046-0.481-0.097-0.688-0.152-0.574-0.152-0.98-0.375-1.222-0.668-0.239-0.297-0.36-0.66-0.36-1.09 0-0.269 0.055-0.523 0.164-0.761 0.114-0.239 0.286-0.454 0.512-0.641 0.219-0.184 0.496-0.328 0.832-0.434 0.34-0.109 0.719-0.164 1.137-0.164 0.391 0 0.785 0.051 1.184 0.149 0.402 0.093 0.734 0.207 1 0.343v1.18h-0.059c-0.281-0.207-0.621-0.383-1.024-0.523-0.402-0.145-0.796-0.215-1.183-0.215-0.402 0-0.742 0.078-1.02 0.234-0.277 0.153-0.418 0.379-0.418 0.684 0 0.269 0.086 0.473 0.254 0.609 0.164 0.137 0.43 0.25 0.797 0.336 0.203 0.047 0.43 0.094 0.68 0.141 0.254 0.047 0.465 0.09 0.633 0.129 0.511 0.117 0.906 0.316 1.183 0.601 0.278 0.289 0.414 0.672 0.414 1.149z"/><path d="m139.25 262.77h-1.101v-3.726c0-0.301-0.02-0.582-0.055-0.844-0.035-0.265-0.098-0.473-0.192-0.621-0.097-0.164-0.238-0.285-0.421-0.363-0.184-0.082-0.422-0.121-0.715-0.121-0.301 0-0.617 0.074-0.946 0.222-0.328 0.149-0.64 0.336-0.941 0.567v4.886h-1.102v-9.117h1.102v3.301c0.344-0.285 0.699-0.508 1.066-0.668 0.368-0.16 0.743-0.242 1.129-0.242 0.707 0 1.246 0.215 1.618 0.641 0.371 0.425 0.558 1.039 0.558 1.839z"/><path d="m146.45 262.77h-1.098v-0.695c-0.097 0.067-0.23 0.16-0.398 0.281-0.164 0.118-0.324 0.211-0.48 0.282-0.184 0.089-0.395 0.164-0.633 0.222-0.239 0.063-0.516 0.094-0.836 0.094-0.59 0-1.09-0.195-1.5-0.586s-0.617-0.891-0.617-1.496c0-0.496 0.105-0.895 0.316-1.199 0.215-0.309 0.52-0.551 0.914-0.727 0.399-0.176 0.879-0.297 1.438-0.359 0.558-0.063 1.156-0.11 1.796-0.141v-0.168c0-0.25-0.043-0.457-0.132-0.621-0.086-0.164-0.211-0.293-0.375-0.387-0.157-0.089-0.344-0.152-0.563-0.183s-0.449-0.047-0.687-0.047c-0.289 0-0.61 0.039-0.965 0.117-0.356 0.074-0.723 0.184-1.102 0.328h-0.058v-1.117c0.215-0.059 0.523-0.125 0.929-0.195 0.407-0.071 0.809-0.106 1.203-0.106 0.461 0 0.86 0.039 1.2 0.118 0.343 0.074 0.64 0.203 0.89 0.386 0.246 0.18 0.434 0.414 0.563 0.699 0.129 0.286 0.195 0.637 0.195 1.059zm-1.098-1.609v-1.824c-0.335 0.019-0.73 0.051-1.187 0.09-0.453 0.039-0.813 0.093-1.078 0.168-0.317 0.09-0.574 0.23-0.77 0.422-0.195 0.187-0.293 0.449-0.293 0.781 0 0.375 0.114 0.656 0.34 0.847 0.227 0.188 0.574 0.282 1.039 0.282 0.387 0 0.739-0.075 1.059-0.223 0.32-0.152 0.617-0.332 0.89-0.543z"/><path d="m152.66 257.43h-0.058c-0.164-0.039-0.325-0.067-0.481-0.082-0.152-0.02-0.332-0.028-0.543-0.028-0.34 0-0.668 0.075-0.984 0.227-0.317 0.148-0.621 0.344-0.914 0.582v4.644h-1.102v-6.543h1.102v0.965c0.437-0.351 0.82-0.597 1.152-0.742 0.336-0.148 0.68-0.223 1.027-0.223 0.192 0 0.329 4e-3 0.415 0.016 0.085 8e-3 0.214 0.027 0.386 0.055z"/><path d="m159 262.77h-1.102v-0.683c-0.316 0.273-0.648 0.484-0.992 0.637-0.344 0.152-0.715 0.23-1.117 0.23-0.781 0-1.402-0.301-1.863-0.902-0.457-0.602-0.688-1.438-0.688-2.504 0-0.555 0.078-1.047 0.235-1.481 0.16-0.433 0.375-0.804 0.644-1.109 0.266-0.297 0.574-0.523 0.926-0.68 0.355-0.156 0.723-0.234 1.101-0.234 0.344 0 0.649 0.039 0.914 0.113 0.266 0.07 0.547 0.18 0.84 0.332v-2.836h1.102zm-1.102-1.609v-3.758c-0.297-0.133-0.562-0.222-0.797-0.273-0.234-0.051-0.492-0.078-0.769-0.078-0.617 0-1.098 0.215-1.441 0.644-0.344 0.43-0.516 1.039-0.516 1.828 0 0.778 0.133 1.371 0.398 1.778 0.266 0.402 0.692 0.601 1.278 0.601 0.312 0 0.629-0.066 0.949-0.203 0.32-0.141 0.621-0.32 0.898-0.539z"/></g><path d="m140.07 15.848c-0.781 0-1.468 0.488-1.933 1.199-0.461 0.707-0.731 1.648-0.731 2.68 0 1.031 0.27 1.972 0.731 2.683 0.465 0.711 1.152 1.199 1.933 1.199 0.785 0 1.473-0.488 1.934-1.199 0.367-0.562 0.613-1.269 0.699-2.051h11.52v1.211h-0.856v2.039h0.531v-0.785h0.5v0.785h0.348v-1.226h0.57v1.226h0.391v-1h0.527v1h0.516v-0.461h0.504v0.461h0.488v-2.039h-0.859v-1.211h0.859v-1.265h-15.039c-0.086-0.782-0.332-1.485-0.695-2.047-0.465-0.711-1.149-1.199-1.934-1.199zm0 0.933c0.446 0 0.875 0.274 1.219 0.801 0.34 0.527 0.57 1.293 0.57 2.145 0 0.855-0.23 1.621-0.57 2.148-0.344 0.527-0.773 0.801-1.219 0.801-0.441 0-0.871-0.274-1.215-0.801-0.339-0.527-0.57-1.293-0.57-2.148 0-0.852 0.227-1.618 0.57-2.145 0.344-0.527 0.774-0.801 1.215-0.801z" fill="#dddd00" stroke="#000000" stroke-width=".27699"/><g><path d="m141.34 264.89c-0.785 0-1.473 0.492-1.934 1.203-0.464 0.707-0.73 1.648-0.73 2.679 0 1.032 0.266 1.973 0.73 2.684 0.461 0.707 1.149 1.199 1.934 1.199s1.469-0.492 1.934-1.199c0.367-0.562 0.609-1.269 0.695-2.051h11.519v1.211h-0.855v2.039h0.531v-0.785h0.5v0.785h0.352v-1.23h0.57v1.23h0.387v-1h0.531v1h0.516v-0.461h0.5v0.461h0.488v-2.039h-0.856v-1.211h0.856v-1.265h-15.039c-0.086-0.782-0.328-1.489-0.695-2.047-0.461-0.711-1.149-1.199-1.934-1.199zm0 0.937c0.445 0 0.871 0.274 1.215 0.801 0.344 0.523 0.574 1.289 0.574 2.144 0 0.856-0.23 1.622-0.574 2.149-0.344 0.523-0.77 0.797-1.215 0.797s-0.871-0.274-1.215-0.797c-0.344-0.527-0.574-1.293-0.574-2.149 0-0.855 0.23-1.621 0.574-2.144 0.344-0.527 0.77-0.801 1.215-0.801z" fill="#fd6200"/><path d="m20.586 54.891c-0.785 0-1.473 0.492-1.934 1.203-0.464 0.707-0.73 1.648-0.73 2.679 0 1.032 0.266 1.973 0.73 2.684 0.461 0.707 1.149 1.199 1.934 1.199s1.469-0.492 1.934-1.199c0.367-0.562 0.609-1.269 0.695-2.051h11.519v1.211h-0.855v2.039h0.531v-0.785h0.5v0.785h0.348v-1.23h0.574v1.23h0.387v-1h0.531v1h0.516v-0.461h0.5v0.461h0.488v-2.039h-0.856v-1.211h0.856v-1.265h-15.039c-0.086-0.782-0.328-1.489-0.695-2.047-0.461-0.711-1.149-1.199-1.934-1.199zm0 0.937c0.445 0 0.871 0.274 1.215 0.801 0.344 0.523 0.574 1.289 0.574 2.144 0 0.856-0.23 1.622-0.574 2.149-0.344 0.523-0.77 0.797-1.215 0.797s-0.871-0.274-1.215-0.797c-0.344-0.527-0.574-1.293-0.574-2.149 0-0.855 0.23-1.621 0.574-2.144 0.344-0.527 0.77-0.801 1.215-0.801z" fill="#7300fd"/><path d="m17.961 228.43c-0.785 0-1.473 0.488-1.934 1.199-0.465 0.711-0.73 1.652-0.73 2.684 0 1.027 0.265 1.968 0.73 2.679 0.461 0.711 1.149 1.2 1.934 1.2s1.469-0.489 1.934-1.2c0.367-0.562 0.609-1.265 0.695-2.047h11.519v1.207h-0.855v2.04h0.531v-0.786h0.5v0.786h0.348v-1.227h0.574v1.227h0.387v-1h0.531v1h0.516v-0.458h0.5v0.458h0.488v-2.04h-0.856v-1.207h0.856v-1.265h-15.039c-0.086-0.781-0.328-1.488-0.695-2.051-0.461-0.711-1.149-1.199-1.934-1.199zm0 0.933c0.445 0 0.871 0.274 1.215 0.801 0.344 0.528 0.574 1.293 0.574 2.149 0 0.851-0.23 1.617-0.574 2.144s-0.77 0.801-1.215 0.801-0.871-0.274-1.215-0.801-0.574-1.293-0.574-2.144c0-0.856 0.23-1.621 0.574-2.149 0.344-0.527 0.77-0.801 1.215-0.801z" fill="#0025fd"/><path d="m266.02 263.78c0-5.461-4.43-9.887-9.891-9.887-5.457 0-9.887 4.426-9.887 9.887s4.43 9.891 9.887 9.891c5.461 0 9.891-4.43 9.891-9.891z" fill="#000000"/><path d="m264.18 263.78c0-2.137-0.848-4.183-2.36-5.695-1.508-1.508-3.558-2.36-5.695-2.36-2.133 0-4.184 0.852-5.691 2.36-1.512 1.512-2.36 3.558-2.36 5.695s0.848 4.184 2.36 5.695c1.507 1.512 3.558 2.36 5.691 2.36 2.137 0 4.187-0.848 5.695-2.36 1.512-1.511 2.36-3.558 2.36-5.695z" fill="#c80000"/><path d="m262.43 259.17-2.629 10.117h-1.516l-2.125-8.398-2.078 8.398h-1.48l-2.68-10.117h1.379l2.129 8.41 2.09-8.41h1.367l2.113 8.492 2.113-8.492z" fill="#ffffff"/><path d="m266.02 14.785c0-5.461-4.43-9.887-9.891-9.887-5.457 0-9.887 4.426-9.887 9.887s4.43 9.891 9.887 9.891c5.461 0 9.891-4.43 9.891-9.891z" fill="#000000"/><path d="m264.18 14.785c0-2.137-0.848-4.183-2.36-5.695-1.508-1.508-3.558-2.36-5.695-2.36-2.133 0-4.184 0.852-5.691 2.36-1.512 1.512-2.36 3.558-2.36 5.695s0.848 4.184 2.36 5.695c1.507 1.512 3.558 2.36 5.691 2.36 2.137 0 4.187-0.848 5.695-2.36 1.512-1.511 2.36-3.558 2.36-5.695z" fill="#c80000"/><path d="m262.43 10.172-2.629 10.117h-1.516l-2.125-8.398-2.078 8.398h-1.48l-2.68-10.117h1.379l2.129 8.41 2.09-8.41h1.367l2.113 8.492 2.113-8.492z" fill="#ffffff"/></g><path d="m83.363 57.113c-0.125 19.375-0.25 38.75 2.75 51.438 3 12.687 9.125 18.687 15.25 24.687" fill="none" stroke="#008000" stroke-width="2.8346"/><g transform="matrix(1 .97959 -.97959 1 0 0)"><path d="m121.98 17.322-5.467 3.16v-6.32z" fill="#008000" fill-rule="evenodd" stroke="#008000" stroke-width=".84278"/></g><g><path d="m93.949 53.695c0-5.461-4.429-9.886-9.89-9.886s-9.887 4.425-9.887 9.886 4.426 9.887 9.887 9.887 9.89-4.426 9.89-9.887z" fill="#000000"/><path d="m92.113 53.695c0-2.136-0.847-4.183-2.359-5.695-1.508-1.508-3.559-2.359-5.695-2.359-2.133 0-4.184 0.851-5.692 2.359-1.512 1.512-2.359 3.559-2.359 5.695 0 2.137 0.847 4.184 2.359 5.696 1.508 1.511 3.559 2.359 5.692 2.359 2.136 0 4.187-0.848 5.695-2.359 1.512-1.512 2.359-3.559 2.359-5.696z" fill="#008000"/><path d="m89.48 59.195h-1.968l-3.817-4.539h-2.136v4.539h-1.52v-11.414h3.195c0.692 0 1.266 0.047 1.727 0.137s0.875 0.246 1.242 0.477c0.414 0.261 0.735 0.589 0.965 0.988 0.234 0.394 0.352 0.894 0.352 1.504 0 0.82-0.208 1.511-0.622 2.066s-0.984 0.969-1.707 1.25zm-3.546-8.203c0-0.324-0.059-0.613-0.176-0.863-0.113-0.258-0.301-0.473-0.567-0.645-0.222-0.148-0.48-0.25-0.781-0.308-0.305-0.059-0.66-0.09-1.066-0.09h-1.785v4.305h1.531c0.48 0 0.898-0.039 1.258-0.121 0.355-0.086 0.66-0.247 0.91-0.477 0.23-0.215 0.398-0.457 0.508-0.734 0.113-0.282 0.168-0.637 0.168-1.067z" fill="#ffffff"/></g><path d="m83.363 231.38c-0.125-19.375-0.25-38.75 2.75-51.437 3-12.688 9.125-18.688 15.25-24.688" fill="none" stroke="#008000" stroke-width="2.8346"/><g transform="matrix(1 -.97959 .97959 1 0 0)"><path d="m-22.237 129.9-5.467 3.161v-6.321z" fill="#008000" fill-rule="evenodd" stroke="#008000" stroke-width=".84278"/></g><g><path d="m93.949 226.57c0-5.461-4.429-9.886-9.89-9.886s-9.887 4.425-9.887 9.886 4.426 9.887 9.887 9.887 9.89-4.426 9.89-9.887z" fill="#000000"/><path d="m92.113 226.57c0-2.136-0.847-4.183-2.359-5.695-1.508-1.508-3.559-2.359-5.695-2.359-2.133 0-4.184 0.851-5.692 2.359-1.512 1.512-2.359 3.559-2.359 5.695 0 2.137 0.847 4.184 2.359 5.696 1.508 1.511 3.559 2.359 5.692 2.359 2.136 0 4.187-0.848 5.695-2.359 1.512-1.512 2.359-3.559 2.359-5.696z" fill="#008000"/><path d="m89.48 232.07h-1.968l-3.817-4.539h-2.136v4.539h-1.52v-11.414h3.195c0.692 0 1.266 0.047 1.727 0.137s0.875 0.246 1.242 0.477c0.414 0.261 0.735 0.589 0.965 0.988 0.234 0.394 0.352 0.894 0.352 1.504 0 0.82-0.208 1.511-0.622 2.066s-0.984 0.969-1.707 1.25zm-3.546-8.203c0-0.324-0.059-0.613-0.176-0.863-0.113-0.258-0.301-0.473-0.567-0.645-0.222-0.148-0.48-0.25-0.781-0.308-0.305-0.059-0.66-0.09-1.066-0.09h-1.785v4.305h1.531c0.48 0 0.898-0.039 1.258-0.121 0.355-0.086 0.66-0.247 0.91-0.477 0.23-0.215 0.398-0.457 0.508-0.734 0.113-0.282 0.168-0.637 0.168-1.067z" fill="#ffffff"/></g><path d="m224.74 141.11c8-6.5 16-13 21.125-31.25s7.375-48.25 9.625-78.25" fill="none" stroke="#c80000" stroke-width="2.8346"/><g transform="matrix(.075 -1 1 .075 0 0)"><path d="m-7.288 256.41-7.634 4.412-2e-3 -8.82z" fill="#c80000" fill-rule="evenodd" stroke="#c80000" stroke-width="1.1765"/></g><path d="m225.49 157.32c7.25 5.25 14.5 10.5 19.5 25.317 5 14.812 7.75 39.183 10.5 63.558" fill="none" stroke="#c80000" stroke-width="2.8346"/><g transform="matrix(.11282 1 -1 .11282 0 0)"><path d="m276.64-224.85-7.605 4.396v-8.793z" fill="#c80000" fill-rule="evenodd" stroke="#c80000" stroke-width="1.1723"/></g><path d="m112.61 127.02v70.125h107.25v-70.125h-10.918c8e-3 0.368 0.012 0.735 0.012 1.098 0 23.594-19.125 42.723-42.719 42.723-23.597 0-42.722-19.129-42.722-42.723 7e-3 -0.367 0.023-0.73 0.043-1.098z" fill="#000000"/><g fill="#ffffff"><path d="m146.21 179.9h-5.75v-8.722h5.75v1.031h-4.59v2.391h4.59v1.031h-4.59v3.238h4.59z"/><path d="m153.63 179.9h-1.391l-1.855-2.511-1.871 2.511h-1.282l2.555-3.261-2.531-3.282h1.387l1.847 2.473 1.852-2.473h1.289l-2.574 3.223z"/><path d="m160.4 176.74h-4.824c0 0.403 0.063 0.754 0.184 1.055 0.121 0.297 0.285 0.539 0.496 0.73 0.203 0.188 0.445 0.328 0.722 0.422 0.282 0.094 0.59 0.141 0.926 0.141 0.446 0 0.891-0.086 1.34-0.262 0.453-0.18 0.777-0.355 0.969-0.527h0.058v1.199c-0.371 0.156-0.75 0.289-1.136 0.395-0.387 0.105-0.793 0.156-1.219 0.156-1.086 0-1.934-0.293-2.543-0.879-0.609-0.59-0.914-1.426-0.914-2.508 0-1.07 0.289-1.918 0.871-2.547 0.586-0.629 1.356-0.945 2.309-0.945 0.882 0 1.562 0.258 2.039 0.773 0.48 0.516 0.722 1.25 0.722 2.2zm-1.074-0.844c-4e-3 -0.578-0.148-1.027-0.437-1.343-0.286-0.317-0.723-0.473-1.309-0.473-0.59 0-1.059 0.172-1.41 0.52-0.348 0.347-0.547 0.781-0.594 1.296z"/><path d="m166.91 179.49c-0.367 0.176-0.715 0.313-1.047 0.41-0.328 0.098-0.679 0.149-1.051 0.149-0.472 0-0.906-0.07-1.3-0.207-0.395-0.141-0.731-0.352-1.012-0.633-0.285-0.281-0.508-0.637-0.664-1.066-0.156-0.43-0.234-0.93-0.234-1.504 0-1.071 0.293-1.91 0.878-2.52 0.59-0.609 1.368-0.914 2.332-0.914 0.376 0 0.743 0.051 1.102 0.156 0.363 0.106 0.695 0.235 0.996 0.387v1.227h-0.058c-0.336-0.262-0.684-0.465-1.043-0.606-0.356-0.14-0.704-0.211-1.043-0.211-0.625 0-1.118 0.211-1.481 0.633-0.359 0.418-0.539 1.035-0.539 1.848 0 0.789 0.176 1.394 0.527 1.82 0.356 0.422 0.852 0.633 1.493 0.633 0.222 0 0.449-0.028 0.679-0.086 0.231-0.059 0.438-0.137 0.621-0.231 0.161-0.082 0.313-0.168 0.454-0.257 0.14-0.094 0.25-0.172 0.332-0.239h0.058z"/><path d="m173.75 179.9h-1.102v-0.726c-0.371 0.293-0.726 0.519-1.066 0.676-0.34 0.156-0.715 0.234-1.125 0.234-0.687 0-1.223-0.211-1.605-0.629-0.383-0.422-0.575-1.039-0.575-1.851v-4.247h1.102v3.727c0 0.332 0.016 0.617 0.047 0.856 0.031 0.234 0.097 0.433 0.199 0.601 0.105 0.172 0.242 0.297 0.41 0.375s0.41 0.117 0.731 0.117c0.285 0 0.597-0.074 0.933-0.222 0.34-0.149 0.656-0.336 0.949-0.567v-4.887h1.102z"/><path d="m179.32 179.84c-0.207 0.055-0.433 0.101-0.679 0.137-0.242 0.035-0.461 0.05-0.653 0.05-0.668 0-1.175-0.179-1.523-0.539-0.348-0.359-0.52-0.933-0.52-1.726v-3.481h-0.746v-0.926h0.746v-1.882h1.102v1.882h2.273v0.926h-2.273v2.981c0 0.343 8e-3 0.613 0.023 0.808 0.012 0.192 0.067 0.371 0.164 0.539 0.086 0.157 0.204 0.274 0.352 0.348 0.152 0.07 0.383 0.105 0.691 0.105 0.18 0 0.368-0.027 0.563-0.078 0.195-0.054 0.336-0.097 0.422-0.132h0.058z"/><path d="m186.22 176.63c0 1.066-0.274 1.91-0.821 2.527s-1.277 0.926-2.195 0.926c-0.926 0-1.664-0.309-2.211-0.926-0.543-0.617-0.812-1.461-0.812-2.527 0-1.067 0.269-1.906 0.812-2.524 0.547-0.621 1.285-0.933 2.211-0.933 0.918 0 1.648 0.312 2.195 0.933 0.547 0.618 0.821 1.457 0.821 2.524zm-1.137 0c0-0.848-0.164-1.477-0.496-1.887-0.332-0.414-0.793-0.621-1.383-0.621-0.598 0-1.062 0.207-1.395 0.621-0.328 0.41-0.492 1.039-0.492 1.887 0 0.82 0.164 1.445 0.496 1.871 0.332 0.422 0.797 0.633 1.391 0.633 0.586 0 1.043-0.211 1.375-0.629 0.336-0.422 0.504-1.047 0.504-1.875z"/><path d="m192.01 174.56h-0.059c-0.164-0.039-0.324-0.067-0.48-0.082-0.153-0.02-0.332-0.028-0.543-0.028-0.34 0-0.668 0.075-0.985 0.227-0.316 0.148-0.621 0.344-0.914 0.582v4.644h-1.101v-6.543h1.101v0.965c0.438-0.351 0.821-0.597 1.153-0.742 0.336-0.148 0.679-0.223 1.027-0.223 0.191 0 0.328 4e-3 0.414 0.016 0.086 8e-3 0.215 0.027 0.387 0.055z"/><path d="m146.75 187.21h-4.41v2.461h3.789v1.031h-3.789v4.199h-1.16v-8.722h5.57z"/><path d="m153.42 194.9h-1.102v-0.726c-0.371 0.293-0.726 0.519-1.066 0.676-0.34 0.156-0.715 0.234-1.125 0.234-0.687 0-1.223-0.211-1.605-0.629-0.383-0.422-0.575-1.039-0.575-1.851v-4.247h1.102v3.727c0 0.332 0.015 0.617 0.047 0.856 0.031 0.234 0.097 0.433 0.199 0.601 0.105 0.172 0.242 0.297 0.41 0.375s0.41 0.117 0.731 0.117c0.285 0 0.597-0.074 0.933-0.222 0.34-0.149 0.656-0.336 0.949-0.567v-4.887h1.102z"/><path d="m161.06 194.9h-1.102v-3.726c0-0.301-0.019-0.582-0.055-0.844-0.035-0.266-0.097-0.473-0.191-0.621-0.098-0.164-0.238-0.285-0.422-0.363-0.184-0.082-0.422-0.121-0.715-0.121-0.301 0-0.617 0.074-0.945 0.222-0.328 0.149-0.641 0.336-0.941 0.567v4.886h-1.102v-6.543h1.102v0.727c0.343-0.285 0.699-0.508 1.066-0.668s0.742-0.242 1.129-0.242c0.707 0 1.246 0.215 1.617 0.64 0.371 0.426 0.559 1.04 0.559 1.84z"/><path d="m168.02 194.49c-0.368 0.176-0.719 0.313-1.051 0.41-0.328 0.098-0.676 0.149-1.047 0.149-0.473 0-0.906-0.07-1.301-0.207-0.394-0.141-0.734-0.352-1.016-0.633-0.285-0.281-0.503-0.637-0.66-1.066-0.156-0.43-0.234-0.93-0.234-1.504 0-1.071 0.293-1.91 0.879-2.52 0.59-0.609 1.367-0.914 2.332-0.914 0.375 0 0.742 0.051 1.101 0.156 0.364 0.106 0.696 0.235 0.997 0.387v1.227h-0.059c-0.336-0.262-0.684-0.465-1.043-0.606-0.356-0.14-0.703-0.211-1.043-0.211-0.625 0-1.121 0.211-1.484 0.633-0.36 0.418-0.539 1.035-0.539 1.848 0 0.789 0.175 1.394 0.527 1.82 0.355 0.422 0.855 0.633 1.496 0.633 0.223 0 0.449-0.028 0.68-0.086 0.23-0.059 0.437-0.137 0.621-0.231 0.16-0.082 0.308-0.168 0.449-0.257 0.141-0.094 0.254-0.172 0.336-0.239h0.059z"/><path d="m172.83 194.84c-0.207 0.055-0.433 0.101-0.68 0.137-0.242 0.035-0.457 0.05-0.648 0.05-0.668 0-1.176-0.179-1.523-0.539-0.348-0.359-0.524-0.933-0.524-1.726v-3.481h-0.742v-0.926h0.742v-1.882h1.102v1.882h2.273v0.926h-2.273v2.981c0 0.343 7e-3 0.613 0.023 0.808 0.016 0.192 0.07 0.371 0.164 0.539 0.086 0.157 0.203 0.274 0.352 0.348 0.152 0.07 0.383 0.105 0.691 0.105 0.18 0 0.367-0.027 0.563-0.078 0.195-0.054 0.336-0.097 0.422-0.132h0.058z"/><path d="m175.34 187.26h-1.242v-1.141h1.242zm-0.071 7.64h-1.101v-6.543h1.101z"/><path d="m183.03 191.63c0 1.066-0.273 1.91-0.82 2.527s-1.281 0.926-2.199 0.926c-0.926 0-1.66-0.309-2.207-0.926-0.543-0.617-0.817-1.461-0.817-2.527 0-1.067 0.274-1.906 0.817-2.524 0.547-0.621 1.281-0.933 2.207-0.933 0.918 0 1.652 0.312 2.199 0.933 0.547 0.618 0.82 1.457 0.82 2.524zm-1.136 0c0-0.848-0.168-1.477-0.5-1.887-0.333-0.414-0.793-0.621-1.383-0.621-0.598 0-1.063 0.207-1.395 0.621-0.328 0.41-0.492 1.039-0.492 1.887 0 0.82 0.168 1.445 0.5 1.871 0.332 0.422 0.793 0.633 1.387 0.633 0.586 0 1.047-0.211 1.379-0.629 0.336-0.422 0.504-1.047 0.504-1.875z"/><path d="m190.21 194.9h-1.102v-3.726c0-0.301-0.015-0.582-0.05-0.844-0.035-0.266-0.102-0.473-0.196-0.621-0.097-0.164-0.238-0.285-0.421-0.363-0.184-0.082-0.422-0.121-0.715-0.121-0.301 0-0.614 0.074-0.942 0.222-0.328 0.149-0.644 0.336-0.945 0.567v4.886h-1.102v-6.543h1.102v0.727c0.344-0.285 0.699-0.508 1.066-0.668 0.368-0.16 0.746-0.242 1.133-0.242 0.707 0 1.246 0.215 1.617 0.64 0.371 0.426 0.555 1.04 0.555 1.84z"/></g><path d="m203.71 128.12c0 20.695-16.773 37.473-37.469 37.473-20.695 0-37.472-16.778-37.472-37.473s16.777-37.473 37.472-37.473c20.696 0 37.469 16.778 37.469 37.473z" fill="#000000"/><g fill="#ffffff"><path d="m139.88 124.58h-3.117v7.691h-1.16v-7.691h-3.118v-1.031h7.395z"/><path d="m143.88 126.93h-0.059c-0.164-0.039-0.324-0.067-0.48-0.082-0.152-0.02-0.336-0.028-0.547-0.028-0.34 0-0.668 0.075-0.984 0.227-0.317 0.148-0.621 0.344-0.914 0.582v4.644h-1.102v-6.543h1.102v0.965c0.437-0.351 0.824-0.597 1.156-0.742 0.336-0.148 0.676-0.223 1.023-0.223 0.192 0 0.332 4e-3 0.418 0.016 0.086 8e-3 0.215 0.027 0.387 0.055z"/><path d="m149.78 132.27h-1.094v-0.695c-0.097 0.067-0.23 0.16-0.398 0.281-0.164 0.118-0.324 0.211-0.481 0.282-0.183 0.089-0.394 0.164-0.632 0.222-0.239 0.063-0.52 0.094-0.84 0.094-0.59 0-1.09-0.195-1.5-0.586s-0.613-0.891-0.613-1.496c0-0.496 0.105-0.895 0.316-1.199 0.215-0.309 0.519-0.551 0.914-0.727 0.398-0.176 0.875-0.297 1.434-0.359 0.558-0.063 1.16-0.11 1.8-0.141v-0.168c0-0.25-0.046-0.457-0.132-0.621s-0.211-0.293-0.375-0.387c-0.157-0.089-0.344-0.152-0.563-0.183s-0.449-0.047-0.687-0.047c-0.289 0-0.61 0.039-0.965 0.117-0.356 0.074-0.723 0.184-1.102 0.328h-0.062v-1.117c0.215-0.059 0.527-0.125 0.933-0.195 0.407-0.071 0.805-0.106 1.2-0.106 0.46 0 0.863 0.039 1.203 0.118 0.343 0.074 0.64 0.203 0.89 0.386 0.246 0.18 0.434 0.414 0.563 0.699 0.129 0.286 0.191 0.637 0.191 1.059zm-1.094-1.609v-1.824c-0.336 0.019-0.734 0.051-1.191 0.09-0.453 0.039-0.812 0.093-1.078 0.168-0.317 0.09-0.57 0.23-0.766 0.422-0.195 0.187-0.293 0.449-0.293 0.781 0 0.375 0.114 0.656 0.34 0.847 0.227 0.188 0.57 0.282 1.035 0.282 0.387 0 0.742-0.075 1.063-0.223 0.32-0.152 0.617-0.332 0.89-0.543z"/><path d="m157.38 132.27h-1.102v-3.726c0-0.301-0.015-0.582-0.05-0.844-0.036-0.265-0.102-0.473-0.196-0.621-0.097-0.164-0.238-0.285-0.418-0.363-0.183-0.082-0.422-0.121-0.715-0.121-0.3 0-0.617 0.074-0.945 0.222-0.328 0.149-0.641 0.336-0.945 0.567v4.886h-1.098v-6.543h1.098v0.727c0.344-0.285 0.699-0.508 1.07-0.668 0.367-0.16 0.742-0.242 1.129-0.242 0.707 0 1.246 0.215 1.617 0.641 0.371 0.425 0.559 1.039 0.559 1.839z"/><path d="m164.18 130.39c0 0.597-0.246 1.09-0.742 1.472-0.493 0.383-1.168 0.575-2.024 0.575-0.484 0-0.93-0.059-1.336-0.172-0.402-0.117-0.738-0.242-1.012-0.379v-1.238h0.059c0.348 0.261 0.734 0.472 1.16 0.628 0.426 0.153 0.836 0.227 1.227 0.227 0.484 0 0.863-0.078 1.137-0.234 0.273-0.157 0.41-0.403 0.41-0.739 0-0.257-0.078-0.453-0.227-0.586-0.148-0.132-0.433-0.246-0.855-0.339-0.157-0.036-0.36-0.075-0.614-0.122-0.25-0.046-0.48-0.097-0.687-0.152-0.574-0.152-0.981-0.375-1.223-0.668-0.238-0.297-0.359-0.66-0.359-1.09 0-0.269 0.055-0.523 0.164-0.761 0.113-0.239 0.285-0.454 0.512-0.641 0.218-0.184 0.496-0.328 0.832-0.434 0.34-0.109 0.718-0.164 1.136-0.164 0.391 0 0.786 0.051 1.184 0.149 0.402 0.093 0.734 0.207 1 0.343v1.18h-0.059c-0.281-0.207-0.621-0.383-1.023-0.523-0.402-0.145-0.797-0.215-1.184-0.215-0.402 0-0.742 0.078-1.019 0.234-0.278 0.153-0.418 0.379-0.418 0.684 0 0.269 0.086 0.473 0.254 0.609 0.164 0.137 0.429 0.25 0.797 0.336 0.203 0.047 0.429 0.094 0.679 0.141 0.254 0.047 0.465 0.09 0.633 0.129 0.512 0.117 0.906 0.316 1.184 0.601 0.277 0.289 0.414 0.672 0.414 1.149z"/><path d="m170.84 132.27h-1.098v-0.695c-0.097 0.067-0.23 0.16-0.398 0.281-0.164 0.118-0.324 0.211-0.481 0.282-0.179 0.089-0.39 0.164-0.633 0.222-0.238 0.063-0.515 0.094-0.835 0.094-0.59 0-1.09-0.195-1.5-0.586-0.411-0.391-0.618-0.891-0.618-1.496 0-0.496 0.106-0.895 0.317-1.199 0.215-0.309 0.519-0.551 0.914-0.727 0.398-0.176 0.879-0.297 1.437-0.359 0.559-0.063 1.157-0.11 1.797-0.141v-0.168c0-0.25-0.043-0.457-0.133-0.621-0.086-0.164-0.211-0.293-0.375-0.387-0.156-0.089-0.343-0.152-0.562-0.183s-0.449-0.047-0.688-0.047c-0.289 0-0.609 0.039-0.964 0.117-0.356 0.074-0.723 0.184-1.102 0.328h-0.059v-1.117c0.215-0.059 0.524-0.125 0.93-0.195 0.406-0.071 0.809-0.106 1.203-0.106 0.461 0 0.86 0.039 1.199 0.118 0.344 0.074 0.641 0.203 0.891 0.386 0.246 0.18 0.434 0.414 0.563 0.699 0.128 0.286 0.195 0.637 0.195 1.059zm-1.098-1.609v-1.824c-0.336 0.019-0.73 0.051-1.187 0.09-0.453 0.039-0.813 0.093-1.078 0.168-0.317 0.09-0.575 0.23-0.77 0.422-0.195 0.187-0.293 0.449-0.293 0.781 0 0.375 0.113 0.656 0.34 0.847 0.226 0.188 0.574 0.282 1.039 0.282 0.387 0 0.738-0.075 1.059-0.223 0.32-0.152 0.617-0.332 0.89-0.543z"/><path d="m177.8 131.86c-0.367 0.176-0.719 0.313-1.051 0.41-0.328 0.098-0.676 0.149-1.047 0.149-0.473 0-0.906-0.07-1.301-0.207-0.394-0.141-0.734-0.352-1.015-0.633-0.285-0.281-0.504-0.637-0.66-1.066-0.157-0.43-0.235-0.93-0.235-1.504 0-1.071 0.293-1.91 0.879-2.52 0.59-0.609 1.367-0.914 2.332-0.914 0.375 0 0.742 0.051 1.102 0.156 0.363 0.106 0.695 0.235 0.996 0.387v1.227h-0.059c-0.336-0.262-0.683-0.465-1.043-0.606-0.355-0.14-0.703-0.211-1.043-0.211-0.625 0-1.121 0.211-1.484 0.633-0.36 0.418-0.539 1.035-0.539 1.848 0 0.789 0.176 1.394 0.527 1.82 0.356 0.422 0.856 0.633 1.496 0.633 0.223 0 0.449-0.027 0.68-0.086 0.23-0.059 0.437-0.137 0.621-0.231 0.16-0.082 0.309-0.168 0.449-0.257 0.141-0.094 0.254-0.172 0.336-0.239h0.059z"/><path d="m182.61 132.22c-0.207 0.055-0.433 0.101-0.679 0.137-0.242 0.035-0.457 0.05-0.649 0.05-0.668 0-1.176-0.179-1.523-0.539-0.348-0.359-0.524-0.933-0.524-1.726v-3.481h-0.742v-0.926h0.742v-1.882h1.102v1.882h2.273v0.926h-2.273v2.981c0 0.343 8e-3 0.613 0.023 0.808 0.016 0.192 0.071 0.371 0.164 0.539 0.086 0.157 0.204 0.274 0.352 0.348 0.152 0.07 0.383 0.106 0.691 0.106 0.18 0 0.368-0.028 0.563-0.079 0.195-0.054 0.336-0.097 0.422-0.132h0.058z"/><path d="m185.12 124.63h-1.242v-1.141h1.242zm-0.07 7.64h-1.102v-6.543h1.102z"/><path d="m192.81 129c0 1.066-0.273 1.91-0.82 2.527s-1.281 0.926-2.199 0.926c-0.926 0-1.66-0.309-2.207-0.926-0.543-0.617-0.816-1.461-0.816-2.527s0.273-1.906 0.816-2.524c0.547-0.621 1.281-0.933 2.207-0.933 0.918 0 1.652 0.312 2.199 0.933 0.547 0.618 0.82 1.458 0.82 2.524zm-1.136 0c0-0.848-0.168-1.477-0.5-1.887-0.332-0.414-0.793-0.621-1.383-0.621-0.598 0-1.063 0.207-1.395 0.621-0.328 0.41-0.492 1.039-0.492 1.887 0 0.82 0.168 1.445 0.5 1.871 0.332 0.422 0.793 0.633 1.387 0.633 0.586 0 1.047-0.211 1.379-0.629 0.336-0.422 0.504-1.047 0.504-1.875z"/><path d="m199.99 132.27h-1.101v-3.726c0-0.301-0.016-0.582-0.051-0.844-0.035-0.265-0.102-0.473-0.195-0.621-0.098-0.164-0.239-0.285-0.422-0.363-0.184-0.082-0.422-0.121-0.715-0.121-0.301 0-0.613 0.074-0.942 0.222-0.328 0.149-0.644 0.336-0.945 0.567v4.886h-1.101v-6.543h1.101v0.727c0.344-0.285 0.699-0.508 1.067-0.668 0.367-0.16 0.746-0.242 1.132-0.242 0.707 0 1.246 0.215 1.618 0.641 0.371 0.425 0.554 1.039 0.554 1.839z"/></g><path d="m107.38 77.383h117.71v124.46h-117.71z" fill="none" stroke="#535353" stroke-width="2.8346"/><g fill="#000000"><path d="m121.6 89.148h-5.75v-8.722h5.75v1.031h-4.59v2.391h4.59v1.031h-4.59v3.238h4.59z"/><path d="m129.02 89.148h-1.391l-1.855-2.511-1.872 2.511h-1.281l2.555-3.261-2.531-3.282h1.386l1.848 2.473 1.852-2.473h1.289l-2.575 3.223z"/><path d="m135.79 85.992h-4.824c0 0.403 0.062 0.754 0.183 1.055 0.122 0.297 0.29 0.539 0.5 0.73 0.2 0.188 0.442 0.328 0.719 0.422 0.281 0.094 0.59 0.141 0.926 0.141 0.445 0 0.891-0.086 1.344-0.262 0.449-0.18 0.773-0.355 0.965-0.527h0.058v1.199c-0.371 0.156-0.75 0.289-1.137 0.395-0.386 0.105-0.793 0.156-1.218 0.156-1.086 0-1.934-0.293-2.543-0.879-0.61-0.59-0.914-1.426-0.914-2.508 0-1.07 0.293-1.918 0.875-2.547 0.586-0.629 1.355-0.945 2.308-0.945 0.883 0 1.563 0.258 2.039 0.773 0.481 0.516 0.719 1.25 0.719 2.2zm-1.074-0.844c0-0.578-0.149-1.027-0.438-1.343-0.285-0.317-0.722-0.473-1.308-0.473-0.59 0-1.059 0.172-1.41 0.52-0.348 0.347-0.547 0.781-0.594 1.296z"/><path d="m142.3 88.738c-0.367 0.176-0.715 0.313-1.047 0.41-0.328 0.098-0.68 0.149-1.051 0.149-0.472 0-0.906-0.07-1.301-0.207-0.394-0.141-0.73-0.352-1.011-0.633-0.285-0.281-0.508-0.637-0.664-1.066-0.157-0.43-0.235-0.93-0.235-1.504 0-1.071 0.293-1.91 0.879-2.52 0.59-0.609 1.367-0.914 2.332-0.914 0.375 0 0.742 0.051 1.102 0.156 0.363 0.106 0.695 0.235 0.996 0.387v1.227h-0.059c-0.336-0.262-0.683-0.465-1.043-0.606-0.355-0.14-0.703-0.211-1.043-0.211-0.625 0-1.117 0.211-1.48 0.633-0.36 0.418-0.539 1.035-0.539 1.848 0 0.789 0.176 1.394 0.527 1.82 0.356 0.422 0.852 0.633 1.492 0.633 0.223 0 0.45-0.028 0.68-0.086 0.23-0.059 0.438-0.137 0.621-0.231 0.16-0.082 0.313-0.168 0.453-0.257 0.141-0.094 0.25-0.172 0.332-0.239h0.059z"/><path d="m149.14 89.148h-1.102v-0.726c-0.371 0.293-0.726 0.519-1.066 0.676-0.34 0.156-0.715 0.234-1.125 0.234-0.688 0-1.223-0.211-1.606-0.629-0.383-0.422-0.574-1.039-0.574-1.851v-4.247h1.102v3.727c0 0.332 0.015 0.617 0.046 0.856 0.032 0.234 0.098 0.433 0.2 0.601 0.105 0.172 0.242 0.297 0.41 0.375s0.41 0.117 0.73 0.117c0.286 0 0.598-0.074 0.934-0.222 0.34-0.149 0.656-0.336 0.949-0.567v-4.887h1.102z"/><path d="m154.7 89.09c-0.207 0.055-0.433 0.101-0.68 0.137-0.242 0.035-0.461 0.05-0.652 0.05-0.668 0-1.176-0.179-1.523-0.539-0.348-0.359-0.52-0.933-0.52-1.726v-3.481h-0.746v-0.926h0.746v-1.882h1.102v1.882h2.273v0.926h-2.273v2.981c0 0.343 8e-3 0.613 0.023 0.808 0.016 0.192 0.07 0.371 0.164 0.539 0.086 0.157 0.203 0.274 0.352 0.348 0.152 0.07 0.383 0.105 0.691 0.105 0.18 0 0.367-0.027 0.563-0.078 0.195-0.054 0.336-0.097 0.422-0.132h0.058z"/><path d="m161.61 85.879c0 1.066-0.273 1.91-0.82 2.527s-1.277 0.926-2.195 0.926c-0.926 0-1.664-0.309-2.211-0.926-0.543-0.617-0.813-1.461-0.813-2.527 0-1.067 0.27-1.906 0.813-2.524 0.547-0.621 1.285-0.933 2.211-0.933 0.918 0 1.648 0.312 2.195 0.933 0.547 0.618 0.82 1.457 0.82 2.524zm-1.136 0c0-0.848-0.164-1.477-0.496-1.887-0.332-0.414-0.793-0.621-1.383-0.621-0.598 0-1.063 0.207-1.395 0.621-0.328 0.41-0.492 1.039-0.492 1.887 0 0.82 0.164 1.445 0.496 1.871 0.332 0.422 0.797 0.633 1.391 0.633 0.586 0 1.043-0.211 1.375-0.629 0.336-0.422 0.504-1.047 0.504-1.875z"/><path d="m167.4 83.805h-0.058c-0.164-0.039-0.324-0.067-0.481-0.082-0.152-0.02-0.332-0.028-0.543-0.028-0.339 0-0.668 0.075-0.984 0.227-0.316 0.148-0.621 0.344-0.914 0.582v4.644h-1.102v-6.543h1.102v0.965c0.437-0.351 0.82-0.597 1.152-0.742 0.336-0.148 0.68-0.223 1.028-0.223 0.191 0 0.328 4e-3 0.414 0.016 0.086 8e-3 0.215 0.027 0.386 0.055z"/><path d="m178.45 83.062c0 0.387-0.066 0.747-0.203 1.079-0.133 0.328-0.32 0.613-0.562 0.855-0.301 0.301-0.657 0.527-1.067 0.68-0.41 0.148-0.929 0.222-1.555 0.222h-1.16v3.25h-1.16v-8.722h2.367c0.524 0 0.969 0.043 1.332 0.133 0.364 0.086 0.684 0.222 0.965 0.41 0.332 0.222 0.59 0.5 0.77 0.832 0.183 0.332 0.273 0.754 0.273 1.261zm-1.207 0.028c0-0.301-0.051-0.563-0.156-0.785-0.106-0.223-0.266-0.403-0.481-0.543-0.187-0.121-0.402-0.207-0.644-0.258-0.238-0.055-0.543-0.082-0.91-0.082h-1.149v3.484h0.981c0.469 0 0.847-0.039 1.14-0.121 0.293-0.086 0.532-0.223 0.715-0.406 0.184-0.188 0.313-0.383 0.387-0.59 0.078-0.207 0.117-0.441 0.117-0.699z"/><path d="m183.98 83.805h-0.059c-0.164-0.039-0.324-0.067-0.48-0.082-0.153-0.02-0.336-0.028-0.547-0.028-0.34 0-0.668 0.075-0.985 0.227-0.316 0.148-0.621 0.344-0.914 0.582v4.644h-1.101v-6.543h1.101v0.965c0.438-0.351 0.824-0.597 1.156-0.742 0.336-0.148 0.676-0.223 1.024-0.223 0.191 0 0.332 4e-3 0.418 0.016 0.086 8e-3 0.215 0.027 0.387 0.055z"/><path d="m190.59 85.879c0 1.066-0.274 1.91-0.82 2.527-0.547 0.617-1.278 0.926-2.196 0.926-0.926 0-1.664-0.309-2.211-0.926-0.543-0.617-0.812-1.461-0.812-2.527 0-1.067 0.269-1.906 0.812-2.524 0.547-0.621 1.285-0.933 2.211-0.933 0.918 0 1.649 0.312 2.196 0.933 0.546 0.618 0.82 1.457 0.82 2.524zm-1.137 0c0-0.848-0.164-1.477-0.496-1.887-0.332-0.414-0.793-0.621-1.383-0.621-0.597 0-1.062 0.207-1.394 0.621-0.328 0.41-0.492 1.039-0.492 1.887 0 0.82 0.164 1.445 0.496 1.871 0.332 0.422 0.796 0.633 1.39 0.633 0.586 0 1.043-0.211 1.375-0.629 0.336-0.422 0.504-1.047 0.504-1.875z"/><path d="m197.14 88.738c-0.367 0.176-0.719 0.313-1.051 0.41-0.328 0.098-0.676 0.149-1.047 0.149-0.473 0-0.906-0.07-1.301-0.207-0.394-0.141-0.734-0.352-1.015-0.633-0.285-0.281-0.504-0.637-0.661-1.066-0.156-0.43-0.234-0.93-0.234-1.504 0-1.071 0.293-1.91 0.879-2.52 0.59-0.609 1.367-0.914 2.332-0.914 0.375 0 0.742 0.051 1.102 0.156 0.363 0.106 0.695 0.235 0.996 0.387v1.227h-0.059c-0.336-0.262-0.683-0.465-1.043-0.606-0.355-0.14-0.703-0.211-1.043-0.211-0.625 0-1.121 0.211-1.484 0.633-0.36 0.418-0.539 1.035-0.539 1.848 0 0.789 0.176 1.394 0.527 1.82 0.356 0.422 0.856 0.633 1.496 0.633 0.223 0 0.449-0.028 0.68-0.086 0.23-0.059 0.437-0.137 0.621-0.231 0.16-0.082 0.309-0.168 0.449-0.257 0.141-0.094 0.254-0.172 0.336-0.239h0.059z"/><path d="m204.03 85.992h-4.824c0 0.403 0.063 0.754 0.184 1.055 0.121 0.297 0.285 0.539 0.496 0.73 0.203 0.188 0.445 0.328 0.722 0.422 0.282 0.094 0.59 0.141 0.926 0.141 0.446 0 0.891-0.086 1.34-0.262 0.453-0.18 0.777-0.355 0.969-0.527h0.058v1.199c-0.371 0.156-0.75 0.289-1.136 0.395-0.387 0.105-0.793 0.156-1.219 0.156-1.086 0-1.934-0.293-2.543-0.879-0.609-0.59-0.914-1.426-0.914-2.508 0-1.07 0.293-1.918 0.875-2.547 0.586-0.629 1.355-0.945 2.309-0.945 0.882 0 1.562 0.258 2.039 0.773 0.48 0.516 0.718 1.25 0.718 2.2zm-1.074-0.844c0-0.578-0.148-1.027-0.437-1.343-0.286-0.317-0.723-0.473-1.309-0.473-0.59 0-1.059 0.172-1.41 0.52-0.348 0.347-0.547 0.781-0.594 1.296z"/><path d="m210.37 87.262c0 0.597-0.246 1.09-0.742 1.472-0.492 0.383-1.168 0.575-2.024 0.575-0.484 0-0.929-0.059-1.335-0.172-0.403-0.117-0.739-0.242-1.012-0.379v-1.238h0.058c0.348 0.261 0.735 0.472 1.161 0.628 0.425 0.153 0.832 0.227 1.222 0.227 0.485 0 0.863-0.078 1.137-0.234 0.273-0.157 0.41-0.403 0.41-0.739 0-0.257-0.074-0.453-0.223-0.586-0.148-0.132-0.433-0.246-0.855-0.339-0.156-0.036-0.359-0.075-0.613-0.122-0.25-0.046-0.481-0.097-0.688-0.152-0.574-0.152-0.98-0.375-1.222-0.668-0.239-0.297-0.36-0.66-0.36-1.09 0-0.269 0.055-0.523 0.164-0.761 0.113-0.239 0.285-0.454 0.512-0.641 0.219-0.184 0.496-0.328 0.832-0.434 0.34-0.109 0.719-0.164 1.137-0.164 0.39 0 0.785 0.051 1.183 0.149 0.403 0.094 0.735 0.207 1 0.344v1.179h-0.058c-0.282-0.207-0.621-0.383-1.024-0.523-0.402-0.145-0.797-0.215-1.183-0.215-0.403 0-0.743 0.078-1.02 0.234-0.277 0.153-0.418 0.379-0.418 0.684 0 0.269 0.086 0.473 0.254 0.609 0.164 0.137 0.43 0.25 0.797 0.336 0.203 0.047 0.43 0.094 0.68 0.141 0.254 0.047 0.464 0.09 0.632 0.129 0.512 0.117 0.907 0.316 1.184 0.601 0.277 0.289 0.414 0.672 0.414 1.149z"/><path d="m216.62 87.262c0 0.597-0.25 1.09-0.746 1.472-0.492 0.383-1.164 0.575-2.02 0.575-0.484 0-0.929-0.059-1.336-0.172-0.402-0.117-0.742-0.242-1.015-0.379v-1.238h0.058c0.348 0.261 0.735 0.472 1.161 0.628 0.425 0.153 0.835 0.227 1.226 0.227 0.485 0 0.863-0.078 1.137-0.234 0.273-0.157 0.41-0.403 0.41-0.739 0-0.257-0.074-0.453-0.223-0.586-0.148-0.132-0.433-0.246-0.855-0.339-0.156-0.036-0.36-0.075-0.613-0.122-0.25-0.046-0.481-0.097-0.688-0.152-0.574-0.152-0.98-0.375-1.223-0.668-0.238-0.297-0.359-0.66-0.359-1.09 0-0.269 0.055-0.523 0.164-0.761 0.113-0.239 0.285-0.454 0.512-0.641 0.219-0.184 0.496-0.328 0.832-0.434 0.34-0.109 0.719-0.164 1.137-0.164 0.39 0 0.785 0.051 1.183 0.149 0.403 0.094 0.735 0.207 1 0.344v1.179h-0.058c-0.282-0.207-0.621-0.383-1.024-0.523-0.402-0.145-0.797-0.215-1.183-0.215-0.403 0-0.743 0.078-1.02 0.234-0.277 0.153-0.418 0.379-0.418 0.684 0 0.269 0.086 0.473 0.254 0.609 0.164 0.137 0.43 0.25 0.797 0.336 0.203 0.047 0.43 0.094 0.68 0.141 0.253 0.047 0.464 0.09 0.632 0.129 0.512 0.117 0.907 0.316 1.184 0.601 0.277 0.289 0.414 0.672 0.414 1.149z"/></g></g></svg>
