<?xml version="1.0" encoding="UTF-8"?>
<svg width="34.66mm" height="41.54mm" version="1.1" viewBox="0 0 34.66 41.54" xmlns="http://www.w3.org/2000/svg"><g transform="translate(-86.683 -127.23)"><path d="m86.683 127.23h34.66v41.54h-34.66z" fill="#ffffff"/><g transform="translate(72.095 -28.655)"><path transform="scale(1,-1)" d="m29.075-158.95a2 2 0 0 1-2 2 2 2 0 0 1-2-2 2 2 0 0 1 2-2 2 2 0 0 1 2 2z" stroke-width=".33701"/><path transform="scale(1,-1)" d="m28.704-158.95a1.6291 1.6291 0 0 1-1.6291 1.6291 1.6291 1.6291 0 0 1-1.6291-1.6291 1.6291 1.6291 0 0 1 1.6291-1.6291 1.6291 1.6291 0 0 1 1.6291 1.6291z" fill="#008000" stroke-width=".27451"/><g fill="#c80000" aria-label="R"><path d="m28.172 160.06h-0.39842l-0.77205-0.91777h-0.43253v0.91777h-0.30696v-2.3084h0.64647q0.20929 0 0.34882 0.0279 0.13953 0.0264 0.25115 0.0961 0.12557 0.0791 0.19534 0.19999 0.07131 0.11937 0.07131 0.30386 0 0.24959-0.12557 0.41858-0.12557 0.16743-0.34572 0.25269zm-0.71779-1.6588q0-0.0992-0.03566-0.17518-0.03411-0.0775-0.11472-0.13023-0.06666-0.045-0.15813-0.062-0.09147-0.0186-0.21549-0.0186h-0.36122v0.87126h0.31006q0.14573 0 0.25425-0.0248 0.10852-0.0264 0.18448-0.0961 0.06976-0.0651 0.10232-0.14883 0.03411-0.0853 0.03411-0.21549z" fill="#ffffff"/></g></g><g transform="translate(72.096 -9.6718)"><path transform="scale(1,-1)" d="m29.075-143.95a2 2 0 0 1-2 2 2 2 0 0 1-2-2 2 2 0 0 1 2-2 2 2 0 0 1 2 2z" stroke-width=".33701"/><path transform="scale(1,-1)" d="m28.704-143.95a1.6291 1.6291 0 0 1-1.6291 1.6291 1.6291 1.6291 0 0 1-1.6291-1.6291 1.6291 1.6291 0 0 1 1.6291-1.6291 1.6291 1.6291 0 0 1 1.6291 1.6291z" fill="#c80000" stroke-width=".27451"/><g fill="#c80000" stroke-width=".88638" aria-label="W"><path d="m28.35 143.01-0.5318 2.0461h-0.30644l-0.43011-1.6984-0.42049 1.6984h-0.29956l-0.54142-2.0461h0.27895l0.43011 1.7012 0.42324-1.7012h0.2762l0.42736 1.7177 0.42736-1.7177z" fill="#ffffff"/></g></g><g fill="#000000" aria-label="May Happen Before"><path d="m90.591 138.77h-0.30696v-1.989l-0.64182 1.3534h-0.18293l-0.63717-1.3534v1.989h-0.2868v-2.3084h0.41858l0.61547 1.2852 0.59531-1.2852h0.42633z"/><path d="m92.533 138.77h-0.2899v-0.18448q-0.03876 0.0264-0.10542 0.0744-0.06511 0.0465-0.12712 0.0744-0.07286 0.0357-0.16743 0.0589-0.09457 0.0248-0.22169 0.0248-0.23409 0-0.39688-0.15503t-0.16278-0.39532q0-0.19689 0.08372-0.31781 0.08527-0.12248 0.24185-0.19224 0.15813-0.0698 0.37982-0.0946t0.47594-0.0372v-0.045q0-0.0992-0.03566-0.16433-0.03411-0.0651-0.09922-0.10232-0.06201-0.0357-0.14883-0.0481-0.08682-0.0124-0.18138-0.0124-0.11472 0-0.2558 0.031-0.14108 0.0295-0.29146 0.0868h-0.0155v-0.29611q0.08527-0.0233 0.2465-0.0512 0.16123-0.0279 0.31781-0.0279 0.18294 0 0.31781 0.031 0.13643 0.0295 0.23564 0.10232 0.09767 0.0713 0.14883 0.18449 0.05116 0.11317 0.05116 0.2806zm-0.2899-0.42633v-0.48214q-0.13333 8e-3 -0.31471 0.0233-0.17983 0.0155-0.28525 0.045-0.12557 0.0357-0.20309 0.11163-0.07751 0.0744-0.07751 0.20618 0 0.14883 0.08992 0.2248 0.08992 0.0744 0.2744 0.0744 0.15348 0 0.2806-0.0589 0.12712-0.0605 0.23564-0.14418z"/><path d="m94.567 137.04-1.0108 2.3704h-0.31161l0.32246-0.72243-0.68988-1.648h0.31626l0.53175 1.2836 0.5364-1.2836z"/><path d="m97.854 138.77h-0.30696v-1.1302h-1.1519v1.1302h-0.30696v-2.3084h0.30696v0.90537h1.1519v-0.90537h0.30696z"/><path d="m99.796 138.77h-0.2899v-0.18448q-0.03876 0.0264-0.10542 0.0744-0.06511 0.0465-0.12712 0.0744-0.07286 0.0357-0.16743 0.0589-0.09457 0.0248-0.22169 0.0248-0.23409 0-0.39688-0.15503t-0.16278-0.39532q0-0.19689 0.08372-0.31781 0.08527-0.12248 0.24185-0.19224 0.15813-0.0698 0.37982-0.0946t0.47594-0.0372v-0.045q0-0.0992-0.03566-0.16433-0.03411-0.0651-0.09922-0.10232-0.06201-0.0357-0.14883-0.0481-0.08682-0.0124-0.18138-0.0124-0.11472 0-0.2558 0.031-0.14108 0.0295-0.29146 0.0868h-0.0155v-0.29611q0.08527-0.0233 0.2465-0.0512 0.16123-0.0279 0.31781-0.0279 0.18294 0 0.31781 0.031 0.13643 0.0295 0.23564 0.10232 0.09767 0.0713 0.14883 0.18449 0.05116 0.11317 0.05116 0.2806zm-0.2899-0.42633v-0.48214q-0.13333 8e-3 -0.31471 0.0233-0.17983 0.0155-0.28525 0.045-0.12557 0.0357-0.20309 0.11163-0.07751 0.0744-0.07751 0.20618 0 0.14883 0.08992 0.2248 0.08992 0.0744 0.2744 0.0744 0.15348 0 0.2806-0.0589 0.12712-0.0605 0.23564-0.14418z"/><path d="m101.88 137.89q0 0.21084-0.0605 0.38602-0.0605 0.17363-0.17053 0.29455-0.10232 0.11473-0.24184 0.17829-0.13798 0.062-0.29301 0.062-0.13488 0-0.24495-0.0295-0.10852-0.0294-0.22169-0.0915v0.72553h-0.29145v-2.3704h0.29145v0.18138q0.11627-0.0977 0.26045-0.16278 0.14573-0.0667 0.31006-0.0667 0.31316 0 0.48679 0.23719 0.17518 0.23565 0.17518 0.65578zm-0.30075 8e-3q0-0.31316-0.10697-0.46819t-0.32866-0.15503q-0.12558 0-0.2527 0.0543-0.12713 0.0543-0.2434 0.14263v0.98133q0.12403 0.0558 0.21239 0.076 0.0899 0.0202 0.20309 0.0202 0.2434 0 0.37982-0.16433 0.13643-0.16433 0.13643-0.48679z"/><path d="m103.86 137.89q0 0.21084-0.0605 0.38602-0.0605 0.17363-0.17053 0.29455-0.10232 0.11473-0.24185 0.17829-0.13798 0.062-0.29301 0.062-0.13487 0-0.24494-0.0295-0.10852-0.0294-0.22169-0.0915v0.72553h-0.29146v-2.3704h0.29146v0.18138q0.11627-0.0977 0.26045-0.16278 0.14572-0.0667 0.31005-0.0667 0.31316 0 0.4868 0.23719 0.17518 0.23565 0.17518 0.65578zm-0.30076 8e-3q0-0.31316-0.10697-0.46819t-0.32866-0.15503q-0.12557 0-0.2527 0.0543-0.12712 0.0543-0.24339 0.14263v0.98133q0.12402 0.0558 0.21239 0.076 0.0899 0.0202 0.20308 0.0202 0.2434 0 0.37983-0.16433 0.13642-0.16433 0.13642-0.48679z"/><path d="m105.76 137.94h-1.2759q0 0.15968 0.0481 0.27905 0.048 0.11782 0.13177 0.19378 0.0806 0.0744 0.19069 0.11163 0.11162 0.0372 0.24494 0.0372 0.17674 0 0.35502-0.0698 0.17983-0.0713 0.2558-0.13953h0.0155v0.31781q-0.14728 0.062-0.30076 0.10387-0.15347 0.0419-0.32246 0.0419-0.43098 0-0.67282-0.23254-0.24185-0.2341-0.24185-0.66353 0-0.42478 0.23099-0.67438 0.23255-0.24959 0.61082-0.24959 0.35037 0 0.5395 0.20464 0.19069 0.20463 0.19069 0.58136zm-0.28371-0.22325q-2e-3 -0.22944-0.11627-0.35501-0.11317-0.12558-0.34571-0.12558-0.2341 0-0.37362 0.13798-0.13798 0.13797-0.15658 0.34261z"/><path d="m107.65 138.77h-0.29146v-0.98598q0-0.11938-0.0139-0.22325-0.014-0.10542-0.0512-0.16433-0.0388-0.0651-0.11162-0.0961-0.0729-0.0326-0.18914-0.0326-0.11937 0-0.2496 0.0589-0.13022 0.0589-0.24959 0.15038v1.2929h-0.29146v-1.7317h0.29146v0.19223q0.13642-0.11317 0.28215-0.17673 0.14573-0.0636 0.29921-0.0636 0.2806 0 0.42788 0.16898t0.14728 0.48679z"/><path d="m111.09 138.06q0 0.17208-0.0651 0.30386-0.0651 0.13177-0.17518 0.21704-0.13022 0.10232-0.2868 0.14572-0.15503 0.0434-0.39533 0.0434h-0.81855v-2.3084h0.68368q0.25269 0 0.37827 0.0186 0.12557 0.0186 0.24029 0.0775 0.12713 0.0667 0.18449 0.17209 0.0574 0.10387 0.0574 0.24959 0 0.16434-0.0837 0.28061-0.0837 0.11472-0.22324 0.18448v0.0124q0.23409 0.0481 0.36897 0.20619 0.13488 0.15658 0.13488 0.39688zm-0.51625-1.0402q0-0.0837-0.0279-0.14107-0.0279-0.0574-0.0899-0.093-0.0729-0.0419-0.17674-0.0512-0.10387-0.0109-0.25735-0.0109h-0.36587v0.66662h0.39688q0.14418 0 0.22944-0.0139 0.0853-0.0155 0.15813-0.062 0.0729-0.0465 0.10232-0.11937 0.031-0.0744 0.031-0.17519zm0.19689 1.0526q0-0.13953-0.0419-0.22169-0.0419-0.0822-0.15193-0.13953-0.0744-0.0387-0.18139-0.0496-0.10542-0.0124-0.25734-0.0124h-0.48215v0.85886h0.40618q0.20154 0 0.33021-0.0202 0.12868-0.0217 0.21084-0.0775 0.0868-0.0605 0.12713-0.13798 0.0403-0.0775 0.0403-0.19999z"/><path d="m112.96 137.94h-1.2759q0 0.15968 0.0481 0.27905 0.048 0.11782 0.13177 0.19378 0.0806 0.0744 0.19069 0.11163 0.11162 0.0372 0.24494 0.0372 0.17674 0 0.35502-0.0698 0.17983-0.0713 0.2558-0.13953h0.0155v0.31781q-0.14728 0.062-0.30076 0.10387-0.15348 0.0419-0.32246 0.0419-0.43098 0-0.67282-0.23254-0.24185-0.2341-0.24185-0.66353 0-0.42478 0.23099-0.67438 0.23255-0.24959 0.61082-0.24959 0.35037 0 0.5395 0.20464 0.19069 0.20463 0.19069 0.58136zm-0.28371-0.22325q-2e-3 -0.22944-0.11627-0.35501-0.11317-0.12558-0.34571-0.12558-0.2341 0-0.37362 0.13798-0.13798 0.13797-0.15658 0.34261z"/><path d="m114.33 136.64h-0.0155q-0.0481-0.0139-0.12557-0.0279-0.0775-0.0155-0.13643-0.0155-0.18758 0-0.27285 0.0837-0.0837 0.0822-0.0837 0.2992v0.0589h0.52555v0.24494h-0.51625v1.4867h-0.29146v-1.4867h-0.19688v-0.24494h0.19688v-0.0574q0-0.3085 0.15348-0.47283 0.15348-0.16589 0.44339-0.16589 0.0977 0 0.17518 9e-3 0.0791 9e-3 0.14418 0.0217z"/><path d="m115.99 137.91q0 0.42323-0.21704 0.66818-0.21704 0.24494-0.58136 0.24494-0.36742 0-0.58446-0.24494-0.21549-0.24495-0.21549-0.66818t0.21549-0.66818q0.21704-0.24649 0.58446-0.24649 0.36432 0 0.58136 0.24649 0.21704 0.24495 0.21704 0.66818zm-0.30076 0q0-0.33641-0.13177-0.49919-0.13178-0.16434-0.36587-0.16434-0.2372 0-0.36897 0.16434-0.13022 0.16278-0.13022 0.49919 0 0.32556 0.13177 0.49454 0.13178 0.16743 0.36742 0.16743 0.23254 0 0.36432-0.16588 0.13332-0.16743 0.13332-0.49609z"/><path d="m117.52 137.36h-0.0155q-0.0651-0.0155-0.12713-0.0217-0.0605-8e-3 -0.14417-8e-3 -0.13488 0-0.26045 0.0605-0.12558 0.0589-0.24185 0.15348v1.2294h-0.29145v-1.7317h0.29145v0.25579q0.17363-0.13952 0.30541-0.19688 0.13332-0.0589 0.2713-0.0589 0.076 0 0.11007 5e-3 0.0341 3e-3 0.10232 0.0139z"/><path d="m119.25 137.94h-1.2759q0 0.15968 0.0481 0.27905 0.0481 0.11782 0.13178 0.19378 0.0806 0.0744 0.19069 0.11163 0.11162 0.0372 0.24494 0.0372 0.17674 0 0.35502-0.0698 0.17983-0.0713 0.2558-0.13953h0.0155v0.31781q-0.14728 0.062-0.30076 0.10387-0.15348 0.0419-0.32246 0.0419-0.43098 0-0.67282-0.23254-0.24185-0.2341-0.24185-0.66353 0-0.42478 0.23099-0.67438 0.23255-0.24959 0.61082-0.24959 0.35036 0 0.5395 0.20464 0.19069 0.20463 0.19069 0.58136zm-0.28371-0.22325q-2e-3 -0.22944-0.11627-0.35501-0.11317-0.12558-0.34571-0.12558-0.2341 0-0.37362 0.13798-0.13798 0.13797-0.15658 0.34261z"/></g><path d="m90.592 140.61v0.5h28.373v-0.5z" color="#000000" fill="#000000" style="-inkscape-stroke:none"/><g fill="#000000" fill-rule="evenodd"><path d="m119.87 140.86-1.35 0.78037v-1.5607z" color="#000000" stroke-width=".15607pt" style="-inkscape-stroke:none"/><path d="m118.41 139.9v1.9219l1.6602-0.96094-0.1543-0.0898zm0.20703 0.36133 1.0371 0.59961-1.0371 0.60156z" color="#000000" style="-inkscape-stroke:none"/></g><g fill="#000000"><g aria-label="Read"><path d="m90.445 131.68h-0.39842l-0.77205-0.91778h-0.43253v0.91778h-0.30696v-2.3084h0.64647q0.20929 0 0.34882 0.0279 0.13953 0.0264 0.25115 0.0961 0.12557 0.0791 0.19534 0.19999 0.07131 0.11937 0.07131 0.30386 0 0.2496-0.12557 0.41858-0.12557 0.16743-0.34572 0.25269zm-0.71779-1.6588q0-0.0992-0.03566-0.17518-0.03411-0.0775-0.11472-0.13023-0.06666-0.045-0.15813-0.062-0.09147-0.0186-0.21549-0.0186h-0.36122v0.87126h0.31006q0.14573 0 0.25425-0.0248 0.10852-0.0264 0.18448-0.0961 0.06976-0.0651 0.10232-0.14883 0.03411-0.0853 0.03411-0.21549z"/><path d="m92.091 130.85h-1.2759q0 0.15968 0.04806 0.27905 0.04806 0.11782 0.13178 0.19379 0.08062 0.0744 0.19069 0.11162 0.11162 0.0372 0.24495 0.0372 0.17673 0 0.35502-0.0698 0.17983-0.0713 0.2558-0.13952h0.0155v0.31781q-0.14728 0.062-0.30076 0.10387-0.15348 0.0418-0.32246 0.0418-0.43098 0-0.67283-0.23254-0.24184-0.23409-0.24184-0.66353 0-0.42478 0.23099-0.67437 0.23254-0.2496 0.61082-0.2496 0.35037 0 0.5395 0.20464 0.19069 0.20464 0.19069 0.58136zm-0.2837-0.22324q-0.0015-0.22945-0.11627-0.35502-0.11317-0.12558-0.34572-0.12558-0.23409 0-0.37362 0.13798-0.13798 0.13798-0.15658 0.34262z"/><path d="m93.879 131.68h-0.2899v-0.18449q-0.03876 0.0264-0.10542 0.0744-0.06511 0.0465-0.12712 0.0744-0.07286 0.0357-0.16743 0.0589-0.09457 0.0248-0.22169 0.0248-0.23409 0-0.39688-0.15502-0.16278-0.15503-0.16278-0.39533 0-0.19689 0.08372-0.31781 0.08527-0.12247 0.24185-0.19224 0.15813-0.0698 0.37982-0.0946t0.47594-0.0372v-0.045q0-0.0992-0.03566-0.16433-0.03411-0.0651-0.09922-0.10232-0.06201-0.0357-0.14883-0.0481-0.08682-0.0124-0.18138-0.0124-0.11472 0-0.2558 0.031-0.14108 0.0295-0.29146 0.0868h-0.0155v-0.2961q0.08527-0.0233 0.2465-0.0512 0.16123-0.0279 0.31781-0.0279 0.18294 0 0.31781 0.031 0.13643 0.0294 0.23564 0.10232 0.09767 0.0713 0.14883 0.18448 0.05116 0.11317 0.05116 0.2806zm-0.2899-0.42633v-0.48215q-0.13333 8e-3 -0.31471 0.0233-0.17983 0.0155-0.28525 0.045-0.12557 0.0357-0.20309 0.11162-0.07751 0.0744-0.07751 0.20619 0 0.14883 0.08992 0.22479 0.08992 0.0744 0.2744 0.0744 0.15348 0 0.2806-0.0589 0.12712-0.0605 0.23564-0.14417z"/><path d="m95.844 131.68h-0.29146v-0.18139q-0.12557 0.10852-0.262 0.16898-0.13642 0.0605-0.29611 0.0605-0.31006 0-0.49299-0.23874-0.18138-0.23875-0.18138-0.66198 0-0.22014 0.06201-0.39222 0.06356-0.17208 0.17053-0.293 0.10542-0.11783 0.24495-0.17984 0.14108-0.062 0.29146-0.062 0.13643 0 0.24185 0.0295 0.10542 0.0279 0.22169 0.0884v-0.75034h0.29146zm-0.29146-0.42633v-0.99374q-0.11782-0.0527-0.21084-0.0729-0.09302-0.0202-0.20309-0.0202-0.24495 0-0.38137 0.17053-0.13643 0.17053-0.13643 0.48369 0 0.30851 0.10542 0.46974 0.10542 0.15968 0.33796 0.15968 0.12402 0 0.25115-0.0543 0.12712-0.0558 0.2372-0.14262z"/></g><g aria-label="Write"><path d="m91.389 133.02-0.59996 2.3084h-0.34572l-0.48524-1.9162-0.47439 1.9162h-0.33796l-0.61082-2.3084h0.31471l0.48524 1.9193 0.47749-1.9193h0.31161l0.48214 1.9379 0.48214-1.9379z"/><path d="m92.806 133.92h-0.0155q-0.06511-0.0155-0.12712-0.0217-0.06046-8e-3 -0.14418-8e-3 -0.13488 0-0.26045 0.0605-0.12557 0.0589-0.24185 0.15348v1.2294h-0.29146v-1.7317h0.29146v0.2558q0.17363-0.13953 0.30541-0.19689 0.13332-0.0589 0.2713-0.0589 0.07596 0 0.11007 5e-3 0.03411 3e-3 0.10232 0.0139z"/><path d="m93.393 133.31h-0.32866v-0.3023h0.32866zm-0.0186 2.0216h-0.29146v-1.7317h0.29146z"/><path d="m94.851 135.31q-0.08216 0.0217-0.17983 0.0357-0.09612 0.0139-0.17208 0.0139-0.2651 0-0.40308-0.14263-0.13798-0.14262-0.13798-0.45733v-0.92088h-0.19689v-0.24494h0.19689v-0.49765h0.29146v0.49765h0.60151v0.24494h-0.60151v0.7891q0 0.13643 0.0062 0.21394 0.0062 0.076 0.04341 0.14263 0.03411 0.062 0.09302 0.0915 0.06046 0.0279 0.18293 0.0279 0.07131 0 0.14883-0.0202 0.07752-0.0217 0.11162-0.0357h0.0155z"/><path d="m96.652 134.49h-1.2759q0 0.15968 0.04806 0.27905 0.04806 0.11782 0.13178 0.19379 0.08061 0.0744 0.19069 0.11162 0.11162 0.0372 0.24495 0.0372 0.17673 0 0.35502-0.0698 0.17983-0.0713 0.2558-0.13953h0.0155v0.31781q-0.14728 0.062-0.30076 0.10387-0.15348 0.0419-0.32246 0.0419-0.43098 0-0.67283-0.23254-0.24184-0.2341-0.24184-0.66353 0-0.42478 0.23099-0.67437 0.23254-0.2496 0.61082-0.2496 0.35037 0 0.5395 0.20464 0.19069 0.20464 0.19069 0.58136zm-0.2837-0.22325q-0.0016-0.22944-0.11627-0.35501-0.11317-0.12558-0.34572-0.12558-0.23409 0-0.37362 0.13798-0.13798 0.13798-0.15658 0.34261z"/></g><g aria-label="Transactions"><path d="m90.491 142.26h-0.82476v2.0355h-0.30696v-2.0355h-0.82476v-0.27285h1.9565z"/><path d="m91.549 142.88h-0.0155q-0.06511-0.0155-0.12712-0.0217-0.06046-8e-3 -0.14418-8e-3 -0.13488 0-0.26045 0.0605-0.12557 0.0589-0.24185 0.15348v1.2294h-0.29146v-1.7317h0.29146v0.2558q0.17363-0.13953 0.30541-0.19689 0.13332-0.0589 0.2713-0.0589 0.07596 0 0.11007 5e-3 0.03411 3e-3 0.10232 0.0139z"/><path d="m93.113 144.29h-0.2899v-0.18449q-0.03876 0.0264-0.10542 0.0744-0.06511 0.0465-0.12712 0.0744-0.07286 0.0357-0.16743 0.0589-0.09457 0.0248-0.22169 0.0248-0.23409 0-0.39688-0.15503t-0.16278-0.39533q0-0.19688 0.08372-0.31781 0.08527-0.12247 0.24185-0.19223 0.15813-0.0698 0.37982-0.0946t0.47594-0.0372v-0.045q0-0.0992-0.03566-0.16433-0.03411-0.0651-0.09922-0.10232-0.06201-0.0357-0.14883-0.0481-0.08682-0.0124-0.18138-0.0124-0.11472 0-0.2558 0.031-0.14108 0.0294-0.29146 0.0868h-0.0155v-0.2961q0.08527-0.0233 0.2465-0.0512 0.16123-0.0279 0.31781-0.0279 0.18293 0 0.31781 0.031 0.13643 0.0294 0.23564 0.10232 0.09767 0.0713 0.14883 0.18448 0.05116 0.11317 0.05116 0.28061zm-0.2899-0.42633v-0.48214q-0.13332 8e-3 -0.31471 0.0233-0.17983 0.0155-0.28525 0.045-0.12557 0.0357-0.20309 0.11162-0.07752 0.0744-0.07752 0.20619 0 0.14883 0.08992 0.22479 0.08992 0.0744 0.2744 0.0744 0.15348 0 0.2806-0.0589 0.12712-0.0605 0.23564-0.14417z"/><path d="m95.122 144.29h-0.29146v-0.98599q0-0.11937-0.01395-0.22324-0.01395-0.10542-0.05116-0.16433-0.03876-0.0651-0.11162-0.0961-0.07286-0.0326-0.18914-0.0326-0.11937 0-0.2496 0.0589-0.13022 0.0589-0.2496 0.15038v1.293h-0.29146v-1.7317h0.29146v0.19224q0.13643-0.11317 0.28215-0.17674 0.14573-0.0636 0.29921-0.0636 0.2806 0 0.42788 0.16898 0.14728 0.16899 0.14728 0.4868z"/><path d="m96.92 143.79q0 0.2372-0.19689 0.38913-0.19534 0.15193-0.53485 0.15193-0.19224 0-0.35347-0.045-0.15968-0.0465-0.2682-0.10077v-0.32711h0.0155q0.13798 0.10387 0.30696 0.16588 0.16898 0.0605 0.32401 0.0605 0.19224 0 0.30076-0.062 0.10852-0.062 0.10852-0.19534 0-0.10232-0.05891-0.15503-0.05891-0.0527-0.22634-0.0899-0.06201-0.014-0.16278-0.0326-0.09922-0.0186-0.18138-0.0403-0.22789-0.0605-0.32401-0.17673-0.09457-0.11783-0.09457-0.28836 0-0.10697 0.04341-0.20154 0.04496-0.0946 0.13488-0.16898 0.08682-0.0729 0.22014-0.11472 0.13488-0.0434 0.30076-0.0434 0.15503 0 0.31316 0.0388 0.15968 0.0372 0.2651 0.0915v0.31161h-0.0155q-0.11162-0.0822-0.2713-0.13798-0.15968-0.0574-0.31316-0.0574-0.15968 0-0.26975 0.062-0.11007 0.0605-0.11007 0.18139 0 0.10697 0.06666 0.16123 0.06511 0.0543 0.21084 0.0884 0.08062 0.0186 0.17983 0.0372 0.10077 0.0186 0.16743 0.0341 0.20309 0.0465 0.31316 0.15968 0.11007 0.11472 0.11007 0.30385z"/><path d="m98.683 144.29h-0.2899v-0.18449q-0.03876 0.0264-0.10542 0.0744-0.06511 0.0465-0.12712 0.0744-0.07286 0.0357-0.16743 0.0589-0.09457 0.0248-0.22169 0.0248-0.2341 0-0.39688-0.15503-0.16278-0.15503-0.16278-0.39533 0-0.19688 0.08372-0.31781 0.08527-0.12247 0.24184-0.19223 0.15813-0.0698 0.37982-0.0946t0.47594-0.0372v-0.045q0-0.0992-0.03566-0.16433-0.03411-0.0651-0.09922-0.10232-0.06201-0.0357-0.14883-0.0481-0.08682-0.0124-0.18138-0.0124-0.11472 0-0.2558 0.031-0.14108 0.0294-0.29146 0.0868h-0.0155v-0.2961q0.08527-0.0233 0.2465-0.0512 0.16123-0.0279 0.31781-0.0279 0.18293 0 0.31781 0.031 0.13642 0.0294 0.23564 0.10232 0.09767 0.0713 0.14883 0.18448 0.05116 0.11317 0.05116 0.28061zm-0.2899-0.42633v-0.48214q-0.13332 8e-3 -0.31471 0.0233-0.17983 0.0155-0.28525 0.045-0.12557 0.0357-0.20309 0.11162-0.07751 0.0744-0.07751 0.20619 0 0.14883 0.08992 0.22479 0.08992 0.0744 0.2744 0.0744 0.15348 0 0.2806-0.0589 0.12712-0.0605 0.23564-0.14417z"/><path d="m100.52 144.18q-0.14573 0.0698-0.2775 0.10852-0.13023 0.0387-0.27751 0.0387-0.18758 0-0.34416-0.0543-0.15658-0.0558-0.2682-0.16743-0.11317-0.11162-0.17518-0.28215-0.06201-0.17053-0.06201-0.39843 0-0.42478 0.23254-0.66662 0.2341-0.24185 0.61702-0.24185 0.14883 0 0.29146 0.0419 0.14418 0.0419 0.26355 0.10232v0.32401h-0.0155q-0.13333-0.10387-0.27596-0.15968-0.14107-0.0558-0.27595-0.0558-0.24805 0-0.39222 0.16743-0.14263 0.16588-0.14263 0.48834 0 0.31316 0.13953 0.48215 0.14108 0.16743 0.39532 0.16743 0.08837 0 0.17983-0.0233 0.0915-0.0233 0.16434-0.0605 0.0636-0.0326 0.11937-0.0682 0.0558-0.0372 0.0884-0.0636h0.0155z"/><path d="m101.8 144.28q-0.0822 0.0217-0.17983 0.0357-0.0961 0.0139-0.17209 0.0139-0.2651 0-0.40307-0.14262-0.13798-0.14263-0.13798-0.45734v-0.92087h-0.19689v-0.24495h0.19689v-0.49764h0.29146v0.49764h0.60151v0.24495h-0.60151v0.7891q0 0.13642 6e-3 0.21394 6e-3 0.076 0.0434 0.14262 0.0341 0.062 0.093 0.0915 0.0605 0.0279 0.18294 0.0279 0.0713 0 0.14883-0.0202 0.0775-0.0217 0.11162-0.0357h0.0155z"/><path d="m102.46 142.27h-0.32866v-0.30231h0.32866zm-0.0186 2.0216h-0.29145v-1.7317h0.29145z"/><path d="m104.5 143.43q0 0.42323-0.21704 0.66818t-0.58136 0.24495q-0.36742 0-0.58446-0.24495-0.21549-0.24495-0.21549-0.66818t0.21549-0.66817q0.21704-0.2465 0.58446-0.2465 0.36432 0 0.58136 0.2465 0.21704 0.24494 0.21704 0.66817zm-0.30076 0q0-0.33641-0.13177-0.49919-0.13178-0.16433-0.36587-0.16433-0.2372 0-0.36897 0.16433-0.13023 0.16278-0.13023 0.49919 0 0.32557 0.13178 0.49455 0.13177 0.16743 0.36742 0.16743 0.23254 0 0.36432-0.16588 0.13332-0.16743 0.13332-0.4961z"/><path d="m106.4 144.29h-0.29146v-0.98599q0-0.11937-0.014-0.22324-0.0139-0.10542-0.0512-0.16433-0.0388-0.0651-0.11162-0.0961-0.0729-0.0326-0.18914-0.0326-0.11937 0-0.24959 0.0589-0.13023 0.0589-0.2496 0.15038v1.293h-0.29146v-1.7317h0.29146v0.19224q0.13642-0.11317 0.28215-0.17674 0.14573-0.0636 0.29921-0.0636 0.2806 0 0.42788 0.16898 0.14728 0.16899 0.14728 0.4868z"/><path d="m108.19 143.79q0 0.2372-0.19689 0.38913-0.19534 0.15193-0.53485 0.15193-0.19224 0-0.35347-0.045-0.15968-0.0465-0.2682-0.10077v-0.32711h0.0155q0.13798 0.10387 0.30696 0.16588 0.16898 0.0605 0.32401 0.0605 0.19224 0 0.30076-0.062t0.10852-0.19534q0-0.10232-0.0589-0.15503-0.0589-0.0527-0.22634-0.0899-0.062-0.014-0.16278-0.0326-0.0992-0.0186-0.18139-0.0403-0.22789-0.0605-0.32401-0.17673-0.0946-0.11783-0.0946-0.28836 0-0.10697 0.0434-0.20154 0.045-0.0946 0.13488-0.16898 0.0868-0.0729 0.22014-0.11472 0.13487-0.0434 0.30076-0.0434 0.15502 0 0.31315 0.0388 0.15968 0.0372 0.2651 0.0915v0.31161h-0.0155q-0.11162-0.0822-0.2713-0.13798-0.15968-0.0574-0.31316-0.0574-0.15968 0-0.26975 0.062-0.11007 0.0605-0.11007 0.18139 0 0.10697 0.0667 0.16123 0.0651 0.0543 0.21084 0.0884 0.0806 0.0186 0.17984 0.0372 0.10076 0.0186 0.16743 0.0341 0.20309 0.0465 0.31316 0.15968 0.11007 0.11472 0.11007 0.30385z"/></g></g><g transform="translate(42.847 -23.393)"><g transform="translate(-32.379 2.8467)"><path d="m82.75 166.33a4.1633 4.1633 0 0 0-4.1631 4.1631v12.49a4.1633 4.1633 0 0 0 4.1631 4.1641 4.1633 4.1633 0 0 0 4.1631-4.1641v-12.49a4.1633 4.1633 0 0 0-4.1631-4.1631z" color="#000000" fill="#ffffff" stroke-width="1.0408"/><path d="m82.75 165.81c-2.5804 1.6e-4 -4.6834 2.1032-4.6836 4.6836v12.49c-5.04e-4 2.5808 2.1028 4.6834 4.6836 4.6836 2.5808-1.6e-4 4.6841-2.1028 4.6836-4.6836v-12.49c-1.59e-4 -2.5804-2.1032-4.6834-4.6836-4.6836zm0 1.041c2.0179 1.2e-4 3.6425 1.6247 3.6426 3.6426v12.49c3.95e-4 2.0183-1.6243 3.6425-3.6426 3.6426-2.0183-1.2e-4 -3.643-1.6243-3.6426-3.6426v-12.49c1.24e-4 -2.0179 1.6247-3.6425 3.6426-3.6426z" color="#000000" fill="#000000"/></g><g transform="translate(-44.126 6.2177)"><path d="m105.1 162.96a4.1633 4.1633 0 0 0-4.1631 4.1631v12.49a4.1633 4.1633 0 0 0 4.1631 4.1641 4.1633 4.1633 0 0 0 4.1631-4.1641v-12.49a4.1633 4.1633 0 0 0-4.1631-4.1631z" color="#000000" fill="#ffffff" stroke-width="1.0408"/><path d="m105.1 162.44c-2.5804 1.5e-4 -4.6834 2.1032-4.6836 4.6836v12.49c-5e-4 2.5808 2.1028 4.6834 4.6836 4.6836 2.5808-1.5e-4 4.6841-2.1028 4.6836-4.6836v-12.49c-1.6e-4 -2.5804-2.1032-4.6834-4.6836-4.6836zm0 1.041c2.0179 1.1e-4 3.6424 1.6247 3.6426 3.6426v12.49c4e-4 2.0183-1.6243 3.6425-3.6426 3.6426-2.0183-1.2e-4 -3.643-1.6243-3.6426-3.6426v-12.49c1.2e-4 -2.0179 1.6247-3.6425 3.6426-3.6426z" color="#000000" fill="#000000"/><path d="m105.1 162.96a4.1633 4.1633 0 0 0-4.1631 4.1631v12.49a4.1633 4.1633 0 0 0 4.1631 4.1641 4.1633 4.1633 0 0 0 4.1631-4.1641v-12.49a4.1633 4.1633 0 0 0-4.1631-4.1631z" color="#000000" fill="#00efff" stroke-width="1.0408"/><path d="m105.1 162.44c-2.5804 1.5e-4 -4.6834 2.1032-4.6836 4.6836v12.49c-5e-4 2.5808 2.1028 4.6834 4.6836 4.6836 2.5808-1.5e-4 4.6841-2.1028 4.6836-4.6836v-12.49c-1.6e-4 -2.5804-2.1032-4.6834-4.6836-4.6836zm0 1.041c2.0179 1.1e-4 3.6424 1.6247 3.6426 3.6426v12.49c4e-4 2.0183-1.6243 3.6425-3.6426 3.6426-2.0183-1.2e-4 -3.643-1.6243-3.6426-3.6426v-12.49c1.2e-4 -2.0179 1.6247-3.6425 3.6426-3.6426z" color="#000000" fill="#000000"/></g><g transform="matrix(2.0817 0 0 2.0817 -179.4 -155.45)"><path d="m120.57 155.94a2 2 0 0 0-1.9999 1.9999v6.0002a2 2 0 0 0 1.9999 2.0004 2 2 0 0 0 1.9999-2.0004v-6.0002a2 2 0 0 0-1.9999-1.9999z" color="#000000" fill="#ffffff" stroke-width=".5"/><path d="m120.57 155.7c-1.2396 8e-5 -2.2499 1.0104-2.25 2.25v6c-2.4e-4 1.2398 1.0102 2.2499 2.25 2.25 1.2398-7e-5 2.2502-1.0102 2.25-2.25v-6c-7e-5 -1.2396-1.0104-2.2499-2.25-2.25zm0 0.5c0.96938 6e-5 1.7499 0.78063 1.75 1.75v6c1.9e-4 0.96955-0.78045 1.7499-1.75 1.75-0.96955-6e-5 -1.7502-0.78045-1.75-1.75v-6c6e-5 -0.96937 0.78063-1.7499 1.75-1.75z" color="#000000" fill="#000000"/><path d="m120.57 155.94a2 2 0 0 0-1.9999 1.9999v6.0002a2 2 0 0 0 1.9999 2.0004 2 2 0 0 0 1.9999-2.0004v-6.0002a2 2 0 0 0-1.9999-1.9999z" color="#000000" fill="#00efff" stroke-width=".5"/><path d="m120.57 155.7c-1.2396 8e-5 -2.2499 1.0104-2.25 2.25v6c-2.4e-4 1.2398 1.0102 2.2499 2.25 2.25 1.2398-7e-5 2.2502-1.0102 2.25-2.25v-6c-7e-5 -1.2396-1.0104-2.2499-2.25-2.25zm0 0.5c0.96938 6e-5 1.7499 0.78063 1.75 1.75v6c1.9e-4 0.96955-0.78045 1.7499-1.75 1.75-0.96955-6e-5 -1.7502-0.78045-1.75-1.75v-6c6e-5 -0.96937 0.78063-1.7499 1.75-1.75z" color="#000000" fill="#000000"/><g fill="#000000"><path d="m120.57 155.94a2 2 0 0 0-1.9999 1.9999v6.0002a2 2 0 0 0 1.9999 2.0004 2 2 0 0 0 1.9999-2.0004v-6.0002a2 2 0 0 0-1.9999-1.9999z" color="#000000" stroke-width="0"/><path d="m120.57 155.94c-1.1045 7e-5 -1.9998 0.89541-1.9999 1.9999v6.0002c-2.2e-4 1.1047 0.89521 2.0003 1.9999 2.0004 1.1047-7e-5 2.0001-0.89572 1.9999-2.0004v-6.0002c-7e-5 -1.1045-0.89541-1.9998-1.9999-1.9999z" color="#000000"/></g></g><g transform="rotate(90)" fill="#000000" aria-label="Unexecuted"><path d="m172.27-50.117q0 0.25115-0.0558 0.43873-0.0543 0.18604-0.17984 0.31006-0.11937 0.11782-0.27905 0.17208t-0.37207 0.05426q-0.21704 0-0.37827-0.05736t-0.2713-0.16898q-0.12558-0.12712-0.18139-0.30696-0.0543-0.17983-0.0543-0.44183v-1.3813h0.30696v1.3968q0 0.18758 0.0248 0.29611 0.0263 0.10852 0.0868 0.19689 0.0682 0.10077 0.18449 0.15193 0.11782 0.05116 0.28215 0.05116 0.16588 0 0.28215-0.04961 0.11628-0.05116 0.18604-0.15348 0.0605-0.08837 0.0853-0.20154 0.0263-0.11472 0.0263-0.2837v-1.4046h0.30696z"/><path d="m174.28-49.189h-0.29146v-0.98599q0-0.11937-0.0139-0.22324-0.0139-0.10542-0.0512-0.16433-0.0388-0.06511-0.11162-0.09612-0.0729-0.03256-0.18914-0.03256-0.11937 0-0.24959 0.05891-0.13023 0.05891-0.2496 0.15038v1.2929h-0.29146v-1.7317h0.29146v0.19224q0.13643-0.11317 0.28215-0.17673 0.14573-0.06356 0.29921-0.06356 0.2806 0 0.42788 0.16898t0.14728 0.48679z"/><path d="m176.29-50.025h-1.2759q0 0.15968 0.0481 0.27905 0.0481 0.11782 0.13177 0.19379 0.0806 0.07441 0.19069 0.11162 0.11162 0.03721 0.24494 0.03721 0.17674 0 0.35502-0.06976 0.17983-0.07131 0.2558-0.13953h0.0155v0.31781q-0.14728 0.06201-0.30076 0.10387-0.15347 0.04186-0.32246 0.04186-0.43098 0-0.67282-0.23254-0.24185-0.2341-0.24185-0.66353 0-0.42478 0.23099-0.67438 0.23255-0.2496 0.61082-0.2496 0.35037 0 0.5395 0.20464 0.19069 0.20464 0.19069 0.58136zm-0.28371-0.22324q-2e-3 -0.22944-0.11627-0.35502-0.11317-0.12557-0.34571-0.12557-0.2341 0-0.37362 0.13798-0.13798 0.13798-0.15658 0.34262z"/><path d="m178.23-49.189h-0.36741l-0.49145-0.66508-0.49454 0.66508h-0.33952l0.67593-0.86351-0.66972-0.86816h0.36742l0.48834 0.65422 0.48989-0.65422h0.34106l-0.68057 0.85266z"/><path d="m180.02-50.025h-1.2759q0 0.15968 0.0481 0.27905 0.0481 0.11782 0.13178 0.19379 0.0806 0.07441 0.19068 0.11162 0.11162 0.03721 0.24495 0.03721 0.17673 0 0.35502-0.06976 0.17983-0.07131 0.25579-0.13953h0.0155v0.31781q-0.14728 0.06201-0.30076 0.10387t-0.32246 0.04186q-0.43098 0-0.67283-0.23254-0.24184-0.2341-0.24184-0.66353 0-0.42478 0.23099-0.67438 0.23254-0.2496 0.61082-0.2496 0.35036 0 0.5395 0.20464 0.19068 0.20464 0.19068 0.58136zm-0.2837-0.22324q-2e-3 -0.22944-0.11627-0.35502-0.11317-0.12557-0.34572-0.12557-0.23409 0-0.37362 0.13798-0.13797 0.13798-0.15658 0.34262z"/><path d="m181.74-49.298q-0.14573 0.06976-0.2775 0.10852-0.13023 0.03876-0.27751 0.03876-0.18758 0-0.34416-0.05426-0.15658-0.05581-0.2682-0.16743-0.11317-0.11162-0.17519-0.28215-0.062-0.17053-0.062-0.39842 0-0.42478 0.23255-0.66663 0.23409-0.24185 0.61701-0.24185 0.14883 0 0.29146 0.04186 0.14418 0.04186 0.26355 0.10232v0.32401h-0.0155q-0.13333-0.10387-0.27596-0.15968-0.14107-0.05581-0.27595-0.05581-0.24805 0-0.39222 0.16743-0.14263 0.16588-0.14263 0.48834 0 0.31316 0.13953 0.48214 0.14107 0.16743 0.39532 0.16743 0.0884 0 0.17984-0.02325 0.0915-0.02325 0.16433-0.06046 0.0636-0.03256 0.11937-0.06821 0.0558-0.03721 0.0884-0.06356h0.0155z"/><path d="m183.55-49.189h-0.29145v-0.19224q-0.14728 0.11627-0.28216 0.17828-0.13487 0.06201-0.29765 0.06201-0.27286 0-0.42478-0.16588-0.15193-0.16743-0.15193-0.48989v-1.124h0.29145v0.98599q0 0.13178 0.0124 0.22634 0.0124 0.09302 0.0527 0.15968 0.0419 0.06821 0.10853 0.09922 0.0667 0.03101 0.19378 0.03101 0.11317 0 0.2465-0.05891 0.13487-0.05891 0.25115-0.15038v-1.2929h0.29145z"/><path d="m185.03-49.205q-0.0822 0.0217-0.17984 0.03566-0.0961 0.01395-0.17208 0.01395-0.2651 0-0.40307-0.14263-0.13798-0.14263-0.13798-0.45734v-0.92087h-0.19689v-0.24495h0.19689v-0.49764h0.29146v0.49764h0.60151v0.24495h-0.60151v0.7891q0 0.13643 6e-3 0.21394 6e-3 0.07596 0.0434 0.14263 0.0341 0.06201 0.093 0.09147 0.0605 0.0279 0.18294 0.0279 0.0713 0 0.14882-0.02015 0.0775-0.0217 0.11163-0.03566h0.0155z"/><path d="m186.83-50.025h-1.2759q0 0.15968 0.0481 0.27905 0.0481 0.11782 0.13177 0.19379 0.0806 0.07441 0.19069 0.11162 0.11162 0.03721 0.24494 0.03721 0.17674 0 0.35502-0.06976 0.17984-0.07131 0.2558-0.13953h0.0155v0.31781q-0.14728 0.06201-0.30075 0.10387-0.15348 0.04186-0.32247 0.04186-0.43098 0-0.67282-0.23254-0.24185-0.2341-0.24185-0.66353 0-0.42478 0.231-0.67438 0.23254-0.2496 0.61081-0.2496 0.35037 0 0.5395 0.20464 0.19069 0.20464 0.19069 0.58136zm-0.2837-0.22324q-2e-3 -0.22944-0.11628-0.35502-0.11317-0.12557-0.34571-0.12557-0.2341 0-0.37362 0.13798-0.13798 0.13798-0.15658 0.34262z"/><path d="m188.67-49.189h-0.29146v-0.18138q-0.12557 0.10852-0.262 0.16898-0.13642 0.06046-0.2961 0.06046-0.31006 0-0.493-0.23874-0.18138-0.23874-0.18138-0.66198 0-0.22014 0.062-0.39222 0.0636-0.17208 0.17053-0.29301 0.10542-0.11782 0.24495-0.17983 0.14108-0.06201 0.29146-0.06201 0.13642 0 0.24184 0.02945 0.10542 0.0279 0.22169 0.08837v-0.75034h0.29146zm-0.29146-0.42633v-0.99374q-0.11782-0.05271-0.21084-0.07286-0.093-0.02015-0.20309-0.02015-0.24494 0-0.38137 0.17053-0.13642 0.17053-0.13642 0.48369 0 0.30851 0.10542 0.46974 0.10542 0.15968 0.33796 0.15968 0.12402 0 0.25115-0.05426 0.12712-0.05581 0.23719-0.14263z"/></g><g transform="rotate(90)" fill="#000000" aria-label="Executing"><path d="m173.65-60.143h-1.5208v-2.3084h1.5208v0.27285h-1.2139v0.63252h1.2139v0.27285h-1.2139v0.85731h1.2139z"/><path d="m175.61-60.143h-0.36742l-0.49144-0.66508-0.49455 0.66508h-0.33951l0.67593-0.86351-0.66973-0.86816h0.36742l0.48834 0.65422 0.4899-0.65422h0.34106l-0.68058 0.85266z"/><path d="m177.4-60.979h-1.2759q0 0.15968 0.0481 0.27905 0.0481 0.11782 0.13177 0.19379 0.0806 0.07441 0.19069 0.11162 0.11162 0.03721 0.24494 0.03721 0.17674 0 0.35502-0.06976 0.17983-0.07131 0.2558-0.13953h0.0155v0.31781q-0.14728 0.06201-0.30075 0.10387-0.15348 0.04186-0.32247 0.04186-0.43098 0-0.67282-0.23254-0.24185-0.23409-0.24185-0.66352 0-0.42478 0.23099-0.67438 0.23255-0.2496 0.61082-0.2496 0.35037 0 0.5395 0.20464 0.19069 0.20464 0.19069 0.58136zm-0.28371-0.22324q-2e-3 -0.22944-0.11627-0.35502-0.11317-0.12557-0.34571-0.12557-0.2341 0-0.37362 0.13798-0.13798 0.13798-0.15658 0.34262z"/><path d="m179.12-60.252q-0.14572 0.06976-0.2775 0.10852-0.13022 0.03876-0.2775 0.03876-0.18759 0-0.34417-0.05426-0.15658-0.05581-0.2682-0.16743-0.11317-0.11162-0.17518-0.28215-0.062-0.17053-0.062-0.39842 0-0.42478 0.23254-0.66663 0.2341-0.24185 0.61702-0.24185 0.14883 0 0.29145 0.04186 0.14418 0.04186 0.26355 0.10232v0.32401h-0.0155q-0.13332-0.10387-0.27595-0.15968-0.14108-0.05581-0.27595-0.05581-0.24805 0-0.39223 0.16743-0.14262 0.16588-0.14262 0.48834 0 0.31316 0.13952 0.48214 0.14108 0.16743 0.39533 0.16743 0.0884 0 0.17983-0.02325 0.0915-0.02325 0.16433-0.06046 0.0636-0.03256 0.11937-0.06821 0.0558-0.03721 0.0884-0.06356h0.0155z"/><path d="m180.93-60.143h-0.29146v-0.19224q-0.14728 0.11627-0.28215 0.17828-0.13488 0.06201-0.29766 0.06201-0.27285 0-0.42478-0.16588-0.15193-0.16743-0.15193-0.48989v-1.124h0.29146v0.98599q0 0.13178 0.0124 0.22634 0.0124 0.09302 0.0527 0.15968 0.0419 0.06821 0.10852 0.09922 0.0667 0.031 0.19379 0.031 0.11317 0 0.24649-0.05891 0.13488-0.05891 0.25115-0.15038v-1.2929h0.29146z"/><path d="m182.41-60.159q-0.0822 0.0217-0.17983 0.03566-0.0961 0.01395-0.17208 0.01395-0.2651 0-0.40308-0.14263t-0.13798-0.45734v-0.92087h-0.19688v-0.24495h0.19688v-0.49764h0.29146v0.49764h0.60151v0.24495h-0.60151v0.7891q0 0.13643 6e-3 0.21394 6e-3 0.07597 0.0434 0.14263 0.0341 0.06201 0.093 0.09147 0.0605 0.0279 0.18293 0.0279 0.0713 0 0.14883-0.02015 0.0775-0.0217 0.11162-0.03566h0.0155z"/><path d="m183.07-62.165h-0.32866v-0.30231h0.32866zm-0.0186 2.0216h-0.29146v-1.7317h0.29146z"/><path d="m185.08-60.143h-0.29146v-0.98599q0-0.11937-0.0139-0.22324-0.0139-0.10542-0.0512-0.16433-0.0388-0.06511-0.11162-0.09612-0.0729-0.03256-0.18914-0.03256-0.11937 0-0.24959 0.05891-0.13023 0.05891-0.2496 0.15038v1.2929h-0.29145v-1.7317h0.29145v0.19224q0.13643-0.11317 0.28215-0.17673 0.14573-0.06356 0.29921-0.06356 0.2806 0 0.42788 0.16898t0.14728 0.48679z"/><path d="m187.04-60.34q0 0.44028-0.19999 0.64647t-0.61546 0.20619q-0.13798 0-0.26976-0.02015-0.13022-0.0186-0.25734-0.05426v-0.29766h0.0155q0.0713 0.02791 0.22634 0.06821 0.15503 0.04186 0.31006 0.04186 0.14883 0 0.2465-0.03566 0.0977-0.03566 0.15193-0.09922 0.0543-0.06046 0.0775-0.14573 0.0233-0.08527 0.0233-0.19069v-0.15813q-0.13177 0.10542-0.25269 0.15813-0.11938 0.05116-0.30541 0.05116-0.31006 0-0.49299-0.22324-0.18139-0.22479-0.18139-0.63252 0-0.22324 0.062-0.38447 0.0636-0.16278 0.17209-0.2806 0.10077-0.11007 0.24494-0.17053 0.14418-0.06201 0.28681-0.06201 0.15037 0 0.25114 0.03101 0.10232 0.02946 0.21549 0.09147l0.0186-0.07441h0.27285zm-0.29146-0.27905v-0.94413q-0.11627-0.05271-0.21704-0.07441-0.0992-0.02325-0.19843-0.02325-0.2403 0-0.37828 0.16123-0.13797 0.16123-0.13797 0.46819 0 0.29146 0.10232 0.44183 0.10232 0.15038 0.33951 0.15038 0.12713 0 0.25425-0.04806 0.12867-0.04961 0.23564-0.13178z"/></g><g transform="rotate(90)" fill="#ffffff" aria-label="Executed"><path d="m174.14-70.401h-1.5208v-2.3084h1.5208v0.27285h-1.2139v0.63252h1.2139v0.27285h-1.2139v0.85731h1.2139z"/><path d="m176.1-70.401h-0.36742l-0.49145-0.66508-0.49454 0.66508h-0.33951l0.67592-0.86351-0.66972-0.86816h0.36742l0.48834 0.65422 0.48989-0.65422h0.34107l-0.68058 0.85266z"/><path d="m177.9-71.237h-1.2759q0 0.15968 0.0481 0.27905 0.0481 0.11782 0.13178 0.19379 0.0806 0.07441 0.19068 0.11162 0.11163 0.03721 0.24495 0.03721 0.17673 0 0.35502-0.06976 0.17983-0.07131 0.2558-0.13953h0.0155v0.31781q-0.14728 0.06201-0.30076 0.10387t-0.32246 0.04186q-0.43098 0-0.67283-0.23254-0.24184-0.23409-0.24184-0.66353 0-0.42478 0.23099-0.67438 0.23255-0.2496 0.61082-0.2496 0.35036 0 0.5395 0.20464 0.19069 0.20464 0.19069 0.58136zm-0.28371-0.22324q-2e-3 -0.22944-0.11627-0.35502-0.11317-0.12557-0.34572-0.12557-0.23409 0-0.37362 0.13798-0.13797 0.13798-0.15658 0.34262z"/><path d="m179.62-70.51q-0.14573 0.06976-0.2775 0.10852-0.13023 0.03876-0.2775 0.03876-0.18759 0-0.34417-0.05426-0.15658-0.05581-0.2682-0.16743-0.11317-0.11162-0.17518-0.28215-0.062-0.17053-0.062-0.39842 0-0.42478 0.23254-0.66663 0.23409-0.24185 0.61702-0.24185 0.14882 0 0.29145 0.04186 0.14418 0.04186 0.26355 0.10232v0.32401h-0.0155q-0.13333-0.10387-0.27595-0.15968-0.14108-0.05581-0.27596-0.05581-0.24804 0-0.39222 0.16743-0.14263 0.16588-0.14263 0.48834 0 0.31316 0.13953 0.48214 0.14108 0.16743 0.39532 0.16743 0.0884 0 0.17984-0.02325 0.0915-0.02325 0.16433-0.06046 0.0636-0.03256 0.11937-0.06821 0.0558-0.03721 0.0884-0.06356h0.0155z"/><path d="m181.43-70.401h-0.29145v-0.19224q-0.14728 0.11627-0.28216 0.17828-0.13487 0.06201-0.29765 0.06201-0.27285 0-0.42478-0.16588-0.15193-0.16743-0.15193-0.48989v-1.124h0.29145v0.98599q0 0.13178 0.0124 0.22634 0.0124 0.09302 0.0527 0.15968 0.0418 0.06821 0.10852 0.09922 0.0667 0.03101 0.19378 0.03101 0.11318 0 0.2465-0.05891 0.13488-0.05891 0.25115-0.15038v-1.2929h0.29145z"/><path d="m182.9-70.417q-0.0822 0.0217-0.17983 0.03566-0.0961 0.01395-0.17209 0.01395-0.2651 0-0.40307-0.14263-0.13798-0.14263-0.13798-0.45734v-0.92087h-0.19689v-0.24495h0.19689v-0.49764h0.29146v0.49764h0.60151v0.24495h-0.60151v0.7891q0 0.13643 6e-3 0.21394 6e-3 0.07596 0.0434 0.14263 0.0341 0.06201 0.093 0.09147 0.0605 0.02791 0.18294 0.02791 0.0713 0 0.14883-0.02015 0.0775-0.0217 0.11162-0.03566h0.0155z"/><path d="m184.7-71.237h-1.2759q0 0.15968 0.0481 0.27905 0.0481 0.11782 0.13177 0.19379 0.0806 0.07441 0.19069 0.11162 0.11162 0.03721 0.24495 0.03721 0.17673 0 0.35501-0.06976 0.17984-0.07131 0.2558-0.13953h0.0155v0.31781q-0.14727 0.06201-0.30075 0.10387t-0.32246 0.04186q-0.43098 0-0.67283-0.23254-0.24185-0.23409-0.24185-0.66353 0-0.42478 0.231-0.67438 0.23254-0.2496 0.61081-0.2496 0.35037 0 0.53951 0.20464 0.19068 0.20464 0.19068 0.58136zm-0.2837-0.22324q-2e-3 -0.22944-0.11627-0.35502-0.11318-0.12557-0.34572-0.12557-0.23409 0-0.37362 0.13798-0.13798 0.13798-0.15658 0.34262z"/><path d="m186.55-70.401h-0.29146v-0.18138q-0.12557 0.10852-0.26199 0.16898-0.13643 0.06046-0.29611 0.06046-0.31006 0-0.49299-0.23874-0.18139-0.23874-0.18139-0.66198 0-0.22014 0.062-0.39222 0.0636-0.17208 0.17054-0.29301 0.10542-0.11782 0.24494-0.17983 0.14108-0.06201 0.29146-0.06201 0.13642 0 0.24184 0.02945 0.10542 0.02791 0.22169 0.08837v-0.75034h0.29146zm-0.29146-0.42633v-0.99374q-0.11782-0.05271-0.21083-0.07286-0.093-0.02015-0.20309-0.02015-0.24495 0-0.38138 0.17053-0.13642 0.17053-0.13642 0.48369 0 0.30851 0.10542 0.46974 0.10542 0.15968 0.33796 0.15968 0.12403 0 0.25115-0.05426 0.12712-0.05581 0.23719-0.14263z"/></g></g></g></svg>
