<svg width="499.21mm" height="486.27mm" id="eAs4wocRBkZ1" xmlns="http://www.w3.org/2000/svg" xmlns:xlink="http://www.w3.org/1999/xlink" viewBox="0 0 49.921 48.627" shape-rendering="geometricPrecision" text-rendering="geometricPrecision" style="background-color:#fff">
<style><![CDATA[
#eAs4wocRBkZ111 {animation: eAs4wocRBkZ111_c_o 8500ms linear infinite normal forwards}@keyframes eAs4wocRBkZ111_c_o { 0% {opacity: 0} 5.882353% {opacity: 0} 9.411765% {opacity: 1} 100% {opacity: 1}} #eAs4wocRBkZ116 {animation: eAs4wocRBkZ116_c_o 8500ms linear infinite normal forwards}@keyframes eAs4wocRBkZ116_c_o { 0% {opacity: 0} 14.117647% {opacity: 0} 17.647059% {opacity: 1} 100% {opacity: 1}} #eAs4wocRBkZ118 {animation: eAs4wocRBkZ118_c_o 8500ms linear infinite normal forwards}@keyframes eAs4wocRBkZ118_c_o { 0% {opacity: 0} 14.117647% {opacity: 0} 17.647059% {opacity: 1} 100% {opacity: 1}} #eAs4wocRBkZ129 {animation: eAs4wocRBkZ129_c_o 8500ms linear infinite normal forwards}@keyframes eAs4wocRBkZ129_c_o { 0% {opacity: 0} 17.647059% {opacity: 0} 21.176471% {opacity: 1} 100% {opacity: 1}} #eAs4wocRBkZ134 {animation: eAs4wocRBkZ134_c_o 8500ms linear infinite normal forwards}@keyframes eAs4wocRBkZ134_c_o { 0% {opacity: 0} 25.882353% {opacity: 0} 29.411765% {opacity: 1} 100% {opacity: 1}} #eAs4wocRBkZ136 {animation: eAs4wocRBkZ136_c_o 8500ms linear infinite normal forwards}@keyframes eAs4wocRBkZ136_c_o { 0% {opacity: 0} 25.882353% {opacity: 0} 29.411765% {opacity: 1} 100% {opacity: 1}} #eAs4wocRBkZ147 {animation: eAs4wocRBkZ147_c_o 8500ms linear infinite normal forwards}@keyframes eAs4wocRBkZ147_c_o { 0% {opacity: 0} 29.411765% {opacity: 0} 32.941176% {opacity: 1} 100% {opacity: 1}} #eAs4wocRBkZ152 {animation: eAs4wocRBkZ152_c_o 8500ms linear infinite normal forwards}@keyframes eAs4wocRBkZ152_c_o { 0% {opacity: 0} 37.647059% {opacity: 0} 41.176471% {opacity: 1} 100% {opacity: 1}} #eAs4wocRBkZ154 {animation: eAs4wocRBkZ154_c_o 8500ms linear infinite normal forwards}@keyframes eAs4wocRBkZ154_c_o { 0% {opacity: 0} 37.647059% {opacity: 0} 41.176471% {opacity: 1} 100% {opacity: 1}} #eAs4wocRBkZ166 {animation: eAs4wocRBkZ166_c_o 8500ms linear infinite normal forwards}@keyframes eAs4wocRBkZ166_c_o { 0% {opacity: 0} 29.411765% {opacity: 0} 32.941176% {opacity: 1} 100% {opacity: 1}} #eAs4wocRBkZ171 {animation: eAs4wocRBkZ171_c_o 8500ms linear infinite normal forwards}@keyframes eAs4wocRBkZ171_c_o { 0% {opacity: 0} 37.647059% {opacity: 0} 41.176471% {opacity: 1} 100% {opacity: 1}} #eAs4wocRBkZ173 {animation: eAs4wocRBkZ173_c_o 8500ms linear infinite normal forwards}@keyframes eAs4wocRBkZ173_c_o { 0% {opacity: 0} 37.647059% {opacity: 0} 41.176471% {opacity: 1} 100% {opacity: 1}} #eAs4wocRBkZ185 {animation: eAs4wocRBkZ185_c_o 8500ms linear infinite normal forwards}@keyframes eAs4wocRBkZ185_c_o { 0% {opacity: 0} 41.176471% {opacity: 0} 44.705882% {opacity: 1} 100% {opacity: 1}} #eAs4wocRBkZ190 {animation: eAs4wocRBkZ190_c_o 8500ms linear infinite normal forwards}@keyframes eAs4wocRBkZ190_c_o { 0% {opacity: 0} 49.411765% {opacity: 0} 52.941176% {opacity: 1} 100% {opacity: 1}} #eAs4wocRBkZ192 {animation: eAs4wocRBkZ192_c_o 8500ms linear infinite normal forwards}@keyframes eAs4wocRBkZ192_c_o { 0% {opacity: 0} 49.411765% {opacity: 0} 52.941176% {opacity: 1} 100% {opacity: 1}} #eAs4wocRBkZ204 {animation: eAs4wocRBkZ204_c_o 8500ms linear infinite normal forwards}@keyframes eAs4wocRBkZ204_c_o { 0% {opacity: 0} 41.176471% {opacity: 0} 44.705882% {opacity: 1} 100% {opacity: 1}} #eAs4wocRBkZ209 {animation: eAs4wocRBkZ209_c_o 8500ms linear infinite normal forwards}@keyframes eAs4wocRBkZ209_c_o { 0% {opacity: 0} 49.411765% {opacity: 0} 52.941176% {opacity: 1} 100% {opacity: 1}} #eAs4wocRBkZ211 {animation: eAs4wocRBkZ211_c_o 8500ms linear infinite normal forwards}@keyframes eAs4wocRBkZ211_c_o { 0% {opacity: 0} 49.411765% {opacity: 0} 52.941176% {opacity: 1} 100% {opacity: 1}} #eAs4wocRBkZ223 {animation: eAs4wocRBkZ223_c_o 8500ms linear infinite normal forwards}@keyframes eAs4wocRBkZ223_c_o { 0% {opacity: 0} 52.941176% {opacity: 0} 56.470588% {opacity: 1} 100% {opacity: 1}} #eAs4wocRBkZ228 {animation: eAs4wocRBkZ228_c_o 8500ms linear infinite normal forwards}@keyframes eAs4wocRBkZ228_c_o { 0% {opacity: 0} 61.176471% {opacity: 0} 64.705882% {opacity: 1} 100% {opacity: 1}} #eAs4wocRBkZ230 {animation: eAs4wocRBkZ230_c_o 8500ms linear infinite normal forwards}@keyframes eAs4wocRBkZ230_c_o { 0% {opacity: 0} 61.176471% {opacity: 0} 64.705882% {opacity: 1} 100% {opacity: 1}} #eAs4wocRBkZ241 {animation: eAs4wocRBkZ241_c_o 8500ms linear infinite normal forwards}@keyframes eAs4wocRBkZ241_c_o { 0% {opacity: 0} 64.705882% {opacity: 0} 68.235294% {opacity: 1} 100% {opacity: 1}} #eAs4wocRBkZ246 {animation: eAs4wocRBkZ246_c_o 8500ms linear infinite normal forwards}@keyframes eAs4wocRBkZ246_c_o { 0% {opacity: 0} 72.941176% {opacity: 0} 76.470588% {opacity: 1} 100% {opacity: 1}} #eAs4wocRBkZ248 {animation: eAs4wocRBkZ248_c_o 8500ms linear infinite normal forwards}@keyframes eAs4wocRBkZ248_c_o { 0% {opacity: 0} 72.941176% {opacity: 0} 76.470588% {opacity: 1} 100% {opacity: 1}} #eAs4wocRBkZ259 {animation: eAs4wocRBkZ259_c_o 8500ms linear infinite normal forwards}@keyframes eAs4wocRBkZ259_c_o { 0% {opacity: 0} 64.705882% {opacity: 0} 68.235294% {opacity: 1} 100% {opacity: 1}} #eAs4wocRBkZ264 {animation: eAs4wocRBkZ264_c_o 8500ms linear infinite normal forwards}@keyframes eAs4wocRBkZ264_c_o { 0% {opacity: 0} 72.941176% {opacity: 0} 76.470588% {opacity: 1} 100% {opacity: 1}} #eAs4wocRBkZ266 {animation: eAs4wocRBkZ266_c_o 8500ms linear infinite normal forwards}@keyframes eAs4wocRBkZ266_c_o { 0% {opacity: 0} 72.941176% {opacity: 0} 76.470588% {opacity: 1} 100% {opacity: 1}} #eAs4wocRBkZ277 {animation: eAs4wocRBkZ277_c_o 8500ms linear infinite normal forwards}@keyframes eAs4wocRBkZ277_c_o { 0% {opacity: 0} 76.470588% {opacity: 0} 80% {opacity: 1} 100% {opacity: 1}} #eAs4wocRBkZ282 {animation: eAs4wocRBkZ282_c_o 8500ms linear infinite normal forwards}@keyframes eAs4wocRBkZ282_c_o { 0% {opacity: 0} 84.705882% {opacity: 0} 88.235294% {opacity: 1} 100% {opacity: 1}} #eAs4wocRBkZ284 {animation: eAs4wocRBkZ284_c_o 8500ms linear infinite normal forwards}@keyframes eAs4wocRBkZ284_c_o { 0% {opacity: 0} 84.705882% {opacity: 0} 88.235294% {opacity: 1} 100% {opacity: 1}}
]]></style>
<g transform="translate(2.868-130.07)"><g transform="translate(-55.459 92.771)"><path d="M60.847,42.031h41.444v9.636h-41.444Z" fill="#cd73fd" stroke-width="0.44212"/><path d="M60.625,41.811v10.078h41.887v-10.078Zm.44336.44141h41.002v9.1953h-41.002Z" fill="#1e0097"/><path d="M60.998,40.004v.5h38.016v-.5Z"/><path d="M99.014,40.253l-1.25,1.25l4.375-1.25-4.375-1.25Z" fill-rule="evenodd" stroke-width="0.25"/><g><path d="M64.322,38.56q0,.31471-.13798.57051-.13643.2558-.36432.39688-.15813.09767-.35347.14108-.19379.04341-.5116.04341h-.58291v-2.3084h.57671q.33796,0,.5364.04961.19999.04806.33796.13332.23564.14728.36742.39222t.13178.58136Zm-.32091-.0047q0-.2713-.09457-.45734t-.28215-.293q-.13642-.07751-.2899-.10697-.15348-.03101-.36742-.03101h-.28835v1.7813h.28835q.22169,0,.38602-.03256.16588-.03256.30386-.12092.17208-.11007.25735-.2899.08682-.17983.08682-.44958Z"/><path d="M66.141,39.712h-.2899v-.18448q-.03876.02635-.10542.07441-.06511.04651-.12712.07441-.07286.03566-.16743.05891-.09457.02481-.22169.02481-.23409,0-.39688-.15503t-.16278-.39532q0-.19689.08372-.31781.08527-.12247.24184-.19224.15813-.06976.37982-.09457t.47594-.03721v-.04496q0-.09922-.03566-.16433-.03411-.06511-.09922-.10232-.06201-.03566-.14883-.04806t-.18138-.0124q-.11472,0-.2558.03101-.14108.02946-.29146.08682h-.0155v-.29611q.08527-.02325.2465-.05116t.31781-.0279q.18294,0,.31781.03101.13643.02945.23564.10232.09767.07131.14883.18448t.05116.2806Zm-.2899-.42633v-.48214q-.13332.0078-.31471.02325-.17983.0155-.28525.04496-.12557.03566-.20309.11162-.07751.07441-.07751.20619q0,.14883.08992.22479.08992.07441.2744.07441.15348,0,.2806-.05891.12712-.06046.23564-.14418Z"/><path d="M67.601,39.696q-.08217.0217-.17983.03566-.09612.01395-.17208.01395-.2651,0-.40308-.14263t-.13798-.45734v-.92087h-.19689v-.24495h.19689v-.49764h.29146v.49764h.60151v.24495h-.60151v.7891q0,.13643.0062.21394.0062.07596.04341.14263.03411.06201.09302.09147.06046.0279.18294.0279.07131,0,.14883-.02015.07752-.0217.11162-.03566h.0155Z"/><path d="M69.299,39.712h-.2899v-.18448q-.03876.02635-.10542.07441-.06511.04651-.12712.07441-.07286.03566-.16743.05891-.09457.02481-.22169.02481-.23409,0-.39688-.15503t-.16278-.39532q0-.19689.08371-.31781.08527-.12247.24185-.19224.15813-.06976.37982-.09457t.47594-.03721v-.04496q0-.09922-.03566-.16433-.03411-.06511-.09922-.10232-.06201-.03566-.14883-.04806t-.18138-.0124q-.11472,0-.2558.03101-.14108.02946-.29146.08682h-.0155v-.29611q.08527-.02325.2465-.05116t.31781-.0279q.18294,0,.31781.03101.13643.02945.23564.10232.09767.07131.14883.18448t.05116.2806Zm-.2899-.42633v-.48214q-.13332.0078-.31471.02325-.17983.0155-.28525.04496-.12557.03566-.20309.11162-.07752.07441-.07752.20619q0,.14883.08992.22479.08992.07441.2744.07441.15348,0,.2806-.05891.12712-.06046.23564-.14418Z"/><path d="M72.82,37.403l-.84026,2.3084h-.40928L70.7302,37.403h.32866l.72399,2.0309.72399-2.0309Z"/><path d="M74.441,38.876h-1.2759q0,.15968.04806.27905.04806.11782.13178.19379.08062.07441.19069.11162.11162.03721.24495.03721.17673,0,.35502-.06976.17983-.07131.2558-.13953h.0155v.31781q-.14728.06201-.30076.10387t-.32246.04186q-.43098,0-.67283-.23254-.24185-.2341-.24185-.66353q0-.42478.23099-.67438.23254-.2496.61082-.2496.35037,0,.5395.20464.19069.20464.19069.58136Zm-.2837-.22324q-.0016-.22944-.11627-.35502-.11317-.12557-.34572-.12557-.23409,0-.37362.13798-.13798.13798-.15658.34262Z"/><path d="M75.964,38.298h-.0155q-.06511-.0155-.12712-.0217-.06046-.0078-.14418-.0078-.13488,0-.26045.06046-.12557.05891-.24185.15348v1.2294h-.29146v-1.7317h.29146v.2558q.17363-.13953.30541-.19689.13332-.05891.2713-.05891.07596,0,.11007.0047.03411.0031.10232.01395Z"/><path d="M77.475,39.212q0,.2372-.19689.38912-.19534.15193-.53485.15193-.19224,0-.35347-.04496-.15968-.04651-.2682-.10077v-.32711h.0155q.13798.10387.30696.16588.16898.06046.32401.06046.19224,0,.30076-.06201t.10852-.19534q0-.10232-.05891-.15503t-.22634-.08992q-.06201-.01395-.16278-.03256-.09922-.0186-.18138-.04031-.22789-.06046-.32401-.17673-.09457-.11782-.09457-.28835q0-.10697.04341-.20154.04496-.09457.13488-.16898.08682-.07286.22014-.11472.13488-.04341.30076-.04341.15503,0,.31316.03876.15968.03721.2651.09147v.31161h-.0155q-.11162-.08216-.2713-.13798-.15968-.05736-.31316-.05736-.15968,0-.26975.06201-.11007.06046-.11007.18138q0,.10697.06666.16123.06511.05426.21084.08837.08061.0186.17983.03721.10077.0186.16743.03411.20309.04651.31316.15968.11007.11472.11007.30386Z"/><path d="M78.205,37.69h-.32866v-.30231h.32866Zm-.0186,2.0216h-.29146v-1.7317h.29146Z"/><path d="M80.239,38.846q0,.42323-.21704.66818t-.58136.24495q-.36742,0-.58446-.24495-.21549-.24495-.21549-.66818t.21549-.66818q.21704-.2465.58446-.2465.36432,0,.58136.2465.21704.24495.21704.66818Zm-.30076,0q0-.33641-.13177-.4992-.13178-.16433-.36587-.16433-.23719,0-.36897.16433-.13022.16278-.13022.4992q0,.32556.13178.49454.13178.16743.36742.16743.23254,0,.36432-.16588.13332-.16743.13332-.49609Z"/><path d="M82.138,39.712h-.29146v-.98599q0-.11937-.01395-.22324-.01395-.10542-.05116-.16433-.03876-.06511-.11162-.09612-.07286-.03256-.18914-.03256-.11937,0-.2496.05891t-.2496.15038v1.2929h-.29146v-1.7317h.29146v.19224q.13643-.11317.28215-.17673t.29921-.06356q.2806,0,.42788.16898t.14728.48679Z"/><path d="M85.485,37.676h-.82476v2.0355h-.30696v-2.0355h-.82476v-.27285h1.9565Z"/><path d="M86.085,37.69h-.32866v-.30231h.32866Zm-.0186,2.0216h-.29146v-1.7317h.29146Z"/><path d="M89.171,39.712h-.29146v-.98599q0-.11162-.01085-.21549-.0093-.10387-.04186-.16588-.03566-.06666-.10232-.10077t-.19224-.03411q-.12247,0-.24495.06201-.12247.06046-.24495.15503.0047.03566.0078.08372.0031.04651.0031.09302v1.1085h-.29146v-.98599q0-.11472-.01085-.21704-.0093-.10387-.04186-.16588-.03566-.06666-.10232-.09922-.06666-.03411-.19224-.03411-.11937,0-.2403.05891-.11937.05891-.23874.15038v1.2929h-.29146v-1.7317h.29146v.19224q.13643-.11317.2713-.17673.13643-.06356.2899-.06356.17673,0,.29921.07441.12402.07441.18448.20619.17673-.14883.32246-.21394.14573-.06666.31161-.06666.28525,0,.42013.17363.13643.17208.13643.48214Z"/><path d="M91.181,38.876h-1.2759q0,.15968.04806.27905.04806.11782.13178.19379.08061.07441.19069.11162.11162.03721.24495.03721.17673,0,.35502-.06976.17983-.07131.2558-.13953h.0155v.31781q-.14728.06201-.30076.10387t-.32246.04186q-.43098,0-.67283-.23254-.24185-.2341-.24185-.66353q0-.42478.23099-.67438.23254-.2496.61082-.2496.35037,0,.5395.20464.19069.20464.19069.58136Zm-.2837-.22324q-.0016-.22944-.11627-.35502-.11317-.12557-.34572-.12557-.23409,0-.37362.13798-.13798.13798-.15658.34262Z"/><path d="M91.918,39.712h-.29146v-2.4123h.29146Z"/><path d="M92.807,37.69h-.32866v-.30231h.32866Zm-.0186,2.0216h-.29146v-1.7317h.29146Z"/><path d="M94.814,39.712h-.29146v-.98599q0-.11937-.01395-.22324-.01395-.10542-.05116-.16433-.03876-.06511-.11162-.09612-.07286-.03256-.18914-.03256-.11937,0-.2496.05891t-.2496.15038v1.2929h-.29146v-1.7317h.29146v.19224q.13642-.11317.28215-.17673t.29921-.06356q.2806,0,.42788.16898t.14728.48679Z"/><path d="M96.824,38.876h-1.2759q0,.15968.04806.27905.04806.11782.13178.19379.08062.07441.19069.11162.11162.03721.24495.03721.17673,0,.35502-.06976.17983-.07131.2558-.13953h.0155v.31781q-.14728.06201-.30076.10387t-.32246.04186q-.43098,0-.67283-.23254-.24185-.2341-.24185-.66353q0-.42478.23099-.67438.23254-.2496.61082-.2496.35037,0,.5395.20464.19069.20464.19069.58136Zm-.2837-.22324q-.0016-.22944-.11627-.35502-.11317-.12557-.34572-.12557-.2341,0-.37362.13798-.13798.13798-.15658.34262Z"/></g><g><path d="M54.539,44.275h-.39842l-.91312-1.0278-.22944.24495v.7829h-.30696v-2.3084h.30696v1.2046l1.1209-1.2046h.37207l-1.0309,1.0852Z"/><path d="M56.201,43.44h-1.2759q0,.15968.04806.27905.04806.11782.13178.19379.08062.07441.19069.11162.11162.03721.24495.03721.17673,0,.35502-.06976.17983-.07131.2558-.13953h.0155v.31781q-.14728.06201-.30076.10387t-.32246.04186q-.43098,0-.67283-.23254-.24185-.23409-.24185-.66352q0-.42478.23099-.67438.23254-.2496.61082-.2496.35037,0,.5395.20464.19069.20464.19069.58136Zm-.2837-.22324q-.0016-.22944-.11627-.35502-.11317-.12557-.34572-.12557-.23409,0-.37362.13798-.13798.13798-.15658.34262Z"/><path d="M58.141,42.544l-1.0108,2.3704h-.31161l.32246-.72244-.68988-1.648h.31626l.53175,1.2836.5364-1.2836Z"/><path d="M59.759,43.776q0,.2372-.19689.38912-.19534.15193-.53485.15193-.19224,0-.35347-.04496-.15968-.04651-.2682-.10077v-.32711h.0155q.13798.10387.30696.16588.16898.06046.32401.06046.19224,0,.30076-.06201t.10852-.19534q0-.10232-.05891-.15503t-.22634-.08992q-.06201-.01395-.16278-.03256-.09922-.0186-.18138-.04031-.22789-.06046-.32401-.17673-.09457-.11782-.09457-.28836q0-.10697.04341-.20154.04496-.09457.13488-.16898.08682-.07286.22014-.11472.13488-.04341.30076-.04341.15503,0,.31316.03876.15968.03721.2651.09147v.31161h-.0155q-.11162-.08217-.2713-.13798-.15968-.05736-.31316-.05736-.15968,0-.26975.06201-.11007.06046-.11007.18138q0,.10697.06666.16123.06511.05426.21084.08837.08061.0186.17983.03721.10077.0186.16743.03411.20309.04651.31316.15968.11007.11472.11007.30386Z"/></g></g><path d="M5.3883,168.84h41.444v9.636h-41.444Z" fill="#fdbb86" stroke-width="0.44212"/><path d="M5.168,168.62v10.078h41.885v-10.078Zm.44141.44336h41.002v9.1934h-41.002Z" fill="#b43700"/><path d="M23.424,170.8v.5h8.9727v-.5Z"/><g><path d="M33.297,171.05l-1.35.78037v-1.5607Z" fill-rule="evenodd" stroke-width="0.208093"/><path d="M31.842,170.09v1.9219l1.6621-.96094-.1543-.0898Zm.20898.35937l1.0371.60156-1.0371.59961Z" fill-rule="evenodd"/></g><path d="M15.955,170.8v.5h5.1875v-.5Z"/><g><path d="M22.043,171.05l-1.35.78037v-1.5607Z" fill-rule="evenodd" stroke-width="0.208093"/><path d="M20.588,170.09v1.9219l1.6621-.96094-.15625-.0898Zm.20898.35937l1.0371.60156-1.0371.59961Z" fill-rule="evenodd"/></g><path d="M5.3883,157.49h41.444v9.636h-41.444Z" fill="#9ec1ff" stroke-width="0.44212"/><path d="M5.168,157.27v10.078h41.885v-10.078Zm.44141.44336h41.002v9.1934h-41.002Z" fill="#00f"/><path d="M11.02,162.25l-1.6582,2.8535.43164.25195l1.6602-2.8535Z"/><g><path d="M11.689,161.6l-.0044,1.5593-1.349-.78489Z" fill-rule="evenodd" stroke-width="0.208093"/><path d="M11.793,161.42l-.15625.0899-1.5098.86328l1.6621.96679Zm-.20703.35742l-.0059,1.2031-1.0371-.60547Z" fill-rule="evenodd"/></g><path d="M32.496,159.74l-.40625.29297l1.7109,2.3848.40625-.29102Z"/><g><path d="M34.529,163l-1.421-.64208l1.2682-.90976Z" fill-rule="evenodd" stroke-width="0.208093"/><path d="M34.461,161.26l-1.5605,1.1191l1.75.79102-.01758-.17969Zm-.16992.37891l.11719,1.1934-1.0938-.49414Z" fill-rule="evenodd"/></g><path d="M5.3883,146.15h41.444v9.636h-41.444Z" fill="#dd0" stroke-width="0.44212"/><path d="M5.168,145.93v10.078h41.885v-10.078Zm.44141.44141h41.002v9.1953h-41.002Z" fill="#c9b830"/><path d="M33.912,150.92l-2.0234,2.541.39258.3125l2.0215-2.543Z"/><g><path d="M34.669,150.37l-.23016,1.5423-1.2212-.97195Z" fill-rule="evenodd" stroke-width="0.208093"/><path d="M34.799,150.21l-.16797.0645-1.6191.63672l1.5039,1.1973Zm-.25977.32617l-.17578,1.1836-.93945-.7461Z" fill-rule="evenodd"/></g><path d="M24.047,141.95v.5h8.2969v-.5Z"/><g><path d="M33.245,142.2l-1.35.78037v-1.5607Z" fill-rule="evenodd" stroke-width="0.208093"/><path d="M31.791,141.24v1.9199l1.6621-.96094-.15625-.0898Zm.20703.35938l1.0391.5996-1.0391.60157Z" fill-rule="evenodd"/></g><path d="M34.836,147.93v.5h5.1875v-.5Z"/><g><path d="M40.923,148.18l-1.35.78037v-1.5607Z" fill-rule="evenodd" stroke-width="0.208093"/><path d="M39.469,147.21v1.9219l1.6621-.96094-.15625-.0898Zm.20898.35938l1.0371.60156-1.0371.59961Z" fill-rule="evenodd"/></g><path d="M34.836,141.95v.5h5.1875v-.5Z"/><g><path d="M40.923,142.2l-1.35.78037v-1.5607Z" fill-rule="evenodd" stroke-width="0.208093"/><path d="M39.469,141.24v1.9199l1.6621-.96094-.15625-.0898Zm.20898.35938l1.0371.5996-1.0371.60157Z" fill-rule="evenodd"/></g><path d="M25.186,148.18l-.30664.39453l4.1484,3.2168.30664-.39649Z"/><g><path d="M29.893,152.14l-1.5451-.21018.95606-1.2336Z" fill-rule="evenodd" stroke-width="0.208093"/><path d="M29.332,150.49l-1.1777,1.5195l1.9023.25781-.06836-.16602Zm-.05664.41407l.45312,1.1094-1.1895-.16211Z" fill-rule="evenodd"/></g><path d="M15.029,150.95l-1.7109,2.2812.40039.30078l1.7109-2.2832Z"/><g><path d="M15.77,150.38l-.18573,1.5482-1.2486-.93644Z" fill-rule="evenodd" stroke-width="0.208093"/><path d="M15.895,150.21l-.16602.0723-1.5996.68164l1.5371,1.1524Zm-.25.33398l-.14258,1.1894-.95898-.71875Z" fill-rule="evenodd"/></g><path d="M15.955,164.83v.5h5.1875v-.5Z"/><g><path d="M22.043,165.08l-1.35.78037v-1.5607Z" fill-rule="evenodd" stroke-width="0.208093"/><path d="M20.588,164.12v1.9199l1.6621-.95899-.15625-.0918Zm.20898.35938l1.0371.59961-1.0371.60156Z" fill-rule="evenodd"/></g><path d="M29.297,161.5l-5.1855,3.6289.28516.41015l5.1875-3.6309Z"/><g><path d="M30.178,161.19l-.65848,1.4135-.89503-1.2786Z" fill-rule="evenodd" stroke-width="0.208093"/><path d="M30.348,161.07l-.17969.0156-1.7324.15039l1.1016,1.5742Zm-.33984.23828l-.50586,1.0859-.68945-.98242Z" fill-rule="evenodd"/></g><path d="M13.514,159.74l-.40625.29297l1.7109,2.3848.40625-.29102Z"/><g><path d="M15.547,163l-1.421-.64208l1.2682-.90976Z" fill-rule="evenodd" stroke-width="0.208093"/><path d="M15.48,161.26l-1.5605,1.1191l1.748.79102-.01758-.17969Zm-.17188.37891l.11719,1.1934-1.0918-.49414Z" fill-rule="evenodd"/></g><path d="M8.3848,170.8v.5h5.1855v-.5Z"/><g><path d="M14.471,171.05l-1.35.78037v-1.5607Z" fill-rule="evenodd" stroke-width="0.208093"/><path d="M13.018,170.09v1.9219l1.6602-.96094-.1543-.0898Zm.20703.35937l1.0371.60156-1.0371.59961Z" fill-rule="evenodd"/></g><path d="M-1.8792,172.28c-.27681,0-.519.17302-.68222.4233s-.25773.58238-.25773.94607.0945.69579.25773.94608.40541.42349.68222.42349.51886-.17322.68208-.42349c.12911-.19799.21531-.44727.24569-.72285h4.0637v.42707h-.30182v.71923h.18764v-.27768h.17673v.27768h.12269v-.43347h.20143v.43347h.13744v-.35265h.18667v.35265h.18171v-.16238h.17674v.16238h.17224v-.71923h-.30198v-.42707h.30198v-.44647h-5.3052c-.0299-.27556-.11609-.52483-.24521-.72285-.16321-.25023-.40523-.42324-.68207-.42324Zm0,.32986c.15698,0,.30761.0965.42869.28219s.20222.45576.20222.75727-.0811.57164-.20222.75728-.27171.2822-.42869.2822-.3076-.0965-.42867-.2822-.20224-.45575-.20224-.75728.0811-.57163.20224-.75727.2717-.2822.42867-.28219Z" fill="#fd6200" stroke-width="0.005556"/><path d="M-1.8792,160.94c-.27681,0-.519.17302-.68222.4233s-.25773.58238-.25773.94608.0945.69578.25773.94608.40541.42348.68222.42348.51886-.17321.68208-.42348c.12911-.19801.21531-.44729.24569-.72286h4.0637v.42707h-.30182v.71923h.18764v-.27767h.17673v.27767h.12269v-.43347h.20143v.43347h.13744v-.35265h.18667v.35265h.18171v-.16239h.17674v.16239h.17224v-.71923h-.30198v-.42707h.30198v-.44647h-5.3052c-.0299-.27555-.11609-.52482-.24521-.72285-.16321-.25023-.40523-.42325-.68207-.42325Zm0,.32986c.15698,0,.30761.0965.42869.28219s.20222.45576.20222.75728-.0811.57163-.20222.75727-.27171.2822-.42869.2822-.3076-.0965-.42867-.2822-.20224-.45575-.20224-.75727.0811-.57164.20224-.75728.2717-.2822.42867-.28219Z" fill="#0025fd" stroke-width="0.005556"/><path d="M-1.8792,149.6c-.27681,0-.519.17302-.68222.4233s-.25773.58238-.25773.94607.0945.69579.25773.94608.40541.42349.68222.42349.51886-.17321.68208-.42349c.12911-.198.21531-.44728.24569-.72285h4.0637v.42707h-.30182v.71923h.18764v-.27767h.17673v.27767h.12269v-.43347h.20143v.43347h.13744v-.35265h.18667v.35265h.18171v-.16239h.17674v.16239h.17224v-.71923h-.30198v-.42707h.30198v-.44647h-5.3052c-.0299-.27555-.11609-.52482-.24521-.72285-.16321-.25024-.40523-.42325-.68207-.42325Zm0,.32986c.15698,0,.30761.0965.42869.28219s.20222.45575.20222.75727-.0811.57164-.20222.75728-.27171.2822-.42869.2822-.3076-.0965-.42867-.2822-.20224-.45575-.20224-.75728.0811-.57163.20224-.75727.2717-.2822.42867-.28219Z" fill="#dd0" stroke-width="0.097715"/><path d="M-1.8789,149.55c-.29717,0-.55298.18514-.72266.44531-.16929.25961-.26562.6005-.26562.97266s.096306.71303.26562.97266c.16965.26016.42547.44726.72266.44726s.553-.18711.72266-.44726c.12582-.19296.20258-.43696.23828-.69922h3.9805v.32812h-.30078v.81836h.28516v-.2793h.078125v.2793h.2207v-.43359h.10352v.43359h.23633v-.35351h.087891v.35351h.2793v-.16406h.080078v.16406h.26953v-.81836h-.30078v-.32812h.30078v-.54492h-5.3203c-.035137-.26308-.11214-.50771-.23828-.70118-.16932-.25961-.42425-.44458-.7207-.44531Zm-.00195.0977h.00195c.25648,0,.48386.16198.64062.40234.12431.19065.20913.43249.23828.70117l.003906.043h5.3008v.34961h-.30273v.52344h.30273v.62305h-.074219v-.16407h-.27539v.16407h-.083984v-.35359h-.2832v.35352h-.041016v-.4336h-.29883v.4336h-.023437v-.2793h-.27539v.2793h-.089844v-.62305h.30273v-.52344h-4.1582l-.003906.04297c-.029629.26875-.11398.51055-.23828.70117-.15678.24041-.38419.40235-.64062.40235s-.48387-.16196-.64063-.40235c-.15714-.24095-.25-.5647-.25-.91992s.092887-.67703.25-.91797c.15643-.23986.38291-.40164.63867-.40234Zm.00195.23242c-.177-.00001-.34374.10998-.4707.30469-.12754.19544-.20898.47289-.20898.7832s.08152.5897.20898.78516c.12697.19474.29371.30468.4707.30468s.34178-.10997.46875-.30468c.12752-.19545.21094-.47485.21094-.78516s-.083483-.58774-.21094-.7832c-.12698-.19474-.29175-.30469-.46875-.30469Zm0,.0977c.13696,0,.27154.0831.38672.25976.11469.17588.19531.43772.19531.73047s-.080589.55463-.19531.73047c-.11518.17663-.24977.26172-.38672.26172s-.2735-.0851-.38867-.26172c-.1147-.17588-.19336-.43771-.19336-.73047s.078618-.55463.19336-.73047c.11517-.17663.25173-.25977.38867-.25976Z"/><path d="M-1.8792,138.26c-.27681,0-.519.17302-.68222.4233s-.25773.58239-.25773.94608.0945.69578.25773.94608.40541.42348.68222.42348.51886-.17321.68208-.42348c.12911-.198.21531-.44728.24569-.72286h4.0637v.42707h-.30182v.71924h.18764v-.27768h.17673v.27768h.12269v-.43347h.20143v.43347h.13744v-.35266h.18667v.35266h.18171v-.16239h.17674v.16239h.17224v-.71924h-.30198v-.42707h.30198v-.44647h-5.3052c-.0299-.27555-.11609-.52482-.24521-.72285-.16321-.25023-.40523-.42324-.68207-.42324Zm0,.32986c.15698,0,.30761.0965.42869.2822s.20222.45575.20222.75727-.0811.57163-.20222.75727-.27171.2822-.42869.2822-.3076-.0965-.42867-.2822-.20224-.45575-.20224-.75727.0811-.57163.20224-.75727.2717-.2822.42867-.2822Z" fill="#7300fd" stroke-width="0.005556"/><path d="M15.951,141.95v.5h5.1855v-.5Z"/><g><path d="M22.037,142.2l-1.35.78037v-1.5607Z" fill-rule="evenodd" stroke-width="0.208093"/><path d="M20.584,141.24v1.9199l1.6621-.96094-.15625-.0898Zm.20703.35938l1.0371.5996-1.0371.60157Z" fill-rule="evenodd"/></g><path d="M15.951,147.93v.5h5.1855v-.5Z"/><g><path d="M22.037,148.18l-1.35.78037v-1.5607Z" fill-rule="evenodd" stroke-width="0.208093"/><path d="M20.584,147.21v1.9219l1.6621-.96094-.15625-.0898Zm.20703.35938l1.0371.60156-1.0371.59961Z" fill-rule="evenodd"/></g><g transform="translate(-118.83 92.771)"><path d="M128.27,70.268c-1.104491.000055-1.999845.895409-1.9999,1.9999v6.0002c-.000106.530485.210547,1.03928.58561,1.414437s.883805.585936,1.41429.585963s1.039228-.210807,1.41429-.585963.585716-.883952.58561-1.414437v-6.0002c-.000055-1.104491-.895409-1.999845-1.9999-1.9999Z" fill="#fff" stroke-width="0.5"/><path d="M128.27,70.018c-1.2396.000074-2.248,1.0104-2.248,2.25v6c-.00025,1.2398,1.0082,2.2519,2.248,2.252c1.2398-.000074,2.2502-1.0122,2.25-2.252v-6c-.00007-1.2396-1.0104-2.2499-2.25-2.25Zm0,.5c.96938.000058,1.75.78062,1.75,1.75v6c.0002.96955-.78044,1.7519-1.75,1.752-.96955-.000058-1.7482-.7824-1.748-1.752v-6c.00006-.96938.77867-1.7499,1.748-1.75Z"/><path id="eAs4wocRBkZ111" d="M128.27,70.268c-1.104491.000055-1.999845.895409-1.9999,1.9999v6.0002c-.000106.530485.210547,1.03928.58561,1.414437s.883805.585936,1.41429.585963s1.039228-.210807,1.41429-.585963.585716-.883952.58561-1.414437v-6.0002c-.000055-1.104491-.895409-1.999845-1.9999-1.9999Z" opacity="0" fill="#00efff" stroke-width="0.5"/><path d="M128.27,70.018c-1.2396.000074-2.248,1.0104-2.248,2.25v6c-.00025,1.2398,1.0082,2.2519,2.248,2.252c1.2398-.000074,2.2502-1.0122,2.25-2.252v-6c-.00007-1.2396-1.0104-2.2499-2.25-2.25Zm0,.5c.96938.000058,1.75.78062,1.75,1.75v6c.0002.96955-.78044,1.7519-1.75,1.752-.96955-.000058-1.7482-.7824-1.748-1.752v-6c.00006-.96938.77867-1.7499,1.748-1.75Z"/><g><path d="M129.01,76.131h-.2899v-.18448q-.0388.02635-.10542.07441-.0651.04651-.12713.07441-.0729.03566-.16743.05891-.0946.02481-.22169.02481-.2341,0-.39688-.15503t-.16278-.39532q0-.19689.0837-.31781.0853-.12247.24184-.19224.15813-.06976.37983-.09457t.47594-.03721v-.04496q0-.09922-.0357-.16433-.0341-.06511-.0992-.10232-.062-.03566-.14883-.04806t-.18138-.0124q-.11472,0-.2558.03101-.14108.02946-.29146.08682h-.0155v-.29611q.0853-.02326.2465-.05116t.31781-.0279q.18293,0,.31781.03101.13642.02945.23564.10232.0977.07131.14883.18448t.0512.2806Zm-.2899-.42633v-.48214q-.13333.0078-.31471.02326-.17984.0155-.28526.04496-.12557.03566-.20309.11162-.0775.07441-.0775.20619q0,.14883.0899.22479.0899.07441.2744.07441.15348,0,.2806-.05891.12712-.06046.23565-.14418Z"/></g><g><path id="eAs4wocRBkZ116" d="M128.27,70.268c-1.104491.000055-1.999845.895409-1.9999,1.9999v6.0002c-.000106.530485.210547,1.03928.58561,1.414437s.883805.585936,1.41429.585963s1.039228-.210807,1.41429-.585963.585716-.883952.58561-1.414437v-6.0002c-.000055-1.104491-.895409-1.999845-1.9999-1.9999Z" opacity="0" stroke-width="0"/></g><g><path id="eAs4wocRBkZ118" d="M129.01,76.131h-.2899v-.18448q-.0388.02635-.10542.07441-.0651.04651-.12713.07441-.0729.03566-.16743.05891-.0946.02481-.22169.02481-.2341,0-.39688-.15503t-.16278-.39532q0-.19689.0837-.31781.0853-.12247.24184-.19224.15813-.06976.37983-.09457t.47594-.03721v-.04496q0-.09922-.0357-.16433-.0341-.06511-.0992-.10232-.062-.03566-.14883-.04806t-.18138-.0124q-.11472,0-.2558.03101-.14108.02946-.29146.08682h-.0155v-.29611q.0853-.02326.2465-.05116t.31781-.0279q.18293,0,.31781.03101.13642.02945.23564.10232.0977.07131.14883.18448t.0512.2806Zm-.2899-.42633v-.48214q-.13333.0078-.31471.02326-.17984.0155-.28526.04496-.12557.03566-.20309.11162-.0775.07441-.0775.20619q0,.14883.0899.22479.0899.07441.2744.07441.15348,0,.2806-.05891.12712-.06046.23565-.14418Z" opacity="0" fill="#fff"/></g><g transform="translate(99.443-50.677)"><path d="M30.458,-122.98c0,.899727-.729373,1.6291-1.6291,1.6291s-1.6291-.729373-1.6291-1.6291.729373-1.6291,1.6291-1.6291s1.6291.729373,1.6291,1.6291Z" transform="matrix(1 0 0-1 0 0)" fill="#008000" stroke-width="0.27451"/><g><path d="M29.926,124.09h-.39842l-.77205-.91777h-.43253v.91777h-.30696v-2.3084h.64647q.20929,0,.34882.0279.13953.0264.25115.0961.12557.0791.19534.19999.07131.11937.07131.30385q0,.2496-.12557.41858-.12557.16744-.34572.2527Zm-.71779-1.6588q0-.0992-.03566-.17518-.03411-.0775-.11472-.13023-.06666-.045-.15813-.062-.09147-.0186-.21549-.0186h-.36122v.87126h.31006q.14573,0,.25425-.0248.10852-.0264.18448-.0961.06976-.0651.10232-.14883.03411-.0853.03411-.21549Z" fill="#fff"/></g></g><g transform="translate(115.31-13.896)"><path d="M14.594,-92.171c0,.899727-.729373,1.6291-1.6291,1.6291s-1.6291-.729373-1.6291-1.6291.729373-1.6291,1.6291-1.6291s1.6291.729373,1.6291,1.6291Z" transform="matrix(1 0 0-1 0 0)" fill="#c80000" stroke-width="0.27451"/><g><path d="M14.24,91.238l-.5318,2.0461h-.30644l-.43011-1.6984-.42049,1.6984h-.29956l-.54142-2.0461h.27895l.43011,1.7012.42324-1.7012h.2762l.42736,1.7177.42736-1.7177Z" fill="#fff" stroke-width="0.88638"/></g></g><path d="M132.06,58.833c-1.104491.000055-1.999845.895409-1.9999,1.9999v6.0002c-.000106.530485.210547,1.03928.58561,1.414437s.883805.585936,1.41429.585963s1.039228-.210807,1.41429-.585963.585716-.883952.58561-1.414437v-6.0002c-.000055-1.104491-.895409-1.999845-1.9999-1.9999Z" fill="#fff" stroke-width="0.5"/><path d="M132.06,58.582c-1.2396.000075-2.2499,1.0104-2.25,2.25v6c-.00024,1.2398,1.0102,2.2499,2.25,2.25c1.2398-.000074,2.2483-1.0102,2.248-2.25v-6c-.00008-1.2396-1.0085-2.2499-2.248-2.25Zm0,.5c.96938.000058,1.748.78063,1.748,1.75v6c.00019.96955-.7785,1.7499-1.748,1.75-.96955-.000058-1.7502-.78045-1.75-1.75v-6c.00006-.96937.78063-1.7499,1.75-1.75Z"/><path id="eAs4wocRBkZ129" d="M132.06,58.833c-1.104491.000055-1.999845.895409-1.9999,1.9999v6.0002c-.000106.530485.210547,1.03928.58561,1.414437s.883805.585936,1.41429.585963s1.039228-.210807,1.41429-.585963.585716-.883952.58561-1.414437v-6.0002c-.000055-1.104491-.895409-1.999845-1.9999-1.9999Z" opacity="0" fill="#00efff" stroke-width="0.5"/><path d="M132.06,58.582c-1.2396.000075-2.2499,1.0104-2.25,2.25v6c-.00024,1.2398,1.0102,2.2499,2.25,2.25c1.2398-.000074,2.2483-1.0102,2.248-2.25v-6c-.00008-1.2396-1.0085-2.2499-2.248-2.25Zm0,.5c.96938.000058,1.748.78063,1.748,1.75v6c.00019.96955-.7785,1.7499-1.748,1.75-.96955-.000058-1.7502-.78045-1.75-1.75v-6c.00006-.96937.78063-1.7499,1.75-1.75Z"/><g><path d="M132.82,64.136q0,.21704-.062.39067-.0605.17363-.16433.29146-.11007.12247-.24184.18448-.13178.06046-.28991.06046-.14728,0-.25735-.03566-.11007-.03411-.21704-.09302l-.0186.08061h-.27285v-2.4123h.29145v.86196q.12248-.10077.26045-.16433.13798-.06511.31006-.06511.30696,0,.48369.23564.17828.23564.17828.66508Zm-.30075.0078q0-.31006-.10232-.46974-.10232-.16123-.33021-.16123-.12713,0-.25735.05581-.13023.05426-.24185.14108v.99219q.12403.05581.21239.07752.0899.0217.20309.0217.24185,0,.37827-.15813.13798-.15968.13798-.4992Z"/></g><g><path id="eAs4wocRBkZ134" d="M132.06,58.833c-1.104491.000055-1.999845.895409-1.9999,1.9999v6.0002c-.000106.530485.210547,1.03928.58561,1.414437s.883805.585936,1.41429.585963s1.039228-.210807,1.41429-.585963.585716-.883952.58561-1.414437v-6.0002c-.000055-1.104491-.895409-1.999845-1.9999-1.9999Z" opacity="0" stroke-width="0"/></g><g><path id="eAs4wocRBkZ136" d="M132.82,64.136q0,.21704-.062.39067-.0605.17363-.16433.29146-.11007.12247-.24184.18448-.13178.06046-.28991.06046-.14728,0-.25735-.03566-.11007-.03411-.21704-.09302l-.0186.08061h-.27285v-2.4123h.29145v.86196q.12248-.10077.26045-.16433.13798-.06511.31006-.06511.30696,0,.48369.23564.17828.23564.17828.66508Zm-.30075.0078q0-.31006-.10232-.46974-.10232-.16123-.33021-.16123-.12713,0-.25735.05581-.13023.05426-.24185.14108v.99219q.12403.05581.21239.07752.0899.0217.20309.0217.24185,0,.37827-.15813.13798-.15968.13798-.4992Z" opacity="0" fill="#fff"/></g><g transform="translate(119.09-31.302)"><path d="M14.594,-92.171c0,.899727-.729373,1.6291-1.6291,1.6291s-1.6291-.729373-1.6291-1.6291.729373-1.6291,1.6291-1.6291s1.6291.729373,1.6291,1.6291Z" transform="matrix(1 0 0-1 0 0)" fill="#c80000" stroke-width="0.27451"/><g><path d="M14.24,91.238l-.5318,2.0461h-.30644l-.43011-1.6984-.42049,1.6984h-.29956l-.54142-2.0461h.27895l.43011,1.7012.42324-1.7012h.2762l.42736,1.7177.42736-1.7177Z" fill="#fff" stroke-width="0.88638"/></g></g><g transform="translate(103.23-56.141)"><path d="M30.458,-122.98c0,.899727-.729373,1.6291-1.6291,1.6291s-1.6291-.729373-1.6291-1.6291.729373-1.6291,1.6291-1.6291s1.6291.729373,1.6291,1.6291Z" transform="matrix(1 0 0-1 0 0)" fill="#008000" stroke-width="0.27451"/><g><path d="M29.926,124.09h-.39842l-.77205-.91777h-.43253v.91777h-.30696v-2.3084h.64647q.20929,0,.34882.0279.13953.0264.25115.0961.12557.0791.19534.19999.07131.11937.07131.30385q0,.2496-.12557.41858-.12557.16744-.34572.2527Zm-.71779-1.6588q0-.0992-.03566-.17518-.03411-.0775-.11472-.13023-.06666-.045-.15813-.062-.09147-.0186-.21549-.0186h-.36122v.87126h.31006q.14573,0,.25425-.0248.10852-.0264.18448-.0961.06976-.0651.10232-.14883.03411-.0853.03411-.21549Z" fill="#fff"/></g></g><path d="M135.84,47.397c-1.104491.000055-1.999845.895409-1.9999,1.9999v6.0002c-.000106.530485.210547,1.03928.58561,1.414437s.883805.585936,1.41429.585963s1.039228-.210807,1.41429-.585963.585716-.883952.58561-1.414437v-6.0002c-.000055-1.104491-.895409-1.999845-1.9999-1.9999Z" fill="#fff" stroke-width="0.5"/><path d="M135.84,47.146c-1.2396.000075-2.2499,1.0104-2.25,2.25v6c-.00024,1.2398,1.0102,2.2499,2.25,2.25c1.2398-.000074,2.2502-1.0102,2.25-2.25v-6c-.00007-1.2396-1.0104-2.2499-2.25-2.25Zm0,.5c.96938.000059,1.7499.78063,1.75,1.75v6c.00019.96955-.78044,1.7499-1.75,1.75-.96955-.000058-1.7502-.78045-1.75-1.75v-6c.00006-.96937.78063-1.7499,1.75-1.75Z"/><path id="eAs4wocRBkZ147" d="M135.84,47.397c-1.104491.000055-1.999845.895409-1.9999,1.9999v6.0002c-.000106.530485.210547,1.03928.58561,1.414437s.883805.585936,1.41429.585963s1.039228-.210807,1.41429-.585963.585716-.883952.58561-1.414437v-6.0002c-.000055-1.104491-.895409-1.999845-1.9999-1.9999Z" opacity="0" fill="#00efff" stroke-width="0.5"/><path d="M135.84,47.146c-1.2396.000075-2.2499,1.0104-2.25,2.25v6c-.00024,1.2398,1.0102,2.2499,2.25,2.25c1.2398-.000074,2.2502-1.0102,2.25-2.25v-6c-.00007-1.2396-1.0104-2.2499-2.25-2.25Zm0,.5c.96938.000059,1.7499.78063,1.75,1.75v6c.00019.96955-.78044,1.7499-1.75,1.75-.96955-.000058-1.7502-.78045-1.75-1.75v-6c.00006-.96937.78063-1.7499,1.75-1.75Z"/><g><path d="M136.54,53.155q-.14572.06976-.2775.10852-.13022.03876-.2775.03876-.18759,0-.34417-.05426-.15657-.05581-.2682-.16743-.11317-.11162-.17518-.28215t-.062-.39843q0-.42478.23254-.66663.2341-.24184.61702-.24184.14883,0,.29145.04186.14418.04186.26355.10232v.32401h-.0155q-.13332-.10387-.27595-.15968-.14108-.05581-.27595-.05581-.24805,0-.39223.16743-.14262.16588-.14262.48834q0,.31316.13952.48214.14108.16743.39533.16743.0884,0,.17983-.02325t.16433-.06046q.0636-.03256.11938-.06821.0558-.03721.0884-.06356h.0155Z"/></g><g><path id="eAs4wocRBkZ152" d="M135.84,47.397c-1.104491.000055-1.999845.895409-1.9999,1.9999v6.0002c-.000106.530485.210547,1.03928.58561,1.414437s.883805.585936,1.41429.585963s1.039228-.210807,1.41429-.585963.585716-.883952.58561-1.414437v-6.0002c-.000055-1.104491-.895409-1.999845-1.9999-1.9999Z" opacity="0" stroke-width="0"/></g><g><path id="eAs4wocRBkZ154" d="M136.54,53.155q-.14572.06976-.2775.10852-.13022.03876-.2775.03876-.18759,0-.34417-.05426-.15657-.05581-.2682-.16743-.11317-.11162-.17518-.28215t-.062-.39843q0-.42478.23254-.66663.2341-.24184.61702-.24184.14883,0,.29145.04186.14418.04186.26355.10232v.32401h-.0155q-.13332-.10387-.27595-.15968-.14108-.05581-.27595-.05581-.24805,0-.39223.16743-.14262.16588-.14262.48834q0,.31316.13952.48214.14108.16743.39533.16743.0884,0,.17983-.02325t.16433-.06046q.0636-.03256.11938-.06821.0558-.03721.0884-.06356h.0155Z" opacity="0" fill="#fff"/></g><g transform="translate(107.01-73.548)"><path d="M30.458,-122.98c0,.899727-.729373,1.6291-1.6291,1.6291s-1.6291-.729373-1.6291-1.6291.729373-1.6291,1.6291-1.6291s1.6291.729373,1.6291,1.6291Z" transform="matrix(1 0 0-1 0 0)" fill="#008000" stroke-width="0.27451"/><g><path d="M29.926,124.09h-.39842l-.77205-.91777h-.43253v.91777h-.30696v-2.3084h.64647q.20929,0,.34882.0279.13953.0264.25115.0961.12557.0791.19534.19999.07131.11937.07131.30385q0,.2496-.12557.41858-.12557.16744-.34572.2527Zm-.71779-1.6588q0-.0992-.03566-.17518-.03411-.0775-.11472-.13023-.06666-.045-.15813-.062-.09147-.0186-.21549-.0186h-.36122v.87126h.31006q.14573,0,.25425-.0248.10852-.0264.18448-.0961.06976-.0651.10232-.14883.03411-.0853.03411-.21549Z" fill="#fff"/></g></g><g transform="translate(122.87-36.767)"><path d="M14.594,-92.171c0,.899727-.729373,1.6291-1.6291,1.6291s-1.6291-.729373-1.6291-1.6291.729373-1.6291,1.6291-1.6291s1.6291.729373,1.6291,1.6291Z" transform="matrix(1 0 0-1 0 0)" fill="#c80000" stroke-width="0.27451"/><g><path d="M14.24,91.238l-.5318,2.0461h-.30644l-.43011-1.6984-.42049,1.6984h-.29956l-.54142-2.0461h.27895l.43011,1.7012.42324-1.7012h.2762l.42736,1.7177.42736-1.7177Z" fill="#fff" stroke-width="0.88638"/></g></g></g><g transform="translate(-118.83 141.06)"><path d="M135.84,21.984c-1.104491.000055-1.999845.895409-1.9999,1.9999v6.0002c-.000106.530485.210547,1.03928.58561,1.414437s.883805.585936,1.41429.585963s1.039228-.210807,1.41429-.585963.585716-.883952.58561-1.414437v-6.0002c-.000055-1.104491-.895409-1.999845-1.9999-1.9999Z" fill="#fff" stroke-width="0.5"/><path d="M135.84,21.734c-1.2396.000074-2.2499,1.0104-2.25,2.25v6c-.00024,1.2398,1.0102,2.2499,2.25,2.25c1.2398-.000074,2.2502-1.0102,2.25-2.25v-6c-.00007-1.2396-1.0104-2.2499-2.25-2.25Zm0,.5c.96938.000058,1.7499.78062,1.75,1.75v6c.00019.96955-.78044,1.7499-1.75,1.75-.96955-.000058-1.7502-.78045-1.75-1.75v-6c.00006-.96938.78063-1.7499,1.75-1.75Z"/><path id="eAs4wocRBkZ166" d="M135.84,21.984c-1.104491.000055-1.999845.895409-1.9999,1.9999v6.0002c-.000106.530485.210547,1.03928.58561,1.414437s.883805.585936,1.41429.585963s1.039228-.210807,1.41429-.585963.585716-.883952.58561-1.414437v-6.0002c-.000055-1.104491-.895409-1.999845-1.9999-1.9999Z" opacity="0" fill="#00efff" stroke-width="0.5"/><path d="M135.84,21.734c-1.2396.000074-2.2499,1.0104-2.25,2.25v6c-.00024,1.2398,1.0102,2.2499,2.25,2.25c1.2398-.000074,2.2502-1.0102,2.25-2.25v-6c-.00007-1.2396-1.0104-2.2499-2.25-2.25Zm0,.5c.96938.000058,1.7499.78062,1.75,1.75v6c.00019.96955-.78044,1.7499-1.75,1.75-.96955-.000058-1.7502-.78045-1.75-1.75v-6c.00006-.96938.78063-1.7499,1.75-1.75Z"/><g><path d="M136.6,28.167h-.29145v-.18138q-.12558.10852-.262.16898t-.29611.06046q-.31006,0-.49299-.23875-.18139-.23874-.18139-.66198q0-.22014.062-.39222.0636-.17208.17053-.293.10542-.11782.24494-.17983.14108-.06201.29146-.06201.13642,0,.24184.02946.10542.0279.2217.08837v-.75034h.29145Zm-.29145-.42633v-.99374q-.11783-.05271-.21084-.07286t-.20309-.02015q-.24495,0-.38137.17053t-.13643.48369q0,.30851.10542.46974.10542.15968.33796.15968.12403,0,.25115-.05426.12713-.05581.2372-.14263Z"/></g><g><path id="eAs4wocRBkZ171" d="M135.84,21.984c-1.104491.000055-1.999845.895409-1.9999,1.9999v6.0002c-.000106.530485.210547,1.03928.58561,1.414437s.883805.585936,1.41429.585963s1.039228-.210807,1.41429-.585963.585716-.883952.58561-1.414437v-6.0002c-.000055-1.104491-.895409-1.999845-1.9999-1.9999Z" opacity="0" stroke-width="0"/></g><g><path id="eAs4wocRBkZ173" d="M136.6,28.167h-.29145v-.18138q-.12558.10852-.262.16898t-.29611.06046q-.31006,0-.49299-.23875-.18139-.23874-.18139-.66198q0-.22014.062-.39222.0636-.17208.17053-.293.10542-.11782.24494-.17983.14108-.06201.29146-.06201.13642,0,.24184.02946.10542.0279.2217.08837v-.75034h.29145Zm-.29145-.42633v-.99374q-.11783-.05271-.21084-.07286t-.20309-.02015q-.24495,0-.38137.17053t-.13643.48369q0,.30851.10542.46974.10542.15968.33796.15968.12403,0,.25115-.05426.12713-.05581.2372-.14263Z" opacity="0" fill="#fff"/></g><g transform="translate(122.87-68.151)"><path d="M14.594,-92.171c0,.899727-.729373,1.6291-1.6291,1.6291s-1.6291-.729373-1.6291-1.6291.729373-1.6291,1.6291-1.6291s1.6291.729373,1.6291,1.6291Z" transform="matrix(1 0 0-1 0 0)" fill="#c80000" stroke-width="0.27451"/><g><path d="M14.24,91.238l-.5318,2.0461h-.30644l-.43011-1.6984-.42049,1.6984h-.29956l-.54142-2.0461h.27895l.43011,1.7012.42324-1.7012h.2762l.42736,1.7177.42736-1.7177Z" fill="#fff" stroke-width="0.88638"/></g></g><g transform="translate(107.01-92.989)"><path d="M30.458,-122.98c0,.899727-.729373,1.6291-1.6291,1.6291s-1.6291-.729373-1.6291-1.6291.729373-1.6291,1.6291-1.6291s1.6291.729373,1.6291,1.6291Z" transform="matrix(1 0 0-1 0 0)" fill="#008000" stroke-width="0.27451"/><g><path d="M29.926,124.09h-.39842l-.77205-.91777h-.43253v.91777h-.30696v-2.3084h.64647q.20929,0,.34882.0279.13953.0264.25115.0961.12557.0791.19534.19999.07131.11937.07131.30385q0,.2496-.12557.41858-.12557.16744-.34572.2527Zm-.71779-1.6588q0-.0992-.03566-.17518-.03411-.0775-.11472-.13023-.06666-.045-.15813-.062-.09147-.0186-.21549-.0186h-.36122v.87126h.31006q.14573,0,.25425-.0248.10852-.0264.18448-.0961.06976-.0651.10232-.14883.03411-.0853.03411-.21549Z" fill="#fff"/></g></g></g><g transform="translate(-118.83 92.771)"><path d="M143.41,47.397c-1.104491.000055-1.999845.895409-1.9999,1.9999v6.0002c-.000106.530485.210547,1.03928.58561,1.414437s.883805.585936,1.41429.585963s1.039228-.210807,1.41429-.585963.585716-.883952.58561-1.414437v-6.0002c-.000055-1.104491-.895409-1.999845-1.9999-1.9999Z" fill="#fff" stroke-width="0.5"/><path d="M143.41,47.146c-1.2396.000075-2.2499,1.0104-2.25,2.25v6c-.00024,1.2398,1.0102,2.2499,2.25,2.25c1.2398-.000074,2.2502-1.0102,2.25-2.25v-6c-.00008-1.2396-1.0104-2.2499-2.25-2.25Zm0,.5c.96937.000059,1.7499.78063,1.75,1.75v6c.00019.96955-.78045,1.7499-1.75,1.75-.96955-.000058-1.7502-.78045-1.75-1.75v-6c.00006-.96937.78063-1.7499,1.75-1.75Z"/><path id="eAs4wocRBkZ185" d="M143.41,47.397c-1.104491.000055-1.999845.895409-1.9999,1.9999v6.0002c-.000106.530485.210547,1.03928.58561,1.414437s.883805.585936,1.41429.585963s1.039228-.210807,1.41429-.585963.585716-.883952.58561-1.414437v-6.0002c-.000055-1.104491-.895409-1.999845-1.9999-1.9999Z" opacity="0" fill="#00efff" stroke-width="0.5"/><path d="M143.41,47.146c-1.2396.000075-2.2499,1.0104-2.25,2.25v6c-.00024,1.2398,1.0102,2.2499,2.25,2.25c1.2398-.000074,2.2502-1.0102,2.25-2.25v-6c-.00008-1.2396-1.0104-2.2499-2.25-2.25Zm0,.5c.96937.000059,1.7499.78063,1.75,1.75v6c.00019.96955-.78045,1.7499-1.75,1.75-.96955-.000058-1.7502-.78045-1.75-1.75v-6c.00006-.96937.78063-1.7499,1.75-1.75Z"/><g><path d="M144.19,52.431h-1.2759q0,.15968.0481.27905.0481.11782.13178.19379.0806.07441.19068.11162.11163.03721.24495.03721.17673,0,.35502-.06976.17983-.07131.2558-.13953h.0155v.31781q-.14728.06201-.30076.10387t-.32246.04186q-.43098,0-.67283-.23254-.24184-.23409-.24184-.66352q0-.42478.23099-.67438.23255-.2496.61082-.2496.35036,0,.5395.20464.19069.20464.19069.58136Zm-.28371-.22324q-.002-.22944-.11627-.35502-.11317-.12557-.34572-.12557-.23409,0-.37362.13798-.13797.13798-.15658.34262Z"/></g><g><path id="eAs4wocRBkZ190" d="M143.41,47.397c-1.104491.000055-1.999845.895409-1.9999,1.9999v6.0002c-.000106.530485.210547,1.03928.58561,1.414437s.883805.585936,1.41429.585963s1.039228-.210807,1.41429-.585963.585716-.883952.58561-1.414437v-6.0002c-.000055-1.104491-.895409-1.999845-1.9999-1.9999Z" opacity="0" stroke-width="0"/></g><g><path id="eAs4wocRBkZ192" d="M144.19,52.431h-1.2759q0,.15968.0481.27905.0481.11782.13178.19379.0806.07441.19068.11162.11163.03721.24495.03721.17673,0,.35502-.06976.17983-.07131.2558-.13953h.0155v.31781q-.14728.06201-.30076.10387t-.32246.04186q-.43098,0-.67283-.23254-.24184-.23409-.24184-.66352q0-.42478.23099-.67438.23255-.2496.61082-.2496.35036,0,.5395.20464.19069.20464.19069.58136Zm-.28371-.22324q-.002-.22944-.11627-.35502-.11317-.12557-.34572-.12557-.23409,0-.37362.13798-.13797.13798-.15658.34262Z" opacity="0" fill="#fff"/></g><g transform="translate(130.44-42.738)"><path d="M14.594,-92.171c0,.899727-.729373,1.6291-1.6291,1.6291s-1.6291-.729373-1.6291-1.6291.729373-1.6291,1.6291-1.6291s1.6291.729373,1.6291,1.6291Z" transform="matrix(1 0 0-1 0 0)" fill="#c80000" stroke-width="0.27451"/><g><path d="M14.24,91.238l-.5318,2.0461h-.30644l-.43011-1.6984-.42049,1.6984h-.29956l-.54142-2.0461h.27895l.43011,1.7012.42324-1.7012h.2762l.42736,1.7177.42736-1.7177Z" fill="#fff" stroke-width="0.88638"/></g></g><g transform="translate(114.58-67.577)"><path d="M30.458,-122.98c0,.899727-.729373,1.6291-1.6291,1.6291s-1.6291-.729373-1.6291-1.6291.729373-1.6291,1.6291-1.6291s1.6291.729373,1.6291,1.6291Z" transform="matrix(1 0 0-1 0 0)" fill="#008000" stroke-width="0.27451"/><g><path d="M29.926,124.09h-.39842l-.77205-.91777h-.43253v.91777h-.30696v-2.3084h.64647q.20929,0,.34882.0279.13953.0264.25115.0961.12557.0791.19534.19999.07131.11937.07131.30385q0,.2496-.12557.41858-.12557.16744-.34572.2527Zm-.71779-1.6588q0-.0992-.03566-.17518-.03411-.0775-.11472-.13023-.06666-.045-.15813-.062-.09147-.0186-.21549-.0186h-.36122v.87126h.31006q.14573,0,.25425-.0248.10852-.0264.18448-.0961.06976-.0651.10232-.14883.03411-.0853.03411-.21549Z" fill="#fff"/></g></g></g><g transform="translate(-118.83 141.06)"><path d="M143.41,21.984c-1.104491.000055-1.999845.895409-1.9999,1.9999v6.0002c-.000106.530485.210547,1.03928.58561,1.414437s.883805.585936,1.41429.585963s1.039228-.210807,1.41429-.585963.585716-.883952.58561-1.414437v-6.0002c-.000055-1.104491-.895409-1.999845-1.9999-1.9999Z" fill="#fff" stroke-width="0.5"/><path d="M143.41,21.734c-1.2396.000074-2.2499,1.0104-2.25,2.25v6c-.00024,1.2398,1.0102,2.2499,2.25,2.25c1.2398-.000074,2.2502-1.0102,2.25-2.25v-6c-.00008-1.2396-1.0104-2.2499-2.25-2.25Zm0,.5c.96937.000058,1.7499.78063,1.75,1.75v6c.00019.96955-.78045,1.7499-1.75,1.75-.96955-.000058-1.7502-.78045-1.75-1.75v-6c.00006-.96937.78063-1.7499,1.75-1.75Z"/><path id="eAs4wocRBkZ204" d="M143.41,21.984c-1.104491.000055-1.999845.895409-1.9999,1.9999v6.0002c-.000106.530485.210547,1.03928.58561,1.414437s.883805.585936,1.41429.585963s1.039228-.210807,1.41429-.585963.585716-.883952.58561-1.414437v-6.0002c-.000055-1.104491-.895409-1.999845-1.9999-1.9999Z" opacity="0" fill="#00efff" stroke-width="0.5"/><path d="M143.41,21.734c-1.2396.000074-2.2499,1.0104-2.25,2.25v6c-.00024,1.2398,1.0102,2.2499,2.25,2.25c1.2398-.000074,2.2502-1.0102,2.25-2.25v-6c-.00008-1.2396-1.0104-2.2499-2.25-2.25Zm0,.5c.96937.000058,1.7499.78063,1.75,1.75v6c.00019.96955-.78045,1.7499-1.75,1.75-.96955-.000058-1.7502-.78045-1.75-1.75v-6c.00006-.96937.78063-1.7499,1.75-1.75Z"/><g><path d="M143.96,26.068h-.0155q-.0481-.01395-.12558-.02791-.0775-.0155-.13642-.0155-.18759,0-.27286.08372-.0837.08216-.0837.29921v.05891h.52555v.24495h-.51625v1.4867h-.29145v-1.4867h-.19689v-.24495h.19689v-.05736q0-.30851.15347-.47284.15348-.16588.44339-.16588.0977,0,.17518.0093.0791.0093.14418.0217Z"/></g><g><path id="eAs4wocRBkZ209" d="M143.41,21.984c-1.104491.000055-1.999845.895409-1.9999,1.9999v6.0002c-.000106.530485.210547,1.03928.58561,1.414437s.883805.585936,1.41429.585963s1.039228-.210807,1.41429-.585963.585716-.883952.58561-1.414437v-6.0002c-.000055-1.104491-.895409-1.999845-1.9999-1.9999Z" opacity="0" stroke-width="0"/></g><g><path id="eAs4wocRBkZ211" d="M143.96,26.068h-.0155q-.0481-.01395-.12558-.02791-.0775-.0155-.13642-.0155-.18759,0-.27286.08372-.0837.08216-.0837.29921v.05891h.52555v.24495h-.51625v1.4867h-.29145v-1.4867h-.19689v-.24495h.19689v-.05736q0-.30851.15347-.47284.15348-.16588.44339-.16588.0977,0,.17518.0093.0791.0093.14418.0217Z" opacity="0" fill="#fff"/></g><g transform="translate(114.58-98.96)"><path d="M30.458,-122.98c0,.899727-.729373,1.6291-1.6291,1.6291s-1.6291-.729373-1.6291-1.6291.729373-1.6291,1.6291-1.6291s1.6291.729373,1.6291,1.6291Z" transform="matrix(1 0 0-1 0 0)" fill="#008000" stroke-width="0.27451"/><g><path d="M29.926,124.09h-.39842l-.77205-.91777h-.43253v.91777h-.30696v-2.3084h.64647q.20929,0,.34882.0279.13953.0264.25115.0961.12557.0791.19534.19999.07131.11937.07131.30385q0,.2496-.12557.41858-.12557.16744-.34572.2527Zm-.71779-1.6588q0-.0992-.03566-.17518-.03411-.0775-.11472-.13023-.06666-.045-.15813-.062-.09147-.0186-.21549-.0186h-.36122v.87126h.31006q.14573,0,.25425-.0248.10852-.0264.18448-.0961.06976-.0651.10232-.14883.03411-.0853.03411-.21549Z" fill="#fff"/></g></g><g transform="translate(114.58-92.989)"><path d="M30.458,-122.98c0,.899727-.729373,1.6291-1.6291,1.6291s-1.6291-.729373-1.6291-1.6291.729373-1.6291,1.6291-1.6291s1.6291.729373,1.6291,1.6291Z" transform="matrix(1 0 0-1 0 0)" fill="#008000" stroke-width="0.27451"/><g><path d="M29.926,124.09h-.39842l-.77205-.91777h-.43253v.91777h-.30696v-2.3084h.64647q.20929,0,.34882.0279.13953.0264.25115.0961.12557.0791.19534.19999.07131.11937.07131.30385q0,.2496-.12557.41858-.12557.16744-.34572.2527Zm-.71779-1.6588q0-.0992-.03566-.17518-.03411-.0775-.11472-.13023-.06666-.045-.15813-.062-.09147-.0186-.21549-.0186h-.36122v.87126h.31006q.14573,0,.25425-.0248.10852-.0264.18448-.0961.06976-.0651.10232-.14883.03411-.0853.03411-.21549Z" fill="#fff"/></g></g></g><g transform="translate(-118.83 92.771)"><path d="M150.97,58.833c-1.104491.000055-1.999845.895409-1.9999,1.9999v6.0002c-.000106.530485.210547,1.03928.58561,1.414437s.883805.585936,1.41429.585963s1.039228-.210807,1.41429-.585963.585716-.883952.58561-1.414437v-6.0002c-.000055-1.104491-.895409-1.999845-1.9999-1.9999Z" fill="#fff" stroke-width="0.5"/><path d="M150.97,58.582c-1.2396.000075-2.2499,1.0104-2.25,2.25v6c-.00025,1.2398,1.0102,2.2499,2.25,2.25c1.2398-.000074,2.2502-1.0102,2.25-2.25v-6c-.00008-1.2396-1.0104-2.2499-2.25-2.25Zm0,.5c.96937.000058,1.7499.78063,1.75,1.75v6c.00019.96955-.78045,1.7499-1.75,1.75-.96956-.000058-1.7502-.78045-1.75-1.75v-6c.00006-.96937.78062-1.7499,1.75-1.75Z"/><path id="eAs4wocRBkZ223" d="M150.97,58.833c-1.104491.000055-1.999845.895409-1.9999,1.9999v6.0002c-.000106.530485.210547,1.03928.58561,1.414437s.883805.585936,1.41429.585963s1.039228-.210807,1.41429-.585963.585716-.883952.58561-1.414437v-6.0002c-.000055-1.104491-.895409-1.999845-1.9999-1.9999Z" opacity="0" fill="#00efff" stroke-width="0.5"/><path d="M150.97,58.582c-1.2396.000075-2.2499,1.0104-2.25,2.25v6c-.00025,1.2398,1.0102,2.2499,2.25,2.25c1.2398-.000074,2.2502-1.0102,2.25-2.25v-6c-.00008-1.2396-1.0104-2.2499-2.25-2.25Zm0,.5c.96937.000058,1.7499.78063,1.75,1.75v6c.00019.96955-.78045,1.7499-1.75,1.75-.96956-.000058-1.7502-.78045-1.75-1.75v-6c.00006-.96937.78062-1.7499,1.75-1.75Z"/><g><path d="M151.73,64.198q0,.44028-.19999.64647t-.61546.20619q-.13798,0-.26975-.02015-.13023-.0186-.25735-.05426v-.29766h.0155q.0713.02791.22634.06821.15503.04186.31006.04186.14883,0,.2465-.03566t.15193-.09922q.0543-.06046.0775-.14573.0233-.08527.0233-.19069v-.15813q-.13178.10542-.2527.15813-.11937.05116-.30541.05116-.31006,0-.49299-.22324-.18139-.22479-.18139-.63252q0-.22324.062-.38447.0636-.16278.17208-.2806.10077-.11007.24495-.17053.14417-.06201.2868-.06201.15038,0,.25115.03101.10232.02946.21549.09147l.0186-.07441h.27285Zm-.29145-.27905v-.94413q-.11627-.05271-.21704-.07442-.0992-.02325-.19844-.02325-.2403,0-.37827.16123t-.13798.46819q0,.29146.10232.44183t.33951.15038q.12713,0,.25425-.04806.12868-.04961.23565-.13178Z"/></g><g><path id="eAs4wocRBkZ228" d="M150.97,58.833c-1.104491.000055-1.999845.895409-1.9999,1.9999v6.0002c-.000106.530485.210547,1.03928.58561,1.414437s.883805.585936,1.41429.585963s1.039228-.210807,1.41429-.585963.585716-.883952.58561-1.414437v-6.0002c-.000055-1.104491-.895409-1.999845-1.9999-1.9999Z" transform="translate(0-.035477)" opacity="0" stroke-width="0"/></g><g><path id="eAs4wocRBkZ230" d="M151.73,64.198q0,.44028-.19999.64647t-.61546.20619q-.13798,0-.26975-.02015-.13023-.0186-.25735-.05426v-.29766h.0155q.0713.02791.22634.06821.15503.04186.31006.04186.14883,0,.2465-.03566t.15193-.09922q.0543-.06046.0775-.14573.0233-.08527.0233-.19069v-.15813q-.13178.10542-.2527.15813-.11937.05116-.30541.05116-.31006,0-.49299-.22324-.18139-.22479-.18139-.63252q0-.22324.062-.38447.0636-.16278.17208-.2806.10077-.11007.24495-.17053.14417-.06201.2868-.06201.15038,0,.25115.03101.10232.02946.21549.09147l.0186-.07441h.27285Zm-.29145-.27905v-.94413q-.11627-.05271-.21704-.07442-.0992-.02325-.19844-.02325-.2403,0-.37827.16123t-.13798.46819q0,.29146.10232.44183t.33951.15038q.12713,0,.25425-.04806.12868-.04961.23565-.13178Z" opacity="0" fill="#fff"/></g><g transform="translate(138.01-31.302)"><path d="M14.594,-92.171c0,.899727-.729373,1.6291-1.6291,1.6291s-1.6291-.729373-1.6291-1.6291.729373-1.6291,1.6291-1.6291s1.6291.729373,1.6291,1.6291Z" transform="matrix(1 0 0-1 0 0)" fill="#c80000" stroke-width="0.27451"/><g><path d="M14.24,91.238l-.5318,2.0461h-.30644l-.43011-1.6984-.42049,1.6984h-.29956l-.54142-2.0461h.27895l.43011,1.7012.42324-1.7012h.2762l.42736,1.7177.42736-1.7177Z" fill="#fff" stroke-width="0.88638"/></g></g><g transform="translate(122.14-56.141)"><path d="M30.458,-122.98c0,.899727-.729373,1.6291-1.6291,1.6291s-1.6291-.729373-1.6291-1.6291.729373-1.6291,1.6291-1.6291s1.6291.729373,1.6291,1.6291Z" transform="matrix(1 0 0-1 0 0)" fill="#008000" stroke-width="0.27451"/><g><path d="M29.926,124.09h-.39842l-.77205-.91777h-.43253v.91777h-.30696v-2.3084h.64647q.20929,0,.34882.0279.13953.0264.25115.0961.12557.0791.19534.19999.07131.11937.07131.30385q0,.2496-.12557.41858-.12557.16744-.34572.2527Zm-.71779-1.6588q0-.0992-.03566-.17518-.03411-.0775-.11472-.13023-.06666-.045-.15813-.062-.09147-.0186-.21549-.0186h-.36122v.87126h.31006q.14573,0,.25425-.0248.10852-.0264.18448-.0961.06976-.0651.10232-.14883.03411-.0853.03411-.21549Z" fill="#fff"/></g></g><path d="M154.76,47.397c-1.104491.000055-1.999845.895409-1.9999,1.9999v6.0002c-.000106.530485.210547,1.03928.58561,1.414437s.883805.585936,1.41429.585963s1.039228-.210807,1.41429-.585963.585716-.883952.58561-1.414437v-6.0002c-.000055-1.104491-.895409-1.999845-1.9999-1.9999Z" fill="#fff" stroke-width="0.5"/><path d="M154.76,47.146c-1.2396.000075-2.2499,1.0104-2.25,2.25v6c-.00024,1.2398,1.0102,2.2499,2.25,2.25c1.2398-.000074,2.2502-1.0102,2.25-2.25v-6c-.00008-1.2396-1.0104-2.2499-2.25-2.25Zm0,.5c.96937.000059,1.7499.78063,1.75,1.75v6c.00019.96955-.78045,1.7499-1.75,1.75-.96955-.000058-1.7502-.78045-1.75-1.75v-6c.00006-.96937.78062-1.7499,1.75-1.75Z"/><path id="eAs4wocRBkZ241" d="M154.76,47.397c-1.104491.000055-1.999845.895409-1.9999,1.9999v6.0002c-.000106.530485.210547,1.03928.58561,1.414437s.883805.585936,1.41429.585963s1.039228-.210807,1.41429-.585963.585716-.883952.58561-1.414437v-6.0002c-.000055-1.104491-.895409-1.999845-1.9999-1.9999Z" opacity="0" fill="#00efff" stroke-width="0.5"/><path d="M154.76,47.146c-1.2396.000075-2.2499,1.0104-2.25,2.25v6c-.00024,1.2398,1.0102,2.2499,2.25,2.25c1.2398-.000074,2.2502-1.0102,2.25-2.25v-6c-.00008-1.2396-1.0104-2.2499-2.25-2.25Zm0,.5c.96937.000059,1.7499.78063,1.75,1.75v6c.00019.96955-.78045,1.7499-1.75,1.75-.96955-.000058-1.7502-.78045-1.75-1.75v-6c.00006-.96937.78062-1.7499,1.75-1.75Z"/><g><path d="M155.48,53.603h-.29145v-.98599q0-.11937-.014-.22324-.0139-.10542-.0512-.16433-.0387-.06511-.11162-.09612-.0729-.03256-.18913-.03256-.11938,0-.2496.05891t-.2496.15038v1.2929h-.29145v-2.4123h.29145v.87282q.13643-.11317.28216-.17673t.2992-.06356q.2806,0,.42788.16898t.14728.48679Z"/></g><g><path id="eAs4wocRBkZ246" d="M154.76,47.397c-1.104491.000055-1.999845.895409-1.9999,1.9999v6.0002c-.000106.530485.210547,1.03928.58561,1.414437s.883805.585936,1.41429.585963s1.039228-.210807,1.41429-.585963.585716-.883952.58561-1.414437v-6.0002c-.000055-1.104491-.895409-1.999845-1.9999-1.9999Z" opacity="0" stroke-width="0"/></g><g><path id="eAs4wocRBkZ248" d="M155.48,53.603h-.29145v-.98599q0-.11937-.014-.22324-.0139-.10542-.0512-.16433-.0387-.06511-.11162-.09612-.0729-.03256-.18913-.03256-.11938,0-.2496.05891t-.2496.15038v1.2929h-.29145v-2.4123h.29145v.87282q.13643-.11317.28216-.17673t.2992-.06356q.2806,0,.42788.16898t.14728.48679Z" opacity="0" fill="#fff"/></g><g transform="translate(141.79-42.738)"><path d="M14.594,-92.171c0,.899727-.729373,1.6291-1.6291,1.6291s-1.6291-.729373-1.6291-1.6291.729373-1.6291,1.6291-1.6291s1.6291.729373,1.6291,1.6291Z" transform="matrix(1 0 0-1 0 0)" fill="#c80000" stroke-width="0.27451"/><g><path d="M14.24,91.238l-.5318,2.0461h-.30644l-.43011-1.6984-.42049,1.6984h-.29956l-.54142-2.0461h.27895l.43011,1.7012.42324-1.7012h.2762l.42736,1.7177.42736-1.7177Z" fill="#fff" stroke-width="0.88638"/></g></g><g transform="translate(125.93-67.577)"><path d="M30.458,-122.98c0,.899727-.729373,1.6291-1.6291,1.6291s-1.6291-.729373-1.6291-1.6291.729373-1.6291,1.6291-1.6291s1.6291.729373,1.6291,1.6291Z" transform="matrix(1 0 0-1 0 0)" fill="#008000" stroke-width="0.27451"/><g><path d="M29.926,124.09h-.39842l-.77205-.91777h-.43253v.91777h-.30696v-2.3084h.64647q.20929,0,.34882.0279.13953.0264.25115.0961.12557.0791.19534.19999.07131.11937.07131.30385q0,.2496-.12557.41858-.12557.16744-.34572.2527Zm-.71779-1.6588q0-.0992-.03566-.17518-.03411-.0775-.11472-.13023-.06666-.045-.15813-.062-.09147-.0186-.21549-.0186h-.36122v.87126h.31006q.14573,0,.25425-.0248.10852-.0264.18448-.0961.06976-.0651.10232-.14883.03411-.0853.03411-.21549Z" fill="#fff"/></g></g><path d="M154.76,70.268c-1.104491.000055-1.999845.895409-1.9999,1.9999v6.0002c-.000106.530485.210547,1.03928.58561,1.414437s.883805.585936,1.41429.585963s1.039228-.210807,1.41429-.585963.585716-.883952.58561-1.414437v-6.0002c-.000055-1.104491-.895409-1.999845-1.9999-1.9999Z" fill="#fff" stroke-width="0.5"/><path d="M154.76,70.018c-1.2396.000074-2.2499,1.0104-2.25,2.25v6c-.00024,1.2398,1.0102,2.2519,2.25,2.252c1.2398-.000074,2.2502-1.0122,2.25-2.252v-6c-.00008-1.2396-1.0104-2.2499-2.25-2.25Zm0,.5c.96937.000058,1.7499.78062,1.75,1.75v6c.00019.96955-.78045,1.7519-1.75,1.752-.96955-.000058-1.7502-.7824-1.75-1.752v-6c.00006-.96938.78062-1.7499,1.75-1.75Z"/><path id="eAs4wocRBkZ259" d="M154.76,70.268c-1.104491.000055-1.999845.895409-1.9999,1.9999v6.0002c-.000106.530485.210547,1.03928.58561,1.414437s.883805.585936,1.41429.585963s1.039228-.210807,1.41429-.585963.585716-.883952.58561-1.414437v-6.0002c-.000055-1.104491-.895409-1.999845-1.9999-1.9999Z" opacity="0" fill="#00efff" stroke-width="0.5"/><path d="M154.76,70.018c-1.2396.000074-2.2499,1.0104-2.25,2.25v6c-.00024,1.2398,1.0102,2.2519,2.25,2.252c1.2398-.000074,2.2502-1.0122,2.25-2.252v-6c-.00008-1.2396-1.0104-2.2499-2.25-2.25Zm0,.5c.96937.000058,1.7499.78062,1.75,1.75v6c.00019.96955-.78045,1.7519-1.75,1.752-.96955-.000058-1.7502-.7824-1.75-1.752v-6c.00006-.96938.78062-1.7499,1.75-1.75Z"/><g><path d="M154.92,74.409h-.32866v-.30231h.32866Zm-.0186,2.0216h-.29146v-1.7317h.29146Z"/></g><g><path id="eAs4wocRBkZ264" d="M154.76,70.268c-1.104491.000055-1.999845.895409-1.9999,1.9999v6.0002c-.000106.530485.210547,1.03928.58561,1.414437s.883805.585936,1.41429.585963s1.039228-.210807,1.41429-.585963.585716-.883952.58561-1.414437v-6.0002c-.000055-1.104491-.895409-1.999845-1.9999-1.9999Z" opacity="0" stroke-width="0"/></g><g><path id="eAs4wocRBkZ266" d="M154.92,74.409h-.32866v-.30231h.32866Zm-.0186,2.0216h-.29146v-1.7317h.29146Z" opacity="0" fill="#fff"/></g><g transform="translate(141.79-19.867)"><path d="M14.594,-92.171c0,.899727-.729373,1.6291-1.6291,1.6291s-1.6291-.729373-1.6291-1.6291.729373-1.6291,1.6291-1.6291s1.6291.729373,1.6291,1.6291Z" transform="matrix(1 0 0-1 0 0)" fill="#c80000" stroke-width="0.27451"/><g><path d="M14.24,91.238l-.5318,2.0461h-.30644l-.43011-1.6984-.42049,1.6984h-.29956l-.54142-2.0461h.27895l.43011,1.7012.42324-1.7012h.2762l.42736,1.7177.42736-1.7177Z" fill="#fff" stroke-width="0.88638"/></g></g><g transform="translate(125.93-44.705)"><path d="M30.458,-122.98c0,.899727-.729373,1.6291-1.6291,1.6291s-1.6291-.729373-1.6291-1.6291.729373-1.6291,1.6291-1.6291s1.6291.729373,1.6291,1.6291Z" transform="matrix(1 0 0-1 0 0)" fill="#008000" stroke-width="0.27451"/><g><path d="M29.926,124.09h-.39842l-.77205-.91777h-.43253v.91777h-.30696v-2.3084h.64647q.20929,0,.34882.0279.13953.0264.25115.0961.12557.0791.19534.19999.07131.11937.07131.30385q0,.2496-.12557.41858-.12557.16744-.34572.2527Zm-.71779-1.6588q0-.0992-.03566-.17518-.03411-.0775-.11472-.13023-.06666-.045-.15813-.062-.09147-.0186-.21549-.0186h-.36122v.87126h.31006q.14573,0,.25425-.0248.10852-.0264.18448-.0961.06976-.0651.10232-.14883.03411-.0853.03411-.21549Z" fill="#fff"/></g></g><path d="M162.32,47.397c-1.104491.000055-1.999845.895409-1.9999,1.9999v6.0001c-.000106.530485.210547,1.03928.58561,1.414437s.883805.585936,1.41429.585963s1.039228-.210807,1.41429-.585963.585716-.883952.58561-1.414437v-6.0001c-.000055-1.104491-.895409-1.999845-1.9999-1.9999Z" fill="#fff" stroke-width="0.5"/><path d="M162.32,47.146c-1.2396.000075-2.2499,1.0104-2.25,2.25v6c-.00025,1.2398,1.0102,2.2499,2.25,2.25c1.2398-.000074,2.2502-1.0102,2.25-2.25v-6c-.00008-1.2396-1.0104-2.2499-2.25-2.25Zm0,.5c.96937.000059,1.7499.78063,1.75,1.75v6c.00019.96956-.78045,1.7499-1.75,1.75-.96956-.000058-1.7502-.78044-1.75-1.75v-6c.00005-.96937.78062-1.7499,1.75-1.75Z"/><path id="eAs4wocRBkZ277" d="M162.32,47.397c-1.104491.000055-1.999845.895409-1.9999,1.9999v6.0001c-.000106.530485.210547,1.03928.58561,1.414437s.883805.585936,1.41429.585963s1.039228-.210807,1.41429-.585963.585716-.883952.58561-1.414437v-6.0001c-.000055-1.104491-.895409-1.999845-1.9999-1.9999Z" opacity="0" fill="#00efff" stroke-width="0.5"/><path d="M162.32,47.146c-1.2396.000075-2.2499,1.0104-2.25,2.25v6c-.00025,1.2398,1.0102,2.2499,2.25,2.25c1.2398-.000074,2.2502-1.0102,2.25-2.25v-6c-.00008-1.2396-1.0104-2.2499-2.25-2.25Zm0,.5c.96937.000059,1.7499.78063,1.75,1.75v6c.00019.96956-.78045,1.7499-1.75,1.75-.96956-.000058-1.7502-.78044-1.75-1.75v-6c.00005-.96937.78062-1.7499,1.75-1.75Z"/><g><path d="M162.68,51.473h-.25563v-.23513h.25563Zm-.0145,1.6049q0,.23633-.12058.35691t-.32315.12058q-.0482,0-.12781-.0096-.0784-.0096-.13143-.02412v-.21584h.012q.0338.01326.0904.03014.0579.01688.11214.01688.0868,0,.13987-.02412t.0796-.07235.0338-.11696q.008-.06752.008-.16519v-1.0852h-.28095v-.19051h.50764Z"/></g><g><path id="eAs4wocRBkZ282" d="M162.32,47.397c-1.104491.000055-1.999845.895409-1.9999,1.9999v6.0001c-.000106.530485.210547,1.03928.58561,1.414437s.883805.585936,1.41429.585963s1.039228-.210807,1.41429-.585963.585716-.883952.58561-1.414437v-6.0001c-.000055-1.104491-.895409-1.999845-1.9999-1.9999Z" opacity="0" stroke-width="0"/></g><g><path id="eAs4wocRBkZ284" d="M162.68,51.473h-.25563v-.23513h.25563Zm-.0145,1.6049q0,.23633-.12058.35691t-.32315.12058q-.0482,0-.12781-.0096-.0784-.0096-.13143-.02412v-.21584h.012q.0338.01326.0904.03014.0579.01688.11214.01688.0868,0,.13987-.02412t.0796-.07235.0338-.11696q.008-.06752.008-.16519v-1.0852h-.28095v-.19051h.50764Z" opacity="0" fill="#fff"/></g><g transform="translate(149.36-36.767)"><path d="M14.594,-92.171c0,.899727-.729373,1.6291-1.6291,1.6291s-1.6291-.729373-1.6291-1.6291.729373-1.6291,1.6291-1.6291s1.6291.729373,1.6291,1.6291Z" transform="matrix(1 0 0-1 0 0)" fill="#c80000" stroke-width="0.27451"/><g><path d="M14.24,91.238l-.5318,2.0461h-.30644l-.43011-1.6984-.42049,1.6984h-.29956l-.54142-2.0461h.27895l.43011,1.7012.42324-1.7012h.2762l.42736,1.7177.42736-1.7177Z" fill="#fff" stroke-width="0.88638"/></g></g><g transform="translate(149.36-42.738)"><path d="M14.594,-92.171c0,.899727-.729373,1.6291-1.6291,1.6291s-1.6291-.729373-1.6291-1.6291.729373-1.6291,1.6291-1.6291s1.6291.729373,1.6291,1.6291Z" transform="matrix(1 0 0-1 0 0)" fill="#c80000" stroke-width="0.27451"/><g><path d="M14.24,91.238l-.5318,2.0461h-.30644l-.43011-1.6984-.42049,1.6984h-.29956l-.54142-2.0461h.27895l.43011,1.7012.42324-1.7012h.2762l.42736,1.7177.42736-1.7177Z" fill="#fff" stroke-width="0.88638"/></g></g></g></g></svg>
