<?xml version="1.0" encoding="UTF-8"?>
<svg width="676.10956mm" height="510.34818mm" version="1.1" viewBox="0 0 676.10955 510.34818" xmlns="http://www.w3.org/2000/svg"><defs><marker id="a" overflow="visible" orient="auto"><path transform="matrix(-.4 0 0 -.4 -4 0)" d="m0 0 5-5-17.5 5 17.5 5z" fill-rule="evenodd" stroke="#000" stroke-width="1pt"/></marker><marker id="b" overflow="visible" orient="auto"><path transform="matrix(-.4 0 0 -.4 -4 0)" d="m0 0 5-5-17.5 5 17.5 5z" fill-rule="evenodd" stroke="#000" stroke-width="1pt"/></marker><marker id="c" overflow="visible" orient="auto"><path transform="matrix(-.4 0 0 -.4 -4 0)" d="m0 0 5-5-17.5 5 17.5 5z" fill-rule="evenodd" stroke="#000" stroke-width="1pt"/></marker><marker id="d" overflow="visible" orient="auto"><path transform="matrix(-.4 0 0 -.4 -4 0)" d="m0 0 5-5-17.5 5 17.5 5z" fill-rule="evenodd" stroke="#000" stroke-width="1pt"/></marker><marker id="af" overflow="visible" orient="auto"><path transform="matrix(-.4 0 0 -.4 -4 0)" d="m0 0 5-5-17.5 5 17.5 5z" fill-rule="evenodd" stroke="#000" stroke-width="1pt"/></marker><marker id="e" overflow="visible" orient="auto"><path transform="matrix(-.4 0 0 -.4 -4 0)" d="m0 0 5-5-17.5 5 17.5 5z" fill="#00f" fill-rule="evenodd" stroke="#00f" stroke-width="1pt"/></marker><marker id="f" overflow="visible" orient="auto"><path transform="matrix(-.4 0 0 -.4 -4 0)" d="m0 0 5-5-17.5 5 17.5 5z" fill="#00f" fill-rule="evenodd" stroke="#00f" stroke-width="1pt"/></marker><marker id="g" overflow="visible" orient="auto"><path transform="matrix(-.4 0 0 -.4 -4 0)" d="m0 0 5-5-17.5 5 17.5 5z" fill="#00f" fill-rule="evenodd" stroke="#00f" stroke-width="1pt"/></marker><marker id="h" overflow="visible" orient="auto"><path transform="matrix(-.4 0 0 -.4 -4 0)" d="m0 0 5-5-17.5 5 17.5 5z" fill="#00f" fill-rule="evenodd" stroke="#00f" stroke-width="1pt"/></marker><marker id="i" overflow="visible" orient="auto"><path transform="matrix(-.4 0 0 -.4 -4 0)" d="m0 0 5-5-17.5 5 17.5 5z" fill="#00f" fill-rule="evenodd" stroke="#00f" stroke-width="1pt"/></marker><marker id="j" overflow="visible" orient="auto"><path transform="matrix(-.4 0 0 -.4 -4 0)" d="m0 0 5-5-17.5 5 17.5 5z" fill="#00f" fill-rule="evenodd" stroke="#00f" stroke-width="1pt"/></marker><marker id="k" overflow="visible" orient="auto"><path transform="matrix(-.4 0 0 -.4 -4 0)" d="m0 0 5-5-17.5 5 17.5 5z" fill="#00f" fill-rule="evenodd" stroke="#00f" stroke-width="1pt"/></marker><marker id="l" overflow="visible" orient="auto"><path transform="matrix(-.4 0 0 -.4 -4 0)" d="m0 0 5-5-17.5 5 17.5 5z" fill="#00f" fill-rule="evenodd" stroke="#00f" stroke-width="1pt"/></marker><marker id="m" overflow="visible" orient="auto"><path transform="matrix(-.4 0 0 -.4 -4 0)" d="m0 0 5-5-17.5 5 17.5 5z" fill="#00f" fill-rule="evenodd" stroke="#00f" stroke-width="1pt"/></marker><marker id="n" overflow="visible" orient="auto"><path transform="matrix(-.4 0 0 -.4 -4 0)" d="m0 0 5-5-17.5 5 17.5 5z" fill="#00f" fill-rule="evenodd" stroke="#00f" stroke-width="1pt"/></marker><marker id="o" overflow="visible" orient="auto"><path transform="matrix(-.4 0 0 -.4 -4 0)" d="m0 0 5-5-17.5 5 17.5 5z" fill="#00f" fill-rule="evenodd" stroke="#00f" stroke-width="1pt"/></marker><marker id="p" overflow="visible" orient="auto"><path transform="matrix(-.4 0 0 -.4 -4 0)" d="m0 0 5-5-17.5 5 17.5 5z" fill="#00f" fill-rule="evenodd" stroke="#00f" stroke-width="1pt"/></marker><marker id="q" overflow="visible" orient="auto"><path transform="matrix(-.4 0 0 -.4 -4 0)" d="m0 0 5-5-17.5 5 17.5 5z" fill="#00f" fill-rule="evenodd" stroke="#00f" stroke-width="1pt"/></marker><marker id="r" overflow="visible" orient="auto"><path transform="matrix(-.4 0 0 -.4 -4 0)" d="m0 0 5-5-17.5 5 17.5 5z" fill="#00f" fill-rule="evenodd" stroke="#00f" stroke-width="1pt"/></marker><marker id="s" overflow="visible" orient="auto"><path transform="matrix(-.4 0 0 -.4 -4 0)" d="m0 0 5-5-17.5 5 17.5 5z" fill="#00f" fill-rule="evenodd" stroke="#00f" stroke-width="1pt"/></marker><marker id="t" overflow="visible" orient="auto"><path transform="matrix(-.4 0 0 -.4 -4 0)" d="m0 0 5-5-17.5 5 17.5 5z" fill="#00f" fill-rule="evenodd" stroke="#00f" stroke-width="1pt"/></marker><marker id="u" overflow="visible" orient="auto"><path transform="matrix(-.4 0 0 -.4 -4 0)" d="m0 0 5-5-17.5 5 17.5 5z" fill="#00f" fill-rule="evenodd" stroke="#00f" stroke-width="1pt"/></marker><marker id="v" overflow="visible" orient="auto"><path transform="matrix(-.4 0 0 -.4 -4 0)" d="m0 0 5-5-17.5 5 17.5 5z" fill="#00f" fill-rule="evenodd" stroke="#00f" stroke-width="1pt"/></marker><marker id="w" overflow="visible" orient="auto"><path transform="matrix(-.4 0 0 -.4 -4 0)" d="m0 0 5-5-17.5 5 17.5 5z" fill="#00f" fill-rule="evenodd" stroke="#00f" stroke-width="1pt"/></marker><marker id="x" overflow="visible" orient="auto"><path transform="matrix(-.4 0 0 -.4 -4 0)" d="m0 0 5-5-17.5 5 17.5 5z" fill="#00f" fill-rule="evenodd" stroke="#00f" stroke-width="1pt"/></marker><marker id="y" overflow="visible" orient="auto"><path transform="matrix(-.4 0 0 -.4 -4 0)" d="m0 0 5-5-17.5 5 17.5 5z" fill="#00f" fill-rule="evenodd" stroke="#00f" stroke-width="1pt"/></marker><marker id="z" overflow="visible" orient="auto"><path transform="matrix(-.4 0 0 -.4 -4 0)" d="m0 0 5-5-17.5 5 17.5 5z" fill="#00f" fill-rule="evenodd" stroke="#00f" stroke-width="1pt"/></marker><marker id="aa" overflow="visible" orient="auto"><path transform="matrix(-.4 0 0 -.4 -4 0)" d="m0 0 5-5-17.5 5 17.5 5z" fill="#00f" fill-rule="evenodd" stroke="#00f" stroke-width="1pt"/></marker><marker id="ab" overflow="visible" orient="auto"><path transform="matrix(-.4 0 0 -.4 -4 0)" d="m0 0 5-5-17.5 5 17.5 5z" fill="#00f" fill-rule="evenodd" stroke="#00f" stroke-width="1pt"/></marker><marker id="ac" overflow="visible" orient="auto"><path transform="matrix(-.4 0 0 -.4 -4 0)" d="m0 0 5-5-17.5 5 17.5 5z" fill="#00f" fill-rule="evenodd" stroke="#00f" stroke-width="1pt"/></marker><marker id="ad" overflow="visible" orient="auto"><path transform="matrix(-.4 0 0 -.4 -4 0)" d="m0 0 5-5-17.5 5 17.5 5z" fill="#00f" fill-rule="evenodd" stroke="#00f" stroke-width="1pt"/></marker><marker id="ae" overflow="visible" orient="auto"><path transform="matrix(-.4 0 0 -.4 -4 0)" d="m0 0 5-5-17.5 5 17.5 5z" fill="#00f" fill-rule="evenodd" stroke="#00f" stroke-width="1pt"/></marker><marker id="ag" overflow="visible" orient="auto"><path transform="matrix(-.4 0 0 -.4 -4 0)" d="m0 0 5-5-17.5 5 17.5 5z" fill="#00f" fill-rule="evenodd" stroke="#00f" stroke-width="1pt"/></marker><marker id="ah" overflow="visible" orient="auto"><path transform="matrix(-.4 0 0 -.4 -4 0)" d="m0 0 5-5-17.5 5 17.5 5z" fill="#00f" fill-rule="evenodd" stroke="#00f" stroke-width="1pt"/></marker></defs><rect width="676.10956" height="510.34818" fill="#fff" stroke-linejoin="round" stroke-width="2.46803"/><rect x="130.63803" y="47.128906" width="541.33746" height="418.57083" fill="#fff" stroke-linejoin="round" stroke-width="2"/><g transform="translate(186.72969,55.066406)"><g fill="none" stroke="#000"><path d="m0 0h480" marker-end="url(#af)"/><path transform="translate(0,100.00012)" d="m0 0h480" marker-end="url(#d)"/><path transform="translate(0,200.00012)" d="m0 0h480" marker-end="url(#c)"/><path transform="translate(0,300.00012)" d="m0 0h480" marker-end="url(#b)"/><path transform="translate(0,400.00012)" d="m0 0h480" marker-end="url(#a)"/></g><text x="-1.4433256" y="2.2517745" fill="#000000" font-family="sans-serif" font-size="10.5833px" stroke-width=".264583" text-align="end" text-anchor="end" style="line-height:1.25" xml:space="preserve"><tspan x="-1.4433255" y="2.2517745" stroke-width=".264583" text-align="end" text-anchor="end">primary 0</tspan></text><g transform="translate(-300)"><path d="m313.66025 4.9999956-5.7735-3e-7 -2.88675-4.999997802 2.88675-4.999997498 5.7735 3e-7 2.88675 4.999997762z" fill="#00f"/><text x="315.8006" y="2.2507172" font-family="sans-serif" font-size="7.05556px" stroke-width=".264583" text-align="end" text-anchor="end" style="line-height:1.25" xml:space="preserve"><tspan x="315.8006" y="2.2507172" fill="#ffffff" stroke-width=".264583">b1</tspan></text></g><g transform="translate(-300,100)"><path d="m313.66025 4.9999956-5.7735-3e-7 -2.88675-4.999997802 2.88675-4.999997498 5.7735 3e-7 2.88675 4.999997762z" fill="#00f"/><text x="315.8006" y="2.2507172" font-family="sans-serif" font-size="7.05556px" stroke-width=".264583" text-align="end" text-anchor="end" style="line-height:1.25" xml:space="preserve"><tspan x="315.8006" y="2.2507172" fill="#ffffff" stroke-width=".264583">b1</tspan></text></g><g transform="translate(-300,200)"><path d="m313.66025 4.9999956-5.7735-3e-7 -2.88675-4.999997802 2.88675-4.999997498 5.7735 3e-7 2.88675 4.999997762z" fill="#00f"/><text x="315.8006" y="2.2507172" font-family="sans-serif" font-size="7.05556px" stroke-width=".264583" text-align="end" text-anchor="end" style="line-height:1.25" xml:space="preserve"><tspan x="315.8006" y="2.2507172" fill="#ffffff" stroke-width=".264583">b1</tspan></text></g><g transform="translate(-300,300)"><path d="m313.66025 4.9999956-5.7735-3e-7 -2.88675-4.999997802 2.88675-4.999997498 5.7735 3e-7 2.88675 4.999997762z" fill="#00f"/><text x="315.8006" y="2.2507172" font-family="sans-serif" font-size="7.05556px" stroke-width=".264583" text-align="end" text-anchor="end" style="line-height:1.25" xml:space="preserve"><tspan x="315.8006" y="2.2507172" fill="#ffffff" stroke-width=".264583">b1</tspan></text></g><path d="m108.66025 4.9999956-5.7735-3e-7 -2.886751-4.999997802 2.886751-4.999997498 5.7735 3e-7 2.88675 4.999997762z" fill="#00f"/><text x="110.27143" y="2.2507172" font-family="sans-serif" font-size="7.05556px" stroke-width=".264583" text-align="end" text-anchor="end" style="line-height:1.25" xml:space="preserve"><tspan x="110.27143" y="2.2507172" fill="#ffffff" stroke-width=".264583">b2</tspan></text><g transform="translate(0,100)"><path d="m108.66025 4.9999956-5.7735-3e-7 -2.886751-4.999997802 2.886751-4.999997498 5.7735 3e-7 2.88675 4.999997762z" fill="#00f"/><text x="110.27143" y="2.2507172" font-family="sans-serif" font-size="7.05556px" stroke-width=".264583" text-align="end" text-anchor="end" style="line-height:1.25" xml:space="preserve"><tspan x="110.27143" y="2.2507172" fill="#ffffff" stroke-width=".264583">b2</tspan></text></g><g transform="translate(0,200)"><path d="m108.66025 4.9999956-5.7735-3e-7 -2.886751-4.999997802 2.886751-4.999997498 5.7735 3e-7 2.88675 4.999997762z" fill="#00f"/><text x="110.27143" y="2.2507172" font-family="sans-serif" font-size="7.05556px" stroke-width=".264583" text-align="end" text-anchor="end" style="line-height:1.25" xml:space="preserve"><tspan x="110.27143" y="2.2507172" fill="#ffffff" stroke-width=".264583">b2</tspan></text></g><g transform="translate(0,300)"><path d="m108.66025 4.9999956-5.7735-3e-7 -2.886751-4.999997802 2.886751-4.999997498 5.7735 3e-7 2.88675 4.999997762z" fill="#00f"/><text x="110.27143" y="2.2507172" font-family="sans-serif" font-size="7.05556px" stroke-width=".264583" text-align="end" text-anchor="end" style="line-height:1.25" xml:space="preserve"><tspan x="110.27143" y="2.2507172" fill="#ffffff" stroke-width=".264583">b2</tspan></text></g><g fill="none" stroke="#00f" stroke-width=".5"><path d="M 99.999995,-2.5018664e-6 C 71.134482,31.760848 42.440151,63.333347 13.660249,95" marker-end="url(#ah)"/><path d="M 99.999997,-2.5018664e-6 C 71.236385,64.963175 42.440112,130.00012 13.660249,195" marker-end="url(#ag)"/><path transform="translate(0,99.999793)" d="M 99.999995,-2.5018664e-6 C 71.134482,31.760848 42.440151,63.333347 13.660249,95" marker-end="url(#ad)"/><path transform="translate(0,99.999793)" d="M 99.999997,-2.5018664e-6 C 71.236385,64.963175 42.440112,130.00012 13.660249,195" marker-end="url(#ae)"/><path transform="translate(0,99.999793)" d="m99.999999 100.0002c-28.763573 31.64862-57.559843 63.33321-86.33975 94.9998" marker-end="url(#ac)"/><path d="M 99.999999,199.99999 C 71.134747,168.23943 42.440412,136.66694 13.660248,105" marker-end="url(#ab)"/><path d="M 99.999999,299.99999 C 71.134637,234.80701 42.440301,170.0003 13.660248,105" marker-end="url(#aa)"/><path transform="translate(0,99.999793)" d="m99.999999 200.0002c-28.86525-31.76056-57.559584-63.33306-86.339751-95" marker-end="url(#z)"/></g><g transform="translate(95.000001)"><path d="m108.66025 4.9999956-5.7735-3e-7 -2.886751-4.999997802 2.886751-4.999997498 5.7735 3e-7 2.88675 4.999997762z" fill="#00f"/><text x="110.27143" y="2.2507172" font-family="sans-serif" font-size="7.05556px" stroke-width=".264583" text-align="end" text-anchor="end" style="line-height:1.25" xml:space="preserve"><tspan x="110.27143" y="2.2507172" fill="#ffffff" stroke-width=".264583">b3</tspan></text></g><g transform="translate(95.000001,100)"><path d="m108.66025 4.9999956-5.7735-3e-7 -2.886751-4.999997802 2.886751-4.999997498 5.7735 3e-7 2.88675 4.999997762z" fill="#00f"/><text x="110.27143" y="2.2507172" font-family="sans-serif" font-size="7.05556px" stroke-width=".264583" text-align="end" text-anchor="end" style="line-height:1.25" xml:space="preserve"><tspan x="110.27143" y="2.2507172" fill="#ffffff" stroke-width=".264583">b3</tspan></text></g><g transform="translate(95.000001,200)"><path d="m108.66025 4.9999956-5.7735-3e-7 -2.886751-4.999997802 2.886751-4.999997498 5.7735 3e-7 2.88675 4.999997762z" fill="#00f"/><text x="110.27143" y="2.2507172" font-family="sans-serif" font-size="7.05556px" stroke-width=".264583" text-align="end" text-anchor="end" style="line-height:1.25" xml:space="preserve"><tspan x="110.27143" y="2.2507172" fill="#ffffff" stroke-width=".264583">b3</tspan></text></g><g transform="translate(190)"><path d="m108.66025 4.9999956-5.7735-3e-7 -2.886751-4.999997802 2.886751-4.999997498 5.7735 3e-7 2.88675 4.999997762z" fill="#00f"/><text x="110.27143" y="2.2507172" font-family="sans-serif" font-size="7.05556px" stroke-width=".264583" text-align="end" text-anchor="end" style="line-height:1.25" xml:space="preserve"><tspan x="110.27143" y="2.2507172" fill="#ffffff" stroke-width=".264583">b4</tspan></text></g><g transform="translate(190,100)"><path d="m108.66025 4.9999956-5.7735-3e-7 -2.886751-4.999997802 2.886751-4.999997498 5.7735 3e-7 2.88675 4.999997762z" fill="#00f"/><text x="110.27143" y="2.2507172" font-family="sans-serif" font-size="7.05556px" stroke-width=".264583" text-align="end" text-anchor="end" style="line-height:1.25" xml:space="preserve"><tspan x="110.27143" y="2.2507172" fill="#ffffff" stroke-width=".264583">b4</tspan></text></g><g transform="translate(190,200)"><path d="m108.66025 4.9999956-5.7735-3e-7 -2.886751-4.999997802 2.886751-4.999997498 5.7735 3e-7 2.88675 4.999997762z" fill="#00f"/><text x="110.27143" y="2.2507172" font-family="sans-serif" font-size="7.05556px" stroke-width=".264583" text-align="end" text-anchor="end" style="line-height:1.25" xml:space="preserve"><tspan x="110.27143" y="2.2507172" fill="#ffffff" stroke-width=".264583">b4</tspan></text></g><g fill="none" stroke="#00f" stroke-width=".5"><path transform="translate(95.000464)" d="M 99.999995,-2.5018664e-6 C 71.134482,31.760848 42.440151,63.333347 13.660249,95" marker-end="url(#x)"/><path transform="translate(95.000464)" d="M 99.999997,-2.5018664e-6 C 71.236385,64.963175 42.440112,130.00012 13.660249,195" marker-end="url(#y)"/><path transform="translate(95.000464,99.999793)" d="m99.999999 100.0002c-28.763573 31.64862-57.559843 63.33321-86.33975 94.9998" marker-end="url(#v)"/><path transform="translate(95.000464)" d="m99.999999 199.99999c-28.865362-65.19292-57.559697-129.999561-86.339751-194.999806" marker-end="url(#w)"/><path transform="translate(95.000464,-2.2738424e-5)" d="m99.999999 100.0002c-28.763573 31.64862-57.559843 63.33321-86.33975 94.9998" marker-end="url(#t)"/><path transform="translate(95.000464,-99.999816)" d="M 99.999999,199.99999 C 71.134747,168.23943 42.440412,136.66694 13.660248,105" marker-end="url(#u)"/><path transform="translate(190.00046)" d="M 99.999995,-2.5018664e-6 C 71.134482,31.760848 42.440151,63.333347 13.660249,95" marker-end="url(#o)"/><path transform="translate(190.00046)" d="M 99.999997,-2.5018664e-6 C 71.236385,64.963175 42.440112,130.00012 13.660249,195" marker-end="url(#p)"/><path transform="translate(190.00046)" d="M 99.999999,199.99999 C 71.134747,168.23943 42.440412,136.66694 13.660248,105" marker-end="url(#q)"/><path transform="translate(190.00046,-2.2738424e-5)" d="m99.999999 100.0002c-28.763573 31.64862-57.559843 63.33321-86.33975 94.9998" marker-end="url(#r)"/><path transform="translate(190.00046,-99.999816)" d="M 99.999999,199.99999 C 71.134747,168.23943 42.440412,136.66694 13.660248,105" marker-end="url(#s)"/><path transform="translate(190.00046)" d="m99.999999 199.99999c-28.865362-65.19292-57.559697-129.999561-86.339751-194.999806" marker-end="url(#n)"/></g><g transform="translate(285.00046)"><path d="m108.66025 4.9999956-5.7735-3e-7 -2.886751-4.999997802 2.886751-4.999997498 5.7735 3e-7 2.88675 4.999997762z" fill="#00f"/><text x="110.27143" y="2.2507172" font-family="sans-serif" font-size="7.05556px" stroke-width=".264583" text-align="end" text-anchor="end" style="line-height:1.25" xml:space="preserve"><tspan x="110.27143" y="2.2507172" fill="#ffffff" stroke-width=".264583">b5</tspan></text></g><g transform="translate(285.00046,100)"><path d="m108.66025 4.9999956-5.7735-3e-7 -2.886751-4.999997802 2.886751-4.999997498 5.7735 3e-7 2.88675 4.999997762z" fill="#00f"/><text x="110.27143" y="2.2507172" font-family="sans-serif" font-size="7.05556px" stroke-width=".264583" text-align="end" text-anchor="end" style="line-height:1.25" xml:space="preserve"><tspan x="110.27143" y="2.2507172" fill="#ffffff" stroke-width=".264583">b5</tspan></text></g><g transform="translate(285.00046,200)"><path d="m108.66025 4.9999956-5.7735-3e-7 -2.886751-4.999997802 2.886751-4.999997498 5.7735 3e-7 2.88675 4.999997762z" fill="#00f"/><text x="110.27143" y="2.2507172" font-family="sans-serif" font-size="7.05556px" stroke-width=".264583" text-align="end" text-anchor="end" style="line-height:1.25" xml:space="preserve"><tspan x="110.27143" y="2.2507172" fill="#ffffff" stroke-width=".264583">b5</tspan></text></g><g transform="translate(285.00046,300)"><path d="m108.66025 4.9999956-5.7735-3e-7 -2.886751-4.999997802 2.886751-4.999997498 5.7735 3e-7 2.88675 4.999997762z" fill="#00f"/><text x="110.27143" y="2.2507172" font-family="sans-serif" font-size="7.05556px" stroke-width=".264583" text-align="end" text-anchor="end" style="line-height:1.25" xml:space="preserve"><tspan x="110.27143" y="2.2507172" fill="#ffffff" stroke-width=".264583">b5</tspan></text></g><g fill="none" stroke="#00f" stroke-width=".5"><path transform="translate(285.00092)" d="M 99.999995,-2.5018664e-6 C 71.134482,31.760848 42.440151,63.333347 13.660249,95" marker-end="url(#e)"/><path transform="translate(285.00092)" d="M 99.999997,-2.5018664e-6 C 71.236385,64.963175 42.440112,130.00012 13.660249,195" marker-end="url(#f)"/><path transform="translate(285.00092)" d="M 99.999999,199.99999 C 71.134747,168.23943 42.440412,136.66694 13.660248,105" marker-end="url(#g)"/><path transform="translate(285.00092,-2.2738424e-5)" d="m99.999999 100.0002c-28.763573 31.64862-57.559843 63.33321-86.33975 94.9998" marker-end="url(#h)"/><path transform="translate(285.00092,-99.999816)" d="M 99.999999,199.99999 C 71.134747,168.23943 42.440412,136.66694 13.660248,105" marker-end="url(#i)"/><path transform="translate(285.00092)" d="m99.999999 199.99999c-28.865362-65.19292-57.559697-129.999561-86.339751-194.999806" marker-end="url(#j)"/><path transform="translate(285.00092)" d="m99.999539 300c-28.865259-98.62539-57.559441-196.66625-86.339291-294.999816" marker-end="url(#k)"/><path transform="translate(285.00092)" d="m99.999539 300c-28.865211-65.19299-57.559392-129.9997-86.339291-195" marker-end="url(#l)"/><path transform="translate(285.00092)" d="m99.999539 300c-28.865256-31.76057-57.55959-63.33307-86.33975-95" marker-end="url(#m)"/></g><g transform="translate(285.00046,100)"><path d="m108.66025 4.9999956-5.7735-3e-7 -2.886751-4.999997802 2.886751-4.999997498 5.7735 3e-7 2.88675 4.999997762z" fill="#00f"/><text x="110.27143" y="2.2507172" font-family="sans-serif" font-size="7.05556px" stroke-width=".264583" text-align="end" text-anchor="end" style="line-height:1.25" xml:space="preserve"><tspan x="110.27143" y="2.2507172" fill="#ffffff" stroke-width=".264583">b5</tspan></text></g><g fill="#000000" font-family="sans-serif" font-size="10.5833px" stroke-width=".264583" text-anchor="end"><text x="-1.4433256" y="102.25163" text-align="end" style="line-height:1.25" xml:space="preserve"><tspan x="-1.4433255" y="102.25163" stroke-width=".264583" text-align="end" text-anchor="end">primary 1</tspan></text><text x="-1.4433256" y="202.25163" text-align="end" style="line-height:1.25" xml:space="preserve"><tspan x="-1.4433255" y="202.25163" stroke-width=".264583" text-align="end" text-anchor="end">primary 2</tspan></text><text x="-1.4433256" y="302.25162" text-align="end" style="line-height:1.25" xml:space="preserve"><tspan x="-1.4433255" y="302.25162" stroke-width=".264583" text-align="end" text-anchor="end">primary 3</tspan></text><text x="-1.4433256" y="402.25162" text-align="end" style="line-height:1.25" xml:space="preserve"><tspan x="-1.4433255" y="402.25162" stroke-width=".264583" text-align="end" text-anchor="end">primary 4</tspan></text></g><g font-family="sans-serif" stroke-width=".264583"><text x="110.27143" y="202.25072" font-size="7.05556px" text-align="end" text-anchor="end" style="line-height:1.25" xml:space="preserve"><tspan x="110.27143" y="202.25072" fill="#ffffff" stroke-width=".264583">b2</tspan></text><text x="395.27188" y="302.25073" font-size="7.05556px" text-align="end" text-anchor="end" style="line-height:1.25" xml:space="preserve"><tspan x="395.27188" y="302.25073" fill="#ffffff" stroke-width=".264583">b5</tspan></text><text x="-116.42606" y="68.262505" fill="#0000ff" font-size="10.5833px" text-anchor="middle" style="line-height:1.25" xml:space="preserve"><tspan x="-116.42606" y="68.262505" text-align="center">blue</tspan><tspan x="-116.42606" y="81.491631" text-align="center">quorum</tspan></text></g><g transform="translate(-355.07082,114.82917)" fill="none" stroke="#00f" stroke-width="5"><path d="m314.325-165.62916c-10.75947 0-21.51917 0-26.89917 21.6082s-5.38 64.822615-8.99592 86.430121c-3.61591 21.607506-10.84771 21.607506-18.07991 21.607506"/><path transform="matrix(1,0,0,-1,0,-71.966666)" d="m314.325-165.62916c-10.75947 0-21.51917 0-26.89917 21.6082s-5.38 64.822615-8.99592 86.430121c-3.61591 21.607506-10.84771 21.607506-18.07991 21.607506"/></g><g transform="translate(-403.22501,254.00001)" fill="none" stroke="#00f" stroke-width="5"><path d="m314.325-165.62916c-10.75947 0-21.51917 0-26.89917 21.6082s-5.38 64.822615-8.99592 86.430121c-3.61591 21.607506-10.84771 21.607506-18.07991 21.607506"/><path transform="matrix(1,0,0,-1,0,-71.966666)" d="m314.325-165.62916c-10.75947 0-21.51917 0-26.89917 21.6082s-5.38 64.822615-8.99592 86.430121c-3.61591 21.607506-10.84771 21.607506-18.07991 21.607506"/></g><text x="-164.5802" y="209.54999" fill="#0000ff" font-family="sans-serif" font-size="10.5833px" stroke-width=".264583" text-anchor="middle" style="line-height:1.25" xml:space="preserve"><tspan x="-164.5802" y="209.54999" text-align="center">blue</tspan><tspan x="-164.5802" y="222.77911" text-align="center">quorum</tspan></text></g></svg>
