<?xml version="1.0" encoding="UTF-8"?>
<svg width="802.61346mm" height="510.34818mm" version="1.1" viewBox="0 0 802.61346 510.34818" xmlns="http://www.w3.org/2000/svg"><defs><marker id="a" overflow="visible" orient="auto"><path transform="matrix(-.4 0 0 -.4 -4 0)" d="m0 0 5-5-17.5 5 17.5 5z" fill-rule="evenodd" stroke="#000" stroke-width="1pt"/></marker><marker id="b" overflow="visible" orient="auto"><path transform="matrix(-.4 0 0 -.4 -4 0)" d="m0 0 5-5-17.5 5 17.5 5z" fill-rule="evenodd" stroke="#000" stroke-width="1pt"/></marker><marker id="c" overflow="visible" orient="auto"><path transform="matrix(-.4 0 0 -.4 -4 0)" d="m0 0 5-5-17.5 5 17.5 5z" fill-rule="evenodd" stroke="#000" stroke-width="1pt"/></marker><marker id="d" overflow="visible" orient="auto"><path transform="matrix(-.4 0 0 -.4 -4 0)" d="m0 0 5-5-17.5 5 17.5 5z" fill-rule="evenodd" stroke="#000" stroke-width="1pt"/></marker><marker id="av" overflow="visible" orient="auto"><path transform="matrix(-.4 0 0 -.4 -4 0)" d="m0 0 5-5-17.5 5 17.5 5z" fill-rule="evenodd" stroke="#000" stroke-width="1pt"/></marker><marker id="e" overflow="visible" orient="auto"><path transform="matrix(-.4 0 0 -.4 -4 0)" d="m0 0 5-5-17.5 5 17.5 5z" fill="#f00" fill-rule="evenodd" stroke="#f00" stroke-width="1pt"/></marker><marker id="f" overflow="visible" orient="auto"><path transform="matrix(-.4 0 0 -.4 -4 0)" d="m0 0 5-5-17.5 5 17.5 5z" fill="#f00" fill-rule="evenodd" stroke="#f00" stroke-width="1pt"/></marker><marker id="g" overflow="visible" orient="auto"><path transform="matrix(-.4 0 0 -.4 -4 0)" d="m0 0 5-5-17.5 5 17.5 5z" fill="#f00" fill-rule="evenodd" stroke="#f00" stroke-width="1pt"/></marker><marker id="h" overflow="visible" orient="auto"><path transform="matrix(-.4 0 0 -.4 -4 0)" d="m0 0 5-5-17.5 5 17.5 5z" fill="#f00" fill-rule="evenodd" stroke="#f00" stroke-width="1pt"/></marker><marker id="i" overflow="visible" orient="auto"><path transform="matrix(-.4 0 0 -.4 -4 0)" d="m0 0 5-5-17.5 5 17.5 5z" fill="#f00" fill-rule="evenodd" stroke="#f00" stroke-width="1pt"/></marker><marker id="j" overflow="visible" orient="auto"><path transform="matrix(-.4 0 0 -.4 -4 0)" d="m0 0 5-5-17.5 5 17.5 5z" fill="#f00" fill-rule="evenodd" stroke="#f00" stroke-width="1pt"/></marker><marker id="k" overflow="visible" orient="auto"><path transform="matrix(-.4 0 0 -.4 -4 0)" d="m0 0 5-5-17.5 5 17.5 5z" fill="#f00" fill-rule="evenodd" stroke="#f00" stroke-width="1pt"/></marker><marker id="l" overflow="visible" orient="auto"><path transform="matrix(-.4 0 0 -.4 -4 0)" d="m0 0 5-5-17.5 5 17.5 5z" fill="#f00" fill-rule="evenodd" stroke="#f00" stroke-width="1pt"/></marker><marker id="m" overflow="visible" orient="auto"><path transform="matrix(-.4 0 0 -.4 -4 0)" d="m0 0 5-5-17.5 5 17.5 5z" fill="#00f" fill-rule="evenodd" stroke="#00f" stroke-width="1pt"/></marker><marker id="n" overflow="visible" orient="auto"><path transform="matrix(-.4 0 0 -.4 -4 0)" d="m0 0 5-5-17.5 5 17.5 5z" fill="#00f" fill-rule="evenodd" stroke="#00f" stroke-width="1pt"/></marker><marker id="o" overflow="visible" orient="auto"><path transform="matrix(-.4 0 0 -.4 -4 0)" d="m0 0 5-5-17.5 5 17.5 5z" fill="#00f" fill-rule="evenodd" stroke="#00f" stroke-width="1pt"/></marker><marker id="p" overflow="visible" orient="auto"><path transform="matrix(-.4 0 0 -.4 -4 0)" d="m0 0 5-5-17.5 5 17.5 5z" fill="#00f" fill-rule="evenodd" stroke="#00f" stroke-width="1pt"/></marker><marker id="q" overflow="visible" orient="auto"><path transform="matrix(-.4 0 0 -.4 -4 0)" d="m0 0 5-5-17.5 5 17.5 5z" fill="#00f" fill-rule="evenodd" stroke="#00f" stroke-width="1pt"/></marker><marker id="r" overflow="visible" orient="auto"><path transform="matrix(-.4 0 0 -.4 -4 0)" d="m0 0 5-5-17.5 5 17.5 5z" fill="#00f" fill-rule="evenodd" stroke="#00f" stroke-width="1pt"/></marker><marker id="s" overflow="visible" orient="auto"><path transform="matrix(-.4 0 0 -.4 -4 0)" d="m0 0 5-5-17.5 5 17.5 5z" fill="#00f" fill-rule="evenodd" stroke="#00f" stroke-width="1pt"/></marker><marker id="t" overflow="visible" orient="auto"><path transform="matrix(-.4 0 0 -.4 -4 0)" d="m0 0 5-5-17.5 5 17.5 5z" fill="#00f" fill-rule="evenodd" stroke="#00f" stroke-width="1pt"/></marker><marker id="u" overflow="visible" orient="auto"><path transform="matrix(-.4 0 0 -.4 -4 0)" d="m0 0 5-5-17.5 5 17.5 5z" fill="#00f" fill-rule="evenodd" stroke="#00f" stroke-width="1pt"/></marker><marker id="v" overflow="visible" orient="auto"><path transform="matrix(-.4 0 0 -.4 -4 0)" d="m0 0 5-5-17.5 5 17.5 5z" fill="#00f" fill-rule="evenodd" stroke="#00f" stroke-width="1pt"/></marker><marker id="w" overflow="visible" orient="auto"><path transform="matrix(-.4 0 0 -.4 -4 0)" d="m0 0 5-5-17.5 5 17.5 5z" fill="#00f" fill-rule="evenodd" stroke="#00f" stroke-width="1pt"/></marker><marker id="x" overflow="visible" orient="auto"><path transform="matrix(-.4 0 0 -.4 -4 0)" d="m0 0 5-5-17.5 5 17.5 5z" fill="#00f" fill-rule="evenodd" stroke="#00f" stroke-width="1pt"/></marker><marker id="y" overflow="visible" orient="auto"><path transform="matrix(-.4 0 0 -.4 -4 0)" d="m0 0 5-5-17.5 5 17.5 5z" fill="#00f" fill-rule="evenodd" stroke="#00f" stroke-width="1pt"/></marker><marker id="z" overflow="visible" orient="auto"><path transform="matrix(-.4 0 0 -.4 -4 0)" d="m0 0 5-5-17.5 5 17.5 5z" fill="#00f" fill-rule="evenodd" stroke="#00f" stroke-width="1pt"/></marker><marker id="aa" overflow="visible" orient="auto"><path transform="matrix(-.4 0 0 -.4 -4 0)" d="m0 0 5-5-17.5 5 17.5 5z" fill="#00f" fill-rule="evenodd" stroke="#00f" stroke-width="1pt"/></marker><marker id="ab" overflow="visible" orient="auto"><path transform="matrix(-.4 0 0 -.4 -4 0)" d="m0 0 5-5-17.5 5 17.5 5z" fill="#00f" fill-rule="evenodd" stroke="#00f" stroke-width="1pt"/></marker><marker id="ac" overflow="visible" orient="auto"><path transform="matrix(-.4 0 0 -.4 -4 0)" d="m0 0 5-5-17.5 5 17.5 5z" fill="#00f" fill-rule="evenodd" stroke="#00f" stroke-width="1pt"/></marker><marker id="ad" overflow="visible" orient="auto"><path transform="matrix(-.4 0 0 -.4 -4 0)" d="m0 0 5-5-17.5 5 17.5 5z" fill="#00f" fill-rule="evenodd" stroke="#00f" stroke-width="1pt"/></marker><marker id="ae" overflow="visible" orient="auto"><path transform="matrix(-.4 0 0 -.4 -4 0)" d="m0 0 5-5-17.5 5 17.5 5z" fill="#00f" fill-rule="evenodd" stroke="#00f" stroke-width="1pt"/></marker><marker id="af" overflow="visible" orient="auto"><path transform="matrix(-.4 0 0 -.4 -4 0)" d="m0 0 5-5-17.5 5 17.5 5z" fill="#00f" fill-rule="evenodd" stroke="#00f" stroke-width="1pt"/></marker><marker id="ag" overflow="visible" orient="auto"><path transform="matrix(-.4 0 0 -.4 -4 0)" d="m0 0 5-5-17.5 5 17.5 5z" fill="#00f" fill-rule="evenodd" stroke="#00f" stroke-width="1pt"/></marker><marker id="ah" overflow="visible" orient="auto"><path transform="matrix(-.4 0 0 -.4 -4 0)" d="m0 0 5-5-17.5 5 17.5 5z" fill="#f00" fill-rule="evenodd" stroke="#f00" stroke-width="1pt"/></marker><marker id="ai" overflow="visible" orient="auto"><path transform="matrix(-.4 0 0 -.4 -4 0)" d="m0 0 5-5-17.5 5 17.5 5z" fill="#f00" fill-rule="evenodd" stroke="#f00" stroke-width="1pt"/></marker><marker id="aj" overflow="visible" orient="auto"><path transform="matrix(-.4 0 0 -.4 -4 0)" d="m0 0 5-5-17.5 5 17.5 5z" fill="#f00" fill-rule="evenodd" stroke="#f00" stroke-width="1pt"/></marker><marker id="ak" overflow="visible" orient="auto"><path transform="matrix(-.4 0 0 -.4 -4 0)" d="m0 0 5-5-17.5 5 17.5 5z" fill="#f00" fill-rule="evenodd" stroke="#f00" stroke-width="1pt"/></marker><marker id="al" overflow="visible" orient="auto"><path transform="matrix(-.4 0 0 -.4 -4 0)" d="m0 0 5-5-17.5 5 17.5 5z" fill="#f00" fill-rule="evenodd" stroke="#f00" stroke-width="1pt"/></marker><marker id="am" overflow="visible" orient="auto"><path transform="matrix(-.4 0 0 -.4 -4 0)" d="m0 0 5-5-17.5 5 17.5 5z" fill="#f00" fill-rule="evenodd" stroke="#f00" stroke-width="1pt"/></marker><marker id="an" overflow="visible" orient="auto"><path transform="matrix(-.4 0 0 -.4 -4 0)" d="m0 0 5-5-17.5 5 17.5 5z" fill="#f00" fill-rule="evenodd" stroke="#f00" stroke-width="1pt"/></marker><marker id="ao" overflow="visible" orient="auto"><path transform="matrix(-.4 0 0 -.4 -4 0)" d="m0 0 5-5-17.5 5 17.5 5z" fill="#f00" fill-rule="evenodd" stroke="#f00" stroke-width="1pt"/></marker><marker id="ap" overflow="visible" orient="auto"><path transform="matrix(-.4 0 0 -.4 -4 0)" d="m0 0 5-5-17.5 5 17.5 5z" fill="#00f" fill-rule="evenodd" stroke="#00f" stroke-width="1pt"/></marker><marker id="aq" overflow="visible" orient="auto"><path transform="matrix(-.4 0 0 -.4 -4 0)" d="m0 0 5-5-17.5 5 17.5 5z" fill="#00f" fill-rule="evenodd" stroke="#00f" stroke-width="1pt"/></marker><marker id="ar" overflow="visible" orient="auto"><path transform="matrix(-.4 0 0 -.4 -4 0)" d="m0 0 5-5-17.5 5 17.5 5z" fill="#00f" fill-rule="evenodd" stroke="#00f" stroke-width="1pt"/></marker><marker id="as" overflow="visible" orient="auto"><path transform="matrix(-.4 0 0 -.4 -4 0)" d="m0 0 5-5-17.5 5 17.5 5z" fill="#00f" fill-rule="evenodd" stroke="#00f" stroke-width="1pt"/></marker><marker id="at" overflow="visible" orient="auto"><path transform="matrix(-.4 0 0 -.4 -4 0)" d="m0 0 5-5-17.5 5 17.5 5z" fill="#00f" fill-rule="evenodd" stroke="#00f" stroke-width="1pt"/></marker><marker id="au" overflow="visible" orient="auto"><path transform="matrix(-.4 0 0 -.4 -4 0)" d="m0 0 5-5-17.5 5 17.5 5z" fill="#00f" fill-rule="evenodd" stroke="#00f" stroke-width="1pt"/></marker><marker id="aw" overflow="visible" orient="auto"><path transform="matrix(-.4 0 0 -.4 -4 0)" d="m0 0 5-5-17.5 5 17.5 5z" fill="#00f" fill-rule="evenodd" stroke="#00f" stroke-width="1pt"/></marker><marker id="ax" overflow="visible" orient="auto"><path transform="matrix(-.4 0 0 -.4 -4 0)" d="m0 0 5-5-17.5 5 17.5 5z" fill="#00f" fill-rule="evenodd" stroke="#00f" stroke-width="1pt"/></marker></defs><rect y="7.1054274e-15" width="802.61346" height="510.34818" fill="#fff" stroke-linejoin="round" stroke-width="2.68903"/><rect x="130.63803" y="47.128906" width="541.33746" height="418.57083" fill="#fff" stroke-linejoin="round" stroke-width="2"/><g transform="translate(186.72969,55.066406)"><g fill="none" stroke="#000"><path d="m0 0h480" marker-end="url(#av)"/><path transform="translate(0,100.00012)" d="m0 0h480" marker-end="url(#d)"/><path transform="translate(0,200.00012)" d="m0 0h480" marker-end="url(#c)"/><path transform="translate(0,300.00012)" d="m0 0h480" marker-end="url(#b)"/><path transform="translate(0,400.00012)" d="m0 0h480" marker-end="url(#a)"/></g><text x="-1.4433256" y="2.2517745" fill="#000000" font-family="sans-serif" font-size="10.5833px" stroke-width=".264583" text-align="end" text-anchor="end" style="line-height:1.25" xml:space="preserve"><tspan x="-1.4433255" y="2.2517745" stroke-width=".264583" text-align="end" text-anchor="end">primary 0</tspan></text><g transform="translate(-300)"><path d="m313.66025 4.9999956-5.7735-3e-7 -2.88675-4.999997802 2.88675-4.999997498 5.7735 3e-7 2.88675 4.999997762z" fill="#00f"/><text x="315.8006" y="2.2507172" font-family="sans-serif" font-size="7.05556px" stroke-width=".264583" text-align="end" text-anchor="end" style="line-height:1.25" xml:space="preserve"><tspan x="315.8006" y="2.2507172" fill="#ffffff" stroke-width=".264583">b1</tspan></text></g><g transform="translate(-290.00043)"><g transform="translate(0,400)"><path d="m328.66068 4.9999956-5.7735-3e-7 -2.88675-4.999997802 2.88675-4.999997498 5.7735 3e-7 2.88675 4.999997762z" fill="#f00"/><text x="330.80103" y="2.2507172" font-family="sans-serif" font-size="7.05556px" stroke-width=".264583" text-align="end" text-anchor="end" style="line-height:1.25" xml:space="preserve"><tspan x="330.80103" y="2.2507172" fill="#ffffff" stroke-width=".264583">b1</tspan></text></g></g><g transform="translate(-300,100)"><path d="m313.66025 4.9999956-5.7735-3e-7 -2.88675-4.999997802 2.88675-4.999997498 5.7735 3e-7 2.88675 4.999997762z" fill="#00f"/><text x="315.8006" y="2.2507172" font-family="sans-serif" font-size="7.05556px" stroke-width=".264583" text-align="end" text-anchor="end" style="line-height:1.25" xml:space="preserve"><tspan x="315.8006" y="2.2507172" fill="#ffffff" stroke-width=".264583">b1</tspan></text></g><g transform="translate(-300,200)"><path d="m313.66025 4.9999956-5.7735-3e-7 -2.88675-4.999997802 2.88675-4.999997498 5.7735 3e-7 2.88675 4.999997762z" fill="#00f"/><text x="315.8006" y="2.2507172" font-family="sans-serif" font-size="7.05556px" stroke-width=".264583" text-align="end" text-anchor="end" style="line-height:1.25" xml:space="preserve"><tspan x="315.8006" y="2.2507172" fill="#ffffff" stroke-width=".264583">b1</tspan></text></g><g transform="translate(-300,300)"><path d="m313.66025 4.9999956-5.7735-3e-7 -2.88675-4.999997802 2.88675-4.999997498 5.7735 3e-7 2.88675 4.999997762z" fill="#00f"/><text x="315.8006" y="2.2507172" font-family="sans-serif" font-size="7.05556px" stroke-width=".264583" text-align="end" text-anchor="end" style="line-height:1.25" xml:space="preserve"><tspan x="315.8006" y="2.2507172" fill="#ffffff" stroke-width=".264583">b1</tspan></text></g><path d="m108.66025 4.9999956-5.7735-3e-7 -2.886751-4.999997802 2.886751-4.999997498 5.7735 3e-7 2.88675 4.999997762z" fill="#00f"/><text x="110.27143" y="2.2507172" font-family="sans-serif" font-size="7.05556px" stroke-width=".264583" text-align="end" text-anchor="end" style="line-height:1.25" xml:space="preserve"><tspan x="110.27143" y="2.2507172" fill="#ffffff" stroke-width=".264583">b2</tspan></text><g transform="translate(0,100)"><path d="m108.66025 4.9999956-5.7735-3e-7 -2.886751-4.999997802 2.886751-4.999997498 5.7735 3e-7 2.88675 4.999997762z" fill="#00f"/><text x="110.27143" y="2.2507172" font-family="sans-serif" font-size="7.05556px" stroke-width=".264583" text-align="end" text-anchor="end" style="line-height:1.25" xml:space="preserve"><tspan x="110.27143" y="2.2507172" fill="#ffffff" stroke-width=".264583">b2</tspan></text></g><path transform="translate(0,200.00015)" d="m215 99.999457c-28.76331-31.648148-57.55958-63.332563-86.33975-94.9992544" fill="none" marker-end="url(#h)" stroke="#f00" stroke-width=".5"/><g transform="translate(0,200)"><path d="m108.66025 4.9999956-5.7735-3e-7 -2.886751-4.999997802 2.886751-4.999997498 5.7735 3e-7 2.88675 4.999997762z" fill="#00f"/><text x="110.27143" y="2.2507172" font-family="sans-serif" font-size="7.05556px" stroke-width=".264583" text-align="end" text-anchor="end" style="line-height:1.25" xml:space="preserve"><tspan x="110.27143" y="2.2507172" fill="#ffffff" stroke-width=".264583">b2</tspan></text></g><g transform="translate(0,300)"><path d="m108.66025 4.9999956-5.7735-3e-7 -2.886751-4.999997802 2.886751-4.999997498 5.7735 3e-7 2.88675 4.999997762z" fill="#00f"/><text x="110.27143" y="2.2507172" font-family="sans-serif" font-size="7.05556px" stroke-width=".264583" text-align="end" text-anchor="end" style="line-height:1.25" xml:space="preserve"><tspan x="110.27143" y="2.2507172" fill="#ffffff" stroke-width=".264583">b2</tspan></text></g><g fill="none" stroke="#00f" stroke-width=".5"><path d="M 99.999995,-2.5018664e-6 C 71.134482,31.760848 42.440151,63.333347 13.660249,95" marker-end="url(#ax)"/><path d="M 99.999997,-2.5018664e-6 C 71.236385,64.963175 42.440112,130.00012 13.660249,195" marker-end="url(#aw)"/><path transform="translate(0,99.999793)" d="M 99.999995,-2.5018664e-6 C 71.134482,31.760848 42.440151,63.333347 13.660249,95" marker-end="url(#at)"/><path transform="translate(0,99.999793)" d="M 99.999997,-2.5018664e-6 C 71.236385,64.963175 42.440112,130.00012 13.660249,195" marker-end="url(#au)"/><path transform="translate(0,99.999793)" d="m99.999999 100.0002c-28.763573 31.64862-57.559843 63.33321-86.33975 94.9998" marker-end="url(#as)"/><path d="M 99.999999,199.99999 C 71.134747,168.23943 42.440412,136.66694 13.660248,105" marker-end="url(#ar)"/><path d="M 99.999999,299.99999 C 71.134637,234.80701 42.440301,170.0003 13.660248,105" marker-end="url(#aq)"/><path transform="translate(0,99.999793)" d="m99.999999 200.0002c-28.86525-31.76056-57.559584-63.33306-86.339751-95" marker-end="url(#ap)"/></g><g transform="translate(-290.00043,-100)"><g transform="translate(0,400)"><path d="m328.66068 4.9999956-5.7735-3e-7 -2.88675-4.999997802 2.88675-4.999997498 5.7735 3e-7 2.88675 4.999997762z" fill="#f00"/><text x="330.80103" y="2.2507172" font-family="sans-serif" font-size="7.05556px" stroke-width=".264583" text-align="end" text-anchor="end" style="line-height:1.25" xml:space="preserve"><tspan x="330.80103" y="2.2507172" fill="#ffffff" stroke-width=".264583">b1</tspan></text></g></g><g transform="translate(-290.00043,-200)"><g transform="translate(0,400)"><path d="m328.66068 4.9999956-5.7735-3e-7 -2.88675-4.999997802 2.88675-4.999997498 5.7735 3e-7 2.88675 4.999997762z" fill="#f00"/><text x="330.80103" y="2.2507172" font-family="sans-serif" font-size="7.05556px" stroke-width=".264583" text-align="end" text-anchor="end" style="line-height:1.25" xml:space="preserve"><tspan x="330.80103" y="2.2507172" fill="#ffffff" stroke-width=".264583">b1</tspan></text></g></g><g transform="translate(-290.00043,-300)"><g transform="translate(0,400)"><path d="m328.66068 4.9999956-5.7735-3e-7 -2.88675-4.999997802 2.88675-4.999997498 5.7735 3e-7 2.88675 4.999997762z" fill="#f00"/><text x="330.80103" y="2.2507172" font-family="sans-serif" font-size="7.05556px" stroke-width=".264583" text-align="end" text-anchor="end" style="line-height:1.25" xml:space="preserve"><tspan x="330.80103" y="2.2507172" fill="#ffffff" stroke-width=".264583">b1</tspan></text></g></g><g transform="translate(-4.9999965)"><g transform="translate(-195.00043,-300)"><g transform="translate(0,400)"><path d="m328.66068 4.9999956-5.7735-3e-7 -2.88675-4.999997802 2.88675-4.999997498 5.7735 3e-7 2.88675 4.999997762z" fill="#f00"/><text x="330.27185" y="2.2507172" font-family="sans-serif" font-size="7.05556px" stroke-width=".264583" text-align="end" text-anchor="end" style="line-height:1.25" xml:space="preserve"><tspan x="330.27185" y="2.2507172" fill="#ffffff" stroke-width=".264583">b2</tspan></text></g></g></g><path transform="translate(0,99.999793)" d="M 120,2.0449813e-4 C 92.90214,31.648896 65.773479,63.333561 38.660246,95.000207" fill="none" marker-end="url(#ao)" stroke="#f00" stroke-width=".5"/><path transform="translate(0,99.999793)" d="M 120,2.0449813e-4 C 92.902105,64.963392 65.773444,130.00034 38.660246,195.00021" fill="none" marker-end="url(#an)" stroke="#f00" stroke-width=".5"/><g transform="translate(-4.9999965,99.999614)"><g transform="translate(-195.00043,-300)"><g transform="translate(0,400)"><path d="m328.66068 4.9999956-5.7735-3e-7 -2.88675-4.999997802 2.88675-4.999997498 5.7735 3e-7 2.88675 4.999997762z" fill="#f00"/><text x="330.27185" y="2.2507172" font-family="sans-serif" font-size="7.05556px" stroke-width=".264583" text-align="end" text-anchor="end" style="line-height:1.25" xml:space="preserve"><tspan x="330.27185" y="2.2507172" fill="#ffffff" stroke-width=".264583">b2</tspan></text></g></g></g><g transform="translate(-4.9999965,199.99961)"><g transform="translate(-195.00043,-300)"><g transform="translate(0,400)"><path d="m328.66068 4.9999956-5.7735-3e-7 -2.88675-4.999997802 2.88675-4.999997498 5.7735 3e-7 2.88675 4.999997762z" fill="#f00"/><text x="330.27185" y="2.2507172" font-family="sans-serif" font-size="7.05556px" stroke-width=".264583" text-align="end" text-anchor="end" style="line-height:1.25" xml:space="preserve"><tspan x="330.27185" y="2.2507172" fill="#ffffff" stroke-width=".264583">b2</tspan></text></g></g></g><g transform="translate(0,299.99961)"><g transform="translate(-195.00043,-300)"><g transform="translate(0,400)"><path d="m328.66068 4.9999956-5.7735-3e-7 -2.88675-4.999997802 2.88675-4.999997498 5.7735 3e-7 2.88675 4.999997762z" fill="#f00"/><text x="330.27185" y="2.2507172" font-family="sans-serif" font-size="7.05556px" stroke-width=".264583" text-align="end" text-anchor="end" style="line-height:1.25" xml:space="preserve"><tspan x="330.27185" y="2.2507172" fill="#ffffff" stroke-width=".264583">b2</tspan></text></g></g></g><g fill="none" stroke="#f00" stroke-width=".5"><path transform="translate(0,99.999793)" d="m120 99.999818c-27.097599-31.648258-54.22626-63.332793-81.339754-94.9996154" marker-end="url(#am)"/><path transform="translate(0,99.999793)" d="m120 99.999818c-27.097859 31.648822-54.226517 63.333612-81.339754 95.000392" marker-end="url(#al)"/><path transform="translate(0,199.99932)" d="m120 100.00029c-27.097861 31.64867-54.226518 63.3333-81.339754 94.99992" marker-end="url(#ak)"/><path transform="translate(0,199.99932)" d="m120 100.00029c-27.097599-31.648258-54.226257-63.33279-81.339754-94.9996144" marker-end="url(#aj)"/><path transform="translate(0,299.99951)" d="m125 99.999818c-28.763309-31.648106-57.559581-63.332481-86.339754-94.9991424" marker-end="url(#ai)"/><path transform="translate(0,199.99932)" d="m125 200.00001c-28.763419-64.96252-57.559691-129.999229-86.339754-194.9993344" marker-end="url(#ah)"/></g><g transform="translate(95.000001)"><path d="m108.66025 4.9999956-5.7735-3e-7 -2.886751-4.999997802 2.886751-4.999997498 5.7735 3e-7 2.88675 4.999997762z" fill="#00f"/><text x="110.27143" y="2.2507172" font-family="sans-serif" font-size="7.05556px" stroke-width=".264583" text-align="end" text-anchor="end" style="line-height:1.25" xml:space="preserve"><tspan x="110.27143" y="2.2507172" fill="#ffffff" stroke-width=".264583">b3</tspan></text></g><g transform="translate(95.000001,100)"><path d="m108.66025 4.9999956-5.7735-3e-7 -2.886751-4.999997802 2.886751-4.999997498 5.7735 3e-7 2.88675 4.999997762z" fill="#00f"/><text x="110.27143" y="2.2507172" font-family="sans-serif" font-size="7.05556px" stroke-width=".264583" text-align="end" text-anchor="end" style="line-height:1.25" xml:space="preserve"><tspan x="110.27143" y="2.2507172" fill="#ffffff" stroke-width=".264583">b3</tspan></text></g><g transform="translate(95.000001,200)"><path d="m108.66025 4.9999956-5.7735-3e-7 -2.886751-4.999997802 2.886751-4.999997498 5.7735 3e-7 2.88675 4.999997762z" fill="#00f"/><text x="110.27143" y="2.2507172" font-family="sans-serif" font-size="7.05556px" stroke-width=".264583" text-align="end" text-anchor="end" style="line-height:1.25" xml:space="preserve"><tspan x="110.27143" y="2.2507172" fill="#ffffff" stroke-width=".264583">b3</tspan></text></g><g transform="translate(190)"><path d="m108.66025 4.9999956-5.7735-3e-7 -2.886751-4.999997802 2.886751-4.999997498 5.7735 3e-7 2.88675 4.999997762z" fill="#00f"/><text x="110.27143" y="2.2507172" font-family="sans-serif" font-size="7.05556px" stroke-width=".264583" text-align="end" text-anchor="end" style="line-height:1.25" xml:space="preserve"><tspan x="110.27143" y="2.2507172" fill="#ffffff" stroke-width=".264583">b4</tspan></text></g><g transform="translate(190,100)"><path d="m108.66025 4.9999956-5.7735-3e-7 -2.886751-4.999997802 2.886751-4.999997498 5.7735 3e-7 2.88675 4.999997762z" fill="#00f"/><text x="110.27143" y="2.2507172" font-family="sans-serif" font-size="7.05556px" stroke-width=".264583" text-align="end" text-anchor="end" style="line-height:1.25" xml:space="preserve"><tspan x="110.27143" y="2.2507172" fill="#ffffff" stroke-width=".264583">b4</tspan></text></g><g transform="translate(190,200)"><path d="m108.66025 4.9999956-5.7735-3e-7 -2.886751-4.999997802 2.886751-4.999997498 5.7735 3e-7 2.88675 4.999997762z" fill="#00f"/><text x="110.27143" y="2.2507172" font-family="sans-serif" font-size="7.05556px" stroke-width=".264583" text-align="end" text-anchor="end" style="line-height:1.25" xml:space="preserve"><tspan x="110.27143" y="2.2507172" fill="#ffffff" stroke-width=".264583">b4</tspan></text></g><g fill="none" stroke="#00f" stroke-width=".5"><path transform="translate(95.000464)" d="M 99.999995,-2.5018664e-6 C 71.134482,31.760848 42.440151,63.333347 13.660249,95" marker-end="url(#af)"/><path transform="translate(95.000464)" d="M 99.999997,-2.5018664e-6 C 71.236385,64.963175 42.440112,130.00012 13.660249,195" marker-end="url(#ag)"/><path transform="translate(95.000464,99.999793)" d="m99.999999 100.0002c-28.763573 31.64862-57.559843 63.33321-86.33975 94.9998" marker-end="url(#ad)"/><path transform="translate(95.000464)" d="m99.999999 199.99999c-28.865362-65.19292-57.559697-129.999561-86.339751-194.999806" marker-end="url(#ae)"/><path transform="translate(95.000464,-2.2738424e-5)" d="m99.999999 100.0002c-28.763573 31.64862-57.559843 63.33321-86.33975 94.9998" marker-end="url(#ab)"/><path transform="translate(95.000464,-99.999816)" d="M 99.999999,199.99999 C 71.134747,168.23943 42.440412,136.66694 13.660248,105" marker-end="url(#ac)"/><path transform="translate(190.00046)" d="M 99.999995,-2.5018664e-6 C 71.134482,31.760848 42.440151,63.333347 13.660249,95" marker-end="url(#w)"/><path transform="translate(190.00046)" d="M 99.999997,-2.5018664e-6 C 71.236385,64.963175 42.440112,130.00012 13.660249,195" marker-end="url(#x)"/><path transform="translate(190.00046)" d="M 99.999999,199.99999 C 71.134747,168.23943 42.440412,136.66694 13.660248,105" marker-end="url(#y)"/><path transform="translate(190.00046,-2.2738424e-5)" d="m99.999999 100.0002c-28.763573 31.64862-57.559843 63.33321-86.33975 94.9998" marker-end="url(#z)"/><path transform="translate(190.00046,-99.999816)" d="M 99.999999,199.99999 C 71.134747,168.23943 42.440412,136.66694 13.660248,105" marker-end="url(#aa)"/><path transform="translate(190.00046)" d="m99.999999 199.99999c-28.865362-65.19292-57.559697-129.999561-86.339751-194.999806" marker-end="url(#v)"/></g><g transform="translate(285.00046)"><path d="m108.66025 4.9999956-5.7735-3e-7 -2.886751-4.999997802 2.886751-4.999997498 5.7735 3e-7 2.88675 4.999997762z" fill="#00f"/><text x="110.27143" y="2.2507172" font-family="sans-serif" font-size="7.05556px" stroke-width=".264583" text-align="end" text-anchor="end" style="line-height:1.25" xml:space="preserve"><tspan x="110.27143" y="2.2507172" fill="#ffffff" stroke-width=".264583">b5</tspan></text></g><g transform="translate(285.00046,100)"><path d="m108.66025 4.9999956-5.7735-3e-7 -2.886751-4.999997802 2.886751-4.999997498 5.7735 3e-7 2.88675 4.999997762z" fill="#00f"/><text x="110.27143" y="2.2507172" font-family="sans-serif" font-size="7.05556px" stroke-width=".264583" text-align="end" text-anchor="end" style="line-height:1.25" xml:space="preserve"><tspan x="110.27143" y="2.2507172" fill="#ffffff" stroke-width=".264583">b5</tspan></text></g><g transform="translate(285.00046,200)"><path d="m108.66025 4.9999956-5.7735-3e-7 -2.886751-4.999997802 2.886751-4.999997498 5.7735 3e-7 2.88675 4.999997762z" fill="#00f"/><text x="110.27143" y="2.2507172" font-family="sans-serif" font-size="7.05556px" stroke-width=".264583" text-align="end" text-anchor="end" style="line-height:1.25" xml:space="preserve"><tspan x="110.27143" y="2.2507172" fill="#ffffff" stroke-width=".264583">b5</tspan></text></g><g transform="translate(285.00046,300)"><path d="m108.66025 4.9999956-5.7735-3e-7 -2.886751-4.999997802 2.886751-4.999997498 5.7735 3e-7 2.88675 4.999997762z" fill="#00f"/><text x="110.27143" y="2.2507172" font-family="sans-serif" font-size="7.05556px" stroke-width=".264583" text-align="end" text-anchor="end" style="line-height:1.25" xml:space="preserve"><tspan x="110.27143" y="2.2507172" fill="#ffffff" stroke-width=".264583">b5</tspan></text></g><g fill="none" stroke="#00f" stroke-width=".5"><path transform="translate(285.00092)" d="M 99.999995,-2.5018664e-6 C 71.134482,31.760848 42.440151,63.333347 13.660249,95" marker-end="url(#m)"/><path transform="translate(285.00092)" d="M 99.999997,-2.5018664e-6 C 71.236385,64.963175 42.440112,130.00012 13.660249,195" marker-end="url(#n)"/><path transform="translate(285.00092)" d="M 99.999999,199.99999 C 71.134747,168.23943 42.440412,136.66694 13.660248,105" marker-end="url(#o)"/><path transform="translate(285.00092,-2.2738424e-5)" d="m99.999999 100.0002c-28.763573 31.64862-57.559843 63.33321-86.33975 94.9998" marker-end="url(#p)"/><path transform="translate(285.00092,-99.999816)" d="M 99.999999,199.99999 C 71.134747,168.23943 42.440412,136.66694 13.660248,105" marker-end="url(#q)"/><path transform="translate(285.00092)" d="m99.999999 199.99999c-28.865362-65.19292-57.559697-129.999561-86.339751-194.999806" marker-end="url(#r)"/><path transform="translate(285.00092)" d="m99.999539 300c-28.865259-98.62539-57.559441-196.66625-86.339291-294.999816" marker-end="url(#s)"/><path transform="translate(285.00092)" d="m99.999539 300c-28.865211-65.19299-57.559392-129.9997-86.339291-195" marker-end="url(#t)"/><path transform="translate(285.00092)" d="m99.999539 300c-28.865256-31.76057-57.55959-63.33307-86.33975-95" marker-end="url(#u)"/></g><g transform="translate(90.000004,199.99961)"><g transform="translate(-195.00043,-300)"><g transform="translate(0,400)"><path d="m328.66068 4.9999956-5.7735-3e-7 -2.88675-4.999997802 2.88675-4.999997498 5.7735 3e-7 2.88675 4.999997762z" fill="#f00"/><text x="330.27185" y="2.2507172" font-family="sans-serif" font-size="7.05556px" stroke-width=".264583" text-align="end" text-anchor="end" style="line-height:1.25" xml:space="preserve"><tspan x="330.27185" y="2.2507172" fill="#ffffff" stroke-width=".264583">b3</tspan></text></g></g></g><g transform="translate(90.000004,300)"><g transform="translate(-195.00043,-300)"><g transform="translate(0,400)"><path d="m328.66068 4.9999956-5.7735-3e-7 -2.88675-4.999997802 2.88675-4.999997498 5.7735 3e-7 2.88675 4.999997762z" fill="#f00"/><text x="330.27185" y="2.2507172" font-family="sans-serif" font-size="7.05556px" stroke-width=".264583" text-align="end" text-anchor="end" style="line-height:1.25" xml:space="preserve"><tspan x="330.27185" y="2.2507172" fill="#ffffff" stroke-width=".264583">b3</tspan></text></g></g></g><g transform="translate(325)"><g transform="translate(-195.00043,-300)"><g transform="translate(0,400)"><path d="m328.66068 4.9999956-5.7735-3e-7 -2.88675-4.999997802 2.88675-4.999997498 5.7735 3e-7 2.88675 4.999997762z" fill="#f00"/><text x="330.27185" y="2.2507172" font-family="sans-serif" font-size="7.05556px" stroke-width=".264583" text-align="end" text-anchor="end" style="line-height:1.25" xml:space="preserve"><tspan x="330.27185" y="2.2507172" fill="#ffffff" stroke-width=".264583">b3</tspan></text></g></g></g><g transform="translate(325,100.00039)"><g transform="translate(-195.00043,-300)"><g transform="translate(0,400)"><path d="m328.66068 4.9999956-5.7735-3e-7 -2.88675-4.999997802 2.88675-4.999997498 5.7735 3e-7 2.88675 4.999997762z" fill="#f00"/><text x="330.27185" y="2.2507172" font-family="sans-serif" font-size="7.05556px" stroke-width=".264583" text-align="end" text-anchor="end" style="line-height:1.25" xml:space="preserve"><tspan x="330.27185" y="2.2507172" fill="#ffffff" stroke-width=".264583">b3</tspan></text></g></g></g><path transform="translate(0,99.999793)" d="M 450,2.0449813e-4 C 342.94779,31.648699 235.77367,63.333233 128.66025,94.999821" fill="none" marker-end="url(#l)" stroke="#f00" stroke-width=".5"/><g transform="translate(285.00046,100)"><path d="m108.66025 4.9999956-5.7735-3e-7 -2.886751-4.999997802 2.886751-4.999997498 5.7735 3e-7 2.88675 4.999997762z" fill="#00f"/><text x="110.27143" y="2.2507172" font-family="sans-serif" font-size="7.05556px" stroke-width=".264583" text-align="end" text-anchor="end" style="line-height:1.25" xml:space="preserve"><tspan x="110.27143" y="2.2507172" fill="#ffffff" stroke-width=".264583">b5</tspan></text></g><g fill="none" stroke="#f00" stroke-width=".5"><path transform="translate(0,99.999793)" d="M 450,2.0449813e-4 C 344.61335,98.277524 239.10684,196.66661 133.66025,294.99982" marker-end="url(#k)"/><path transform="translate(0,99.999793)" d="m450 100.00059c-105.38659 64.96276-210.8931 129.99945-316.33975 194.99923" marker-end="url(#j)"/><path transform="translate(0,99.999793)" d="m450 100.00059c-107.05207-31.648709-214.2262-63.333503-321.33975-95.0003874" marker-end="url(#i)"/><path transform="translate(0,200.00015)" d="m215 99.999457c-27.09787 31.648703-54.22652 63.333363-81.33975 95.000003" marker-end="url(#g)"/><path transform="translate(0,200.00015)" d="m215 199.99985c-28.76342-64.96263-57.55969-129.999452-86.33975-194.9996474" marker-end="url(#f)"/><path transform="translate(0,200.00015)" d="m215 199.99985c-28.76331-31.64853-57.55958-63.33332-86.33975-95.00039" marker-end="url(#e)"/></g><g fill="#000000" font-family="sans-serif" font-size="10.5833px" stroke-width=".264583" text-anchor="end"><text x="-1.4433256" y="102.25163" text-align="end" style="line-height:1.25" xml:space="preserve"><tspan x="-1.4433255" y="102.25163" stroke-width=".264583" text-align="end" text-anchor="end">primary 1</tspan></text><text x="-1.4433256" y="202.25163" text-align="end" style="line-height:1.25" xml:space="preserve"><tspan x="-1.4433255" y="202.25163" stroke-width=".264583" text-align="end" text-anchor="end">primary 2</tspan></text><text x="-1.4433256" y="302.25162" text-align="end" style="line-height:1.25" xml:space="preserve"><tspan x="-1.4433255" y="302.25162" stroke-width=".264583" text-align="end" text-anchor="end">primary 3</tspan></text><text x="-1.4433256" y="402.25162" text-align="end" style="line-height:1.25" xml:space="preserve"><tspan x="-1.4433255" y="402.25162" stroke-width=".264583" text-align="end" text-anchor="end">primary 4</tspan></text></g><g font-family="sans-serif" stroke-width=".264583"><g font-size="7.05556px" text-anchor="end"><text x="110.27143" y="202.25072" text-align="end" style="line-height:1.25" xml:space="preserve"><tspan x="110.27143" y="202.25072" fill="#ffffff" stroke-width=".264583">b2</tspan></text><text x="225.27142" y="302.25034" text-align="end" style="line-height:1.25" xml:space="preserve"><tspan x="225.27142" y="302.25034" fill="#ffffff" stroke-width=".264583">b3</tspan></text><text x="395.27188" y="302.25073" text-align="end" style="line-height:1.25" xml:space="preserve"><tspan x="395.27188" y="302.25073" fill="#ffffff" stroke-width=".264583">b5</tspan></text></g><text x="-116.42606" y="68.262505" fill="#0000ff" font-size="10.5833px" text-anchor="middle" style="line-height:1.25" xml:space="preserve"><tspan x="-116.42606" y="68.262505" text-align="center">blue</tspan><tspan x="-116.42606" y="81.491631" text-align="center">quorum</tspan></text></g><g transform="translate(-355.07082,114.82917)" fill="none" stroke="#00f" stroke-width="5"><path d="m314.325-165.62916c-10.75947 0-21.51917 0-26.89917 21.6082s-5.38 64.822615-8.99592 86.430121c-3.61591 21.607506-10.84771 21.607506-18.07991 21.607506"/><path transform="matrix(1,0,0,-1,0,-71.966666)" d="m314.325-165.62916c-10.75947 0-21.51917 0-26.89917 21.6082s-5.38 64.822615-8.99592 86.430121c-3.61591 21.607506-10.84771 21.607506-18.07991 21.607506"/></g><g transform="translate(-403.22501,254.00001)" fill="none" stroke="#00f" stroke-width="5"><path d="m314.325-165.62916c-10.75947 0-21.51917 0-26.89917 21.6082s-5.38 64.822615-8.99592 86.430121c-3.61591 21.607506-10.84771 21.607506-18.07991 21.607506"/><path transform="matrix(1,0,0,-1,0,-71.966666)" d="m314.325-165.62916c-10.75947 0-21.51917 0-26.89917 21.6082s-5.38 64.822615-8.99592 86.430121c-3.61591 21.607506-10.84771 21.607506-18.07991 21.607506"/></g><text x="-164.5802" y="209.54999" fill="#0000ff" font-family="sans-serif" font-size="10.5833px" stroke-width=".264583" text-anchor="middle" style="line-height:1.25" xml:space="preserve"><tspan x="-164.5802" y="209.54999" text-align="center">blue</tspan><tspan x="-164.5802" y="222.77911" text-align="center">quorum</tspan></text><g fill="none" stroke="#f00" stroke-width="5"><path transform="matrix(-1,0,0,1,782.63749,214.3125)" d="m314.325-165.62916c-10.75947 0-21.51917 0-26.89917 21.6082s-5.38 64.822615-8.99592 86.430121c-3.61591 21.607506-10.84771 21.607506-18.07991 21.607506"/><path transform="rotate(180,391.31874,71.172917)" d="m314.325-165.62916c-10.75947 0-21.51917 0-26.89917 21.6082s-5.38 64.822615-8.99592 86.430121c-3.61591 21.607506-10.84771 21.607506-18.07991 21.607506"/></g><g fill="none" stroke="#f00" stroke-width="5"><path transform="matrix(-1,0,0,1,830.79168,353.48334)" d="m314.325-165.62916c-10.75947 0-21.51917 0-26.89917 21.6082s-5.38 64.822615-8.99592 86.430121c-3.61591 21.607506-10.84771 21.607506-18.07991 21.607506"/><path transform="rotate(180,415.39584,140.75834)" d="m314.325-165.62916c-10.75947 0-21.51917 0-26.89917 21.6082s-5.38 64.822615-8.99592 86.430121c-3.61591 21.607506-10.84771 21.607506-18.07991 21.607506"/></g><text x="523.875" y="166.6875" fill="#ff0000" font-family="sans-serif" font-size="10.5833px" stroke-width=".264583" style="line-height:1.25" xml:space="preserve"><tspan x="523.875" y="166.6875">red</tspan><tspan x="523.875" y="179.91663">quorum</tspan></text><text x="572.55835" y="306.91666" fill="#ff0000" font-family="sans-serif" font-size="10.5833px" stroke-width=".264583" style="line-height:1.25" xml:space="preserve"><tspan x="572.55835" y="306.91666">red</tspan><tspan x="572.55835" y="320.14578">quorum</tspan></text></g></svg>
