<svg width="498.71mm" height="521.45mm" id="eXxyTPav1Nd1" xmlns="http://www.w3.org/2000/svg" xmlns:xlink="http://www.w3.org/1999/xlink" viewBox="0 0 49.871 52.145" shape-rendering="geometricPrecision" text-rendering="geometricPrecision" style="background-color:#fff">
<style><![CDATA[
#eXxyTPav1Nd31 {animation: eXxyTPav1Nd31_c_o 4000ms linear infinite normal forwards}@keyframes eXxyTPav1Nd31_c_o { 0% {opacity: 0} 25% {opacity: 0} 32.5% {opacity: 1} 100% {opacity: 1}} #eXxyTPav1Nd32 {animation: eXxyTPav1Nd32_c_o 4000ms linear infinite normal forwards}@keyframes eXxyTPav1Nd32_c_o { 0% {opacity: 0} 25% {opacity: 0} 32.5% {opacity: 1} 100% {opacity: 1}} #eXxyTPav1Nd39 {animation: eXxyTPav1Nd39_c_o 4000ms linear infinite normal forwards}@keyframes eXxyTPav1Nd39_c_o { 0% {opacity: 0} 25% {opacity: 0} 32.5% {opacity: 1} 100% {opacity: 1}} #eXxyTPav1Nd40 {animation: eXxyTPav1Nd40_c_o 4000ms linear infinite normal forwards}@keyframes eXxyTPav1Nd40_c_o { 0% {opacity: 0} 25% {opacity: 0} 32.5% {opacity: 1} 100% {opacity: 1}} #eXxyTPav1Nd51 {animation: eXxyTPav1Nd51_c_o 4000ms linear infinite normal forwards}@keyframes eXxyTPav1Nd51_c_o { 0% {opacity: 0} 25% {opacity: 0} 32.5% {opacity: 1} 100% {opacity: 1}} #eXxyTPav1Nd52 {animation: eXxyTPav1Nd52_c_o 4000ms linear infinite normal forwards}@keyframes eXxyTPav1Nd52_c_o { 0% {opacity: 0} 25% {opacity: 0} 32.5% {opacity: 1} 100% {opacity: 1}} #eXxyTPav1Nd149 {animation: eXxyTPav1Nd149_c_o 4000ms linear infinite normal forwards}@keyframes eXxyTPav1Nd149_c_o { 0% {opacity: 0} 25% {opacity: 0} 32.5% {opacity: 1} 100% {opacity: 1}} #eXxyTPav1Nd150 {animation: eXxyTPav1Nd150_c_o 4000ms linear infinite normal forwards}@keyframes eXxyTPav1Nd150_c_o { 0% {opacity: 0} 25% {opacity: 0} 32.5% {opacity: 1} 100% {opacity: 1}} #eXxyTPav1Nd152 {animation: eXxyTPav1Nd152_c_o 4000ms linear infinite normal forwards}@keyframes eXxyTPav1Nd152_c_o { 0% {opacity: 0} 50% {opacity: 0} 57.5% {opacity: 1} 100% {opacity: 1}} #eXxyTPav1Nd154 {animation: eXxyTPav1Nd154_c_o 4000ms linear infinite normal forwards}@keyframes eXxyTPav1Nd154_c_o { 0% {opacity: 0} 25% {opacity: 0} 32.5% {opacity: 1} 100% {opacity: 1}} #eXxyTPav1Nd156 {animation: eXxyTPav1Nd156_c_o 4000ms linear infinite normal forwards}@keyframes eXxyTPav1Nd156_c_o { 0% {opacity: 0} 67.5% {opacity: 0} 75% {opacity: 1} 100% {opacity: 1}} #eXxyTPav1Nd159 {animation: eXxyTPav1Nd159_c_o 4000ms linear infinite normal forwards}@keyframes eXxyTPav1Nd159_c_o { 0% {opacity: 0} 67.5% {opacity: 0} 75% {opacity: 1} 100% {opacity: 1}} #eXxyTPav1Nd161 {animation: eXxyTPav1Nd161_c_o 4000ms linear infinite normal forwards}@keyframes eXxyTPav1Nd161_c_o { 0% {opacity: 0} 25% {opacity: 0} 32.5% {opacity: 1} 100% {opacity: 1}} #eXxyTPav1Nd165 {animation: eXxyTPav1Nd165_c_o 4000ms linear infinite normal forwards}@keyframes eXxyTPav1Nd165_c_o { 0% {opacity: 0} 25% {opacity: 0} 32.5% {opacity: 1} 100% {opacity: 1}}
]]></style>
<g transform="translate(-78.889-122.43)"><path d="M87.094,161.2h41.444v9.636h-41.444Z" fill="#fdbb86" stroke-width="0.44212"/><path d="M86.873,160.98v10.078h41.887v-10.078Zm.44141.44336h41.002v9.1934h-41.002Z" fill="#b43700"/><path d="M87.094,149.85h41.444v9.636h-41.444Z" fill="#9ec1ff" stroke-width="0.44212"/><path d="M86.873,149.63v10.078h41.887v-10.078Zm.44141.44141h41.002v9.1953h-41.002Z" fill="#00f"/><path d="M87.094,138.51h41.444v9.636h-41.444Z" fill="#dd0" stroke-width="0.44212"/><path d="M86.873,138.29v10.078h41.887v-10.078Zm.44141.4414h41.002v9.1934h-41.002Z" fill="#c9b830"/><path d="M87.094,127.16h41.444v9.636h-41.444Z" fill="#cd73fd" stroke-width="0.44212"/><path d="M86.873,126.94v10.078h41.887v-10.078Zm.44141.44141h41.002v9.1934h-41.002Z" fill="#1e0097"/><path d="M115.62,143.28l-2.0215,2.541.39063.31054l2.0234-2.541Z" fill="#008000"/><g><path d="M116.37,142.73l-.23015,1.5423-1.2212-.97194Z" fill="#008000" fill-rule="evenodd" stroke-width="0.208093"/><path d="M116.5,142.57l-.16797.0645-1.6191.63671l1.5039,1.1973Zm-.25977.32422l-.17578,1.1856-.93945-.74805Z" fill="#008000" fill-rule="evenodd"/></g><path d="M98.678,140.49l-.16602.47266l11.928,4.2012.16602-.47266Z"/><g><path d="M111.37,145.23l-1.5326.28761.51844-1.4721Z" fill-rule="evenodd" stroke-width="0.208093"/><path d="M110.32,143.84l-.63867,1.8125l1.8867-.35547-.11719-.13672Zm.0762.4082l.7793.91211-1.1777.2207Z" fill-rule="evenodd"/></g><path d="M99.062,134.31v.5h14.988v-.5Z"/><g><path d="M114.95,134.56l-1.35.78037v-1.5607Z" fill-rule="evenodd" stroke-width="0.208093"/><path d="M113.5,133.6v1.9219l1.6621-.96093-.15625-.0899Zm.20899.36133l1.0371.59961-1.0371.60156Z" fill-rule="evenodd"/></g><path d="M122.19,142.19l-8.3496,3.7344.20508.45703l8.3496-3.7344Z"/><g><path d="M123.12,142.05l-.91383,1.2635-.63716-1.4248Z" fill-rule="evenodd" stroke-width="0.208093"/><path d="M121.4,141.77l.78515,1.7539l1.125-1.5566-.17968-.0176Zm.33594.24414l1.1934.12305-.70312.97265Z" fill-rule="evenodd"/></g><path d="M90.09,146.42v.5h20.174v-.5Z"/><g><path d="M111.16,146.67l-1.35.78037v-1.5607Z" fill-rule="evenodd" stroke-width="0.208093"/><path d="M109.71,145.71v1.9199l1.6621-.95899-.15625-.0918Zm.20703.35937l1.0391.60156-1.0391.59961Z" fill-rule="evenodd"/></g><path id="eXxyTPav1Nd31" d="M92.619,164.32l-.1582.4746c2.1517.71346,4.3135,1.4368,6.1523,1.5254c1.8387.0885,3.2957-.47172,4.7109-1.0137l-.17969-.46679c-1.4152.54195-2.7826,1.0635-4.5078.98047s-3.8658-.78655-6.0176-1.5Z" opacity="0" fill="#008000"/><g id="eXxyTPav1Nd32" opacity="0"><path d="M104.08,164.75l-.98167,1.2116-.55817-1.4575Z" fill="#008000" fill-rule="evenodd" stroke-width="0.208093"/><path d="M102.37,164.38l.6875,1.7949l1.209-1.4922-.17773-.0273Zm.32422.26367l1.1836.1875-.75391.93164Z" fill="#008000" fill-rule="evenodd"/></g><path d="M110.79,164.73c-3.648,1.0093-7.2729,2.0084-10.439,2.043-3.1665.0346-5.9253-.8899-8.7168-1.8281l-.16016.47266c2.7915.93823,5.614,1.8892,8.8809,1.8535s6.9204-1.0493,10.568-2.0586Z" fill="#008000"/><g><path d="M111.73,164.73l-1.0931,1.1121-.41618-1.5042Z" fill="#008000" fill-rule="evenodd" stroke-width="0.208093"/><path d="M110.07,164.19l.51172,1.8516l1.3457-1.3691-.17383-.0449Zm.29687.29101l1.1602.30274-.83984.85351Z" fill="#008000" fill-rule="evenodd"/></g><path id="eXxyTPav1Nd39" d="M97.662,157.18v.5h5.1856v-.5Z" opacity="0" fill="#008000"/><g id="eXxyTPav1Nd40" opacity="0"><path d="M103.75,157.43l-1.35.78037v-1.5607Z" fill="#008000" fill-rule="evenodd" stroke-width="0.208093"/><path d="M102.29,156.47v1.9199l1.6621-.96094-.15625-.0898Zm.20703.35937l1.0371.60156-1.0371.59961Z" fill="#008000" fill-rule="evenodd"/></g><path d="M105.99,154.5c-1.742.23606-3.643,1.3409-5.5352,2.4258l.24805.43359c1.8922-1.0849,3.7732-2.1491,5.3535-2.3633c1.5804-.21416,2.9563.38861,4.3887,1.0234l.20313-.45703c-1.4323-.63483-2.9163-1.2986-4.6582-1.0625Z"/><g><path d="M111.37,156.16l-1.5504.1664.6324-1.4269Z" fill-rule="evenodd" stroke-width="0.208093"/><path d="M110.43,154.69l-.7793,1.7559l1.9102-.20508-.10742-.14453Zm.043.41407l.70703.96875-1.1914.12695Z" fill-rule="evenodd"/></g><path d="M110.29,152.37c-3.6655,1.2103-7.3298,2.4209-10.994,3.6309l.15625.47461c3.6643-1.2099,7.3286-2.4205,10.994-3.6309Z" fill="#008000"/><g><path d="M111.22,152.32l-1.0373,1.1643-.48935-1.482Z" fill="#008000" fill-rule="evenodd" stroke-width="0.208093"/><path d="M109.54,151.87l.60156,1.8242l1.2773-1.4336-.17578-.0371Zm.31054.27734l1.1738.24219-.79687.89649Z" fill="#008000" fill-rule="evenodd"/></g><path id="eXxyTPav1Nd51" d="M108.1822,157.165l.0987.515h2.0366v-.5Z" opacity="0"/><g id="eXxyTPav1Nd52" opacity="0"><path d="M111.22,157.43l-1.35.78037v-1.5607Z" fill-rule="evenodd" stroke-width="0.208093"/><path d="M109.76,156.47v1.9199l1.6621-.96094-.15625-.0898Zm.20898.35937l1.0371.60156-1.0371.59961Z" fill-rule="evenodd"/></g><path d="M116.19,154.54l-.38086.32422c.19694.2308.37911.45166.46485.64063s.10011.31621-.0176.50781-.43342.46175-.84766.73437-.92449.55822-1.4394.84571l.24414.4375c.51496-.28749,1.033-.57717,1.4707-.86524s.7976-.56429.99805-.89062.1769-.68803.0469-.97461-.34214-.52897-.53907-.75977Z" fill="#008000"/><g><path d="M115.41,154.02l1.4699.52045-1.1873,1.0131Z" fill="#008000" fill-rule="evenodd" stroke-width="0.208093"/><path d="M115.28,153.87l.0332.17579.31445,1.7109l1.4629-1.2461Zm.27148.31641l1.1289.39844-.91406.77929Z" fill="#008000" fill-rule="evenodd"/></g><path d="M113.47,151.32c-.51496.28749-1.035.57522-1.4727.86328s-.79563.56429-.99609.89062-.1769.68999-.0469.97657.34213.52701.53907.75781l.3789-.32422c-.19694-.23081-.37715-.45166-.46289-.64062s-.10011-.31622.0176-.50782.43147-.46174.8457-.73437.92645-.55821,1.4414-.8457Z"/><g><path d="M112.27,155.34l-1.4699-.52045l1.1873-1.0131Z" fill-rule="evenodd" stroke-width="0.208093"/><path d="M112.06,153.61l-1.4609,1.248l1.8086.64062-.0312-.17773Zm-.13867.39258l.2168,1.1797-1.1289-.40039Z" fill-rule="evenodd"/></g><path d="M90.09,134.31v.5h5.1855v-.5Z"/><g><path d="M96.176,134.56l-1.35.78037v-1.5607Z" fill-rule="evenodd" stroke-width="0.208093"/><path d="M94.723,133.6v1.9219l1.6621-.96093-.15625-.0899Zm.20703.36133l1.0391.59961-1.0391.60156Z" fill-rule="evenodd"/></g><path d="M92.543,151.13l-.34375.36328c1.262,1.1928,2.5251,2.3853,3.7871,3.5781l.3418-.36328c-1.262-1.1928-2.5232-2.3853-3.7852-3.5781Z"/><g><path d="M96.812,155.51l-1.5172-.36024l1.0721-1.1342Z" fill-rule="evenodd" stroke-width="0.208093"/><path d="M96.414,153.81l-1.3184,1.3965l1.8672.44336-.05078-.17187Zm-.0957.40429l.34375,1.1504-1.168-.27734Z" fill-rule="evenodd"/></g><path d="M90.09,157.18v.5h5.1855v-.5Z"/><g><path d="M96.176,157.43l-1.35.78037v-1.5607Z" fill-rule="evenodd" stroke-width="0.208093"/><path d="M94.723,156.47v1.9199l1.6621-.96094-.15625-.0898Zm.20703.35937l1.0391.60156-1.0391.59961Z" fill-rule="evenodd"/></g><path d="M90.09,163.15v.5h5.1855v-.5Z" fill="#008000"/><g><path d="M96.176,163.4l-1.35.78037v-1.5607Z" fill="#008000" fill-rule="evenodd" stroke-width="0.208093"/><path d="M94.723,162.44v1.9219l1.6621-.96093-.15625-.0899Zm.20703.35937l1.0391.60157-1.0391.59961Z" fill="#008000" fill-rule="evenodd"/></g><path d="M96.297,142.94c-1.262,1.1928-2.5232,2.3853-3.7852,3.5781l.3418.36329c1.262-1.1928,2.5251-2.3853,3.7871-3.5781Z" fill="#008000"/><g><path d="M97.123,142.51l-.44507,1.4945-1.0721-1.1342Z" fill="#008000" fill-rule="evenodd" stroke-width="0.208093"/><path d="M97.273,142.36l-.17383.043-1.6934.40039l1.3203,1.3965Zm-.30078.28516l-.34375,1.1504-.82226-.87305Z" fill="#008000" fill-rule="evenodd"/></g><path d="M90.09,140.28v.5h5.1855v-.5Z" fill="#008000"/><g><path d="M96.176,140.53l-1.35.78037v-1.5607Z" fill="#008000" fill-rule="evenodd" stroke-width="0.208093"/><path d="M94.723,139.57v1.9199l1.6621-.95899-.15625-.0918Zm.20703.35937l1.0391.59961-1.0391.60156Z" fill="#008000" fill-rule="evenodd"/></g><path d="M79.878,164.64c-.27681,0-.519.17302-.68223.4233s-.25772.58238-.25772.94607.09452.69579.25772.94608.40542.42349.68223.42349.51886-.17322.68207-.42349c.12912-.19799.21531-.44727.2457-.72285h4.0637v.42707h-.30182v.71923h.18764v-.27768h.17673v.27768h.12268v-.43347h.20143v.43347h.13744v-.35265h.18667v.35265h.18171v-.16238h.17673v.16238h.17225v-.71923h-.30198v-.42707h.30198v-.44647h-5.3052c-.0299-.27556-.11608-.52483-.24521-.72285-.16321-.25023-.40523-.42324-.68207-.42324Zm0,.32986c.15698,0,.30761.0965.42868.28219s.20223.45576.20223.75727-.08113.57164-.20223.75728-.2717.2822-.42868.2822-.30761-.0965-.42868-.2822-.20224-.45575-.20224-.75728.08113-.57163.20224-.75727.2717-.2822.42868-.28219Z" fill="#fd6200" stroke-width="0.005556"/><path d="M79.878,153.3c-.27681,0-.519.17302-.68223.4233s-.25772.58238-.25772.94608.09452.69578.25772.94608.40542.42348.68223.42348.51886-.17321.68207-.42348c.12912-.19801.21531-.44729.2457-.72286h4.0637v.42707h-.30182v.71923h.18764v-.27767h.17673v.27767h.12268v-.43347h.20143v.43347h.13744v-.35265h.18667v.35265h.18171v-.16239h.17673v.16239h.17225v-.71923h-.30198v-.42707h.30198v-.44647h-5.3052c-.0299-.27555-.11608-.52482-.24521-.72285-.16321-.25023-.40523-.42325-.68207-.42325Zm0,.32986c.15698,0,.30761.0965.42868.28219s.20223.45576.20223.75728-.08113.57163-.20223.75727-.2717.2822-.42868.2822-.30761-.0965-.42868-.2822-.20224-.45575-.20224-.75727.08113-.57164.20224-.75728.2717-.2822.42868-.28219Z" fill="#0025fd" stroke-width="0.005556"/><path d="M79.878,141.96c-.27681,0-.519.17302-.68223.4233s-.25772.58239-.25772.94608.09452.69578.25772.94608.40542.42348.68223.42348.51886-.17321.68207-.42348c.12912-.198.21531-.44728.2457-.72286h4.0637v.42707h-.30182v.71924h.18764v-.27768h.17673v.27768h.12268v-.43347h.20143v.43347h.13744v-.35266h.18667v.35266h.18171v-.16239h.17673v.16239h.17225v-.71924h-.30198v-.42707h.30198v-.44647h-5.3052c-.0299-.27555-.11608-.52482-.24521-.72285-.16321-.25023-.40523-.42324-.68207-.42324Zm0,.32986c.15698,0,.30761.0965.42868.2822s.20223.45575.20223.75727-.08113.57163-.20223.75727-.2717.2822-.42868.2822-.30761-.0965-.42868-.2822-.20224-.45575-.20224-.75727.08113-.57163.20224-.75727.2717-.2822.42868-.2822Z" fill="#dd0" stroke-width="0.097715"/><path d="M79.879,141.91c-.29717,0-.55493.18514-.72461.44532-.16929.2596-.26562.6005-.26562.97265s.09634.71303.26562.97266c.16966.26015.42742.44531.72461.44531s.553-.18517.72266-.44531c.12583-.19296.20257-.43695.23828-.69922h3.9805v.32812h-.30078v.81641h.28516v-.27734h.07813v.27734h.2207v-.43164h.10352v.43164h.23633v-.35156h.08789v.35156h.2793v-.16211h.08008v.16211h.26953v-.81641h-.30273v-.32812h.30273v-.54492h-5.3203c-.03508-.26333-.11203-.50755-.23828-.70117-.16932-.25961-.42425-.44459-.7207-.44532Zm-.002.0977h.002c.25649,0,.48386.16004.64062.40039.12431.19065.20913.43444.23828.70312l.0039.043h5.3008v.34961h-.30273v.52344h.30273v.62109h-.07422v-.16211h-.27539v.16211h-.08398v-.35156h-.2832v.35156h-.04102v-.43359h-.29883v.43359h-.02539v-.27734h-.27344v.27734h-.08984v-.62109h.30078v-.52344h-4.1562l-.0039.043c-.02964.26877-.11398.51056-.23828.70117-.15678.2404-.38419.40039-.64062.40039s-.48582-.16-.64258-.40039c-.15712-.24096-.25-.5647-.25-.91992s.09289-.67703.25-.91797c.15643-.23986.38486-.40164.64062-.40234Zm.002.23242c-.177,0-.34374.10997-.4707.30469-.1275.19544-.20898.47289-.20898.7832s.08152.5897.20898.78516c.12697.19474.29371.30273.4707.30273s.34178-.10802.46875-.30273c.12749-.19544.21094-.47485.21094-.78516s-.08348-.58774-.21094-.7832c-.12697-.19474-.29175-.30469-.46875-.30469Zm0,.0977c.13696,0,.27154.0831.38672.25976.11469.17588.19531.43772.19531.73047s-.08061.55463-.19531.73047c-.11518.17663-.24977.25977-.38672.25977s-.2735-.0831-.38867-.25977c-.11469-.17588-.19336-.43772-.19336-.73047s.07864-.55463.19336-.73047c.11517-.17663.25173-.25976.38867-.25976Z"/><path d="M79.878,130.62c-.27681,0-.519.17303-.68223.4233s-.25772.58239-.25772.94608.09452.69579.25772.94608.40542.42349.68223.42349.51886-.17322.68207-.42349c.12912-.198.21531-.44728.2457-.72285h4.0637v.42706h-.30182v.71924h.18764v-.27767h.17673v.27767h.12268v-.43347h.20143v.43347h.13744v-.35265h.18667v.35265h.18171v-.16239h.17673v.16239h.17225v-.71924h-.30198v-.42706h.30198v-.44647h-5.3052c-.0299-.27556-.11608-.52483-.24521-.72286-.16321-.25023-.40523-.42324-.68207-.42324Zm0,.32986c.15698,0,.30761.0965.42868.2822s.20223.45575.20223.75727-.08113.57163-.20223.75728-.2717.28219-.42868.28219-.30761-.0965-.42868-.28219-.20224-.45575-.20224-.75728.08113-.57163.20224-.75727.2717-.2822.42868-.2822Z" fill="#7300fd" stroke-width="0.005556"/><g transform="translate(26.247 85.128)"><path d="M67.242,57.986l-.38086.32422c.19695.2308.37911.45166.46484.64062s.10012.31621-.01758.50781-.43147.46175-.8457.73438-.92645.55822-1.4414.8457l.24414.43555c.51496-.28749,1.033-.57522,1.4707-.86328s.79759-.56429.99805-.89062.1769-.68998.04687-.97656-.34211-.52701-.53906-.75781Z"/><g><path d="M66.468,57.463l1.4699.52041-1.1872,1.0131Z" fill-rule="evenodd" stroke-width="0.208093"/><path d="M66.332,57.305l.0332.17774.31641,1.7109l1.4609-1.248Zm.27148.31641l1.1289.40039-.91211.7793Z" fill-rule="evenodd"/></g><path d="M64.527,54.764c-.51496.28749-1.033.57717-1.4707.86523s-.79759.56429-.99805.89062-.1769.68803-.04687.97461.34211.52896.53906.75976l.38086-.32617c-.19695-.2308-.37911-.44971-.46484-.63867s-.10012-.31621.01758-.50781.43147-.46175.8457-.73438.92645-.55822,1.4414-.8457Z"/><g><path d="M63.325,58.776l-1.4699-.52041l1.1872-1.0131Z" fill-rule="evenodd" stroke-width="0.208093"/><path d="M63.113,57.047l-1.4629,1.2461l1.8105.64062-.0332-.17578Zm-.14062.39258l.2168,1.1777-1.1289-.39844Z" fill-rule="evenodd"/></g></g><path d="M116.54,140.28v.5h5.1875v-.5Z"/><g><path d="M122.63,140.53l-1.35.78037v-1.5607Z" fill-rule="evenodd" stroke-width="0.208093"/><path d="M121.17,139.57v1.9199l1.6621-.95899-.1543-.0918Zm.20898.35937l1.0371.59961-1.0371.60156Z" fill-rule="evenodd"/></g><path d="M116.54,134.31v.5h5.1875v-.5Z"/><g><path d="M122.63,134.56l-1.35.78037v-1.5607Z" fill-rule="evenodd" stroke-width="0.208093"/><path d="M121.17,133.6v1.9219l1.6621-.96093-.1543-.0899Zm.20898.36133l1.0371.59961-1.0371.60156Z" fill-rule="evenodd"/></g><g transform="translate(-37.129 85.128)"><path d="M128.27,70.268c-1.104491.000055-1.999845.895409-1.9999,1.9999v6.0002c-.000106.530485.210547,1.03928.58561,1.414437s.883805.585936,1.41429.585963s1.039228-.210807,1.41429-.585963.585716-.883952.58561-1.414437v-6.0002c-.000055-1.104491-.895409-1.999845-1.9999-1.9999Z" fill="#fff" stroke-width="0.5"/><path d="M128.27,70.018c-1.2396.000074-2.248,1.0104-2.248,2.25v6c-.00025,1.2398,1.0082,2.2519,2.248,2.252c1.2398-.000074,2.2502-1.0122,2.25-2.252v-6c-.00007-1.2396-1.0104-2.2499-2.25-2.25Zm0,.5c.96938.000058,1.75.78062,1.75,1.75v6c.0002.96955-.78044,1.7519-1.75,1.752-.96955-.000058-1.7482-.7824-1.748-1.752v-6c.00006-.96938.77867-1.7499,1.748-1.75Z"/><path d="M128.27,70.268c-1.104491.000055-1.999845.895409-1.9999,1.9999v6.0002c-.000106.530485.210547,1.03928.58561,1.414437s.883805.585936,1.41429.585963s1.039228-.210807,1.41429-.585963.585716-.883952.58561-1.414437v-6.0002c-.000055-1.104491-.895409-1.999845-1.9999-1.9999Z" fill="#00efff" stroke-width="0.5"/><path d="M128.27,70.018c-1.2396.000074-2.248,1.0104-2.248,2.25v6c-.00025,1.2398,1.0082,2.2519,2.248,2.252c1.2398-.000074,2.2502-1.0122,2.25-2.252v-6c-.00007-1.2396-1.0104-2.2499-2.25-2.25Zm0,.5c.96938.000058,1.75.78062,1.75,1.75v6c.0002.96955-.78044,1.7519-1.75,1.752-.96955-.000058-1.7482-.7824-1.748-1.752v-6c.00006-.96938.77867-1.7499,1.748-1.75Z"/><g><path d="M129.01,76.131h-.2899v-.18448q-.0388.02635-.10542.07441-.0651.04651-.12713.07441-.0729.03566-.16743.05891-.0946.02481-.22169.02481-.2341,0-.39688-.15503t-.16278-.39532q0-.19689.0837-.31781.0853-.12247.24184-.19224.15813-.06976.37983-.09457t.47594-.03721v-.04496q0-.09922-.0357-.16433-.0341-.06511-.0992-.10232-.062-.03566-.14883-.04806t-.18138-.0124q-.11472,0-.2558.03101-.14108.02946-.29146.08682h-.0155v-.29611q.0853-.02326.2465-.05116t.31781-.0279q.18293,0,.31781.03101.13642.02945.23564.10232.0977.07131.14883.18448t.0512.2806Zm-.2899-.42633v-.48214q-.13333.0078-.31471.02326-.17984.0155-.28526.04496-.12557.03566-.20309.11162-.0775.07441-.0775.20619q0,.14883.0899.22479.0899.07441.2744.07441.15348,0,.2806-.05891.12712-.06046.23565-.14418Z"/></g><g><path d="M128.27,70.268c-1.104491.000055-1.999845.895409-1.9999,1.9999v6.0002c-.000106.530485.210547,1.03928.58561,1.414437s.883805.585936,1.41429.585963s1.039228-.210807,1.41429-.585963.585716-.883952.58561-1.414437v-6.0002c-.000055-1.104491-.895409-1.999845-1.9999-1.9999Z" stroke-width="0"/><path d="M128.27,70.268c-1.1045.000066-1.9998.8954-1.9999,1.9999v6.0002c-.00022,1.1047.8952,2.0003,1.9999,2.0004c1.1047-.000066,2.0001-.89572,1.9999-2.0004v-6.0002c-.00007-1.1045-.89541-1.9998-1.9999-1.9999Z"/></g><g><path d="M129.01,76.131h-.2899v-.18448q-.0388.02635-.10542.07441-.0651.04651-.12713.07441-.0729.03566-.16743.05891-.0946.02481-.22169.02481-.2341,0-.39688-.15503t-.16278-.39532q0-.19689.0837-.31781.0853-.12247.24184-.19224.15813-.06976.37983-.09457t.47594-.03721v-.04496q0-.09922-.0357-.16433-.0341-.06511-.0992-.10232-.062-.03566-.14883-.04806t-.18138-.0124q-.11472,0-.2558.03101-.14108.02946-.29146.08682h-.0155v-.29611q.0853-.02326.2465-.05116t.31781-.0279q.18293,0,.31781.03101.13642.02945.23564.10232.0977.07131.14883.18448t.0512.2806Zm-.2899-.42633v-.48214q-.13333.0078-.31471.02326-.17984.0155-.28526.04496-.12557.03566-.20309.11162-.0775.07441-.0775.20619q0,.14883.0899.22479.0899.07441.2744.07441.15348,0,.2806-.05891.12712-.06046.23565-.14418Z" fill="#fff"/></g><g transform="translate(99.443-50.677)"><path d="M30.458,-122.98c0,.899727-.729373,1.6291-1.6291,1.6291s-1.6291-.729373-1.6291-1.6291.729373-1.6291,1.6291-1.6291s1.6291.729373,1.6291,1.6291Z" transform="matrix(1 0 0-1 0 0)" fill="#008000" stroke-width="0.27451"/><g><path d="M29.926,124.09h-.39842l-.77205-.91777h-.43253v.91777h-.30696v-2.3084h.64647q.20929,0,.34882.0279.13953.0264.25115.0961.12557.0791.19534.19999.07131.11937.07131.30385q0,.2496-.12557.41858-.12557.16744-.34572.2527Zm-.71779-1.6588q0-.0992-.03566-.17518-.03411-.0775-.11472-.13023-.06666-.045-.15813-.062-.09147-.0186-.21549-.0186h-.36122v.87126h.31006q.14573,0,.25425-.0248.10852-.0264.18448-.0961.06976-.0651.10232-.14883.03411-.0853.03411-.21549Z" fill="#fff"/></g></g><g transform="translate(115.31-13.896)"><path d="M14.594,-92.171c0,.899727-.729373,1.6291-1.6291,1.6291s-1.6291-.729373-1.6291-1.6291.729373-1.6291,1.6291-1.6291s1.6291.729373,1.6291,1.6291Z" transform="matrix(1 0 0-1 0 0)" fill="#c80000" stroke-width="0.27451"/><g><path d="M14.24,91.238l-.5318,2.0461h-.30644l-.43011-1.6984-.42049,1.6984h-.29956l-.54142-2.0461h.27895l.43011,1.7012.42324-1.7012h.2762l.42736,1.7177.42736-1.7177Z" fill="#fff" stroke-width="0.88638"/></g></g></g><g transform="translate(-37.129 85.128)"><path d="M135.84,70.268c-1.104491.000055-1.999845.895409-1.9999,1.9999v6.0002c-.000106.530485.210547,1.03928.58561,1.414437s.883805.585936,1.41429.585963s1.039228-.210807,1.41429-.585963.585716-.883952.58561-1.414437v-6.0002c-.000055-1.104491-.895409-1.999845-1.9999-1.9999Z" fill="#fff" stroke-width="0.5"/><path d="M135.84,70.018c-1.2396.000074-2.2499,1.0104-2.25,2.25v6c-.00024,1.2398,1.0102,2.2519,2.25,2.252c1.2398-.000074,2.2502-1.0122,2.25-2.252v-6c-.00007-1.2396-1.0104-2.2499-2.25-2.25Zm0,.5c.96938.000058,1.7499.78062,1.75,1.75v6c.00019.96955-.78044,1.7519-1.75,1.752-.96955-.000058-1.7502-.7824-1.75-1.752v-6c.00006-.96938.78063-1.7499,1.75-1.75Z"/><path d="M135.84,70.268c-1.104491.000055-1.999845.895409-1.9999,1.9999v6.0002c-.000106.530485.210547,1.03928.58561,1.414437s.883805.585936,1.41429.585963s1.039228-.210807,1.41429-.585963.585716-.883952.58561-1.414437v-6.0002c-.000055-1.104491-.895409-1.999845-1.9999-1.9999Z" fill="#00efff" stroke-width="0.5"/><path d="M135.84,70.018c-1.2396.000074-2.2499,1.0104-2.25,2.25v6c-.00024,1.2398,1.0102,2.2519,2.25,2.252c1.2398-.000074,2.2502-1.0122,2.25-2.252v-6c-.00007-1.2396-1.0104-2.2499-2.25-2.25Zm0,.5c.96938.000058,1.7499.78062,1.75,1.75v6c.00019.96955-.78044,1.7519-1.75,1.752-.96955-.000058-1.7502-.7824-1.75-1.752v-6c.00006-.96938.78063-1.7499,1.75-1.75Z"/><g><path d="M136.6,76.451h-.29145v-.18138q-.12558.10852-.262.16898t-.29611.06046q-.31006,0-.49299-.23874-.18139-.23874-.18139-.66198q0-.22014.062-.39222.0636-.17208.17053-.293.10542-.11782.24494-.17983.14108-.06201.29146-.06201.13642,0,.24184.02946.10542.02791.2217.08837v-.75034h.29145Zm-.29145-.42633v-.99374q-.11783-.05271-.21084-.07286t-.20309-.02015q-.24495,0-.38137.17053t-.13643.48369q0,.30851.10542.46974.10542.15968.33796.15968.12403,0,.25115-.05426.12713-.05581.2372-.14263Z"/></g><g><path d="M135.84,70.268c-1.104491.000055-1.999845.895409-1.9999,1.9999v6.0002c-.000106.530485.210547,1.03928.58561,1.414437s.883805.585936,1.41429.585963s1.039228-.210807,1.41429-.585963.585716-.883952.58561-1.414437v-6.0002c-.000055-1.104491-.895409-1.999845-1.9999-1.9999Z" stroke-width="0"/><path d="M135.84,70.268c-1.1045.000066-1.9998.8954-1.9999,1.9999v6.0002c-.00022,1.1047.8952,2.0003,1.9999,2.0004c1.1047-.000066,2.0001-.89572,1.9999-2.0004v-6.0002c-.00007-1.1045-.89541-1.9998-1.9999-1.9999Z"/></g><g><path d="M136.6,76.451h-.29145v-.18138q-.12558.10852-.262.16898t-.29611.06046q-.31006,0-.49299-.23874-.18139-.23874-.18139-.66198q0-.22014.062-.39222.0636-.17208.17053-.293.10542-.11782.24494-.17983.14108-.06201.29146-.06201.13642,0,.24184.02946.10542.02791.2217.08837v-.75034h.29145Zm-.29145-.42633v-.99374q-.11783-.05271-.21084-.07286t-.20309-.02015q-.24495,0-.38137.17053t-.13643.48369q0,.30851.10542.46974.10542.15968.33796.15968.12403,0,.25115-.05426.12713-.05581.2372-.14263Z" fill="#fff"/></g><g transform="translate(122.87-19.867)"><path d="M14.594,-92.171c0,.899727-.729373,1.6291-1.6291,1.6291s-1.6291-.729373-1.6291-1.6291.729373-1.6291,1.6291-1.6291s1.6291.729373,1.6291,1.6291Z" transform="matrix(1 0 0-1 0 0)" fill="#c80000" stroke-width="0.27451"/><g><path d="M14.24,91.238l-.5318,2.0461h-.30644l-.43011-1.6984-.42049,1.6984h-.29956l-.54142-2.0461h.27895l.43011,1.7012.42324-1.7012h.2762l.42736,1.7177.42736-1.7177Z" fill="#fff" stroke-width="0.88638"/></g></g><g transform="translate(107.01-44.705)"><path d="M30.458,-122.98c0,.899727-.729373,1.6291-1.6291,1.6291s-1.6291-.729373-1.6291-1.6291.729373-1.6291,1.6291-1.6291s1.6291.729373,1.6291,1.6291Z" transform="matrix(1 0 0-1 0 0)" fill="#008000" stroke-width="0.27451"/><g><path d="M29.926,124.09h-.39842l-.77205-.91777h-.43253v.91777h-.30696v-2.3084h.64647q.20929,0,.34882.0279.13953.0264.25115.0961.12557.0791.19534.19999.07131.11937.07131.30385q0,.2496-.12557.41858-.12557.16744-.34572.2527Zm-.71779-1.6588q0-.0992-.03566-.17518-.03411-.0775-.11472-.13023-.06666-.045-.15813-.062-.09147-.0186-.21549-.0186h-.36122v.87126h.31006q.14573,0,.25425-.0248.10852-.0264.18448-.0961.06976-.0651.10232-.14883.03411-.0853.03411-.21549Z" fill="#fff"/></g></g></g><g id="eXxyTPav1Nd149" transform="translate(-37.129 85.128)" opacity="0"><path id="eXxyTPav1Nd150" d="M143.41,70.268c-1.104491.000055-1.999845.895409-1.9999,1.9999v6.0002c-.000106.530485.210547,1.03928.58561,1.414437s.883805.585936,1.41429.585963s1.039228-.210807,1.41429-.585963.585716-.883952.58561-1.414437v-6.0002c-.000055-1.104491-.895409-1.999845-1.9999-1.9999Z" opacity="0" fill="#fff" stroke-width="0.5"/><path d="M143.41,70.018c-1.2396.000074-2.2499,1.0104-2.25,2.25v6c-.00024,1.2398,1.0102,2.2519,2.25,2.252c1.2398-.000074,2.2502-1.0122,2.25-2.252v-6c-.00008-1.2396-1.0104-2.2499-2.25-2.25Zm0,.5c.96937.000058,1.7499.78063,1.75,1.75v6c.00019.96955-.78045,1.7519-1.75,1.752-.96955-.000058-1.7502-.7824-1.75-1.752v-6c.00006-.96937.78063-1.7499,1.75-1.75Z"/><path id="eXxyTPav1Nd152" d="M143.41,70.268c-1.104491.000055-1.999845.895409-1.9999,1.9999v6.0002c-.000106.530485.210547,1.03928.58561,1.414437s.883805.585936,1.41429.585963s1.039228-.210807,1.41429-.585963.585716-.883952.58561-1.414437v-6.0002c-.000055-1.104491-.895409-1.999845-1.9999-1.9999Z" opacity="0" fill="#00efff" stroke-width="0.5"/><path d="M143.41,70.018c-1.2396.000074-2.2499,1.0104-2.25,2.25v6c-.00024,1.2398,1.0102,2.2519,2.25,2.252c1.2398-.000074,2.2502-1.0122,2.25-2.252v-6c-.00008-1.2396-1.0104-2.2499-2.25-2.25Zm0,.5c.96937.000058,1.7499.78063,1.75,1.75v6c.00019.96955-.78045,1.7519-1.75,1.752-.96955-.000058-1.7502-.7824-1.75-1.752v-6c.00006-.96937.78063-1.7499,1.75-1.75Z"/><g id="eXxyTPav1Nd154" opacity="0"><path d="M143.96,74.352h-.0155q-.0481-.01395-.12558-.02791-.0775-.0155-.13642-.0155-.18759,0-.27286.08372-.0837.08217-.0837.29921v.05891h.52555v.24495h-.51625v1.4867h-.29145v-1.4867h-.19689v-.24495h.19689v-.05736q0-.30851.15347-.47284.15348-.16588.44339-.16588.0977,0,.17518.0093.0791.0093.14418.0217Z"/></g><g id="eXxyTPav1Nd156" opacity="0"><path d="M143.41,70.268c-1.104491.000055-1.999845.895409-1.9999,1.9999v6.0002c-.000106.530485.210547,1.03928.58561,1.414437s.883805.585936,1.41429.585963s1.039228-.210807,1.41429-.585963.585716-.883952.58561-1.414437v-6.0002c-.000055-1.104491-.895409-1.999845-1.9999-1.9999Z" stroke-width="0"/><path d="M143.41,70.268c-1.1045.000066-1.9998.8954-1.9999,1.9999v6.0002c-.00022,1.1047.89521,2.0003,1.9999,2.0004c1.1047-.000066,2.0001-.89572,1.9999-2.0004v-6.0002c-.00007-1.1045-.89541-1.9998-1.9999-1.9999Z"/></g><g id="eXxyTPav1Nd159" opacity="0"><path d="M143.96,74.352h-.0155q-.0481-.01395-.12558-.02791-.0775-.0155-.13642-.0155-.18759,0-.27286.08372-.0837.08217-.0837.29921v.05891h.52555v.24495h-.51625v1.4867h-.29145v-1.4867h-.19689v-.24495h.19689v-.05736q0-.30851.15347-.47284.15348-.16588.44339-.16588.0977,0,.17518.0093.0791.0093.14418.0217Z" fill="#fff"/></g><g id="eXxyTPav1Nd161" transform="translate(114.58-50.677)" opacity="0"><path d="M30.458,-122.98c0,.899727-.729373,1.6291-1.6291,1.6291s-1.6291-.729373-1.6291-1.6291.729373-1.6291,1.6291-1.6291s1.6291.729373,1.6291,1.6291Z" transform="matrix(1 0 0-1 0 0)" fill="#008000" stroke-width="0.27451"/><g><path d="M29.926,124.09h-.39842l-.77205-.91777h-.43253v.91777h-.30696v-2.3084h.64647q.20929,0,.34882.0279.13953.0264.25115.0961.12557.0791.19534.19999.07131.11937.07131.30385q0,.2496-.12557.41858-.12557.16744-.34572.2527Zm-.71779-1.6588q0-.0992-.03566-.17518-.03411-.0775-.11472-.13023-.06666-.045-.15813-.062-.09147-.0186-.21549-.0186h-.36122v.87126h.31006q.14573,0,.25425-.0248.10852-.0264.18448-.0961.06976-.0651.10232-.14883.03411-.0853.03411-.21549Z" fill="#fff"/></g></g><g id="eXxyTPav1Nd165" transform="translate(114.58-44.705)" opacity="0"><path d="M30.458,-122.98c0,.899727-.729373,1.6291-1.6291,1.6291s-1.6291-.729373-1.6291-1.6291.729373-1.6291,1.6291-1.6291s1.6291.729373,1.6291,1.6291Z" transform="matrix(1 0 0-1 0 0)" fill="#008000" stroke-width="0.27451"/><g><path d="M29.926,124.09h-.39842l-.77205-.91777h-.43253v.91777h-.30696v-2.3084h.64647q.20929,0,.34882.0279.13953.0264.25115.0961.12557.0791.19534.19999.07131.11937.07131.30385q0,.2496-.12557.41858-.12557.16744-.34572.2527Zm-.71779-1.6588q0-.0992-.03566-.17518-.03411-.0775-.11472-.13023-.06666-.045-.15813-.062-.09147-.0186-.21549-.0186h-.36122v.87126h.31006q.14573,0,.25425-.0248.10852-.0264.18448-.0961.06976-.0651.10232-.14883.03411-.0853.03411-.21549Z" fill="#fff"/></g></g></g><g transform="translate(-40.912 85.128)"><path d="M154.76,70.268c-1.104491.000055-1.999845.895409-1.9999,1.9999v6.0002c-.000106.530485.210547,1.03928.58561,1.414437s.883805.585936,1.41429.585963s1.039228-.210807,1.41429-.585963.585716-.883952.58561-1.414437v-6.0002c-.000055-1.104491-.895409-1.999845-1.9999-1.9999Z" fill="#fff" stroke-width="0.5"/><path d="M154.76,70.018c-1.2396.000074-2.2499,1.0104-2.25,2.25v6c-.00024,1.2398,1.0102,2.2519,2.25,2.252c1.2398-.000074,2.2502-1.0122,2.25-2.252v-6c-.00008-1.2396-1.0104-2.2499-2.25-2.25Zm0,.5c.96937.000058,1.7499.78062,1.75,1.75v6c.00019.96955-.78045,1.7519-1.75,1.752-.96955-.000058-1.7502-.7824-1.75-1.752v-6c.00006-.96938.78062-1.7499,1.75-1.75Z"/><path d="M154.76,70.268c-1.104491.000055-1.999845.895409-1.9999,1.9999v6.0002c-.000106.530485.210547,1.03928.58561,1.414437s.883805.585936,1.41429.585963s1.039228-.210807,1.41429-.585963.585716-.883952.58561-1.414437v-6.0002c-.000055-1.104491-.895409-1.999845-1.9999-1.9999Z" fill="#00efff" stroke-width="0.5"/><path d="M154.76,70.018c-1.2396.000074-2.2499,1.0104-2.25,2.25v6c-.00024,1.2398,1.0102,2.2519,2.25,2.252c1.2398-.000074,2.2502-1.0122,2.25-2.252v-6c-.00008-1.2396-1.0104-2.2499-2.25-2.25Zm0,.5c.96937.000058,1.7499.78062,1.75,1.75v6c.00019.96955-.78045,1.7519-1.75,1.752-.96955-.000058-1.7502-.7824-1.75-1.752v-6c.00006-.96938.78062-1.7499,1.75-1.75Z"/><g><path d="M154.92,74.409h-.32866v-.30231h.32866Zm-.0186,2.0216h-.29146v-1.7317h.29146Z"/></g><g><path d="M154.76,70.268c-1.104491.000055-1.999845.895409-1.9999,1.9999v6.0002c-.000106.530485.210547,1.03928.58561,1.414437s.883805.585936,1.41429.585963s1.039228-.210807,1.41429-.585963.585716-.883952.58561-1.414437v-6.0002c-.000055-1.104491-.895409-1.999845-1.9999-1.9999Z" stroke-width="0"/><path d="M154.76,70.268c-1.1045.000066-1.9998.8954-1.9999,1.9999v6.0002c-.00022,1.1047.8952,2.0003,1.9999,2.0004c1.1047-.000066,2.0001-.89572,1.9999-2.0004v-6.0002c-.00007-1.1045-.89541-1.9998-1.9999-1.9999Z"/></g><g><path d="M154.92,74.409h-.32866v-.30231h.32866Zm-.0186,2.0216h-.29146v-1.7317h.29146Z" fill="#fff"/></g><g transform="translate(141.79-19.867)"><path d="M14.594,-92.171c0,.899727-.729373,1.6291-1.6291,1.6291s-1.6291-.729373-1.6291-1.6291.729373-1.6291,1.6291-1.6291s1.6291.729373,1.6291,1.6291Z" transform="matrix(1 0 0-1 0 0)" fill="#c80000" stroke-width="0.27451"/><g><path d="M14.24,91.238l-.5318,2.0461h-.30644l-.43011-1.6984-.42049,1.6984h-.29956l-.54142-2.0461h.27895l.43011,1.7012.42324-1.7012h.2762l.42736,1.7177.42736-1.7177Z" fill="#fff" stroke-width="0.88638"/></g></g><g transform="translate(125.93-44.705)"><path d="M30.458,-122.98c0,.899727-.729373,1.6291-1.6291,1.6291s-1.6291-.729373-1.6291-1.6291.729373-1.6291,1.6291-1.6291s1.6291.729373,1.6291,1.6291Z" transform="matrix(1 0 0-1 0 0)" fill="#008000" stroke-width="0.27451"/><g><path d="M29.926,124.09h-.39842l-.77205-.91777h-.43253v.91777h-.30696v-2.3084h.64647q.20929,0,.34882.0279.13953.0264.25115.0961.12557.0791.19534.19999.07131.11937.07131.30385q0,.2496-.12557.41858-.12557.16744-.34572.2527Zm-.71779-1.6588q0-.0992-.03566-.17518-.03411-.0775-.11472-.13023-.06666-.045-.15813-.062-.09147-.0186-.21549-.0186h-.36122v.87126h.31006q.14573,0,.25425-.0248.10852-.0264.18448-.0961.06976-.0651.10232-.14883.03411-.0853.03411-.21549Z" fill="#fff"/></g></g></g><g transform="translate(-40.912 85.128)"><path d="M132.06,58.833c-1.104491.000055-1.999845.895409-1.9999,1.9999v6.0002c-.000106.530485.210547,1.03928.58561,1.414437s.883805.585936,1.41429.585963s1.039228-.210807,1.41429-.585963.585716-.883952.58561-1.414437v-6.0002c-.000055-1.104491-.895409-1.999845-1.9999-1.9999Z" fill="#fff" stroke-width="0.5"/><path d="M132.06,58.582c-1.2396.000075-2.2499,1.0104-2.25,2.25v6c-.00024,1.2398,1.0102,2.2499,2.25,2.25c1.2398-.000074,2.2483-1.0102,2.248-2.25v-6c-.00008-1.2396-1.0085-2.2499-2.248-2.25Zm0,.5c.96938.000058,1.748.78063,1.748,1.75v6c.00019.96955-.7785,1.7499-1.748,1.75-.96955-.000058-1.7502-.78045-1.75-1.75v-6c.00006-.96937.78063-1.7499,1.75-1.75Z"/><path d="M132.06,58.833c-1.104491.000055-1.999845.895409-1.9999,1.9999v6.0002c-.000106.530485.210547,1.03928.58561,1.414437s.883805.585936,1.41429.585963s1.039228-.210807,1.41429-.585963.585716-.883952.58561-1.414437v-6.0002c-.000055-1.104491-.895409-1.999845-1.9999-1.9999Z" fill="#00efff" stroke-width="0.5"/><path d="M132.06,58.582c-1.2396.000075-2.2499,1.0104-2.25,2.25v6c-.00024,1.2398,1.0102,2.2499,2.25,2.25c1.2398-.000074,2.2483-1.0102,2.248-2.25v-6c-.00008-1.2396-1.0085-2.2499-2.248-2.25Zm0,.5c.96938.000058,1.748.78063,1.748,1.75v6c.00019.96955-.7785,1.7499-1.748,1.75-.96955-.000058-1.7502-.78045-1.75-1.75v-6c.00006-.96937.78063-1.7499,1.75-1.75Z"/><g><path d="M132.82,64.136q0,.21704-.062.39067-.0605.17363-.16433.29146-.11007.12247-.24184.18448-.13178.06046-.28991.06046-.14728,0-.25735-.03566-.11007-.03411-.21704-.09302l-.0186.08061h-.27285v-2.4123h.29145v.86196q.12248-.10077.26045-.16433.13798-.06511.31006-.06511.30696,0,.48369.23564.17828.23564.17828.66508Zm-.30075.0078q0-.31006-.10232-.46974-.10232-.16123-.33021-.16123-.12713,0-.25735.05581-.13023.05426-.24185.14108v.99219q.12403.05581.21239.07752.0899.0217.20309.0217.24185,0,.37827-.15813.13798-.15968.13798-.4992Z"/></g><g><path d="M132.06,58.833c-1.104491.000055-1.999845.895409-1.9999,1.9999v6.0002c-.000106.530485.210547,1.03928.58561,1.414437s.883805.585936,1.41429.585963s1.039228-.210807,1.41429-.585963.585716-.883952.58561-1.414437v-6.0002c-.000055-1.104491-.895409-1.999845-1.9999-1.9999Z" stroke-width="0"/><path d="M132.06,58.833c-1.1045.000066-1.9998.8954-1.9999,1.9999v6.0002c-.00022,1.1047.8952,2.0003,1.9999,2.0004c1.1047-.000066,2.0001-.89572,1.9999-2.0004v-6.0002c-.00007-1.1045-.89541-1.9998-1.9999-1.9999Z"/></g><g><path d="M132.82,64.136q0,.21704-.062.39067-.0605.17363-.16433.29146-.11007.12247-.24184.18448-.13178.06046-.28991.06046-.14728,0-.25735-.03566-.11007-.03411-.21704-.09302l-.0186.08061h-.27285v-2.4123h.29145v.86196q.12248-.10077.26045-.16433.13798-.06511.31006-.06511.30696,0,.48369.23564.17828.23564.17828.66508Zm-.30075.0078q0-.31006-.10232-.46974-.10232-.16123-.33021-.16123-.12713,0-.25735.05581-.13023.05426-.24185.14108v.99219q.12403.05581.21239.07752.0899.0217.20309.0217.24185,0,.37827-.15813.13798-.15968.13798-.4992Z" fill="#fff"/></g><g transform="translate(119.09-31.302)"><path d="M14.594,-92.171c0,.899727-.729373,1.6291-1.6291,1.6291s-1.6291-.729373-1.6291-1.6291.729373-1.6291,1.6291-1.6291s1.6291.729373,1.6291,1.6291Z" transform="matrix(1 0 0-1 0 0)" fill="#c80000" stroke-width="0.27451"/><g><path d="M14.24,91.238l-.5318,2.0461h-.30644l-.43011-1.6984-.42049,1.6984h-.29956l-.54142-2.0461h.27895l.43011,1.7012.42324-1.7012h.2762l.42736,1.7177.42736-1.7177Z" fill="#fff" stroke-width="0.88638"/></g></g><g transform="translate(103.23-56.141)"><path d="M30.458,-122.98c0,.899727-.729373,1.6291-1.6291,1.6291s-1.6291-.729373-1.6291-1.6291.729373-1.6291,1.6291-1.6291s1.6291.729373,1.6291,1.6291Z" transform="matrix(1 0 0-1 0 0)" fill="#008000" stroke-width="0.27451"/><g><path d="M29.926,124.09h-.39842l-.77205-.91777h-.43253v.91777h-.30696v-2.3084h.64647q.20929,0,.34882.0279.13953.0264.25115.0961.12557.0791.19534.19999.07131.11937.07131.30385q0,.2496-.12557.41858-.12557.16744-.34572.2527Zm-.71779-1.6588q0-.0992-.03566-.17518-.03411-.0775-.11472-.13023-.06666-.045-.15813-.062-.09147-.0186-.21549-.0186h-.36122v.87126h.31006q.14573,0,.25425-.0248.10852-.0264.18448-.0961.06976-.0651.10232-.14883.03411-.0853.03411-.21549Z" fill="#fff"/></g></g></g><path d="M113.84,143.96c-1.104491.000055-1.999845.895409-1.9999,1.9999v6.0002c-.000106.530485.210547,1.03928.58561,1.414437s.883805.585936,1.41429.585963s1.039228-.210807,1.41429-.585963.585716-.883952.58561-1.414437v-6.0002c-.000055-1.104491-.895409-1.999845-1.9999-1.9999Z" fill="#fff" stroke-width="0.5"/><path d="M113.84,143.71c-1.2396.00007-2.2499,1.0104-2.25,2.25v6c-.00024,1.2398,1.0102,2.2499,2.25,2.25c1.2398-.00008,2.2502-1.0102,2.25-2.25v-6c-.00008-1.2396-1.0104-2.2499-2.25-2.25Zm0,.5c.96937.00006,1.7499.78063,1.75,1.75v6c.00019.96955-.78045,1.7499-1.75,1.75-.96955-.00006-1.7502-.78045-1.75-1.75v-6c.00006-.96937.78063-1.7499,1.75-1.75Z"/><g><path d="M114.61,149.33q0,.44028-.19999.64647t-.61546.20619q-.13798,0-.26976-.0202-.13022-.0186-.25734-.0543v-.29765h.0155q.0713.0279.22634.0682.15503.0419.31006.0419.14883,0,.2465-.0357t.15193-.0992q.0543-.0605.0775-.14572t.0233-.19069v-.15813q-.13177.10542-.25269.15813-.11938.0512-.30541.0512-.31006,0-.49299-.22324-.18139-.2248-.18139-.63252q0-.22324.062-.38448.0636-.16278.17209-.2806.10077-.11007.24494-.17053.14418-.062.28681-.062.15038,0,.25114.031.10232.0295.21549.0915l.0186-.0744h.27285Zm-.29146-.27906v-.94412q-.11627-.0527-.21704-.0744-.0992-.0232-.19843-.0232-.2403,0-.37828.16123t-.13797.46819q0,.29145.10232.44183t.33951.15038q.12713,0,.25425-.0481.12867-.0496.23564-.13178Z"/></g><g transform="translate(100.88 53.826)"><path d="M14.594,-92.171c0,.899727-.729373,1.6291-1.6291,1.6291s-1.6291-.729373-1.6291-1.6291.729373-1.6291,1.6291-1.6291s1.6291.729373,1.6291,1.6291Z" transform="matrix(1 0 0-1 0 0)" fill="#c80000" stroke-width="0.27451"/><g><path d="M14.24,91.238l-.5318,2.0461h-.30644l-.43011-1.6984-.42049,1.6984h-.29956l-.54142-2.0461h.27895l.43011,1.7012.42324-1.7012h.2762l.42736,1.7177.42736-1.7177Z" fill="#fff" stroke-width="0.88638"/></g></g><g transform="translate(85.014 28.987)"><path d="M30.458,-122.98c0,.899727-.729373,1.6291-1.6291,1.6291s-1.6291-.729373-1.6291-1.6291.729373-1.6291,1.6291-1.6291s1.6291.729373,1.6291,1.6291Z" transform="matrix(1 0 0-1 0 0)" fill="#008000" stroke-width="0.27451"/><g><path d="M29.926,124.09h-.39842l-.77205-.91777h-.43253v.91777h-.30696v-2.3084h.64647q.20929,0,.34882.0279.13953.0264.25115.0961.12557.0791.19534.19999.07131.11937.07131.30385q0,.2496-.12557.41858-.12557.16744-.34572.2527Zm-.71779-1.6588q0-.0992-.03566-.17518-.03411-.0775-.11472-.13023-.06666-.045-.15813-.062-.09147-.0186-.21549-.0186h-.36122v.87126h.31006q.14573,0,.25425-.0248.10852-.0264.18448-.0961.06976-.0651.10232-.14883.03411-.0853.03411-.21549Z" fill="#fff"/></g></g><g transform="translate(-44.696 85.128)"><path d="M135.84,47.397c-1.104491.000055-1.999845.895409-1.9999,1.9999v6.0002c-.000106.530485.210547,1.03928.58561,1.414437s.883805.585936,1.41429.585963s1.039228-.210807,1.41429-.585963.585716-.883952.58561-1.414437v-6.0002c-.000055-1.104491-.895409-1.999845-1.9999-1.9999Z" fill="#fff" stroke-width="0.5"/><path d="M135.84,47.146c-1.2396.000075-2.2499,1.0104-2.25,2.25v6c-.00024,1.2398,1.0102,2.2499,2.25,2.25c1.2398-.000074,2.2502-1.0102,2.25-2.25v-6c-.00007-1.2396-1.0104-2.2499-2.25-2.25Zm0,.5c.96938.000059,1.7499.78063,1.75,1.75v6c.00019.96955-.78044,1.7499-1.75,1.75-.96955-.000058-1.7502-.78045-1.75-1.75v-6c.00006-.96937.78063-1.7499,1.75-1.75Z"/><path d="M135.84,47.397c-1.104491.000055-1.999845.895409-1.9999,1.9999v6.0002c-.000106.530485.210547,1.03928.58561,1.414437s.883805.585936,1.41429.585963s1.039228-.210807,1.41429-.585963.585716-.883952.58561-1.414437v-6.0002c-.000055-1.104491-.895409-1.999845-1.9999-1.9999Z" fill="#00efff" stroke-width="0.5"/><path d="M135.84,47.146c-1.2396.000075-2.2499,1.0104-2.25,2.25v6c-.00024,1.2398,1.0102,2.2499,2.25,2.25c1.2398-.000074,2.2502-1.0102,2.25-2.25v-6c-.00007-1.2396-1.0104-2.2499-2.25-2.25Zm0,.5c.96938.000059,1.7499.78063,1.75,1.75v6c.00019.96955-.78044,1.7499-1.75,1.75-.96955-.000058-1.7502-.78045-1.75-1.75v-6c.00006-.96937.78063-1.7499,1.75-1.75Z"/><g><path d="M136.54,53.155q-.14572.06976-.2775.10852-.13022.03876-.2775.03876-.18759,0-.34417-.05426-.15657-.05581-.2682-.16743-.11317-.11162-.17518-.28215t-.062-.39843q0-.42478.23254-.66663.2341-.24184.61702-.24184.14883,0,.29145.04186.14418.04186.26355.10232v.32401h-.0155q-.13332-.10387-.27595-.15968-.14108-.05581-.27595-.05581-.24805,0-.39223.16743-.14262.16588-.14262.48834q0,.31316.13952.48214.14108.16743.39533.16743.0884,0,.17983-.02325t.16433-.06046q.0636-.03256.11938-.06821.0558-.03721.0884-.06356h.0155Z"/></g><g><path d="M135.84,47.397c-1.104491.000055-1.999845.895409-1.9999,1.9999v6.0002c-.000106.530485.210547,1.03928.58561,1.414437s.883805.585936,1.41429.585963s1.039228-.210807,1.41429-.585963.585716-.883952.58561-1.414437v-6.0002c-.000055-1.104491-.895409-1.999845-1.9999-1.9999Z" stroke-width="0"/><path d="M135.84,47.397c-1.1045.000066-1.9998.8954-1.9999,1.9999v6.0002c-.00022,1.1047.8952,2.0003,1.9999,2.0004c1.1047-.000066,2.0001-.89572,1.9999-2.0004v-6.0002c-.00007-1.1045-.89541-1.9998-1.9999-1.9999Z"/></g><g><path d="M136.54,53.155q-.14572.06976-.2775.10852-.13022.03876-.2775.03876-.18759,0-.34417-.05426-.15657-.05581-.2682-.16743-.11317-.11162-.17518-.28215t-.062-.39843q0-.42478.23254-.66663.2341-.24184.61702-.24184.14883,0,.29145.04186.14418.04186.26355.10232v.32401h-.0155q-.13332-.10387-.27595-.15968-.14108-.05581-.27595-.05581-.24805,0-.39223.16743-.14262.16588-.14262.48834q0,.31316.13952.48214.14108.16743.39533.16743.0884,0,.17983-.02325t.16433-.06046q.0636-.03256.11938-.06821.0558-.03721.0884-.06356h.0155Z" fill="#fff"/></g><g transform="translate(107.01-73.548)"><path d="M30.458,-122.98c0,.899727-.729373,1.6291-1.6291,1.6291s-1.6291-.729373-1.6291-1.6291.729373-1.6291,1.6291-1.6291s1.6291.729373,1.6291,1.6291Z" transform="matrix(1 0 0-1 0 0)" fill="#008000" stroke-width="0.27451"/><g><path d="M29.926,124.09h-.39842l-.77205-.91777h-.43253v.91777h-.30696v-2.3084h.64647q.20929,0,.34882.0279.13953.0264.25115.0961.12557.0791.19534.19999.07131.11937.07131.30385q0,.2496-.12557.41858-.12557.16744-.34572.2527Zm-.71779-1.6588q0-.0992-.03566-.17518-.03411-.0775-.11472-.13023-.06666-.045-.15813-.062-.09147-.0186-.21549-.0186h-.36122v.87126h.31006q.14573,0,.25425-.0248.10852-.0264.18448-.0961.06976-.0651.10232-.14883.03411-.0853.03411-.21549Z" fill="#fff"/></g></g><g transform="translate(122.87-36.767)"><path d="M14.594,-92.171c0,.899727-.729373,1.6291-1.6291,1.6291s-1.6291-.729373-1.6291-1.6291.729373-1.6291,1.6291-1.6291s1.6291.729373,1.6291,1.6291Z" transform="matrix(1 0 0-1 0 0)" fill="#c80000" stroke-width="0.27451"/><g><path d="M14.24,91.238l-.5318,2.0461h-.30644l-.43011-1.6984-.42049,1.6984h-.29956l-.54142-2.0461h.27895l.43011,1.7012.42324-1.7012h.2762l.42736,1.7177.42736-1.7177Z" fill="#fff" stroke-width="0.88638"/></g></g></g><g><path d="M107.4,174.37h-.29146v-.98599q0-.11937-.0139-.22324-.0139-.10542-.0512-.16433-.0388-.0651-.11162-.0961-.0729-.0326-.18914-.0326-.11937,0-.24959.0589t-.2496.15038v1.293h-.29146v-2.4123h.29146v.87282q.13642-.11318.28215-.17674t.29921-.0636q.2806,0,.42788.16898t.14728.48679Z" fill="#c80000"/><path d="M109.41,173.53h-1.2759q0,.15968.0481.27905.048.11782.13177.19379.0806.0744.19069.11162.11162.0372.24494.0372.17674,0,.35502-.0698.17983-.0713.2558-.13952h.0155v.31781q-.14728.062-.30076.10387t-.32246.0418q-.43098,0-.67282-.23254-.24185-.23409-.24185-.66353q0-.42478.23099-.67437.23255-.2496.61082-.2496.35037,0,.5395.20464.19069.20464.19069.58136Zm-.28371-.22324q-.002-.22945-.11627-.35502-.11317-.12557-.34571-.12557-.2341,0-.37362.13797-.13798.13798-.15658.34262Z" fill="#c80000"/><path d="M111.2,174.37h-.28991v-.18449q-.0388.0264-.10542.0744-.0651.0465-.12712.0744-.0729.0357-.16744.0589-.0946.0248-.22169.0248-.23409,0-.39687-.15503t-.16278-.39533q0-.19689.0837-.31781.0853-.12247.24185-.19223.15813-.0698.37982-.0946t.47594-.0372v-.045q0-.0992-.0357-.16433-.0341-.0651-.0992-.10232-.062-.0357-.14882-.0481t-.18139-.0124q-.11472,0-.2558.031-.14107.0294-.29145.0868h-.0155v-.2961q.0853-.0233.24649-.0512t.31781-.0279q.18294,0,.31781.031.13643.0294.23565.10232.0977.0713.14883.18448t.0512.2806Zm-.28991-.42633v-.48215q-.13332.008-.31471.0233-.17983.0155-.28525.045-.12558.0357-.20309.11162-.0775.0744-.0775.20619q0,.14883.0899.22479.0899.0744.2744.0744.15348,0,.28061-.0589.12712-.0605.23564-.14417Z" fill="#c80000"/><path d="M112.84,172.95h-.0155q-.0651-.0155-.12712-.0217-.0605-.008-.14418-.008-.13487,0-.26045.0605-.12557.0589-.24184.15347v1.2294h-.29146v-1.7317h.29146v.2558q.17363-.13953.3054-.19689.13333-.0589.27131-.0589.076,0,.11007.005.0341.003.10232.0139Z" fill="#c80000"/><path d="M114.52,174.37h-.29145v-.18139q-.12558.10852-.262.16898t-.29611.0605q-.31006,0-.49299-.23875-.18139-.23874-.18139-.66197q0-.22015.062-.39223.0636-.17208.17053-.293.10542-.11783.24495-.17984.14107-.062.29145-.062.13643,0,.24185.0295.10542.0279.22169.0884v-.75034h.29145Zm-.29145-.42633v-.99374q-.11782-.0527-.21084-.0729t-.20309-.0202q-.24495,0-.38137.17053t-.13643.48369q0,.30851.10542.46974.10542.15968.33797.15968.12402,0,.25114-.0543.12713-.0558.2372-.14262Z" fill="#c80000"/><path d="M116.94,174.37h-.32711l-.22634-.64338h-.99839l-.22635.64338h-.3116l.84025-2.3084h.40928Zm-.64802-.90692l-.40463-1.1333-.40618,1.1333Z" fill="#c80000"/><path d="M117.56,174.37h-.29146v-2.4123h.29146Z" fill="#c80000"/><path d="M118.43,174.37h-.29145v-2.4123h.29145Z" fill="#c80000"/><path d="M121.71,172.06l-.59996,2.3084h-.34572l-.48524-1.9162-.47439,1.9162h-.33796l-.61082-2.3084h.31471l.48524,1.9193.47749-1.9193h.31161l.48214,1.9379.48215-1.9379Z" fill="#c80000"/><path d="M123.13,172.95h-.0155q-.0651-.0155-.12713-.0217-.0605-.008-.14417-.008-.13488,0-.26045.0605-.12558.0589-.24185.15347v1.2294h-.29145v-1.7317h.29145v.2558q.17363-.13953.30541-.19689.13332-.0589.2713-.0589.076,0,.11007.005.0341.003.10232.0139Z" fill="#c80000"/><path d="M123.72,172.35h-.32866v-.3023h.32866Zm-.0186,2.0216h-.29146v-1.7317h.29146Z" fill="#c80000"/><path d="M125.18,174.35q-.0822.0217-.17984.0357-.0961.014-.17208.014-.2651,0-.40308-.14262t-.13797-.45734v-.92087h-.19689v-.24495h.19689v-.49764h.29145v.49764h.60152v.24495h-.60152v.78909q0,.13643.006.21395.006.076.0434.14262.0341.062.093.0915.0605.0279.18294.0279.0713,0,.14882-.0202.0775-.0217.11162-.0357h.0155Z" fill="#c80000"/><path d="M126.98,173.53h-1.2759q0,.15968.0481.27905.0481.11782.13178.19379.0806.0744.19069.11162.11162.0372.24494.0372.17674,0,.35502-.0698.17983-.0713.2558-.13952h.0155v.31781q-.14728.062-.30076.10387t-.32246.0418q-.43098,0-.67282-.23254-.24185-.23409-.24185-.66353q0-.42478.23099-.67437.23255-.2496.61082-.2496.35036,0,.5395.20464.19069.20464.19069.58136Zm-.28371-.22324q-.002-.22945-.11627-.35502-.11317-.12557-.34571-.12557-.2341,0-.37362.13797-.13798.13798-.15658.34262Z" fill="#c80000"/><path d="M128.66,173.87q0,.2372-.19688.38913-.19534.15192-.53485.15192-.19224,0-.35347-.045-.15968-.0465-.2682-.10077v-.32711h.0155q.13798.10386.30696.16588.16898.0605.32401.0605.19224,0,.30076-.062t.10852-.19534q0-.10232-.0589-.15503t-.22635-.0899q-.062-.0139-.16278-.0325-.0992-.0186-.18138-.0403-.22789-.0605-.32401-.17673-.0946-.11783-.0946-.28836q0-.10697.0434-.20154.045-.0946.13487-.16898.0868-.0729.22014-.11472.13488-.0434.30076-.0434.15503,0,.31316.0388.15968.0372.2651.0915v.3116h-.0155q-.11162-.0822-.2713-.13797-.15968-.0574-.31316-.0574-.15968,0-.26975.062-.11007.0605-.11007.18138q0,.10697.0667.16123.0651.0543.21084.0884.0806.0186.17983.0372.10077.0186.16743.0341.20309.0465.31316.15968.11007.11473.11007.30386Z" fill="#c80000"/></g><path d="M98.71,132.53c-1.104491.000055-1.999845.895409-1.9999,1.9999v6.0002c-.000106.530485.210547,1.03928.58561,1.414437s.883805.585936,1.41429.585963s1.039228-.210807,1.41429-.585963.585716-.883952.58561-1.414437v-6.0002c-.000055-1.104491-.895409-1.999845-1.9999-1.9999Z" fill="#fff" stroke-width="0.5"/><path d="M98.711,132.28c-1.2396.00007-2.2499,1.0104-2.25,2.25v6c-.000241,1.2398,1.0102,2.2499,2.25,2.25c1.2398-.00007,2.2483-1.0102,2.248-2.25v-6c-.00007-1.2396-1.0085-2.2499-2.248-2.25Zm0,.5c.96938.00006,1.748.78063,1.748,1.75v6c.00019.96955-.77849,1.7499-1.748,1.75-.96955-.00006-1.7502-.78045-1.75-1.75v-6c.000059-.96937.78062-1.7499,1.75-1.75Z"/><g><path d="M99.496,137.56h-1.2759q0,.15968.04806.27905.04806.11782.13178.19379.08061.0744.19069.11162.11162.0372.24495.0372.17673,0,.35502-.0698.17983-.0713.2558-.13953h.0155v.31781q-.14728.062-.30076.10387t-.32246.0419q-.43098,0-.67283-.23254-.24185-.2341-.24185-.66353q0-.42478.23099-.67437.23254-.2496.61082-.2496.35037,0,.5395.20464.19069.20464.19069.58136Zm-.2837-.22325q-.0015-.22944-.11627-.35501-.11317-.12558-.34572-.12558-.23409,0-.37362.13798-.13798.13798-.15658.34261Z"/></g><g transform="translate(85.745 42.39)"><path d="M14.594,-92.171c0,.899727-.729373,1.6291-1.6291,1.6291s-1.6291-.729373-1.6291-1.6291.729373-1.6291,1.6291-1.6291s1.6291.729373,1.6291,1.6291Z" transform="matrix(1 0 0-1 0 0)" fill="#c80000" stroke-width="0.27451"/><g><path d="M14.24,91.238l-.5318,2.0461h-.30644l-.43011-1.6984-.42049,1.6984h-.29956l-.54142-2.0461h.27895l.43011,1.7012.42324-1.7012h.2762l.42736,1.7177.42736-1.7177Z" fill="#fff" stroke-width="0.88638"/></g></g><g transform="translate(69.881 17.552)"><path d="M30.458,-122.98c0,.899727-.729373,1.6291-1.6291,1.6291s-1.6291-.729373-1.6291-1.6291.729373-1.6291,1.6291-1.6291s1.6291.729373,1.6291,1.6291Z" transform="matrix(1 0 0-1 0 0)" fill="#008000" stroke-width="0.27451"/><g><path d="M29.926,124.09h-.39842l-.77205-.91777h-.43253v.91777h-.30696v-2.3084h.64647q.20929,0,.34882.0279.13953.0264.25115.0961.12557.0791.19534.19999.07131.11937.07131.30385q0,.2496-.12557.41858-.12557.16744-.34572.2527Zm-.71779-1.6588q0-.0992-.03566-.17518-.03411-.0775-.11472-.13023-.06666-.045-.15813-.062-.09147-.0186-.21549-.0186h-.36122v.87126h.31006q.14573,0,.25425-.0248.10852-.0264.18448-.0961.06976-.0651.10232-.14883.03411-.0853.03411-.21549Z" fill="#fff"/></g></g><path d="M117.63,132.53c-1.104491.000055-1.999845.895409-1.9999,1.9999v6.0002c-.000106.530485.210547,1.03928.58561,1.414437s.883805.585936,1.41429.585963s1.039228-.210807,1.41429-.585963.585716-.883952.58561-1.414437v-6.0002c-.000055-1.104491-.895409-1.999845-1.9999-1.9999Z" fill="#fff" stroke-width="0.5"/><path d="M117.63,132.28c-1.2396.00007-2.2499,1.0104-2.25,2.25v6c-.00024,1.2398,1.0102,2.2499,2.25,2.25c1.2398-.00007,2.2502-1.0102,2.25-2.25v-6c-.00007-1.2396-1.0104-2.2499-2.25-2.25Zm0,.5c.96938.00006,1.7499.78063,1.75,1.75v6c.00019.96955-.78044,1.7499-1.75,1.75-.96955-.00006-1.7502-.78045-1.75-1.75v-6c.00006-.96937.78063-1.7499,1.75-1.75Z"/><g><path d="M118.35,138.73h-.29146v-.98598q0-.11937-.0139-.22324-.014-.10542-.0512-.16433-.0388-.0651-.11162-.0961-.0729-.0326-.18914-.0326-.11937,0-.2496.0589t-.24959.15038v1.2929h-.29146v-2.4122h.29146v.87281q.13642-.11317.28215-.17673t.29921-.0636q.2806,0,.42788.16898t.14728.48679Z"/></g><g transform="translate(104.66 42.39)"><path d="M14.594,-92.171c0,.899727-.729373,1.6291-1.6291,1.6291s-1.6291-.729373-1.6291-1.6291.729373-1.6291,1.6291-1.6291s1.6291.729373,1.6291,1.6291Z" transform="matrix(1 0 0-1 0 0)" fill="#c80000" stroke-width="0.27451"/><g><path d="M14.24,91.238l-.5318,2.0461h-.30644l-.43011-1.6984-.42049,1.6984h-.29956l-.54142-2.0461h.27895l.43011,1.7012.42324-1.7012h.2762l.42736,1.7177.42736-1.7177Z" fill="#fff" stroke-width="0.88638"/></g></g><g transform="translate(88.797 17.552)"><path d="M30.458,-122.98c0,.899727-.729373,1.6291-1.6291,1.6291s-1.6291-.729373-1.6291-1.6291.729373-1.6291,1.6291-1.6291s1.6291.729373,1.6291,1.6291Z" transform="matrix(1 0 0-1 0 0)" fill="#008000" stroke-width="0.27451"/><g><path d="M29.926,124.09h-.39842l-.77205-.91777h-.43253v.91777h-.30696v-2.3084h.64647q.20929,0,.34882.0279.13953.0264.25115.0961.12557.0791.19534.19999.07131.11937.07131.30385q0,.2496-.12557.41858-.12557.16744-.34572.2527Zm-.71779-1.6588q0-.0992-.03566-.17518-.03411-.0775-.11472-.13023-.06666-.045-.15813-.062-.09147-.0186-.21549-.0186h-.36122v.87126h.31006q.14573,0,.25425-.0248.10852-.0264.18448-.0961.06976-.0651.10232-.14883.03411-.0853.03411-.21549Z" fill="#fff"/></g></g><g transform="translate(-37.129 85.128)"><path d="M162.32,47.397c-1.104491.000055-1.999845.895409-1.9999,1.9999v6.0001c-.000106.530485.210547,1.03928.58561,1.414437s.883805.585936,1.41429.585963s1.039228-.210807,1.41429-.585963.585716-.883952.58561-1.414437v-6.0001c-.000055-1.104491-.895409-1.999845-1.9999-1.9999Z" fill="#fff" stroke-width="0.5"/><path d="M162.32,47.146c-1.2396.000075-2.2499,1.0104-2.25,2.25v6c-.00025,1.2398,1.0102,2.2499,2.25,2.25c1.2398-.000074,2.2502-1.0102,2.25-2.25v-6c-.00008-1.2396-1.0104-2.2499-2.25-2.25Zm0,.5c.96937.000059,1.7499.78063,1.75,1.75v6c.00019.96956-.78045,1.7499-1.75,1.75-.96956-.000058-1.7502-.78044-1.75-1.75v-6c.00005-.96937.78062-1.7499,1.75-1.75Z"/><path d="M162.32,47.397c-1.104491.000055-1.999845.895409-1.9999,1.9999v6.0001c-.000106.530485.210547,1.03928.58561,1.414437s.883805.585936,1.41429.585963s1.039228-.210807,1.41429-.585963.585716-.883952.58561-1.414437v-6.0001c-.000055-1.104491-.895409-1.999845-1.9999-1.9999Z" fill="#00efff" stroke-width="0.5"/><path d="M162.32,47.146c-1.2396.000075-2.2499,1.0104-2.25,2.25v6c-.00025,1.2398,1.0102,2.2499,2.25,2.25c1.2398-.000074,2.2502-1.0102,2.25-2.25v-6c-.00008-1.2396-1.0104-2.2499-2.25-2.25Zm0,.5c.96937.000059,1.7499.78063,1.75,1.75v6c.00019.96956-.78045,1.7499-1.75,1.75-.96956-.000058-1.7502-.78044-1.75-1.75v-6c.00005-.96937.78062-1.7499,1.75-1.75Z"/><g><path d="M162.68,51.473h-.25563v-.23513h.25563Zm-.0145,1.6049q0,.23633-.12058.35691t-.32315.12058q-.0482,0-.12781-.0096-.0784-.0096-.13143-.02412v-.21584h.012q.0338.01326.0904.03014.0579.01688.11214.01688.0868,0,.13987-.02412t.0796-.07235.0338-.11696q.008-.06752.008-.16519v-1.0852h-.28095v-.19051h.50764Z"/></g><g><path d="M162.32,47.397c-1.104491.000055-1.999845.895409-1.9999,1.9999v6.0001c-.000106.530485.210547,1.03928.58561,1.414437s.883805.585936,1.41429.585963s1.039228-.210807,1.41429-.585963.585716-.883952.58561-1.414437v-6.0001c-.000055-1.104491-.895409-1.999845-1.9999-1.9999Z" stroke-width="0"/><path d="M162.32,47.397c-1.1045.000066-1.9998.8954-1.9999,1.9999v6.0001c-.00022,1.1047.8952,2.0003,1.9999,2.0004c1.1047-.000066,2.0001-.89572,1.9999-2.0004v-6.0001c-.00007-1.1045-.89541-1.9998-1.9999-1.9999Z"/></g><g><path d="M162.68,51.473h-.25563v-.23513h.25563Zm-.0145,1.6049q0,.23633-.12058.35691t-.32315.12058q-.0482,0-.12781-.0096-.0784-.0096-.13143-.02412v-.21584h.012q.0338.01326.0904.03014.0579.01688.11214.01688.0868,0,.13987-.02412t.0796-.07235.0338-.11696q.008-.06752.008-.16519v-1.0852h-.28095v-.19051h.50764Z" fill="#fff"/></g><g transform="translate(149.36-36.767)"><path d="M14.594,-92.171c0,.899727-.729373,1.6291-1.6291,1.6291s-1.6291-.729373-1.6291-1.6291.729373-1.6291,1.6291-1.6291s1.6291.729373,1.6291,1.6291Z" transform="matrix(1 0 0-1 0 0)" fill="#c80000" stroke-width="0.27451"/><g><path d="M14.24,91.238l-.5318,2.0461h-.30644l-.43011-1.6984-.42049,1.6984h-.29956l-.54142-2.0461h.27895l.43011,1.7012.42324-1.7012h.2762l.42736,1.7177.42736-1.7177Z" fill="#fff" stroke-width="0.88638"/></g></g><g transform="translate(149.36-42.738)"><path d="M14.594,-92.171c0,.899727-.729373,1.6291-1.6291,1.6291s-1.6291-.729373-1.6291-1.6291.729373-1.6291,1.6291-1.6291s1.6291.729373,1.6291,1.6291Z" transform="matrix(1 0 0-1 0 0)" fill="#c80000" stroke-width="0.27451"/><g><path d="M14.24,91.238l-.5318,2.0461h-.30644l-.43011-1.6984-.42049,1.6984h-.29956l-.54142-2.0461h.27895l.43011,1.7012.42324-1.7012h.2762l.42736,1.7177.42736-1.7177Z" fill="#fff" stroke-width="0.88638"/></g></g></g><path d="M120.21,126.39v45.588h.5v-45.588Z" fill="#c80000"/><path d="M87.428,126.39v45.588h.5v-45.588Z" fill="#008000"/><g><path d="M80.587,174.52h-.29146v-.98599q0-.11937-.01395-.22324-.01395-.10542-.05116-.16433-.03876-.0651-.11162-.0961-.07286-.0326-.18914-.0326-.11937,0-.2496.0589t-.2496.15038v1.293h-.29146v-2.4123h.29146v.87281q.13643-.11317.28215-.17673t.29921-.0636q.2806,0,.42788.16898t.14728.48679Z" fill="#008000"/><path d="M82.597,173.69h-1.2759q0,.15968.04806.27905.04806.11782.13178.19379.08061.0744.19069.11162.11162.0372.24495.0372.17673,0,.35502-.0698.17983-.0713.2558-.13952h.0155v.31781q-.14728.062-.30076.10386t-.32246.0419q-.43098,0-.67283-.23254-.24184-.2341-.24184-.66353q0-.42478.23099-.67437.23254-.2496.61082-.2496.35037,0,.5395.20464.19069.20464.19069.58136Zm-.2837-.22324q-.0016-.22945-.11627-.35502-.11317-.12558-.34572-.12558-.23409,0-.37362.13798-.13798.13798-.15658.34262Z" fill="#008000"/><path d="M84.385,174.52h-.2899v-.18449q-.03876.0264-.10542.0744-.06511.0465-.12712.0744-.07286.0357-.16743.0589-.09457.0248-.22169.0248-.23409,0-.39688-.15503t-.16278-.39532q0-.19689.08371-.31781.08527-.12247.24185-.19224.15813-.0698.37982-.0946t.47594-.0372v-.045q0-.0992-.03566-.16433-.03411-.0651-.09922-.10232-.06201-.0357-.14883-.0481t-.18138-.0124q-.11472,0-.2558.031-.14108.0295-.29146.0868h-.0155v-.29611q.08527-.0233.2465-.0512t.31781-.0279q.18294,0,.31781.031.13643.0295.23564.10232.09767.0713.14883.18448t.05116.2806Zm-.2899-.42634v-.48214q-.13332.008-.31471.0233-.17983.0155-.28525.045-.12557.0357-.20309.11162-.07752.0744-.07752.20619q0,.14882.08992.22479.08992.0744.2744.0744.15348,0,.2806-.0589.12712-.0605.23564-.14418Z" fill="#008000"/><path d="M86.027,173.11h-.0155q-.06511-.0155-.12712-.0217-.06046-.008-.14418-.008-.13488,0-.26045.0605-.12557.0589-.24184.15348v1.2294h-.29146v-1.7317h.29146v.2558q.17363-.13953.30541-.19689.13333-.0589.2713-.0589.07596,0,.11007.005.03411.003.10232.014Z" fill="#008000"/><path d="M87.706,174.52h-.29146v-.18139q-.12557.10852-.262.16898t-.29611.0605q-.31006,0-.49299-.23874-.18138-.23875-.18138-.66198q0-.22014.06201-.39222.06356-.17208.17053-.29301.10542-.11782.24495-.17983.14108-.062.29146-.062.13642,0,.24184.0294.10542.0279.22169.0884v-.75034h.29146Zm-.29146-.42634v-.99373q-.11782-.0527-.21084-.0729t-.20309-.0202q-.24495,0-.38137.17053t-.13643.48369q0,.30851.10542.46974.10542.15968.33796.15968.12402,0,.25115-.0543.12712-.0558.2372-.14263Z" fill="#008000"/><path d="M90.123,174.52h-.32711l-.22634-.64338h-.99839l-.22634.64338h-.31161l.84026-2.3084h.40928Zm-.64802-.90693l-.40463-1.1333-.40618,1.1333Z" fill="#008000"/><path d="M90.744,174.52h-.29146v-2.4123h.29146Z" fill="#008000"/><path d="M91.615,174.52h-.29146v-2.4123h.29146Z" fill="#008000"/><path d="M94.125,174.52h-.39842l-.77205-.91778h-.43253v.91778h-.30696v-2.3084h.64647q.20929,0,.34882.0279.13953.0264.25115.0961.12557.0791.19534.19999.07131.11937.07131.30386q0,.24959-.12557.41858-.12557.16743-.34572.25269Zm-.71778-1.6588q0-.0992-.03566-.17518-.03411-.0775-.11472-.13023-.06666-.045-.15813-.062-.09147-.0186-.21549-.0186h-.36122v.87126h.31006q.14573,0,.25425-.0248.10852-.0264.18448-.0961.06976-.0651.10232-.14883.03411-.0853.03411-.21549Z" fill="#008000"/><path d="M95.772,173.69h-1.2759q0,.15968.04806.27905.04806.11782.13178.19379.08062.0744.19069.11162.11162.0372.24495.0372.17673,0,.35502-.0698.17983-.0713.2558-.13952h.0155v.31781q-.14728.062-.30076.10386t-.32246.0419q-.43098,0-.67283-.23254-.24185-.2341-.24185-.66353q0-.42478.23099-.67437.23254-.2496.61082-.2496.35037,0,.5395.20464.19069.20464.19069.58136Zm-.2837-.22324q-.0016-.22945-.11627-.35502-.11317-.12558-.34572-.12558-.23409,0-.37362.13798-.13798.13798-.15658.34262Z" fill="#008000"/><path d="M97.559,174.52h-.2899v-.18449q-.03876.0264-.10542.0744-.06511.0465-.12712.0744-.07286.0357-.16743.0589-.09457.0248-.22169.0248-.2341,0-.39688-.15503t-.16278-.39532q0-.19689.08372-.31781.08527-.12247.24184-.19224.15813-.0698.37982-.0946t.47594-.0372v-.045q0-.0992-.03566-.16433-.03411-.0651-.09922-.10232-.06201-.0357-.14883-.0481t-.18138-.0124q-.11472,0-.2558.031-.14108.0295-.29146.0868h-.0155v-.29611q.08527-.0233.2465-.0512t.31781-.0279q.18293,0,.31781.031.13642.0295.23564.10232.09767.0713.14883.18448t.05116.2806Zm-.2899-.42634v-.48214q-.13332.008-.31471.0233-.17983.0155-.28525.045-.12557.0357-.20309.11162-.07751.0744-.07751.20619q0,.14882.08992.22479.08992.0744.2744.0744.15348,0,.2806-.0589.12712-.0605.23564-.14418Z" fill="#008000"/><path d="M99.525,174.52h-.29146v-.18139q-.12557.10852-.262.16898t-.29611.0605q-.31006,0-.49299-.23874-.18138-.23875-.18138-.66198q0-.22014.06201-.39222.06356-.17208.17053-.29301.10542-.11782.24495-.17983.14108-.062.29146-.062.13643,0,.24184.0294.10542.0279.22169.0884v-.75034h.29146Zm-.29146-.42634v-.99373q-.11782-.0527-.21084-.0729t-.20309-.0202q-.24495,0-.38137.17053t-.13643.48369q0,.30851.10542.46974.10542.15968.33796.15968.12402,0,.25115-.0543.12712-.0558.23719-.14263Z" fill="#008000"/><path d="M101.34,174.02q0,.2372-.19689.38912-.19533.15193-.53485.15193-.19223,0-.35347-.045-.15968-.0465-.2682-.10076v-.32712h.0155q.13798.10387.30697.16589.16898.0605.32401.0605.19223,0,.30075-.062t.10852-.19533q0-.10232-.0589-.15503t-.22634-.0899q-.062-.0139-.16278-.0326-.0992-.0186-.18139-.0403-.22789-.0605-.32401-.17674-.09456-.11782-.09456-.28835q0-.10697.0434-.20154.045-.0946.13488-.16898.0868-.0729.22014-.11472.13488-.0434.30076-.0434.15503,0,.31316.0388.15968.0372.2651.0915v.31161h-.0155q-.11162-.0822-.2713-.13797-.15968-.0574-.31316-.0574-.15968,0-.26975.062-.11007.0605-.11007.18138q0,.10697.0667.16123.0651.0543.21084.0884.0806.0186.17984.0372.10077.0186.16743.0341.20309.0465.31316.15968.11007.11473.11007.30386Z" fill="#008000"/></g><path d="M87.246,125.13v.5h38.016v-.5Z"/><path d="M125.26,125.38l-1.25,1.25l4.375-1.25-4.375-1.25Z" fill-rule="evenodd" stroke-width="0.25"/><g><path d="M90.569,123.69q0,.31471-.13798.57051-.13642.2558-.36432.39687-.15813.0977-.35347.14108-.19379.0434-.5116.0434h-.58291v-2.3084h.57671q.33796,0,.5364.0496.19999.0481.33796.13333.23564.14728.36742.39222t.13177.58136Zm-.32091-.005q0-.2713-.09457-.45734t-.28215-.293q-.13643-.0775-.2899-.10697-.15348-.031-.36742-.031h-.28835v1.7813h.28835q.22169,0,.38602-.0326.16588-.0326.30386-.12092.17208-.11007.25735-.2899.08682-.17984.08682-.44959Z"/><path d="M92.388,124.84h-.2899v-.18449q-.03876.0264-.10542.0744-.06511.0465-.12712.0744-.07286.0357-.16743.0589-.09457.0248-.22169.0248-.23409,0-.39688-.15503t-.16278-.39533q0-.19688.08372-.31781.08527-.12247.24185-.19223.15813-.0698.37982-.0946t.47594-.0372v-.045q0-.0992-.03566-.16433-.03411-.0651-.09922-.10232-.06201-.0356-.14883-.048t-.18138-.0124q-.11472,0-.2558.031-.14108.0294-.29146.0868h-.0155v-.2961q.08527-.0233.2465-.0512t.31781-.0279q.18293,0,.31781.031.13643.0295.23564.10232.09767.0713.14883.18448t.05116.28061Zm-.2899-.42633v-.48214q-.13332.008-.31471.0233-.17983.0155-.28525.045-.12557.0357-.20309.11162-.07751.0744-.07751.20619q0,.14883.08992.22479.08992.0744.2744.0744.15348,0,.2806-.0589.12712-.0605.23564-.14418Z"/><path d="M93.848,124.82q-.08217.0217-.17983.0356-.09612.014-.17208.014-.2651,0-.40308-.14263t-.13798-.45734v-.92087h-.19689v-.24495h.19689v-.49764h.29146v.49764h.60151v.24495h-.60151v.7891q0,.13642.0062.21394.0062.076.04341.14262.03411.062.09302.0915.06046.0279.18293.0279.07131,0,.14883-.0202.07752-.0217.11162-.0356h.0155Z"/><path d="M95.546,124.84h-.2899v-.18449q-.03876.0264-.10542.0744-.06511.0465-.12712.0744-.07286.0357-.16743.0589-.09457.0248-.22169.0248-.2341,0-.39688-.15503t-.16278-.39533q0-.19688.08372-.31781.08527-.12247.24184-.19223.15813-.0698.37982-.0946t.47594-.0372v-.045q0-.0992-.03566-.16433-.03411-.0651-.09922-.10232-.06201-.0356-.14883-.048t-.18138-.0124q-.11472,0-.2558.031-.14108.0294-.29146.0868h-.0155v-.2961q.08527-.0233.2465-.0512t.31781-.0279q.18293,0,.31781.031.13642.0295.23564.10232.09767.0713.14883.18448t.05116.28061Zm-.2899-.42633v-.48214q-.13332.008-.31471.0233-.17983.0155-.28525.045-.12557.0357-.20309.11162-.07751.0744-.07751.20619q0,.14883.08992.22479.08992.0744.2744.0744.15348,0,.2806-.0589.12712-.0605.23564-.14418Z"/><path d="M99.066,122.53l-.84026,2.3084h-.40928L96.9762,122.53h.32866l.72399,2.0309.72399-2.0309Z"/><path d="M100.69,124h-1.2759q0,.15968.04806.27905.04806.11783.13178.19379.08062.0744.19069.11162.11162.0372.24495.0372.17673,0,.35501-.0698.17984-.0713.2558-.13953h.0155v.31781q-.14728.062-.30076.10387t-.32246.0419q-.43098,0-.67283-.23255-.24184-.23409-.24184-.66352q0-.42478.23099-.67438.23254-.2496.61082-.2496.35036,0,.5395.20464.19068.20464.19068.58136Zm-.2837-.22324q-.002-.22944-.11627-.35502-.11318-.12557-.34572-.12557-.23409,0-.37362.13797-.13798.13798-.15658.34262Z"/><path d="M102.21,123.43h-.0155q-.0651-.0155-.12713-.0217-.0605-.008-.14417-.008-.13488,0-.26045.0605-.12558.0589-.24185.15348v1.2294h-.29145v-1.7317h.29145v.2558q.17363-.13953.30541-.19689.13332-.0589.2713-.0589.076,0,.11007.005.0341.003.10232.014Z"/><path d="M103.72,124.34q0,.2372-.19688.38913-.19534.15193-.53485.15193-.19224,0-.35347-.045-.15968-.0465-.2682-.10077v-.32711h.0155q.13798.10387.30696.16588.16898.0605.32401.0605.19224,0,.30076-.062t.10852-.19534q0-.10232-.0589-.15503t-.22635-.0899q-.062-.014-.16278-.0326-.0992-.0186-.18138-.0403-.22789-.0605-.32401-.17673-.0946-.11782-.0946-.28836q0-.10697.0434-.20153.045-.0946.13487-.16899.0868-.0729.22015-.11472.13487-.0434.30075-.0434.15503,0,.31316.0388.15968.0372.2651.0915v.31161h-.0155q-.11162-.0822-.2713-.13798-.15968-.0574-.31316-.0574-.15968,0-.26975.062-.11007.0605-.11007.18139q0,.10697.0667.16123.0651.0543.21084.0884.0806.0186.17983.0372.10077.0186.16743.0341.20309.0465.31316.15968.11007.11472.11007.30385Z"/><path d="M104.45,122.82h-.32866v-.30231h.32866Zm-.0186,2.0216h-.29146v-1.7317h.29146Z"/><path d="M106.49,123.97q0,.42323-.21704.66817t-.58136.24495q-.36742,0-.58446-.24495-.2155-.24494-.2155-.66817t.2155-.66818q.21704-.2465.58446-.2465.36431,0,.58136.2465.21704.24495.21704.66818Zm-.30076,0q0-.33642-.13178-.4992-.13177-.16433-.36586-.16433-.2372,0-.36897.16433-.13023.16278-.13023.4992q0,.32556.13178.49454.13177.16743.36742.16743.23254,0,.36431-.16588.13333-.16743.13333-.49609Z"/><path d="M108.39,124.84h-.29146v-.98599q0-.11937-.0139-.22324-.014-.10542-.0512-.16433-.0388-.0651-.11162-.0961-.0729-.0326-.18914-.0326-.11937,0-.24959.0589t-.2496.15037v1.293h-.29146v-1.7317h.29146v.19224q.13642-.11317.28215-.17674t.29921-.0636q.2806,0,.42788.16898t.14728.4868Z"/><path d="M111.73,122.8h-.82476v2.0355h-.30696v-2.0355h-.82475v-.27285h1.9565Z"/><path d="M112.33,122.82h-.32866v-.30231h.32866Zm-.0186,2.0216h-.29146v-1.7317h.29146Z"/><path d="M115.42,124.84h-.29146v-.98599q0-.11162-.0108-.21549-.009-.10387-.0419-.16588-.0357-.0667-.10232-.10077t-.19224-.0341q-.12247,0-.24494.062-.12247.0605-.24495.15503.005.0357.008.0837.003.0465.003.093v1.1085h-.29145v-.98599q0-.11472-.0109-.21704-.009-.10387-.0419-.16588-.0357-.0667-.10232-.0992-.0667-.0341-.19224-.0341-.11937,0-.24029.0589-.11937.0589-.23875.15037v1.293h-.29145v-1.7317h.29145v.19224q.13643-.11317.2713-.17674.13643-.0636.28991-.0636.17673,0,.29921.0744.12402.0744.18448.20619.17673-.14883.32246-.21394.14573-.0667.31161-.0667.28525,0,.42013.17364.13643.17208.13643.48214Z"/><path d="M117.43,124h-1.2759q0,.15968.0481.27905.0481.11783.13178.19379.0806.0744.19068.11162.11162.0372.24495.0372.17673,0,.35502-.0698.17983-.0713.2558-.13953h.0155v.31781q-.14728.062-.30076.10387t-.32246.0419q-.43098,0-.67283-.23255-.24184-.23409-.24184-.66352q0-.42478.23099-.67438.23254-.2496.61082-.2496.35036,0,.5395.20464.19068.20464.19068.58136Zm-.2837-.22324q-.002-.22944-.11627-.35502-.11317-.12557-.34572-.12557-.23409,0-.37362.13797-.13797.13798-.15658.34262Z"/><path d="M118.16,124.84h-.29145v-2.4123h.29145Z"/><path d="M119.05,122.82h-.32866v-.30231h.32866Zm-.0186,2.0216h-.29146v-1.7317h.29146Z"/><path d="M121.06,124.84h-.29145v-.98599q0-.11937-.014-.22324-.014-.10542-.0512-.16433-.0387-.0651-.11162-.0961-.0729-.0326-.18913-.0326-.11938,0-.2496.0589t-.2496.15037v1.293h-.29145v-1.7317h.29145v.19224q.13643-.11317.28216-.17674t.2992-.0636q.2806,0,.42788.16898t.14728.4868Z"/><path d="M123.07,124h-1.2759q0,.15968.0481.27905.0481.11783.13177.19379.0806.0744.19069.11162.11162.0372.24495.0372.17673,0,.35501-.0698.17984-.0713.2558-.13953h.0155v.31781q-.14727.062-.30075.10387t-.32246.0419q-.43098,0-.67283-.23255-.24185-.23409-.24185-.66352q0-.42478.231-.67438.23254-.2496.61081-.2496.35037,0,.5395.20464.19069.20464.19069.58136Zm-.2837-.22324q-.002-.22944-.11627-.35502-.11318-.12557-.34572-.12557-.23409,0-.37362.13797-.13798.13798-.15658.34262Z"/></g><g><path d="M80.786,129.4h-.39842l-.91312-1.0278-.22944.24494v.7829h-.30696v-2.3084h.30696v1.2046l1.1209-1.2046h.37207l-1.0309,1.0852Z"/><path d="M82.448,128.57h-1.2759q0,.15969.04806.27906.04806.11782.13178.19378.08061.0744.19069.11163.11162.0372.24495.0372.17673,0,.35502-.0698.17983-.0713.2558-.13953h.0155v.31781q-.14728.062-.30076.10387t-.32246.0419q-.43098,0-.67283-.23254-.24185-.2341-.24185-.66353q0-.42478.23099-.67438.23254-.24959.61082-.24959.35037,0,.5395.20464.19069.20463.19069.58136Zm-.2837-.22324q-.0016-.22944-.11627-.35501-.11317-.12558-.34572-.12558-.23409,0-.37362.13798-.13798.13797-.15658.34261Z"/><path d="M84.387,127.67l-1.0108,2.3704h-.31161l.32246-.72243-.68988-1.648h.31626l.53175,1.2836.5364-1.2836Z"/><path d="M86.006,128.9q0,.23719-.19689.38912-.19534.15193-.53485.15193-.19224,0-.35347-.045-.15968-.0465-.2682-.10077v-.32711h.0155q.13798.10387.30696.16588.16898.0605.32401.0605.19224,0,.30076-.062t.10852-.19533q0-.10232-.05891-.15503t-.22634-.0899q-.06201-.0139-.16278-.0326-.09922-.0186-.18138-.0403-.22789-.0605-.32401-.17674-.09457-.11782-.09457-.28835q0-.10697.04341-.20154.04496-.0946.13488-.16898.08682-.0729.22014-.11472.13488-.0434.30076-.0434.15503,0,.31316.0388.15968.0372.2651.0915v.31161h-.0155q-.11162-.0822-.2713-.13797-.15968-.0574-.31316-.0574-.15968,0-.26975.062-.11007.0605-.11007.18138q0,.10697.06666.16123.06511.0543.21084.0884.08061.0186.17983.0372.10077.0186.16743.0341.20309.0465.31316.15968.11007.11472.11007.30386Z"/></g></g></svg>
