<?xml version="1.0" encoding="UTF-8"?>
<svg width="449.5" height="288" version="1.1" viewBox="0 0 449.5 288" xmlns="http://www.w3.org/2000/svg"><defs><clipPath id="ae"><path d="m45.879 108.07h23.742v35.617h-23.742z"/></clipPath><clipPath id="ad"><path d="m0 0h338v216h-338z"/></clipPath><clipPath id="ac"><path d="m45.879 170.82h23.742v35.617h-23.742z"/></clipPath><clipPath id="ab"><path d="m0 0h338v216h-338z"/></clipPath><clipPath id="aa"><path d="m285.88 76.691h23.742v35.617h-23.742z"/></clipPath><clipPath id="z"><path d="m0 0h338v216h-338z"/></clipPath><clipPath id="y"><path d="m285.88 108.07h23.742v35.617h-23.742z"/></clipPath><clipPath id="x"><path d="m0 0h338v216h-338z"/></clipPath><clipPath id="w"><path d="m285.88 139.44h23.742v35.617h-23.742z"/></clipPath><clipPath id="v"><path d="m0 0h338v216h-338z"/></clipPath><clipPath id="u"><path d="m285.88 170.82h23.742v35.617h-23.742z"/></clipPath><clipPath id="t"><path d="m0 0h338v216h-338z"/></clipPath><clipPath id="s"><path d="m45.879 76.691h23.742v35.617h-23.742z"/></clipPath><clipPath id="r"><path d="m0 0h338v216h-338z"/></clipPath><clipPath id="q"><path d="m45.879 139.44h23.742v35.617h-23.742z"/></clipPath><clipPath id="p"><path d="m0 0h338v216h-338z"/></clipPath><clipPath id="o"><path d="m145 8.293h49.367v102.24h-49.367z"/></clipPath><clipPath id="n"><path d="m0 0h338v216h-338z"/></clipPath><clipPath id="m"><path d="m145 8.293h49.367v102.24h-49.367z"/></clipPath><clipPath id="l"><path d="m0 0h338v216h-338z"/></clipPath><clipPath id="k"><path d="m0 0h338v216h-338z"/></clipPath><clipPath id="j"><path d="m145 8h50v80h-50z"/></clipPath><clipPath id="i"><path d="m177.85 87.777 16.273-16.222-0.039-62.977-48.828 0.02 0.023 62.976 16.289 16.211zm-8.145-7.304c-1.406 0-2.543-1.149-2.543-2.559-4e-3 -1.41 1.137-2.551 2.543-2.555 1.406 0 2.551 1.141 2.551 2.551s-1.145 2.563-2.547 2.563z"/></clipPath><clipPath id="h"><path d="m0 0h338v216h-338z"/></clipPath><clipPath id="g"><path d="m145 8.293h49.367v102.24h-49.367z"/></clipPath><clipPath id="f"><path d="m0 0h338v216h-338z"/></clipPath><radialGradient id="a" cx="317.72" cy="371.81" r="182.04" gradientTransform="matrix(-.2114 0 0 -.3349 236.85 170.89)" gradientUnits="userSpaceOnUse"><stop stop-color="#f2f2ec" offset="0"/><stop stop-color="#ffcc66" offset="1"/></radialGradient><clipPath id="e"><path d="m0 0h338v216h-338z"/></clipPath><clipPath id="d"><path d="m145 8.293h49.367v102.24h-49.367z"/></clipPath><clipPath id="c"><path d="m0 0h338v216h-338z"/></clipPath><linearGradient id="b" x1="313.38" x2="459.92" y1="447.88" y2="266.36" gradientTransform="matrix(-.15911 0 0 -.15911 211.22 253.37)" gradientUnits="userSpaceOnUse"><stop stop-color="#3c3c3c" offset="0"/><stop stop-color="#cdcdcd" offset="1"/></linearGradient></defs><g transform="matrix(1.3333 0 0 1.3333 0 9.2e-6)"><path d="m0 0h337.12v216h-337.12z" fill="#ffffff"/><path d="m22.875 56.25h50.625c4.969 0 9 4.031 9 9v133.5c0 2.387-0.949 4.676-2.637 6.363-1.687 1.688-3.976 2.637-6.363 2.637h-50.625c-2.387 0-4.676-0.949-6.363-2.637-1.688-1.687-2.637-3.976-2.637-6.363v-133.5c0-2.387 0.949-4.676 2.637-6.363 1.687-1.688 3.976-2.637 6.363-2.637z" fill="#ffffff" stroke="#000000" stroke-width="1.0743"/><path d="m23.25 90.617c-0.785 0-1.473 0.492-1.938 1.199-0.46 0.711-0.73 1.653-0.73 2.684s0.27 1.973 0.73 2.68c0.465 0.711 1.153 1.203 1.938 1.203 0.781 0 1.469-0.492 1.93-1.203 0.367-0.559 0.613-1.266 0.699-2.047h11.519v1.211h-0.855v2.039h0.531v-0.789h0.5v0.789h0.348v-1.231h0.57v1.231h0.391v-1h0.527v1h0.516v-0.461h0.504v0.461h0.488v-2.039h-0.859v-1.211h0.859v-1.266h-15.039c-0.086-0.781-0.332-1.488-0.695-2.051-0.465-0.707-1.149-1.199-1.934-1.199zm0 0.938c0.441 0 0.871 0.273 1.215 0.797 0.34 0.527 0.57 1.293 0.57 2.148s-0.23 1.621-0.57 2.145c-0.344 0.527-0.774 0.8-1.215 0.8-0.445 0-0.875-0.273-1.219-0.8-0.34-0.524-0.57-1.29-0.57-2.145s0.23-1.621 0.57-2.148c0.344-0.524 0.774-0.797 1.219-0.797z" fill="#7300fd"/><path d="m23.25 121.99c-0.785 0-1.473 0.492-1.938 1.199-0.46 0.711-0.73 1.653-0.73 2.684s0.27 1.973 0.73 2.68c0.465 0.711 1.153 1.203 1.938 1.203 0.781 0 1.469-0.492 1.93-1.203 0.367-0.559 0.613-1.266 0.699-2.047h11.519v1.211h-0.855v2.039h0.531v-0.789h0.5v0.789h0.348v-1.231h0.57v1.231h0.391v-1h0.527v1h0.516v-0.461h0.504v0.461h0.488v-2.039h-0.859v-1.211h0.859v-1.266h-15.039c-0.086-0.781-0.332-1.488-0.695-2.051-0.465-0.707-1.149-1.199-1.934-1.199zm0 0.938c0.441 0 0.871 0.273 1.215 0.797 0.34 0.527 0.57 1.293 0.57 2.148s-0.23 1.621-0.57 2.145c-0.344 0.527-0.774 0.8-1.215 0.8-0.445 0-0.875-0.273-1.219-0.8-0.34-0.524-0.57-1.29-0.57-2.145s0.23-1.621 0.57-2.148c0.344-0.524 0.774-0.797 1.219-0.797z" fill="#dddd00" stroke="#000000" stroke-width=".27699"/><g clip-path="url(#ae)"><g clip-path="url(#ad)"><g><path d="m49.598 122.76 3.925-6.063 12.731-6.445-0.055 22.726-16.601 8.192z" fill="#ffffff"/><path d="m66.652 109.43-1.422 0.738-12.117 6.062-4.082 6.122-0.183 0.246v19.722l1.422-0.738 15.828-7.914 0.554-0.25zm-1.976 3.211v19.543l-13.852 6.925v-15.957l3.649-5.441z" fill="#000000" fill-rule="evenodd"/><path d="m54.094 117.02-3.934 5.676 3.84-1.711z" fill="#ffffff"/><path d="m53.297 116.97v3.648l-3.711 1.852 0.496 0.867 4.207-2.102v-4.265z" fill="#000000" fill-rule="evenodd"/><path d="m52.75 125.81c-0.203 0.118-0.355 0.301-0.457 0.559-0.102 0.262-0.156 0.586-0.156 0.988 0 0.403 0.054 0.672 0.156 0.813 0.102 0.137 0.254 0.144 0.457 0.031 0.199-0.117 0.355-0.305 0.453-0.566 0.102-0.254 0.156-0.586 0.156-0.981 0-0.402-0.054-0.672-0.156-0.812-0.098-0.141-0.254-0.156-0.453-0.032zm0-0.316c0.324-0.184 0.57-0.199 0.742-0.039 0.18 0.156 0.262 0.481 0.262 0.973 0 0.488-0.082 0.914-0.262 1.269-0.172 0.356-0.418 0.625-0.742 0.821-0.324 0.183-0.578 0.199-0.75 0.035-0.172-0.153-0.254-0.477-0.254-0.965 0-0.492 0.082-0.918 0.254-1.274 0.172-0.355 0.426-0.628 0.75-0.82zm1.762 1.617 0.64-0.371v-2.219l-0.695 0.539v-0.355l0.695-0.539 0.395-0.23v2.578l0.641-0.371v0.324l-1.676 0.969zm2.543-1.468 0.64-0.375v-2.215l-0.703 0.539v-0.356l0.696-0.539 0.394-0.226v2.574l0.641-0.367v0.328l-1.668 0.969zm3.308-4.231c-0.203 0.117-0.355 0.301-0.457 0.566-0.101 0.254-0.152 0.586-0.152 0.981 0 0.402 0.051 0.672 0.152 0.812 0.102 0.141 0.254 0.157 0.457 0.032 0.199-0.117 0.356-0.301 0.457-0.567 0.098-0.254 0.153-0.578 0.153-0.98 0-0.403-0.055-0.664-0.153-0.813-0.101-0.14-0.258-0.144-0.457-0.031zm0-0.309c0.325-0.191 0.571-0.207 0.75-0.046 0.168 0.156 0.254 0.48 0.254 0.976 0 0.485-0.086 0.91-0.254 1.266-0.179 0.355-0.425 0.637-0.75 0.82-0.324 0.184-0.574 0.199-0.75 0.039-0.172-0.156-0.258-0.48-0.258-0.965 0-0.496 0.086-0.922 0.258-1.277 0.176-0.356 0.426-0.625 0.75-0.813zm1.762 1.61 0.648-0.371v-2.219l-0.703 0.539v-0.352l0.696-0.542 0.394-0.231v2.582l0.645-0.375v0.324l-1.68 0.977zm-10.148 10.844 0.64-0.371v-2.219l-0.695 0.543v-0.36l0.687-0.539 0.395-0.226v2.574l0.641-0.367v0.324l-1.668 0.973zm3.308-4.231c-0.203 0.117-0.355 0.301-0.457 0.567-0.098 0.253-0.156 0.585-0.156 0.98 0 0.402 0.058 0.672 0.156 0.813 0.102 0.14 0.254 0.156 0.457 0.031 0.207-0.117 0.356-0.301 0.461-0.559 0.102-0.262 0.149-0.586 0.149-0.988s-0.047-0.672-0.149-0.809c-0.105-0.14-0.254-0.148-0.461-0.035zm0-0.316c0.324-0.184 0.578-0.2 0.75-0.039 0.168 0.156 0.254 0.48 0.254 0.976 0 0.489-0.086 0.914-0.254 1.266-0.172 0.355-0.426 0.629-0.75 0.82-0.324 0.184-0.574 0.203-0.742 0.039-0.18-0.152-0.262-0.48-0.262-0.965 0-0.496 0.082-0.914 0.262-1.277 0.168-0.355 0.418-0.625 0.742-0.82zm1.77 1.617 0.64-0.371v-2.219l-0.703 0.539v-0.351l0.696-0.543 0.394-0.231v2.582l0.641-0.371v0.324l-1.668 0.965zm3.308-4.227c-0.203 0.114-0.355 0.301-0.457 0.555-0.101 0.262-0.152 0.59-0.152 0.988 0 0.403 0.051 0.668 0.152 0.813 0.102 0.137 0.254 0.148 0.457 0.031 0.199-0.117 0.356-0.301 0.457-0.562 0.098-0.258 0.153-0.59 0.153-0.985 0-0.402-0.055-0.672-0.153-0.812-0.101-0.137-0.258-0.145-0.457-0.028zm0-0.32c0.325-0.184 0.571-0.199 0.75-0.043 0.168 0.16 0.254 0.484 0.254 0.981 0 0.484-0.086 0.91-0.254 1.265-0.179 0.356-0.425 0.629-0.75 0.813-0.324 0.195-0.574 0.207-0.75 0.047-0.172-0.157-0.258-0.481-0.258-0.965 0-0.496 0.086-0.922 0.258-1.278 0.176-0.355 0.426-0.625 0.75-0.82zm1.762 1.609 0.648-0.371v-2.211l-0.703 0.543v-0.355l0.696-0.543 0.394-0.231v2.575l0.645-0.371v0.332l-1.68 0.964z" fill="#000000"/></g></g></g><g><path d="m23.25 153.37c-0.785 0-1.473 0.492-1.938 1.199-0.46 0.711-0.73 1.653-0.73 2.684s0.27 1.973 0.73 2.68c0.465 0.711 1.153 1.203 1.938 1.203 0.781 0 1.469-0.492 1.93-1.203 0.367-0.559 0.613-1.266 0.699-2.047h11.519v1.211h-0.855v2.039h0.531v-0.789h0.5v0.789h0.348v-1.231h0.57v1.231h0.391v-1h0.527v1h0.516v-0.461h0.504v0.461h0.488v-2.039h-0.859v-1.211h0.859v-1.266h-15.039c-0.086-0.781-0.332-1.488-0.695-2.051-0.465-0.707-1.149-1.199-1.934-1.199zm0 0.938c0.441 0 0.871 0.273 1.215 0.797 0.34 0.527 0.57 1.293 0.57 2.148s-0.23 1.621-0.57 2.145c-0.344 0.527-0.774 0.8-1.215 0.8-0.445 0-0.875-0.273-1.219-0.8-0.34-0.524-0.57-1.29-0.57-2.145s0.23-1.621 0.57-2.148c0.344-0.524 0.774-0.797 1.219-0.797z" fill="#0025fd"/><path d="m23.25 184.74c-0.785 0-1.473 0.492-1.938 1.199-0.46 0.711-0.73 1.653-0.73 2.684s0.27 1.973 0.73 2.68c0.465 0.711 1.153 1.203 1.938 1.203 0.781 0 1.469-0.492 1.93-1.203 0.367-0.559 0.613-1.266 0.699-2.047h11.519v1.211h-0.855v2.039h0.531v-0.789h0.5v0.789h0.348v-1.231h0.57v1.231h0.391v-1h0.527v1h0.516v-0.461h0.504v0.461h0.488v-2.039h-0.859v-1.211h0.859v-1.266h-15.039c-0.086-0.781-0.332-1.488-0.695-2.051-0.465-0.707-1.149-1.199-1.934-1.199zm0 0.938c0.441 0 0.871 0.273 1.215 0.797 0.34 0.527 0.57 1.293 0.57 2.148s-0.23 1.621-0.57 2.145c-0.344 0.527-0.774 0.8-1.215 0.8-0.445 0-0.875-0.273-1.219-0.8-0.34-0.524-0.57-1.29-0.57-2.145s0.23-1.621 0.57-2.148c0.344-0.524 0.774-0.797 1.219-0.797z" fill="#fd6200"/></g><g clip-path="url(#ac)"><g clip-path="url(#ab)"><g><path d="m49.598 185.51 3.925-6.063 12.731-6.445-0.055 22.726-16.601 8.192z" fill="#ffffff"/><path d="m66.652 172.18-1.422 0.738-12.117 6.062-4.082 6.122-0.183 0.246v19.722l1.422-0.738 15.828-7.914 0.554-0.25zm-1.976 3.211v19.543l-13.852 6.925v-15.957l3.649-5.441z" fill="#000000" fill-rule="evenodd"/><path d="m54.094 179.77-3.934 5.676 3.84-1.711z" fill="#ffffff"/><path d="m53.297 179.72v3.648l-3.711 1.852 0.496 0.867 4.207-2.102v-4.265z" fill="#000000" fill-rule="evenodd"/><path d="m52.75 188.56c-0.203 0.118-0.355 0.301-0.457 0.559-0.102 0.262-0.156 0.586-0.156 0.988 0 0.403 0.054 0.672 0.156 0.813 0.102 0.137 0.254 0.144 0.457 0.031 0.199-0.117 0.355-0.305 0.453-0.566 0.102-0.254 0.156-0.586 0.156-0.981 0-0.402-0.054-0.672-0.156-0.812-0.098-0.141-0.254-0.156-0.453-0.032zm0-0.316c0.324-0.184 0.57-0.199 0.742-0.039 0.18 0.156 0.262 0.481 0.262 0.973 0 0.488-0.082 0.914-0.262 1.269-0.172 0.356-0.418 0.625-0.742 0.821-0.324 0.183-0.578 0.199-0.75 0.035-0.172-0.153-0.254-0.477-0.254-0.965 0-0.492 0.082-0.918 0.254-1.274 0.172-0.355 0.426-0.628 0.75-0.82zm1.762 1.617 0.64-0.371v-2.219l-0.695 0.539v-0.355l0.695-0.539 0.395-0.23v2.578l0.641-0.371v0.324l-1.676 0.969zm2.543-1.468 0.64-0.375v-2.215l-0.703 0.539v-0.356l0.696-0.539 0.394-0.226v2.574l0.641-0.367v0.328l-1.668 0.969zm3.308-4.231c-0.203 0.117-0.355 0.301-0.457 0.566-0.101 0.254-0.152 0.586-0.152 0.981 0 0.402 0.051 0.672 0.152 0.812 0.102 0.141 0.254 0.157 0.457 0.032 0.199-0.117 0.356-0.301 0.457-0.567 0.098-0.254 0.153-0.578 0.153-0.98 0-0.403-0.055-0.664-0.153-0.813-0.101-0.14-0.258-0.144-0.457-0.031zm0-0.309c0.325-0.191 0.571-0.207 0.75-0.046 0.168 0.156 0.254 0.48 0.254 0.976 0 0.485-0.086 0.91-0.254 1.266-0.179 0.355-0.425 0.637-0.75 0.82-0.324 0.184-0.574 0.199-0.75 0.039-0.172-0.156-0.258-0.48-0.258-0.965 0-0.496 0.086-0.922 0.258-1.277 0.176-0.356 0.426-0.625 0.75-0.813zm1.762 1.61 0.648-0.371v-2.219l-0.703 0.539v-0.352l0.696-0.542 0.394-0.231v2.582l0.645-0.375v0.324l-1.68 0.977zm-10.148 10.844 0.64-0.371v-2.219l-0.695 0.543v-0.36l0.687-0.539 0.395-0.226v2.574l0.641-0.367v0.324l-1.668 0.973zm3.308-4.231c-0.203 0.117-0.355 0.301-0.457 0.567-0.098 0.253-0.156 0.585-0.156 0.98 0 0.402 0.058 0.672 0.156 0.813 0.102 0.14 0.254 0.156 0.457 0.031 0.207-0.117 0.356-0.301 0.461-0.559 0.102-0.262 0.149-0.586 0.149-0.988s-0.047-0.672-0.149-0.809c-0.105-0.14-0.254-0.148-0.461-0.035zm0-0.316c0.324-0.184 0.578-0.2 0.75-0.039 0.168 0.156 0.254 0.48 0.254 0.976 0 0.489-0.086 0.914-0.254 1.266-0.172 0.355-0.426 0.629-0.75 0.82-0.324 0.184-0.574 0.203-0.742 0.039-0.18-0.152-0.262-0.48-0.262-0.965 0-0.496 0.082-0.914 0.262-1.277 0.168-0.355 0.418-0.625 0.742-0.82zm1.77 1.617 0.64-0.371v-2.219l-0.703 0.539v-0.351l0.696-0.543 0.394-0.231v2.582l0.641-0.371v0.324l-1.668 0.965zm3.308-4.227c-0.203 0.114-0.355 0.301-0.457 0.555-0.101 0.262-0.152 0.59-0.152 0.988 0 0.403 0.051 0.668 0.152 0.813 0.102 0.137 0.254 0.148 0.457 0.031 0.199-0.117 0.356-0.301 0.457-0.562 0.098-0.258 0.153-0.59 0.153-0.985 0-0.402-0.055-0.672-0.153-0.812-0.101-0.137-0.258-0.145-0.457-0.028zm0-0.32c0.325-0.184 0.571-0.199 0.75-0.043 0.168 0.16 0.254 0.484 0.254 0.981 0 0.484-0.086 0.91-0.254 1.265-0.179 0.356-0.425 0.629-0.75 0.813-0.324 0.195-0.574 0.207-0.75 0.047-0.172-0.157-0.258-0.481-0.258-0.965 0-0.496 0.086-0.922 0.258-1.278 0.176-0.355 0.426-0.625 0.75-0.82zm1.762 1.609 0.648-0.371v-2.211l-0.703 0.543v-0.355l0.696-0.543 0.394-0.231v2.575l0.645-0.371v0.332l-1.68 0.964z" fill="#000000"/></g></g></g><g fill="#000000"><path d="m39.59 68.012c0 0.34-0.078 0.676-0.238 1.008-0.157 0.332-0.375 0.613-0.664 0.843-0.313 0.25-0.676 0.446-1.094 0.586-0.414 0.137-0.914 0.207-1.5 0.207-0.629 0-1.196-0.058-1.699-0.176-0.5-0.117-1.008-0.289-1.528-0.519v-1.453h0.082c0.442 0.367 0.949 0.648 1.528 0.847 0.578 0.2 1.121 0.301 1.628 0.301 0.719 0 1.278-0.136 1.676-0.406 0.403-0.27 0.606-0.629 0.606-1.078 0-0.387-0.098-0.672-0.289-0.856-0.188-0.179-0.477-0.324-0.86-0.425-0.293-0.079-0.613-0.141-0.957-0.192-0.34-0.051-0.699-0.117-1.082-0.195-0.773-0.164-1.347-0.442-1.722-0.836-0.372-0.398-0.559-0.918-0.559-1.555 0-0.73 0.309-1.328 0.926-1.793 0.617-0.468 1.402-0.703 2.351-0.703 0.614 0 1.176 0.059 1.688 0.176s0.965 0.262 1.359 0.434v1.371h-0.086c-0.332-0.282-0.769-0.512-1.312-0.696-0.539-0.187-1.09-0.281-1.656-0.281-0.622 0-1.122 0.129-1.5 0.387-0.376 0.258-0.563 0.59-0.563 0.996 0 0.363 0.094 0.648 0.281 0.855 0.188 0.207 0.52 0.364 0.992 0.473 0.25 0.055 0.606 0.121 1.067 0.199s0.851 0.16 1.172 0.242c0.648 0.172 1.136 0.43 1.465 0.778 0.328 0.347 0.488 0.836 0.488 1.461z"/><path d="m44.766 70.441c-0.207 0.055-0.434 0.102-0.68 0.133-0.242 0.035-0.461 0.055-0.652 0.055-0.668 0-1.176-0.18-1.524-0.539-0.348-0.36-0.519-0.938-0.519-1.731v-3.48h-0.746v-0.926h0.746v-1.879h1.101v1.879h2.274v0.926h-2.274v2.984c0 0.344 8e-3 0.614 0.024 0.809 0.015 0.191 0.07 0.371 0.164 0.539 0.086 0.156 0.203 0.269 0.351 0.344 0.153 0.07 0.383 0.105 0.692 0.105 0.179 0 0.367-0.023 0.562-0.074 0.195-0.055 0.336-0.098 0.422-0.133h0.059z"/><path d="m51.18 70.5h-1.094v-0.695c-0.098 0.066-0.231 0.16-0.398 0.281-0.165 0.117-0.325 0.211-0.481 0.281-0.184 0.09-0.395 0.164-0.633 0.223-0.238 0.062-0.519 0.094-0.84 0.094-0.589 0-1.089-0.196-1.5-0.586-0.41-0.391-0.613-0.891-0.613-1.496 0-0.497 0.106-0.895 0.317-1.2 0.214-0.308 0.519-0.55 0.914-0.726 0.398-0.176 0.875-0.297 1.433-0.36 0.559-0.062 1.16-0.109 1.801-0.14v-0.168c0-0.25-0.047-0.457-0.137-0.621-0.086-0.164-0.211-0.293-0.371-0.387-0.156-0.09-0.344-0.152-0.562-0.184-0.219-0.031-0.45-0.046-0.688-0.046-0.289 0-0.609 0.039-0.965 0.117-0.355 0.074-0.722 0.183-1.101 0.328h-0.059v-1.117c0.215-0.059 0.524-0.125 0.93-0.196 0.406-0.07 0.808-0.105 1.203-0.105 0.461 0 0.859 0.039 1.199 0.117 0.344 0.074 0.641 0.203 0.891 0.387 0.246 0.179 0.433 0.414 0.562 0.699s0.192 0.637 0.192 1.059zm-1.094-1.609v-1.825c-0.336 0.02-0.734 0.051-1.191 0.09-0.454 0.039-0.813 0.094-1.079 0.168-0.316 0.09-0.57 0.231-0.765 0.422-0.196 0.188-0.293 0.449-0.293 0.781 0 0.375 0.113 0.657 0.34 0.848 0.226 0.187 0.57 0.281 1.035 0.281 0.387 0 0.742-0.074 1.062-0.222 0.321-0.153 0.617-0.336 0.891-0.547z"/><path d="m56.699 70.441c-0.207 0.055-0.433 0.102-0.679 0.133-0.243 0.035-0.458 0.055-0.649 0.055-0.668 0-1.176-0.18-1.523-0.539-0.348-0.36-0.524-0.938-0.524-1.731v-3.48h-0.742v-0.926h0.742v-1.879h1.102v1.879h2.273v0.926h-2.273v2.984c0 0.344 0.012 0.614 0.027 0.809 0.016 0.191 0.07 0.371 0.164 0.539 0.086 0.156 0.203 0.269 0.352 0.344 0.152 0.07 0.383 0.105 0.691 0.105 0.18 0 0.367-0.023 0.563-0.074 0.195-0.055 0.336-0.098 0.422-0.133h0.058z"/><path d="m63.508 67.344h-4.82c0 0.402 0.058 0.754 0.179 1.054 0.121 0.297 0.289 0.54 0.5 0.731 0.203 0.187 0.442 0.328 0.719 0.422 0.281 0.094 0.59 0.14 0.926 0.14 0.445 0 0.894-0.086 1.343-0.261 0.454-0.18 0.774-0.356 0.965-0.528h0.059v1.2c-0.371 0.156-0.75 0.285-1.137 0.39-0.387 0.106-0.793 0.16-1.219 0.16-1.085 0-1.933-0.293-2.543-0.879-0.609-0.589-0.914-1.425-0.914-2.507 0-1.071 0.293-1.918 0.875-2.547 0.586-0.629 1.356-0.946 2.309-0.946 0.883 0 1.562 0.258 2.039 0.774 0.481 0.515 0.719 1.25 0.719 2.199zm-1.07-0.844c-4e-3 -0.578-0.153-1.027-0.442-1.344-0.285-0.316-0.719-0.472-1.305-0.472-0.589 0-1.062 0.171-1.414 0.519-0.347 0.348-0.543 0.781-0.589 1.297z"/></g><path d="m262.88 56.25h50.625c4.969 0 9 4.031 9 9v133.5c0 2.387-0.949 4.676-2.637 6.363-1.687 1.688-3.976 2.637-6.363 2.637h-50.625c-2.387 0-4.676-0.949-6.363-2.637-1.688-1.687-2.637-3.976-2.637-6.363v-133.5c0-2.387 0.949-4.676 2.637-6.363 1.687-1.688 3.976-2.637 6.363-2.637z" fill="#ffffff" stroke="#000000" stroke-width="1.0743"/><path d="m263.25 90.617c-0.785 0-1.473 0.492-1.938 1.199-0.46 0.711-0.73 1.653-0.73 2.684s0.27 1.973 0.73 2.68c0.465 0.711 1.153 1.203 1.938 1.203 0.781 0 1.469-0.492 1.93-1.203 0.367-0.559 0.613-1.266 0.699-2.047h11.519v1.211h-0.855v2.039h0.531v-0.789h0.5v0.789h0.348v-1.231h0.57v1.231h0.391v-1h0.527v1h0.516v-0.461h0.504v0.461h0.488v-2.039h-0.859v-1.211h0.859v-1.266h-15.039c-0.086-0.781-0.332-1.488-0.695-2.051-0.465-0.707-1.149-1.199-1.934-1.199zm0 0.938c0.441 0 0.871 0.273 1.215 0.797 0.34 0.527 0.57 1.293 0.57 2.148s-0.23 1.621-0.57 2.145c-0.344 0.527-0.774 0.8-1.215 0.8-0.445 0-0.875-0.273-1.219-0.8-0.34-0.524-0.57-1.29-0.57-2.145s0.23-1.621 0.57-2.148c0.344-0.524 0.774-0.797 1.219-0.797z" fill="#7300fd"/><g clip-path="url(#aa)"><g clip-path="url(#z)"><g><path d="m289.6 91.387 3.925-6.063 12.731-6.445-0.055 22.726-16.601 8.192z" fill="#ffffff"/><path d="m306.65 78.055-1.422 0.738-12.117 6.062-4.082 6.122-0.183 0.246v19.722l1.422-0.738 15.828-7.914 0.554-0.25zm-1.976 3.211v19.543l-13.852 6.925v-15.957l3.649-5.441z" fill="#000000" fill-rule="evenodd"/><path d="m294.09 85.648-3.934 5.676 3.84-1.711z" fill="#ffffff"/><path d="m293.3 85.598v3.648l-3.711 1.852 0.496 0.867 4.207-2.102v-4.265z" fill="#000000" fill-rule="evenodd"/><path d="m292.75 94.438c-0.203 0.117-0.355 0.3-0.457 0.558-0.102 0.262-0.156 0.586-0.156 0.988 0 0.403 0.054 0.672 0.156 0.813 0.102 0.137 0.254 0.144 0.457 0.031 0.199-0.117 0.355-0.305 0.453-0.566 0.102-0.254 0.156-0.586 0.156-0.981 0-0.402-0.054-0.672-0.156-0.812-0.098-0.141-0.254-0.157-0.453-0.031zm0-0.317c0.324-0.183 0.57-0.199 0.742-0.039 0.18 0.156 0.262 0.48 0.262 0.973 0 0.488-0.082 0.914-0.262 1.269-0.172 0.356-0.418 0.625-0.742 0.821-0.324 0.183-0.578 0.199-0.75 0.035-0.172-0.153-0.254-0.477-0.254-0.965 0-0.492 0.082-0.918 0.254-1.274 0.172-0.355 0.426-0.629 0.75-0.82zm1.762 1.617 0.64-0.371v-2.219l-0.695 0.54v-0.356l0.695-0.539 0.395-0.231v2.579l0.641-0.371v0.324l-1.676 0.968zm2.543-1.468 0.64-0.375v-2.215l-0.703 0.539v-0.356l0.696-0.539 0.394-0.226v2.574l0.641-0.367v0.328l-1.668 0.969zm3.308-4.231c-0.203 0.117-0.355 0.301-0.457 0.566-0.101 0.254-0.152 0.586-0.152 0.981 0 0.402 0.051 0.672 0.152 0.812 0.102 0.141 0.254 0.157 0.457 0.032 0.199-0.118 0.356-0.301 0.457-0.567 0.098-0.254 0.153-0.578 0.153-0.98 0-0.403-0.055-0.664-0.153-0.813-0.101-0.14-0.258-0.144-0.457-0.031zm0-0.309c0.325-0.191 0.571-0.207 0.75-0.046 0.168 0.156 0.254 0.48 0.254 0.976 0 0.485-0.086 0.91-0.254 1.266-0.179 0.355-0.425 0.636-0.75 0.82-0.324 0.184-0.574 0.199-0.75 0.039-0.172-0.156-0.258-0.48-0.258-0.965 0-0.496 0.086-0.922 0.258-1.277 0.176-0.355 0.426-0.625 0.75-0.813zm1.762 1.61 0.648-0.371v-2.219l-0.703 0.539v-0.351l0.696-0.543 0.394-0.231v2.582l0.645-0.375v0.324l-1.68 0.977zm-10.148 10.844 0.64-0.372v-2.218l-0.695 0.543v-0.36l0.687-0.539 0.395-0.226v2.574l0.641-0.367v0.324l-1.668 0.973zm3.308-4.231c-0.203 0.117-0.355 0.301-0.457 0.567-0.098 0.253-0.156 0.585-0.156 0.98 0 0.402 0.058 0.672 0.156 0.812 0.102 0.141 0.254 0.157 0.457 0.032 0.207-0.117 0.356-0.301 0.461-0.559 0.102-0.262 0.149-0.586 0.149-0.988s-0.047-0.672-0.149-0.809c-0.105-0.14-0.254-0.148-0.461-0.035zm0-0.316c0.324-0.184 0.578-0.199 0.75-0.039 0.168 0.156 0.254 0.48 0.254 0.976 0 0.488-0.086 0.914-0.254 1.266-0.172 0.355-0.426 0.629-0.75 0.82-0.324 0.184-0.574 0.203-0.742 0.039-0.18-0.152-0.262-0.48-0.262-0.965 0-0.496 0.082-0.914 0.262-1.277 0.168-0.355 0.418-0.625 0.742-0.82zm1.77 1.617 0.64-0.371v-2.219l-0.703 0.539v-0.351l0.696-0.543 0.394-0.231v2.582l0.641-0.371v0.324l-1.668 0.965zm3.308-4.227c-0.203 0.114-0.355 0.301-0.457 0.555-0.101 0.262-0.152 0.59-0.152 0.988 0 0.403 0.051 0.668 0.152 0.813 0.102 0.137 0.254 0.148 0.457 0.031 0.199-0.117 0.356-0.301 0.457-0.562 0.098-0.258 0.153-0.59 0.153-0.985 0-0.402-0.055-0.672-0.153-0.812-0.101-0.137-0.258-0.145-0.457-0.028zm0-0.32c0.325-0.184 0.571-0.199 0.75-0.043 0.168 0.16 0.254 0.484 0.254 0.981 0 0.484-0.086 0.91-0.254 1.265-0.179 0.356-0.425 0.629-0.75 0.813-0.324 0.195-0.574 0.207-0.75 0.047-0.172-0.157-0.258-0.481-0.258-0.965 0-0.496 0.086-0.922 0.258-1.278 0.176-0.355 0.426-0.625 0.75-0.82zm1.762 1.609 0.648-0.371v-2.211l-0.703 0.543v-0.355l0.696-0.543 0.394-0.231v2.575l0.645-0.371v0.332l-1.68 0.964z" fill="#000000"/></g></g></g><path d="m263.25 121.99c-0.785 0-1.473 0.492-1.938 1.199-0.46 0.711-0.73 1.653-0.73 2.684s0.27 1.973 0.73 2.68c0.465 0.711 1.153 1.203 1.938 1.203 0.781 0 1.469-0.492 1.93-1.203 0.367-0.559 0.613-1.266 0.699-2.047h11.519v1.211h-0.855v2.039h0.531v-0.789h0.5v0.789h0.348v-1.231h0.57v1.231h0.391v-1h0.527v1h0.516v-0.461h0.504v0.461h0.488v-2.039h-0.859v-1.211h0.859v-1.266h-15.039c-0.086-0.781-0.332-1.488-0.695-2.051-0.465-0.707-1.149-1.199-1.934-1.199zm0 0.938c0.441 0 0.871 0.273 1.215 0.797 0.34 0.527 0.57 1.293 0.57 2.148s-0.23 1.621-0.57 2.145c-0.344 0.527-0.774 0.8-1.215 0.8-0.445 0-0.875-0.273-1.219-0.8-0.34-0.524-0.57-1.29-0.57-2.145s0.23-1.621 0.57-2.148c0.344-0.524 0.774-0.797 1.219-0.797z" fill="#dddd00" stroke="#000000" stroke-width=".27699"/><g clip-path="url(#y)"><g clip-path="url(#x)"><g><path d="m289.6 122.76 3.925-6.063 12.731-6.445-0.055 22.726-16.601 8.192z" fill="#ffffff"/><path d="m306.65 109.43-1.422 0.738-12.117 6.062-4.082 6.122-0.183 0.246v19.722l1.422-0.738 15.828-7.914 0.554-0.25zm-1.976 3.211v19.543l-13.852 6.925v-15.957l3.649-5.441z" fill="#000000" fill-rule="evenodd"/><path d="m294.09 117.02-3.934 5.676 3.84-1.711z" fill="#ffffff"/><path d="m293.3 116.97v3.648l-3.711 1.852 0.496 0.867 4.207-2.102v-4.265z" fill="#000000" fill-rule="evenodd"/><path d="m292.75 125.81c-0.203 0.118-0.355 0.301-0.457 0.559-0.102 0.262-0.156 0.586-0.156 0.988 0 0.403 0.054 0.672 0.156 0.813 0.102 0.137 0.254 0.144 0.457 0.031 0.199-0.117 0.355-0.305 0.453-0.566 0.102-0.254 0.156-0.586 0.156-0.981 0-0.402-0.054-0.672-0.156-0.812-0.098-0.141-0.254-0.156-0.453-0.032zm0-0.316c0.324-0.184 0.57-0.199 0.742-0.039 0.18 0.156 0.262 0.481 0.262 0.973 0 0.488-0.082 0.914-0.262 1.269-0.172 0.356-0.418 0.625-0.742 0.821-0.324 0.183-0.578 0.199-0.75 0.035-0.172-0.153-0.254-0.477-0.254-0.965 0-0.492 0.082-0.918 0.254-1.274 0.172-0.355 0.426-0.628 0.75-0.82zm1.762 1.617 0.64-0.371v-2.219l-0.695 0.539v-0.355l0.695-0.539 0.395-0.23v2.578l0.641-0.371v0.324l-1.676 0.969zm2.543-1.468 0.64-0.375v-2.215l-0.703 0.539v-0.356l0.696-0.539 0.394-0.226v2.574l0.641-0.367v0.328l-1.668 0.969zm3.308-4.231c-0.203 0.117-0.355 0.301-0.457 0.566-0.101 0.254-0.152 0.586-0.152 0.981 0 0.402 0.051 0.672 0.152 0.812 0.102 0.141 0.254 0.157 0.457 0.032 0.199-0.117 0.356-0.301 0.457-0.567 0.098-0.254 0.153-0.578 0.153-0.98 0-0.403-0.055-0.664-0.153-0.813-0.101-0.14-0.258-0.144-0.457-0.031zm0-0.309c0.325-0.191 0.571-0.207 0.75-0.046 0.168 0.156 0.254 0.48 0.254 0.976 0 0.485-0.086 0.91-0.254 1.266-0.179 0.355-0.425 0.637-0.75 0.82-0.324 0.184-0.574 0.199-0.75 0.039-0.172-0.156-0.258-0.48-0.258-0.965 0-0.496 0.086-0.922 0.258-1.277 0.176-0.356 0.426-0.625 0.75-0.813zm1.762 1.61 0.648-0.371v-2.219l-0.703 0.539v-0.352l0.696-0.542 0.394-0.231v2.582l0.645-0.375v0.324l-1.68 0.977zm-10.148 10.844 0.64-0.371v-2.219l-0.695 0.543v-0.36l0.687-0.539 0.395-0.226v2.574l0.641-0.367v0.324l-1.668 0.973zm3.308-4.231c-0.203 0.117-0.355 0.301-0.457 0.567-0.098 0.253-0.156 0.585-0.156 0.98 0 0.402 0.058 0.672 0.156 0.813 0.102 0.14 0.254 0.156 0.457 0.031 0.207-0.117 0.356-0.301 0.461-0.559 0.102-0.262 0.149-0.586 0.149-0.988s-0.047-0.672-0.149-0.809c-0.105-0.14-0.254-0.148-0.461-0.035zm0-0.316c0.324-0.184 0.578-0.2 0.75-0.039 0.168 0.156 0.254 0.48 0.254 0.976 0 0.489-0.086 0.914-0.254 1.266-0.172 0.355-0.426 0.629-0.75 0.82-0.324 0.184-0.574 0.203-0.742 0.039-0.18-0.152-0.262-0.48-0.262-0.965 0-0.496 0.082-0.914 0.262-1.277 0.168-0.355 0.418-0.625 0.742-0.82zm1.77 1.617 0.64-0.371v-2.219l-0.703 0.539v-0.351l0.696-0.543 0.394-0.231v2.582l0.641-0.371v0.324l-1.668 0.965zm3.308-4.227c-0.203 0.114-0.355 0.301-0.457 0.555-0.101 0.262-0.152 0.59-0.152 0.988 0 0.403 0.051 0.668 0.152 0.813 0.102 0.137 0.254 0.148 0.457 0.031 0.199-0.117 0.356-0.301 0.457-0.562 0.098-0.258 0.153-0.59 0.153-0.985 0-0.402-0.055-0.672-0.153-0.812-0.101-0.137-0.258-0.145-0.457-0.028zm0-0.32c0.325-0.184 0.571-0.199 0.75-0.043 0.168 0.16 0.254 0.484 0.254 0.981 0 0.484-0.086 0.91-0.254 1.265-0.179 0.356-0.425 0.629-0.75 0.813-0.324 0.195-0.574 0.207-0.75 0.047-0.172-0.157-0.258-0.481-0.258-0.965 0-0.496 0.086-0.922 0.258-1.278 0.176-0.355 0.426-0.625 0.75-0.82zm1.762 1.609 0.648-0.371v-2.211l-0.703 0.543v-0.355l0.696-0.543 0.394-0.231v2.575l0.645-0.371v0.332l-1.68 0.964z" fill="#000000"/></g></g></g><path d="m263.25 153.37c-0.785 0-1.473 0.492-1.938 1.199-0.46 0.711-0.73 1.653-0.73 2.684s0.27 1.973 0.73 2.68c0.465 0.711 1.153 1.203 1.938 1.203 0.781 0 1.469-0.492 1.93-1.203 0.367-0.559 0.613-1.266 0.699-2.047h11.519v1.211h-0.855v2.039h0.531v-0.789h0.5v0.789h0.348v-1.231h0.57v1.231h0.391v-1h0.527v1h0.516v-0.461h0.504v0.461h0.488v-2.039h-0.859v-1.211h0.859v-1.266h-15.039c-0.086-0.781-0.332-1.488-0.695-2.051-0.465-0.707-1.149-1.199-1.934-1.199zm0 0.938c0.441 0 0.871 0.273 1.215 0.797 0.34 0.527 0.57 1.293 0.57 2.148s-0.23 1.621-0.57 2.145c-0.344 0.527-0.774 0.8-1.215 0.8-0.445 0-0.875-0.273-1.219-0.8-0.34-0.524-0.57-1.29-0.57-2.145s0.23-1.621 0.57-2.148c0.344-0.524 0.774-0.797 1.219-0.797z" fill="#0025fd"/><g clip-path="url(#w)"><g clip-path="url(#v)"><g><path d="m289.6 154.14 3.925-6.063 12.731-6.445-0.055 22.726-16.601 8.192z" fill="#ffffff"/><path d="m306.65 140.8-1.422 0.738-12.117 6.062-4.082 6.122-0.183 0.246v19.722l1.422-0.738 15.828-7.914 0.554-0.25zm-1.976 3.211v19.543l-13.852 6.925v-15.957l3.649-5.441z" fill="#000000" fill-rule="evenodd"/><path d="m294.09 148.4-3.934 5.676 3.84-1.711z" fill="#ffffff"/><path d="m293.3 148.35v3.648l-3.711 1.852 0.496 0.867 4.207-2.102v-4.265z" fill="#000000" fill-rule="evenodd"/><path d="m292.75 157.19c-0.203 0.117-0.355 0.3-0.457 0.558-0.102 0.262-0.156 0.586-0.156 0.988 0 0.403 0.054 0.672 0.156 0.813 0.102 0.137 0.254 0.144 0.457 0.031 0.199-0.117 0.355-0.305 0.453-0.566 0.102-0.254 0.156-0.586 0.156-0.981 0-0.402-0.054-0.672-0.156-0.812-0.098-0.141-0.254-0.157-0.453-0.031zm0-0.317c0.324-0.183 0.57-0.199 0.742-0.039 0.18 0.156 0.262 0.48 0.262 0.973 0 0.488-0.082 0.914-0.262 1.269-0.172 0.356-0.418 0.625-0.742 0.821-0.324 0.183-0.578 0.199-0.75 0.035-0.172-0.153-0.254-0.477-0.254-0.965 0-0.492 0.082-0.918 0.254-1.274 0.172-0.355 0.426-0.629 0.75-0.82zm1.762 1.617 0.64-0.371v-2.219l-0.695 0.54v-0.356l0.695-0.539 0.395-0.231v2.579l0.641-0.371v0.324l-1.676 0.968zm2.543-1.468 0.64-0.375v-2.215l-0.703 0.539v-0.356l0.696-0.539 0.394-0.226v2.574l0.641-0.367v0.328l-1.668 0.969zm3.308-4.231c-0.203 0.117-0.355 0.301-0.457 0.566-0.101 0.254-0.152 0.586-0.152 0.981 0 0.402 0.051 0.672 0.152 0.812 0.102 0.141 0.254 0.157 0.457 0.032 0.199-0.118 0.356-0.301 0.457-0.567 0.098-0.254 0.153-0.578 0.153-0.98 0-0.403-0.055-0.664-0.153-0.813-0.101-0.14-0.258-0.144-0.457-0.031zm0-0.309c0.325-0.191 0.571-0.207 0.75-0.046 0.168 0.156 0.254 0.48 0.254 0.976 0 0.485-0.086 0.91-0.254 1.266-0.179 0.355-0.425 0.636-0.75 0.82-0.324 0.184-0.574 0.199-0.75 0.039-0.172-0.156-0.258-0.48-0.258-0.965 0-0.496 0.086-0.922 0.258-1.277 0.176-0.355 0.426-0.625 0.75-0.813zm1.762 1.61 0.648-0.371v-2.219l-0.703 0.539v-0.351l0.696-0.543 0.394-0.231v2.582l0.645-0.375v0.324l-1.68 0.977zm-10.148 10.844 0.64-0.372v-2.218l-0.695 0.543v-0.36l0.687-0.539 0.395-0.226v2.574l0.641-0.367v0.324l-1.668 0.973zm3.308-4.231c-0.203 0.117-0.355 0.301-0.457 0.567-0.098 0.253-0.156 0.585-0.156 0.98 0 0.402 0.058 0.672 0.156 0.812 0.102 0.141 0.254 0.157 0.457 0.032 0.207-0.117 0.356-0.301 0.461-0.559 0.102-0.262 0.149-0.586 0.149-0.988s-0.047-0.672-0.149-0.809c-0.105-0.14-0.254-0.148-0.461-0.035zm0-0.316c0.324-0.184 0.578-0.199 0.75-0.039 0.168 0.156 0.254 0.48 0.254 0.976 0 0.488-0.086 0.914-0.254 1.266-0.172 0.355-0.426 0.629-0.75 0.82-0.324 0.184-0.574 0.203-0.742 0.039-0.18-0.152-0.262-0.48-0.262-0.965 0-0.496 0.082-0.914 0.262-1.277 0.168-0.355 0.418-0.625 0.742-0.82zm1.77 1.617 0.64-0.371v-2.219l-0.703 0.539v-0.351l0.696-0.543 0.394-0.231v2.582l0.641-0.371v0.324l-1.668 0.965zm3.308-4.227c-0.203 0.114-0.355 0.301-0.457 0.555-0.101 0.262-0.152 0.59-0.152 0.988 0 0.403 0.051 0.668 0.152 0.813 0.102 0.137 0.254 0.148 0.457 0.031 0.199-0.117 0.356-0.301 0.457-0.562 0.098-0.258 0.153-0.59 0.153-0.985 0-0.402-0.055-0.672-0.153-0.812-0.101-0.137-0.258-0.145-0.457-0.028zm0-0.32c0.325-0.184 0.571-0.199 0.75-0.043 0.168 0.16 0.254 0.484 0.254 0.981 0 0.484-0.086 0.91-0.254 1.265-0.179 0.356-0.425 0.629-0.75 0.813-0.324 0.195-0.574 0.207-0.75 0.047-0.172-0.157-0.258-0.481-0.258-0.965 0-0.496 0.086-0.922 0.258-1.278 0.176-0.355 0.426-0.625 0.75-0.82zm1.762 1.609 0.648-0.371v-2.211l-0.703 0.543v-0.355l0.696-0.543 0.394-0.231v2.575l0.645-0.371v0.332l-1.68 0.964z" fill="#000000"/></g></g></g><path d="m263.25 184.74c-0.785 0-1.473 0.492-1.938 1.199-0.46 0.711-0.73 1.653-0.73 2.684s0.27 1.973 0.73 2.68c0.465 0.711 1.153 1.203 1.938 1.203 0.781 0 1.469-0.492 1.93-1.203 0.367-0.559 0.613-1.266 0.699-2.047h11.519v1.211h-0.855v2.039h0.531v-0.789h0.5v0.789h0.348v-1.231h0.57v1.231h0.391v-1h0.527v1h0.516v-0.461h0.504v0.461h0.488v-2.039h-0.859v-1.211h0.859v-1.266h-15.039c-0.086-0.781-0.332-1.488-0.695-2.051-0.465-0.707-1.149-1.199-1.934-1.199zm0 0.938c0.441 0 0.871 0.273 1.215 0.797 0.34 0.527 0.57 1.293 0.57 2.148s-0.23 1.621-0.57 2.145c-0.344 0.527-0.774 0.8-1.215 0.8-0.445 0-0.875-0.273-1.219-0.8-0.34-0.524-0.57-1.29-0.57-2.145s0.23-1.621 0.57-2.148c0.344-0.524 0.774-0.797 1.219-0.797z" fill="#fd6200"/><g clip-path="url(#u)"><g clip-path="url(#t)"><g><path d="m289.6 185.51 3.925-6.063 12.731-6.445-0.055 22.726-16.601 8.192z" fill="#ffffff"/><path d="m306.65 172.18-1.422 0.738-12.117 6.062-4.082 6.122-0.183 0.246v19.722l1.422-0.738 15.828-7.914 0.554-0.25zm-1.976 3.211v19.543l-13.852 6.925v-15.957l3.649-5.441z" fill="#000000" fill-rule="evenodd"/><path d="m294.09 179.77-3.934 5.676 3.84-1.711z" fill="#ffffff"/><path d="m293.3 179.72v3.648l-3.711 1.852 0.496 0.867 4.207-2.102v-4.265z" fill="#000000" fill-rule="evenodd"/><path d="m292.75 188.56c-0.203 0.118-0.355 0.301-0.457 0.559-0.102 0.262-0.156 0.586-0.156 0.988 0 0.403 0.054 0.672 0.156 0.813 0.102 0.137 0.254 0.144 0.457 0.031 0.199-0.117 0.355-0.305 0.453-0.566 0.102-0.254 0.156-0.586 0.156-0.981 0-0.402-0.054-0.672-0.156-0.812-0.098-0.141-0.254-0.156-0.453-0.032zm0-0.316c0.324-0.184 0.57-0.199 0.742-0.039 0.18 0.156 0.262 0.481 0.262 0.973 0 0.488-0.082 0.914-0.262 1.269-0.172 0.356-0.418 0.625-0.742 0.821-0.324 0.183-0.578 0.199-0.75 0.035-0.172-0.153-0.254-0.477-0.254-0.965 0-0.492 0.082-0.918 0.254-1.274 0.172-0.355 0.426-0.628 0.75-0.82zm1.762 1.617 0.64-0.371v-2.219l-0.695 0.539v-0.355l0.695-0.539 0.395-0.23v2.578l0.641-0.371v0.324l-1.676 0.969zm2.543-1.468 0.64-0.375v-2.215l-0.703 0.539v-0.356l0.696-0.539 0.394-0.226v2.574l0.641-0.367v0.328l-1.668 0.969zm3.308-4.231c-0.203 0.117-0.355 0.301-0.457 0.566-0.101 0.254-0.152 0.586-0.152 0.981 0 0.402 0.051 0.672 0.152 0.812 0.102 0.141 0.254 0.157 0.457 0.032 0.199-0.117 0.356-0.301 0.457-0.567 0.098-0.254 0.153-0.578 0.153-0.98 0-0.403-0.055-0.664-0.153-0.813-0.101-0.14-0.258-0.144-0.457-0.031zm0-0.309c0.325-0.191 0.571-0.207 0.75-0.046 0.168 0.156 0.254 0.48 0.254 0.976 0 0.485-0.086 0.91-0.254 1.266-0.179 0.355-0.425 0.637-0.75 0.82-0.324 0.184-0.574 0.199-0.75 0.039-0.172-0.156-0.258-0.48-0.258-0.965 0-0.496 0.086-0.922 0.258-1.277 0.176-0.356 0.426-0.625 0.75-0.813zm1.762 1.61 0.648-0.371v-2.219l-0.703 0.539v-0.352l0.696-0.542 0.394-0.231v2.582l0.645-0.375v0.324l-1.68 0.977zm-10.148 10.844 0.64-0.371v-2.219l-0.695 0.543v-0.36l0.687-0.539 0.395-0.226v2.574l0.641-0.367v0.324l-1.668 0.973zm3.308-4.231c-0.203 0.117-0.355 0.301-0.457 0.567-0.098 0.253-0.156 0.585-0.156 0.98 0 0.402 0.058 0.672 0.156 0.813 0.102 0.14 0.254 0.156 0.457 0.031 0.207-0.117 0.356-0.301 0.461-0.559 0.102-0.262 0.149-0.586 0.149-0.988s-0.047-0.672-0.149-0.809c-0.105-0.14-0.254-0.148-0.461-0.035zm0-0.316c0.324-0.184 0.578-0.2 0.75-0.039 0.168 0.156 0.254 0.48 0.254 0.976 0 0.489-0.086 0.914-0.254 1.266-0.172 0.355-0.426 0.629-0.75 0.82-0.324 0.184-0.574 0.203-0.742 0.039-0.18-0.152-0.262-0.48-0.262-0.965 0-0.496 0.082-0.914 0.262-1.277 0.168-0.355 0.418-0.625 0.742-0.82zm1.77 1.617 0.64-0.371v-2.219l-0.703 0.539v-0.351l0.696-0.543 0.394-0.231v2.582l0.641-0.371v0.324l-1.668 0.965zm3.308-4.227c-0.203 0.114-0.355 0.301-0.457 0.555-0.101 0.262-0.152 0.59-0.152 0.988 0 0.403 0.051 0.668 0.152 0.813 0.102 0.137 0.254 0.148 0.457 0.031 0.199-0.117 0.356-0.301 0.457-0.562 0.098-0.258 0.153-0.59 0.153-0.985 0-0.402-0.055-0.672-0.153-0.812-0.101-0.137-0.258-0.145-0.457-0.028zm0-0.32c0.325-0.184 0.571-0.199 0.75-0.043 0.168 0.16 0.254 0.484 0.254 0.981 0 0.484-0.086 0.91-0.254 1.265-0.179 0.356-0.425 0.629-0.75 0.813-0.324 0.195-0.574 0.207-0.75 0.047-0.172-0.157-0.258-0.481-0.258-0.965 0-0.496 0.086-0.922 0.258-1.278 0.176-0.355 0.426-0.625 0.75-0.82zm1.762 1.609 0.648-0.371v-2.211l-0.703 0.543v-0.355l0.696-0.543 0.394-0.231v2.575l0.645-0.371v0.332l-1.68 0.964z" fill="#000000"/></g></g></g><g fill="#000000"><path d="m279.59 68.012c0 0.34-0.078 0.676-0.238 1.008-0.157 0.332-0.379 0.613-0.664 0.843-0.313 0.25-0.676 0.446-1.094 0.586-0.414 0.137-0.914 0.207-1.5 0.207-0.629 0-1.196-0.058-1.699-0.176-0.5-0.117-1.012-0.289-1.532-0.519v-1.453h0.086c0.442 0.367 0.949 0.648 1.528 0.847 0.578 0.2 1.121 0.301 1.628 0.301 0.719 0 1.278-0.136 1.676-0.406 0.403-0.27 0.602-0.629 0.602-1.078 0-0.387-0.094-0.672-0.285-0.856-0.188-0.179-0.477-0.324-0.86-0.425-0.297-0.079-0.613-0.141-0.957-0.192-0.34-0.051-0.699-0.117-1.082-0.195-0.773-0.164-1.347-0.442-1.722-0.836-0.372-0.398-0.559-0.918-0.559-1.555 0-0.73 0.309-1.328 0.926-1.793 0.617-0.468 1.402-0.703 2.351-0.703 0.61 0 1.172 0.059 1.684 0.176s0.965 0.262 1.359 0.434v1.371h-0.082c-0.332-0.282-0.769-0.512-1.312-0.696-0.539-0.187-1.09-0.281-1.656-0.281-0.622 0-1.122 0.129-1.5 0.387-0.376 0.258-0.563 0.59-0.563 0.996 0 0.363 0.094 0.648 0.281 0.855 0.188 0.207 0.52 0.364 0.992 0.473 0.25 0.055 0.606 0.121 1.063 0.199 0.461 0.078 0.851 0.16 1.172 0.242 0.648 0.172 1.137 0.43 1.465 0.778 0.328 0.347 0.492 0.836 0.492 1.461z"/><path d="m284.77 70.441c-0.207 0.055-0.434 0.102-0.68 0.133-0.242 0.035-0.461 0.055-0.652 0.055-0.668 0-1.176-0.18-1.524-0.539-0.348-0.36-0.519-0.938-0.519-1.731v-3.48h-0.746v-0.926h0.746v-1.879h1.101v1.879h2.274v0.926h-2.274v2.984c0 0.344 8e-3 0.614 0.024 0.809 0.015 0.191 0.07 0.371 0.164 0.539 0.086 0.156 0.203 0.269 0.351 0.344 0.153 0.07 0.383 0.105 0.692 0.105 0.179 0 0.367-0.023 0.562-0.074 0.195-0.055 0.336-0.098 0.422-0.133h0.059z"/><path d="m291.18 70.5h-1.094v-0.695c-0.098 0.066-0.231 0.16-0.398 0.281-0.165 0.117-0.325 0.211-0.481 0.281-0.184 0.09-0.395 0.164-0.633 0.223-0.238 0.062-0.519 0.094-0.84 0.094-0.589 0-1.089-0.196-1.5-0.586-0.41-0.391-0.613-0.891-0.613-1.496 0-0.497 0.106-0.895 0.317-1.2 0.214-0.308 0.519-0.55 0.914-0.726 0.398-0.176 0.875-0.297 1.433-0.36 0.559-0.062 1.16-0.109 1.801-0.14v-0.168c0-0.25-0.047-0.457-0.137-0.621-0.082-0.164-0.207-0.293-0.375-0.387-0.152-0.09-0.344-0.152-0.562-0.184-0.219-0.031-0.446-0.046-0.684-0.046-0.289 0-0.613 0.039-0.969 0.117-0.355 0.074-0.722 0.183-1.101 0.328h-0.059v-1.117c0.215-0.059 0.528-0.125 0.934-0.196 0.406-0.07 0.805-0.105 1.199-0.105 0.461 0 0.863 0.039 1.203 0.117 0.344 0.074 0.641 0.203 0.891 0.387 0.246 0.179 0.433 0.414 0.562 0.699s0.192 0.637 0.192 1.059zm-1.094-1.609v-1.825c-0.336 0.02-0.734 0.051-1.191 0.09-0.454 0.039-0.813 0.094-1.079 0.168-0.316 0.09-0.57 0.231-0.765 0.422-0.196 0.188-0.293 0.449-0.293 0.781 0 0.375 0.113 0.657 0.34 0.848 0.226 0.187 0.57 0.281 1.035 0.281 0.387 0 0.742-0.074 1.062-0.222 0.321-0.153 0.617-0.336 0.891-0.547z"/><path d="m296.7 70.441c-0.207 0.055-0.433 0.102-0.679 0.133-0.243 0.035-0.458 0.055-0.649 0.055-0.668 0-1.176-0.18-1.523-0.539-0.348-0.36-0.524-0.938-0.524-1.731v-3.48h-0.742v-0.926h0.742v-1.879h1.102v1.879h2.273v0.926h-2.273v2.984c0 0.344 0.012 0.614 0.027 0.809 0.016 0.191 0.07 0.371 0.164 0.539 0.086 0.156 0.203 0.269 0.352 0.344 0.152 0.07 0.383 0.105 0.691 0.105 0.18 0 0.367-0.023 0.563-0.074 0.195-0.055 0.336-0.098 0.422-0.133h0.058z"/><path d="m303.51 67.344h-4.82c0 0.402 0.058 0.754 0.179 1.054 0.121 0.297 0.289 0.54 0.5 0.731 0.203 0.187 0.442 0.328 0.719 0.422 0.281 0.094 0.59 0.14 0.926 0.14 0.445 0 0.894-0.086 1.343-0.261 0.454-0.18 0.774-0.356 0.965-0.528h0.059v1.2c-0.371 0.156-0.75 0.285-1.137 0.39-0.387 0.106-0.793 0.16-1.219 0.16-1.085 0-1.933-0.293-2.543-0.879-0.609-0.589-0.914-1.425-0.914-2.507 0-1.071 0.293-1.918 0.875-2.547 0.586-0.629 1.356-0.946 2.309-0.946 0.883 0 1.562 0.258 2.039 0.774 0.481 0.515 0.719 1.25 0.719 2.199zm-1.07-0.844c-4e-3 -0.578-0.153-1.027-0.442-1.344-0.285-0.316-0.719-0.472-1.305-0.472-0.589 0-1.062 0.171-1.414 0.519-0.347 0.348-0.543 0.781-0.589 1.297z"/></g><path d="m60.375 96.375 49.125 48" fill="#000000" stroke="#7300fd" stroke-width="2.7751"/><g transform="matrix(1 .9771 -.9771 1 0 0)"><path d="m131.76 19.124-5.358 3.099v-6.196z" fill="#7300fd" fill-rule="evenodd" stroke="#7300fd" stroke-width=".82611"/></g><g clip-path="url(#s)"><g clip-path="url(#r)"><g><path d="m49.598 91.387 3.925-6.063 12.731-6.445-0.055 22.726-16.601 8.192z" fill="#ffffff"/><path d="m66.652 78.055-1.422 0.738-12.117 6.062-4.082 6.122-0.183 0.246v19.722l1.422-0.738 15.828-7.914 0.554-0.25zm-1.976 3.211v19.543l-13.852 6.925v-15.957l3.649-5.441z" fill="#000000" fill-rule="evenodd"/><path d="m54.094 85.648-3.934 5.676 3.84-1.711z" fill="#ffffff"/><path d="m53.297 85.598v3.648l-3.711 1.852 0.496 0.867 4.207-2.102v-4.265z" fill="#000000" fill-rule="evenodd"/><path d="m52.75 94.438c-0.203 0.117-0.355 0.3-0.457 0.558-0.102 0.262-0.156 0.586-0.156 0.988 0 0.403 0.054 0.672 0.156 0.813 0.102 0.137 0.254 0.144 0.457 0.031 0.199-0.117 0.355-0.305 0.453-0.566 0.102-0.254 0.156-0.586 0.156-0.981 0-0.402-0.054-0.672-0.156-0.812-0.098-0.141-0.254-0.157-0.453-0.031zm0-0.317c0.324-0.183 0.57-0.199 0.742-0.039 0.18 0.156 0.262 0.48 0.262 0.973 0 0.488-0.082 0.914-0.262 1.269-0.172 0.356-0.418 0.625-0.742 0.821-0.324 0.183-0.578 0.199-0.75 0.035-0.172-0.153-0.254-0.477-0.254-0.965 0-0.492 0.082-0.918 0.254-1.274 0.172-0.355 0.426-0.629 0.75-0.82zm1.762 1.617 0.64-0.371v-2.219l-0.695 0.54v-0.356l0.695-0.539 0.395-0.231v2.579l0.641-0.371v0.324l-1.676 0.968zm2.543-1.468 0.64-0.375v-2.215l-0.703 0.539v-0.356l0.696-0.539 0.394-0.226v2.574l0.641-0.367v0.328l-1.668 0.969zm3.308-4.231c-0.203 0.117-0.355 0.301-0.457 0.566-0.101 0.254-0.152 0.586-0.152 0.981 0 0.402 0.051 0.672 0.152 0.812 0.102 0.141 0.254 0.157 0.457 0.032 0.199-0.118 0.356-0.301 0.457-0.567 0.098-0.254 0.153-0.578 0.153-0.98 0-0.403-0.055-0.664-0.153-0.813-0.101-0.14-0.258-0.144-0.457-0.031zm0-0.309c0.325-0.191 0.571-0.207 0.75-0.046 0.168 0.156 0.254 0.48 0.254 0.976 0 0.485-0.086 0.91-0.254 1.266-0.179 0.355-0.425 0.636-0.75 0.82-0.324 0.184-0.574 0.199-0.75 0.039-0.172-0.156-0.258-0.48-0.258-0.965 0-0.496 0.086-0.922 0.258-1.277 0.176-0.355 0.426-0.625 0.75-0.813zm1.762 1.61 0.648-0.371v-2.219l-0.703 0.539v-0.351l0.696-0.543 0.394-0.231v2.582l0.645-0.375v0.324l-1.68 0.977zm-10.148 10.844 0.64-0.372v-2.218l-0.695 0.543v-0.36l0.687-0.539 0.395-0.226v2.574l0.641-0.367v0.324l-1.668 0.973zm3.308-4.231c-0.203 0.117-0.355 0.301-0.457 0.567-0.098 0.253-0.156 0.585-0.156 0.98 0 0.402 0.058 0.672 0.156 0.812 0.102 0.141 0.254 0.157 0.457 0.032 0.207-0.117 0.356-0.301 0.461-0.559 0.102-0.262 0.149-0.586 0.149-0.988s-0.047-0.672-0.149-0.809c-0.105-0.14-0.254-0.148-0.461-0.035zm0-0.316c0.324-0.184 0.578-0.199 0.75-0.039 0.168 0.156 0.254 0.48 0.254 0.976 0 0.488-0.086 0.914-0.254 1.266-0.172 0.355-0.426 0.629-0.75 0.82-0.324 0.184-0.574 0.203-0.742 0.039-0.18-0.152-0.262-0.48-0.262-0.965 0-0.496 0.082-0.914 0.262-1.277 0.168-0.355 0.418-0.625 0.742-0.82zm1.77 1.617 0.64-0.371v-2.219l-0.703 0.539v-0.351l0.696-0.543 0.394-0.231v2.582l0.641-0.371v0.324l-1.668 0.965zm3.308-4.227c-0.203 0.114-0.355 0.301-0.457 0.555-0.101 0.262-0.152 0.59-0.152 0.988 0 0.403 0.051 0.668 0.152 0.813 0.102 0.137 0.254 0.148 0.457 0.031 0.199-0.117 0.356-0.301 0.457-0.562 0.098-0.258 0.153-0.59 0.153-0.985 0-0.402-0.055-0.672-0.153-0.812-0.101-0.137-0.258-0.145-0.457-0.028zm0-0.32c0.325-0.184 0.571-0.199 0.75-0.043 0.168 0.16 0.254 0.484 0.254 0.981 0 0.484-0.086 0.91-0.254 1.265-0.179 0.356-0.425 0.629-0.75 0.813-0.324 0.195-0.574 0.207-0.75 0.047-0.172-0.157-0.258-0.481-0.258-0.965 0-0.496 0.086-0.922 0.258-1.278 0.176-0.355 0.426-0.625 0.75-0.82zm1.762 1.609 0.648-0.371v-2.211l-0.703 0.543v-0.355l0.696-0.543 0.394-0.231v2.575l0.645-0.371v0.332l-1.68 0.964z" fill="#000000"/></g></g></g><path d="m58.875 162.75 49.5-4.875" fill="#000000" stroke="#0025fd" stroke-width="2.7751"/><g transform="matrix(1 -.098485 .098485 1 0 0)"><path d="m96.908 166.93-7.456 4.308 1e-3 -8.621z" fill="#0025fd" fill-rule="evenodd" stroke="#0025fd" stroke-width="1.1494"/></g><g clip-path="url(#q)"><g clip-path="url(#p)"><g><path d="m49.598 154.14 3.925-6.063 12.731-6.445-0.055 22.726-16.601 8.192z" fill="#ffffff"/><path d="m66.652 140.8-1.422 0.738-12.117 6.062-4.082 6.122-0.183 0.246v19.722l1.422-0.738 15.828-7.914 0.554-0.25zm-1.976 3.211v19.543l-13.852 6.925v-15.957l3.649-5.441z" fill="#000000" fill-rule="evenodd"/><path d="m54.094 148.4-3.934 5.676 3.84-1.711z" fill="#ffffff"/><path d="m53.297 148.35v3.648l-3.711 1.852 0.496 0.867 4.207-2.102v-4.265z" fill="#000000" fill-rule="evenodd"/><path d="m52.75 157.19c-0.203 0.117-0.355 0.3-0.457 0.558-0.102 0.262-0.156 0.586-0.156 0.988 0 0.403 0.054 0.672 0.156 0.813 0.102 0.137 0.254 0.144 0.457 0.031 0.199-0.117 0.355-0.305 0.453-0.566 0.102-0.254 0.156-0.586 0.156-0.981 0-0.402-0.054-0.672-0.156-0.812-0.098-0.141-0.254-0.157-0.453-0.031zm0-0.317c0.324-0.183 0.57-0.199 0.742-0.039 0.18 0.156 0.262 0.48 0.262 0.973 0 0.488-0.082 0.914-0.262 1.269-0.172 0.356-0.418 0.625-0.742 0.821-0.324 0.183-0.578 0.199-0.75 0.035-0.172-0.153-0.254-0.477-0.254-0.965 0-0.492 0.082-0.918 0.254-1.274 0.172-0.355 0.426-0.629 0.75-0.82zm1.762 1.617 0.64-0.371v-2.219l-0.695 0.54v-0.356l0.695-0.539 0.395-0.231v2.579l0.641-0.371v0.324l-1.676 0.968zm2.543-1.468 0.64-0.375v-2.215l-0.703 0.539v-0.356l0.696-0.539 0.394-0.226v2.574l0.641-0.367v0.328l-1.668 0.969zm3.308-4.231c-0.203 0.117-0.355 0.301-0.457 0.566-0.101 0.254-0.152 0.586-0.152 0.981 0 0.402 0.051 0.672 0.152 0.812 0.102 0.141 0.254 0.157 0.457 0.032 0.199-0.118 0.356-0.301 0.457-0.567 0.098-0.254 0.153-0.578 0.153-0.98 0-0.403-0.055-0.664-0.153-0.813-0.101-0.14-0.258-0.144-0.457-0.031zm0-0.309c0.325-0.191 0.571-0.207 0.75-0.046 0.168 0.156 0.254 0.48 0.254 0.976 0 0.485-0.086 0.91-0.254 1.266-0.179 0.355-0.425 0.636-0.75 0.82-0.324 0.184-0.574 0.199-0.75 0.039-0.172-0.156-0.258-0.48-0.258-0.965 0-0.496 0.086-0.922 0.258-1.277 0.176-0.355 0.426-0.625 0.75-0.813zm1.762 1.61 0.648-0.371v-2.219l-0.703 0.539v-0.351l0.696-0.543 0.394-0.231v2.582l0.645-0.375v0.324l-1.68 0.977zm-10.148 10.844 0.64-0.372v-2.218l-0.695 0.543v-0.36l0.687-0.539 0.395-0.226v2.574l0.641-0.367v0.324l-1.668 0.973zm3.308-4.231c-0.203 0.117-0.355 0.301-0.457 0.567-0.098 0.253-0.156 0.585-0.156 0.98 0 0.402 0.058 0.672 0.156 0.812 0.102 0.141 0.254 0.157 0.457 0.032 0.207-0.117 0.356-0.301 0.461-0.559 0.102-0.262 0.149-0.586 0.149-0.988s-0.047-0.672-0.149-0.809c-0.105-0.14-0.254-0.148-0.461-0.035zm0-0.316c0.324-0.184 0.578-0.199 0.75-0.039 0.168 0.156 0.254 0.48 0.254 0.976 0 0.488-0.086 0.914-0.254 1.266-0.172 0.355-0.426 0.629-0.75 0.82-0.324 0.184-0.574 0.203-0.742 0.039-0.18-0.152-0.262-0.48-0.262-0.965 0-0.496 0.082-0.914 0.262-1.277 0.168-0.355 0.418-0.625 0.742-0.82zm1.77 1.617 0.64-0.371v-2.219l-0.703 0.539v-0.351l0.696-0.543 0.394-0.231v2.582l0.641-0.371v0.324l-1.668 0.965zm3.308-4.227c-0.203 0.114-0.355 0.301-0.457 0.555-0.101 0.262-0.152 0.59-0.152 0.988 0 0.403 0.051 0.668 0.152 0.813 0.102 0.137 0.254 0.148 0.457 0.031 0.199-0.117 0.356-0.301 0.457-0.562 0.098-0.258 0.153-0.59 0.153-0.985 0-0.402-0.055-0.672-0.153-0.812-0.101-0.137-0.258-0.145-0.457-0.028zm0-0.32c0.325-0.184 0.571-0.199 0.75-0.043 0.168 0.16 0.254 0.484 0.254 0.981 0 0.484-0.086 0.91-0.254 1.265-0.179 0.356-0.425 0.629-0.75 0.813-0.324 0.195-0.574 0.207-0.75 0.047-0.172-0.157-0.258-0.481-0.258-0.965 0-0.496 0.086-0.922 0.258-1.278 0.176-0.355 0.426-0.625 0.75-0.82zm1.762 1.609 0.648-0.371v-2.211l-0.703 0.543v-0.355l0.696-0.543 0.394-0.231v2.575l0.645-0.371v0.332l-1.68 0.964z" fill="#000000"/></g></g></g><path d="m217.5 152.62c21.5-4.875 43-9.75 64.5-14.625" fill="#000000" stroke="#dddd00" stroke-width="2.7751"/><g transform="matrix(1 -.22674 .22674 1 0 0)"><path d="m243.32 192.07-7.309 4.225 1e-3 -8.449z" fill="#dddd00" fill-rule="evenodd" stroke="#dddd00" stroke-width="1.1264"/></g><path d="m217.88 163.12c22 6 44 12 66 18" fill="#000000" stroke="#fd6200" stroke-width="2.7751"/><g transform="matrix(1 .27273 -.27273 1 0 0)"><path d="m315.02 96.526-7.228 4.179 1e-3 -8.36z" fill="#fd6200" fill-rule="evenodd" stroke="#fd6200" stroke-width="1.1143"/></g><g clip-path="url(#o)"><g clip-path="url(#n)"><g clip-path="url(#m)"><g clip-path="url(#l)"><g transform="matrix(1 .19034 .19032 -.99601 0 0)" stroke="#000000"><path d="m178.27-43.233c1.98-1.991 1.261-5.826 0.211-8.643-1.337-3.585-4.137-6.481-4.676-10.404-0.435-3.193 0.849-6.329 2.919-8.69 1.377-1.569 3.959-5.201 2.336-5.684-0.34-0.1-2.331 3.712-3.725 5.226-2.32 2.522-3.084 6.764-2.823 9.54 0.281 2.995 2.76 6.002 4.103 8.589 0.881 1.694 1.374 3.557 1.529 5.433 0.082 1.024-0.311 2.023-0.78 2.93-0.321 0.617 0.346 2.266 0.906 1.703z" fill="#985a11" stroke-width=".12798"/><g fill="none" stroke-width=".11563"><path d="m177.35-44.92c0.088 0.335 1.019 1.195 1.275 1.326"/><path d="m177.82-45.881c0.088 0.335 1.044 1.227 1.301 1.355"/><path d="m178.05-46.714c0.089 0.334 1.045 1.223 1.301 1.354"/><path d="m178.15-47.896c0.089 0.335 1.082 1.195 1.338 1.326"/><path d="m178-48.979c0.169 0.302 1.175 0.91 1.456 0.972"/><path d="m177.83-49.95c0.257 0.229 1.108 0.643 1.392 0.607"/><path d="m177.62-50.798c0.261 0.23 1.128 0.682 1.416 0.647"/><path d="m177.32-51.695c0.262 0.226 1.101 0.555 1.444 0.519"/><path d="m176.93-52.695c0.261 0.23 1.127 0.545 1.411 0.509"/><path d="m176.39-53.716c0.261 0.231 1.218 0.578 1.502 0.542"/><path d="m175.84-54.675c0.262 0.226 1.282 0.59 1.567 0.554"/><path d="m175.27-55.585c0.258 0.226 1.305 0.43 1.589 0.394"/><path d="m174.71-56.499c0.262 0.227 1.272 0.361 1.56 0.326"/><path d="m174.14-57.513c0.258 0.226 1.305 0.367 1.589 0.331"/><path d="m173.65-58.444c0.257 0.23 1.306 0.363 1.59 0.328"/><path d="m173.12-59.541c0.261 0.23 1.285 0.41 1.569 0.374"/><path d="m172.74-60.625c0.258 0.226 1.273 0.412 1.557 0.376"/><path d="m172.53-61.665c0.257 0.226 1.184 0.427 1.468 0.391"/><path d="m172.48-62.636c0.257 0.229 1.026 0.38 1.31 0.344"/><path d="m172.5-64.082c0.048 0.342 0.937 0.971 1.237 1.013"/><path d="m172.66-65.46c0.052 0.343 0.799 1.055 1.067 1.126"/><path d="m172.97-66.739c0.048 0.343 0.704 1.084 0.943 1.243"/><path d="m173.31-67.964c0.051 0.343 0.698 1.114 0.938 1.27"/><path d="m173.79-69.111c0.049 0.343 0.68 1.087 0.924 1.244"/><path d="m174.4-70.147c0.048 0.343 0.585 1.112 0.825 1.268"/><path d="m174.99-71.027c0.052 0.343 0.64 0.989 0.879 1.148"/><path d="m175.68-71.891c0.048 0.342 0.575 1.02 0.819 1.176"/><path d="m176.39-72.823c0.052 0.344 0.627 1.058 0.867 1.217"/><path d="m177.07-73.814c0.049 0.339 0.638 1.083 0.878 1.238"/><path d="m177.66-74.791c0.048 0.342 0.7 1.122 0.94 1.278"/><path d="m178.42-75.946c0.051 0.343 0.547 1.211 0.786 1.37"/></g></g></g></g></g><g clip-path="url(#k)"><g clip-path="url(#j)"><g clip-path="url(#i)"><g clip-path="url(#h)"><g clip-path="url(#g)"><g clip-path="url(#f)"><path d="m145 8.293h49.367v102.24h-49.367z" fill="url(#a)"/></g></g></g></g></g></g><g clip-path="url(#e)"><g clip-path="url(#d)"><g clip-path="url(#c)"><g transform="scale(-1)"><path d="m-177.85-87.777-16.273 16.222 0.039 62.977 48.828-0.02-0.023-62.976-16.289-16.211zm8.145 7.304c1.406 0 2.543 1.149 2.543 2.559 4e-3 1.41-1.137 2.551-2.543 2.555-1.406 0-2.551-1.141-2.551-2.551s1.145-2.563 2.547-2.563z" fill="none" stroke="url(#b)" stroke-width=".49708"/></g><g transform="scale(-1)"><path d="m-169.69-82.691c-2.531 3e-3 -4.585 2.066-4.585 4.605 3e-3 2.539 2.058 4.594 4.589 4.594 2.532 0 4.582-2.059 4.579-4.598 0-2.539-2.051-4.601-4.583-4.601zm0 2.398c1.211 0 2.196 0.992 2.196 2.203 0 1.215-0.981 2.203-2.192 2.203s-2.199-0.984-2.199-2.199c-4e-3 -1.215 0.985-2.207 2.195-2.207z" fill="#ffcc66" stroke="#000000" stroke-linecap="square" stroke-width=".31369"/></g><g transform="matrix(-1 .16631 -.16697 -.99608 0 0)" stroke="#000000"><path d="m-152.24-102.51c1.986-1.998 1.266-5.851 0.21-8.675-1.34-3.6-4.155-6.513-4.693-10.45-0.442-3.203 0.85-6.352 2.929-8.723 1.385-1.577 3.978-5.222 2.344-5.707-0.339-0.1-2.341 3.727-3.74 5.247-2.329 2.532-3.098 6.792-2.833 9.578 0.283 3.008 2.766 6.03 4.118 8.625 0.888 1.701 1.381 3.567 1.535 5.456 0.082 1.025-0.312 2.03-0.784 2.94-0.319 0.621 0.351 2.274 0.914 1.709z" fill="#985a11" stroke-width=".12851"/><g fill="none" stroke-width=".1161"><path d="m-153.16-104.2c0.085 0.335 1.023 1.198 1.278 1.331"/><path d="m-152.69-105.16c0.088 0.336 1.044 1.229 1.304 1.359"/><path d="m-152.45-106c0.089 0.336 1.049 1.23 1.304 1.363"/><path d="m-152.36-107.19c0.089 0.336 1.084 1.205 1.34 1.334"/><path d="m-152.51-108.28c0.167 0.307 1.179 0.915 1.462 0.978"/><path d="m-152.68-109.25c0.258 0.231 1.111 0.644 1.398 0.609"/><path d="m-152.89-110.1c0.258 0.227 1.132 0.683 1.419 0.648"/><path d="m-153.2-111c0.259 0.228 1.106 0.557 1.448 0.524"/><path d="m-153.59-112.01c0.262 0.232 1.131 0.549 1.418 0.515"/><path d="m-154.13-113.03c0.259 0.232 1.22 0.58 1.507 0.546"/><path d="m-154.68-113.99c0.259 0.227 1.284 0.591 1.571 0.556"/><path d="m-155.26-114.91c0.258 0.231 1.31 0.434 1.598 0.396"/><path d="m-155.81-115.82c0.258 0.227 1.279 0.362 1.563 0.323"/><path d="m-156.38-116.84c0.258 0.231 1.309 0.371 1.596 0.337"/><path d="m-156.88-117.78c0.258 0.231 1.31 0.364 1.598 0.326"/><path d="m-157.41-118.88c0.259 0.227 1.29 0.411 1.578 0.373"/><path d="m-157.79-119.97c0.262 0.232 1.278 0.417 1.565 0.383"/><path d="m-158-121.01c0.262 0.232 1.19 0.43 1.478 0.392"/><path d="m-158.06-121.99c0.259 0.231 1.026 0.383 1.313 0.349"/><path d="m-158.03-123.44c0.047 0.345 0.943 0.973 1.244 1.015"/><path d="m-157.87-124.82c0.052 0.342 0.804 1.055 1.073 1.128"/><path d="m-157.56-126.11c0.051 0.346 0.704 1.09 0.947 1.249"/><path d="m-157.22-127.34c0.052 0.346 0.7 1.12 0.943 1.279"/><path d="m-156.74-128.48c0.049 0.342 0.685 1.091 0.929 1.249"/><path d="m-156.12-129.53c0.048 0.341 0.587 1.114 0.827 1.271"/><path d="m-155.53-130.41c0.049 0.341 0.639 0.993 0.882 1.151"/><path d="m-154.84-131.28c0.049 0.341 0.58 1.022 0.823 1.18"/><path d="m-154.12-132.21c0.049 0.342 0.628 1.062 0.871 1.22"/><path d="m-153.44-133.21c0.048 0.345 0.639 1.087 0.882 1.245"/><path d="m-152.85-134.19c0.049 0.341 0.704 1.121 0.947 1.28"/><path d="m-152.09-135.35c0.048 0.341 0.546 1.217 0.786 1.374"/></g></g></g></g></g></g><path d="m114.56 138.16v70.125h107.25v-70.125h-10.917c0.011 0.363 0.015 0.731 0.015 1.094 0 23.597-19.129 42.722-42.722 42.722-23.594 0-42.723-19.125-42.723-42.722 8e-3 -0.363 0.023-0.731 0.043-1.094z" fill="#000000"/><g fill="#ffffff"><path d="m148.16 191.04h-5.75v-8.727h5.75v1.032h-4.586v2.39h4.586v1.032h-4.586v3.242h4.586z"/><path d="m155.58 191.04h-1.387l-1.859-2.516-1.867 2.516h-1.285l2.554-3.266-2.531-3.281h1.387l1.848 2.473 1.851-2.473h1.289l-2.574 3.223z"/><path d="m162.35 187.88h-4.825c0 0.402 0.063 0.754 0.184 1.055 0.121 0.296 0.289 0.543 0.5 0.734 0.203 0.184 0.441 0.324 0.719 0.422 0.281 0.094 0.59 0.14 0.925 0.14 0.446 0 0.895-0.089 1.344-0.265 0.453-0.18 0.774-0.356 0.965-0.527h0.059v1.203c-0.371 0.156-0.75 0.285-1.137 0.39-0.387 0.106-0.793 0.16-1.219 0.16-1.086 0-1.933-0.293-2.543-0.879-0.609-0.589-0.914-1.425-0.914-2.507 0-1.071 0.293-1.922 0.875-2.551 0.586-0.629 1.356-0.942 2.309-0.942 0.883 0 1.562 0.258 2.039 0.774 0.48 0.516 0.719 1.246 0.719 2.195zm-1.075-0.844c0-0.578-0.148-1.023-0.437-1.34-0.285-0.316-0.723-0.476-1.309-0.476-0.59 0-1.058 0.176-1.41 0.523-0.348 0.348-0.547 0.778-0.594 1.293z"/><path d="m168.86 190.63c-0.367 0.176-0.714 0.312-1.047 0.41-0.328 0.098-0.679 0.145-1.05 0.145-0.473 0-0.907-0.067-1.301-0.207-0.395-0.141-0.731-0.352-1.012-0.633-0.285-0.282-0.508-0.637-0.664-1.067-0.156-0.429-0.234-0.929-0.234-1.504 0-1.07 0.293-1.91 0.879-2.519 0.59-0.609 1.367-0.914 2.332-0.914 0.375 0 0.742 0.051 1.101 0.156 0.364 0.106 0.696 0.234 0.996 0.387v1.226h-0.058c-0.336-0.261-0.684-0.464-1.043-0.605-0.356-0.141-0.703-0.211-1.043-0.211-0.625 0-1.117 0.211-1.481 0.633-0.359 0.418-0.539 1.035-0.539 1.847 0 0.789 0.176 1.395 0.528 1.821 0.355 0.422 0.851 0.633 1.492 0.633 0.223 0 0.449-0.028 0.68-0.086 0.23-0.059 0.437-0.137 0.621-0.227 0.16-0.082 0.312-0.168 0.453-0.258 0.14-0.094 0.25-0.176 0.332-0.242h0.058z"/><path d="m175.7 191.04h-1.101v-0.727c-0.371 0.293-0.727 0.516-1.067 0.672-0.34 0.157-0.715 0.235-1.125 0.235-0.687 0-1.222-0.207-1.605-0.625-0.383-0.422-0.574-1.039-0.574-1.852v-4.25h1.101v3.727c0 0.332 0.016 0.617 0.047 0.855 0.031 0.235 0.098 0.438 0.199 0.606 0.106 0.168 0.242 0.293 0.41 0.375 0.168 0.074 0.411 0.113 0.731 0.113 0.285 0 0.597-0.074 0.933-0.223 0.34-0.148 0.657-0.336 0.95-0.566v-4.887h1.101z"/><path d="m181.27 190.98c-0.207 0.051-0.434 0.098-0.68 0.133-0.242 0.035-0.461 0.055-0.652 0.055-0.668 0-1.176-0.18-1.524-0.539s-0.519-0.938-0.519-1.731v-3.48h-0.746v-0.926h0.746v-1.879h1.101v1.879h2.274v0.926h-2.274v2.984c0 0.344 8e-3 0.614 0.024 0.809 0.015 0.191 0.07 0.371 0.164 0.539 0.086 0.156 0.203 0.27 0.351 0.344 0.153 0.07 0.383 0.105 0.692 0.105 0.179 0 0.367-0.023 0.562-0.074 0.195-0.055 0.336-0.102 0.422-0.137h0.059z"/><path d="m188.17 187.77c0 1.066-0.274 1.906-0.82 2.523-0.547 0.617-1.278 0.926-2.196 0.926-0.926 0-1.664-0.309-2.211-0.926-0.543-0.617-0.812-1.457-0.812-2.523 0-1.067 0.269-1.911 0.812-2.528 0.547-0.621 1.285-0.93 2.211-0.93 0.918 0 1.649 0.309 2.196 0.93 0.546 0.617 0.82 1.461 0.82 2.528zm-1.137 0c0-0.848-0.164-1.477-0.496-1.887-0.332-0.414-0.793-0.621-1.383-0.621-0.597 0-1.062 0.207-1.394 0.621-0.328 0.41-0.492 1.039-0.492 1.887 0 0.82 0.164 1.441 0.496 1.867 0.332 0.422 0.796 0.633 1.39 0.633 0.586 0 1.043-0.208 1.375-0.625 0.336-0.422 0.504-1.047 0.504-1.875z"/><path d="m193.96 185.7h-0.059c-0.164-0.043-0.324-0.066-0.48-0.082-0.152-0.019-0.332-0.031-0.543-0.031-0.34 0-0.668 0.078-0.984 0.23-0.317 0.149-0.622 0.34-0.915 0.579v4.648h-1.101v-6.547h1.101v0.969c0.438-0.352 0.821-0.602 1.153-0.746 0.336-0.149 0.679-0.223 1.027-0.223 0.192 0 0.328 4e-3 0.414 0.016 0.086 8e-3 0.215 0.027 0.387 0.054z"/><path d="m148.7 198.34h-4.41v2.461h3.789v1.031h-3.789v4.203h-1.16v-8.727h5.57z"/><path d="m155.37 206.04h-1.101v-0.727c-0.371 0.293-0.727 0.516-1.067 0.672-0.34 0.157-0.715 0.235-1.125 0.235-0.687 0-1.222-0.207-1.605-0.625-0.383-0.422-0.574-1.039-0.574-1.852v-4.25h1.101v3.727c0 0.332 0.016 0.617 0.047 0.855 0.031 0.235 0.098 0.438 0.199 0.606 0.106 0.168 0.242 0.293 0.41 0.375 0.168 0.078 0.41 0.113 0.731 0.113 0.285 0 0.597-0.074 0.933-0.223 0.34-0.148 0.657-0.336 0.95-0.566v-4.887h1.101z"/><path d="m163.01 206.04h-1.102v-3.727c0-0.3-0.019-0.582-0.051-0.843-0.035-0.266-0.101-0.473-0.195-0.621-0.098-0.164-0.238-0.286-0.422-0.364-0.183-0.082-0.422-0.125-0.715-0.125-0.3 0-0.613 0.075-0.941 0.223s-0.644 0.34-0.945 0.57v4.887h-1.102v-6.547h1.102v0.727c0.343-0.285 0.699-0.508 1.066-0.668s0.742-0.239 1.129-0.239c0.707 0 1.246 0.211 1.617 0.637s0.559 1.039 0.559 1.84z"/><path d="m169.97 205.63c-0.367 0.172-0.719 0.309-1.051 0.41-0.328 0.098-0.676 0.145-1.047 0.145-0.473 0-0.906-0.067-1.301-0.204-0.394-0.14-0.734-0.351-1.015-0.632-0.285-0.282-0.504-0.637-0.66-1.067-0.157-0.429-0.235-0.933-0.235-1.508 0-1.07 0.293-1.91 0.879-2.519 0.59-0.609 1.367-0.914 2.332-0.914 0.375 0 0.742 0.055 1.102 0.16 0.363 0.105 0.695 0.234 0.996 0.387v1.222h-0.059c-0.336-0.261-0.683-0.461-1.043-0.601-0.355-0.141-0.703-0.211-1.043-0.211-0.625 0-1.121 0.211-1.484 0.633-0.36 0.418-0.539 1.031-0.539 1.843 0 0.789 0.176 1.399 0.527 1.825 0.356 0.422 0.856 0.632 1.496 0.632 0.223 0 0.449-0.031 0.68-0.089 0.23-0.059 0.437-0.133 0.621-0.227 0.16-0.082 0.309-0.168 0.449-0.258 0.141-0.094 0.254-0.176 0.336-0.242h0.059z"/><path d="m174.78 205.98c-0.207 0.051-0.433 0.098-0.679 0.133-0.243 0.035-0.457 0.051-0.649 0.051-0.668 0-1.176-0.18-1.523-0.539-0.348-0.359-0.524-0.934-0.524-1.727v-3.48h-0.742v-0.926h0.742v-1.883h1.102v1.883h2.273v0.926h-2.273v2.98c0 0.344 8e-3 0.614 0.023 0.809 0.016 0.191 0.071 0.371 0.164 0.539 0.086 0.156 0.204 0.274 0.352 0.348 0.152 0.07 0.383 0.105 0.691 0.105 0.18 0 0.368-0.027 0.563-0.078 0.195-0.055 0.336-0.098 0.422-0.133h0.058z"/><path d="m177.29 198.4h-1.242v-1.144h1.242zm-0.07 7.641h-1.102v-6.547h1.102z"/><path d="m184.98 202.77c0 1.066-0.273 1.906-0.82 2.523s-1.281 0.926-2.199 0.926c-0.926 0-1.66-0.309-2.207-0.926-0.543-0.617-0.816-1.457-0.816-2.523 0-1.067 0.273-1.911 0.816-2.528 0.547-0.621 1.281-0.93 2.207-0.93 0.918 0 1.652 0.309 2.199 0.93 0.547 0.617 0.82 1.461 0.82 2.528zm-1.136 0c0-0.848-0.168-1.477-0.5-1.887-0.332-0.414-0.793-0.621-1.383-0.621-0.598 0-1.063 0.207-1.395 0.621-0.328 0.41-0.492 1.039-0.492 1.887 0 0.82 0.168 1.441 0.5 1.867 0.332 0.422 0.793 0.633 1.387 0.633 0.586 0 1.047-0.208 1.379-0.625 0.336-0.422 0.504-1.047 0.504-1.875z"/><path d="m192.16 206.04h-1.101v-3.727c0-0.3-0.016-0.582-0.051-0.843-0.035-0.266-0.102-0.473-0.192-0.621-0.101-0.164-0.242-0.286-0.421-0.364-0.184-0.082-0.422-0.125-0.715-0.125-0.301 0-0.617 0.075-0.946 0.223-0.328 0.148-0.64 0.34-0.941 0.57v4.887h-1.101v-6.547h1.101v0.727c0.344-0.285 0.699-0.508 1.066-0.668 0.368-0.16 0.743-0.239 1.129-0.239 0.707 0 1.246 0.211 1.618 0.637 0.371 0.426 0.558 1.039 0.558 1.84z"/></g><path d="m205.66 139.26c0 20.695-16.777 37.472-37.472 37.472-20.696 0-37.473-16.777-37.473-37.472 0-20.696 16.777-37.469 37.473-37.469 20.695 0 37.472 16.773 37.472 37.469z" fill="#000000"/><g fill="#ffffff"><path d="m141.83 135.72h-3.117v7.695h-1.16v-7.695h-3.117v-1.031h7.394z"/><path d="m145.82 138.07h-0.058c-0.164-0.039-0.325-0.066-0.481-0.082-0.152-0.019-0.332-0.031-0.543-0.031-0.34 0-0.668 0.078-0.984 0.231-0.317 0.148-0.621 0.339-0.914 0.578v4.648h-1.102v-6.547h1.102v0.969c0.437-0.352 0.82-0.602 1.152-0.746 0.336-0.149 0.68-0.223 1.027-0.223 0.192 0 0.329 4e-3 0.415 0.016 0.085 8e-3 0.214 0.027 0.386 0.055z"/><path d="m151.74 143.41h-1.097v-0.699c-0.098 0.066-0.231 0.16-0.399 0.281-0.164 0.117-0.324 0.211-0.48 0.281-0.184 0.09-0.395 0.164-0.633 0.223-0.238 0.062-0.516 0.094-0.836 0.094-0.59 0-1.09-0.196-1.5-0.586-0.41-0.391-0.617-0.891-0.617-1.496 0-0.496 0.105-0.895 0.316-1.2 0.215-0.308 0.52-0.55 0.914-0.726 0.399-0.176 0.879-0.297 1.438-0.359 0.558-0.063 1.156-0.11 1.797-0.141v-0.168c0-0.25-0.043-0.457-0.133-0.621-0.086-0.164-0.211-0.293-0.375-0.387-0.156-0.09-0.344-0.148-0.563-0.183-0.218-0.028-0.449-0.043-0.687-0.043-0.289 0-0.61 0.039-0.965 0.113-0.356 0.078-0.723 0.187-1.102 0.328h-0.058v-1.117c0.215-0.059 0.523-0.121 0.93-0.192 0.406-0.07 0.808-0.105 1.203-0.105 0.461 0 0.859 0.039 1.199 0.113 0.344 0.074 0.64 0.203 0.89 0.387 0.247 0.18 0.434 0.414 0.563 0.699s0.195 0.637 0.195 1.059zm-1.097-1.613v-1.821c-0.336 0.02-0.731 0.047-1.188 0.086-0.453 0.039-0.812 0.098-1.078 0.168-0.316 0.094-0.574 0.235-0.77 0.422-0.195 0.188-0.293 0.449-0.293 0.782 0 0.374 0.114 0.656 0.34 0.847 0.227 0.188 0.575 0.281 1.039 0.281 0.387 0 0.739-0.074 1.059-0.218 0.32-0.153 0.617-0.336 0.891-0.547z"/><path d="m159.33 143.41h-1.102v-3.726c0-0.301-0.019-0.583-0.054-0.844-0.035-0.266-0.098-0.473-0.192-0.621-0.097-0.164-0.238-0.285-0.422-0.364-0.183-0.082-0.421-0.125-0.714-0.125-0.301 0-0.618 0.075-0.946 0.223s-0.64 0.34-0.941 0.57v4.887h-1.102v-6.547h1.102v0.727c0.344-0.285 0.699-0.508 1.066-0.668 0.368-0.16 0.743-0.238 1.129-0.238 0.707 0 1.246 0.21 1.617 0.636 0.372 0.426 0.559 1.039 0.559 1.84z"/><path d="m166.13 141.53c0 0.598-0.25 1.086-0.746 1.469-0.492 0.383-1.164 0.574-2.02 0.574-0.484 0-0.929-0.054-1.336-0.172-0.402-0.117-0.742-0.242-1.015-0.378v-1.239h0.058c0.348 0.262 0.735 0.473 1.16 0.629 0.426 0.152 0.836 0.227 1.227 0.227 0.484 0 0.863-0.078 1.137-0.235 0.273-0.156 0.41-0.402 0.41-0.738 0-0.258-0.074-0.453-0.223-0.586-0.148-0.133-0.433-0.246-0.855-0.34-0.156-0.035-0.364-0.074-0.617-0.121-0.25-0.047-0.477-0.097-0.684-0.152-0.574-0.153-0.984-0.375-1.227-0.668-0.238-0.297-0.355-0.66-0.355-1.09 0-0.269 0.055-0.523 0.164-0.762 0.113-0.238 0.281-0.453 0.508-0.636 0.219-0.188 0.496-0.332 0.832-0.438 0.34-0.109 0.719-0.164 1.137-0.164 0.39 0 0.785 0.051 1.183 0.148 0.403 0.094 0.738 0.207 1.004 0.348v1.176h-0.059c-0.281-0.207-0.624-0.383-1.027-0.52-0.402-0.148-0.797-0.218-1.183-0.218-0.403 0-0.743 0.078-1.02 0.234-0.277 0.152-0.414 0.379-0.414 0.687 0 0.266 0.082 0.469 0.25 0.61 0.164 0.137 0.43 0.246 0.797 0.332 0.203 0.047 0.43 0.094 0.68 0.141 0.253 0.046 0.464 0.089 0.632 0.128 0.512 0.118 0.907 0.321 1.184 0.606 0.277 0.289 0.418 0.672 0.418 1.148z"/><path d="m172.79 143.41h-1.094v-0.699c-0.097 0.066-0.23 0.16-0.398 0.281-0.164 0.117-0.324 0.211-0.481 0.281-0.183 0.09-0.394 0.164-0.632 0.223-0.239 0.062-0.52 0.094-0.84 0.094-0.59 0-1.09-0.196-1.5-0.586-0.41-0.391-0.614-0.891-0.614-1.496 0-0.496 0.106-0.895 0.317-1.2 0.215-0.308 0.519-0.55 0.914-0.726 0.398-0.176 0.875-0.297 1.434-0.359 0.558-0.063 1.16-0.11 1.8-0.141v-0.168c0-0.25-0.047-0.457-0.136-0.621-0.086-0.164-0.211-0.293-0.375-0.387-0.157-0.09-0.344-0.148-0.563-0.183-0.219-0.028-0.445-0.043-0.683-0.043-0.29 0-0.614 0.039-0.969 0.113-0.356 0.078-0.723 0.187-1.102 0.328h-0.058v-1.117c0.214-0.059 0.527-0.121 0.933-0.192 0.406-0.07 0.805-0.105 1.199-0.105 0.461 0 0.864 0.039 1.204 0.113 0.343 0.074 0.64 0.203 0.89 0.387 0.246 0.18 0.434 0.414 0.563 0.699s0.191 0.637 0.191 1.059zm-1.094-1.613v-1.821c-0.336 0.02-0.734 0.047-1.191 0.086-0.453 0.039-0.813 0.098-1.078 0.168-0.317 0.094-0.571 0.235-0.766 0.422-0.195 0.188-0.293 0.449-0.293 0.782 0 0.374 0.113 0.656 0.34 0.847 0.227 0.188 0.57 0.281 1.035 0.281 0.387 0 0.742-0.074 1.063-0.218 0.32-0.153 0.617-0.336 0.89-0.547z"/><path d="m179.75 143c-0.367 0.176-0.715 0.312-1.047 0.41-0.328 0.098-0.68 0.145-1.051 0.145-0.472 0-0.906-0.067-1.3-0.204-0.395-0.14-0.731-0.351-1.012-0.632-0.285-0.282-0.508-0.637-0.664-1.067-0.156-0.429-0.235-0.933-0.235-1.508 0-1.07 0.293-1.91 0.879-2.519 0.59-0.609 1.368-0.914 2.332-0.914 0.375 0 0.743 0.055 1.102 0.16 0.363 0.105 0.695 0.234 0.996 0.387v1.222h-0.059c-0.336-0.261-0.683-0.461-1.043-0.601-0.355-0.141-0.703-0.211-1.043-0.211-0.625 0-1.117 0.211-1.48 0.633-0.359 0.418-0.539 1.031-0.539 1.843 0 0.79 0.176 1.399 0.527 1.825 0.356 0.422 0.852 0.632 1.492 0.632 0.223 0 0.45-0.031 0.68-0.089 0.231-0.059 0.438-0.133 0.621-0.227 0.16-0.082 0.313-0.168 0.453-0.258 0.141-0.093 0.25-0.176 0.332-0.242h0.059z"/><path d="m184.56 143.36c-0.207 0.055-0.433 0.098-0.679 0.133-0.242 0.035-0.461 0.051-0.653 0.051-0.668 0-1.175-0.18-1.523-0.539s-0.519-0.934-0.519-1.727v-3.48h-0.747v-0.926h0.747v-1.883h1.101v1.883h2.273v0.926h-2.273v2.98c0 0.344 8e-3 0.614 0.023 0.809 0.012 0.191 0.067 0.371 0.165 0.539 0.085 0.16 0.203 0.274 0.351 0.348 0.152 0.07 0.383 0.105 0.692 0.105 0.179 0 0.367-0.027 0.562-0.078 0.195-0.055 0.336-0.098 0.422-0.133h0.058z"/><path d="m187.07 135.77h-1.242v-1.144h1.242zm-0.07 7.641h-1.102v-6.547h1.102z"/><path d="m194.76 140.14c0 1.066-0.274 1.906-0.821 2.523-0.546 0.617-1.277 0.926-2.195 0.926-0.926 0-1.664-0.309-2.211-0.926-0.543-0.617-0.812-1.457-0.812-2.523 0-1.067 0.269-1.911 0.812-2.528 0.547-0.621 1.285-0.929 2.211-0.929 0.918 0 1.649 0.308 2.195 0.929 0.547 0.617 0.821 1.461 0.821 2.528zm-1.137 0c0-0.848-0.164-1.477-0.496-1.887-0.332-0.414-0.793-0.621-1.383-0.621-0.598 0-1.062 0.207-1.394 0.621-0.329 0.41-0.493 1.039-0.493 1.887 0 0.82 0.164 1.441 0.496 1.867 0.333 0.422 0.797 0.633 1.391 0.633 0.586 0 1.043-0.207 1.375-0.625 0.336-0.422 0.504-1.047 0.504-1.875z"/><path d="m201.94 143.41h-1.101v-3.726c0-0.301-0.02-0.583-0.055-0.844-0.035-0.266-0.097-0.473-0.191-0.621-0.098-0.164-0.239-0.285-0.422-0.364-0.184-0.082-0.422-0.125-0.715-0.125-0.301 0-0.617 0.075-0.945 0.223s-0.641 0.34-0.942 0.57v4.887h-1.101v-6.547h1.101v0.727c0.344-0.285 0.7-0.508 1.067-0.668s0.742-0.238 1.129-0.238c0.707 0 1.246 0.21 1.617 0.636s0.558 1.039 0.558 1.84z"/></g><g fill="#000000"><path d="m156.81 43.492-1.707 6.547h-1.019l-1.68-5.047-1.672 5.047h-1.011l-1.723-6.547h1.148l1.2 5.07 1.636-5.07h0.907l1.675 5.07 1.137-5.07z"/><path d="m162.48 44.695h-0.058c-0.164-0.039-0.324-0.066-0.481-0.082-0.152-0.019-0.336-0.031-0.547-0.031-0.339 0-0.668 0.078-0.984 0.23-0.316 0.149-0.621 0.34-0.914 0.579v4.648h-1.102v-6.547h1.102v0.969c0.438-0.352 0.824-0.602 1.156-0.746 0.336-0.149 0.676-0.223 1.024-0.223 0.191 0 0.332 8e-3 0.418 0.02 0.086 4e-3 0.214 0.023 0.386 0.05z"/><path d="m164.7 42.398h-1.242v-1.144h1.242zm-0.07 7.641h-1.102v-6.547h1.102z"/><path d="m170.21 49.98c-0.207 0.055-0.434 0.098-0.68 0.133-0.242 0.035-0.457 0.055-0.648 0.055-0.668 0-1.176-0.18-1.524-0.539-0.347-0.359-0.523-0.938-0.523-1.731v-3.48h-0.742v-0.926h0.742v-1.879h1.102v1.879h2.273v0.926h-2.273v2.984c0 0.344 7e-3 0.614 0.023 0.809 0.016 0.191 0.07 0.371 0.164 0.539 0.086 0.156 0.203 0.27 0.352 0.344 0.152 0.07 0.382 0.105 0.691 0.105 0.18 0 0.367-0.023 0.562-0.074 0.196-0.055 0.336-0.102 0.422-0.137h0.059z"/><path d="m177.02 46.879h-4.821c0 0.402 0.059 0.754 0.18 1.055 0.121 0.296 0.289 0.543 0.5 0.734 0.203 0.187 0.441 0.328 0.719 0.422 0.281 0.094 0.59 0.14 0.925 0.14 0.446 0 0.895-0.089 1.344-0.265 0.453-0.18 0.774-0.356 0.965-0.527h0.059v1.203c-0.371 0.156-0.75 0.285-1.137 0.39-0.387 0.106-0.793 0.16-1.219 0.16-1.086 0-1.933-0.293-2.543-0.879-0.609-0.589-0.914-1.425-0.914-2.507 0-1.071 0.293-1.922 0.875-2.551 0.586-0.629 1.356-0.942 2.309-0.942 0.883 0 1.562 0.258 2.039 0.774 0.48 0.516 0.719 1.246 0.719 2.195zm-1.071-0.844c-4e-3 -0.578-0.152-1.023-0.441-1.34-0.285-0.316-0.719-0.476-1.305-0.476-0.59 0-1.062 0.176-1.414 0.523-0.348 0.348-0.543 0.778-0.59 1.293z"/><path d="m181.04 45.164h-1.402v-1.672h1.402zm0 4.875h-1.402v-1.672h1.402z"/><path d="m152.74 13.57h-0.058c-0.164-0.039-0.325-0.066-0.481-0.082-0.152-0.019-0.332-0.031-0.547-0.031-0.34 0-0.668 0.078-0.984 0.231-0.317 0.148-0.621 0.339-0.914 0.578v4.648h-1.102v-6.547h1.102v0.969c0.437-0.352 0.824-0.602 1.156-0.746 0.336-0.149 0.676-0.223 1.024-0.223 0.191 0 0.332 8e-3 0.417 0.02 0.086 8e-3 0.215 0.023 0.387 0.051z"/><path d="m159.26 15.754h-4.824c0 0.402 0.062 0.754 0.183 1.055 0.121 0.296 0.285 0.543 0.496 0.734 0.203 0.187 0.446 0.328 0.723 0.422 0.281 0.094 0.59 0.14 0.926 0.14 0.445 0 0.89-0.089 1.34-0.265 0.453-0.18 0.777-0.356 0.968-0.528h0.059v1.204c-0.371 0.156-0.75 0.285-1.137 0.39-0.387 0.106-0.793 0.16-1.219 0.16-1.085 0-1.933-0.293-2.543-0.878-0.609-0.59-0.914-1.426-0.914-2.508 0-1.071 0.289-1.922 0.872-2.551 0.585-0.629 1.355-0.941 2.308-0.941 0.883 0 1.563 0.257 2.039 0.773 0.481 0.516 0.723 1.246 0.723 2.195zm-1.074-0.844c-4e-3 -0.578-0.149-1.023-0.438-1.34-0.285-0.316-0.723-0.476-1.308-0.476-0.59 0-1.059 0.176-1.411 0.523-0.347 0.348-0.547 0.778-0.593 1.293z"/><path d="m166.01 18.914h-1.094v-0.699c-0.098 0.066-0.23 0.16-0.398 0.281-0.165 0.117-0.325 0.211-0.481 0.281-0.184 0.09-0.394 0.164-0.633 0.223-0.238 0.062-0.519 0.094-0.84 0.094-0.589 0-1.089-0.196-1.5-0.586-0.41-0.391-0.613-0.887-0.613-1.492 0-0.496 0.106-0.899 0.317-1.204 0.214-0.308 0.519-0.55 0.914-0.726 0.398-0.176 0.875-0.293 1.433-0.356 0.559-0.062 1.16-0.109 1.801-0.14v-0.172c0-0.25-0.047-0.457-0.137-0.621-0.086-0.164-0.211-0.293-0.375-0.387-0.156-0.09-0.344-0.148-0.562-0.18-0.219-0.031-0.446-0.046-0.684-0.046-0.289 0-0.613 0.039-0.969 0.117-0.355 0.074-0.722 0.183-1.101 0.328h-0.059v-1.121c0.215-0.059 0.528-0.121 0.934-0.192 0.406-0.07 0.805-0.105 1.199-0.105 0.461 0 0.863 0.039 1.203 0.117 0.344 0.074 0.641 0.203 0.891 0.387 0.246 0.18 0.433 0.41 0.562 0.695s0.192 0.641 0.192 1.063zm-1.094-1.613v-1.821c-0.336 0.02-0.734 0.047-1.191 0.086-0.454 0.039-0.813 0.098-1.079 0.172-0.316 0.09-0.57 0.231-0.765 0.422-0.195 0.188-0.293 0.445-0.293 0.778 0 0.374 0.113 0.66 0.34 0.851 0.226 0.188 0.57 0.281 1.035 0.281 0.387 0 0.742-0.074 1.062-0.222 0.321-0.153 0.618-0.336 0.891-0.547z"/><path d="m173.44 18.914h-1.101v-0.687c-0.317 0.273-0.645 0.488-0.988 0.64-0.344 0.153-0.719 0.227-1.122 0.227-0.781 0-1.402-0.301-1.863-0.903-0.457-0.601-0.683-1.433-0.683-2.5 0-0.554 0.078-1.05 0.234-1.484 0.16-0.434 0.375-0.801 0.644-1.105 0.266-0.297 0.575-0.524 0.926-0.68 0.356-0.156 0.723-0.234 1.102-0.234 0.344 0 0.648 0.035 0.914 0.109 0.266 0.07 0.543 0.183 0.836 0.336v-2.836h1.101zm-1.101-1.613v-3.754c-0.297-0.133-0.563-0.227-0.797-0.277-0.234-0.051-0.488-0.075-0.766-0.075-0.617 0-1.097 0.215-1.441 0.645s-0.516 1.039-0.516 1.828c0 0.777 0.133 1.367 0.399 1.773 0.265 0.403 0.691 0.606 1.277 0.606 0.313 0 0.629-0.07 0.949-0.207 0.321-0.141 0.617-0.32 0.895-0.539z"/><path d="m177.95 14.039h-1.398v-1.672h1.398zm0 4.875h-1.398v-1.672h1.398z"/></g><path d="m169.06 20.656c-0.785 0-1.473 0.489-1.934 1.199-0.465 0.711-0.73 1.653-0.73 2.68 0 1.031 0.265 1.973 0.73 2.684 0.461 0.711 1.149 1.199 1.934 1.199s1.468-0.488 1.933-1.199c0.364-0.563 0.61-1.27 0.696-2.051h11.519v1.211h-0.855v2.039h0.531v-0.785h0.5v0.785h0.348v-1.227h0.574v1.227h0.387v-1h0.531v1h0.515v-0.461h0.5v0.461h0.489v-2.039h-0.856v-1.211h0.856v-1.266h-15.039c-0.086-0.781-0.329-1.484-0.696-2.047-0.461-0.71-1.148-1.199-1.933-1.199zm0 0.934c0.445 0 0.871 0.273 1.215 0.801 0.343 0.527 0.574 1.293 0.574 2.144 0 0.856-0.231 1.621-0.574 2.149-0.344 0.527-0.77 0.8-1.215 0.8-0.446 0-0.871-0.273-1.215-0.8-0.344-0.528-0.574-1.293-0.574-2.149 0-0.851 0.23-1.617 0.574-2.144 0.344-0.528 0.769-0.801 1.215-0.801z" fill="#7300fd"/><path d="m169.06 30.688c-0.785 0-1.473 0.492-1.934 1.199-0.465 0.711-0.73 1.652-0.73 2.683 0 1.032 0.265 1.973 0.73 2.68 0.461 0.711 1.149 1.203 1.934 1.203s1.468-0.492 1.933-1.203c0.364-0.559 0.61-1.266 0.696-2.047h11.519v1.211h-0.855v2.039h0.531v-0.789h0.5v0.789h0.348v-1.23h0.574v1.23h0.387v-1h0.531v1h0.515v-0.461h0.5v0.461h0.489v-2.039h-0.856v-1.211h0.856v-1.265h-15.039c-0.086-0.782-0.329-1.489-0.696-2.051-0.461-0.707-1.148-1.199-1.933-1.199zm0 0.933c0.445 0 0.871 0.274 1.215 0.801 0.343 0.527 0.574 1.293 0.574 2.148 0 0.856-0.231 1.621-0.574 2.145-0.344 0.527-0.77 0.801-1.215 0.801-0.446 0-0.871-0.274-1.215-0.801-0.344-0.524-0.574-1.289-0.574-2.145 0-0.855 0.23-1.621 0.574-2.148 0.344-0.524 0.769-0.801 1.215-0.801z" fill="#0025fd"/><path d="m169.06 52.859c-0.785 0-1.473 0.489-1.934 1.2-0.465 0.711-0.73 1.652-0.73 2.683s0.265 1.973 0.73 2.68c0.461 0.711 1.149 1.199 1.934 1.199s1.468-0.488 1.933-1.199c0.364-0.563 0.61-1.266 0.696-2.047h11.519v1.211h-0.855v2.035h0.531v-0.785h0.5v0.785h0.348v-1.226h0.574v1.226h0.387v-0.996h0.531v0.996h0.515v-0.457h0.5v0.457h0.489v-2.035h-0.856v-1.211h0.856v-1.266h-15.039c-0.086-0.781-0.329-1.488-0.696-2.05-0.461-0.711-1.148-1.2-1.933-1.2zm0 0.934c0.445 0 0.871 0.273 1.215 0.801 0.343 0.527 0.574 1.293 0.574 2.148 0 0.852-0.231 1.617-0.574 2.145-0.344 0.527-0.77 0.801-1.215 0.801-0.446 0-0.871-0.274-1.215-0.801-0.344-0.528-0.574-1.293-0.574-2.145 0-0.855 0.23-1.621 0.574-2.148 0.344-0.528 0.769-0.801 1.215-0.801z" fill="#dddd00" stroke="#000000" stroke-width=".27699"/><path d="m169.06 63.031c-0.785 0-1.473 0.489-1.934 1.199-0.465 0.711-0.73 1.653-0.73 2.68 0 1.031 0.265 1.973 0.73 2.684 0.461 0.711 1.149 1.199 1.934 1.199s1.468-0.488 1.933-1.199c0.364-0.563 0.61-1.27 0.696-2.051h11.519v1.211h-0.855v2.039h0.531v-0.785h0.5v0.785h0.348v-1.227h0.574v1.227h0.387v-1h0.531v1h0.515v-0.461h0.5v0.461h0.489v-2.039h-0.856v-1.211h0.856v-1.266h-15.039c-0.086-0.781-0.329-1.484-0.696-2.047-0.461-0.71-1.148-1.199-1.933-1.199zm0 0.934c0.445 0 0.871 0.273 1.215 0.801 0.343 0.527 0.574 1.293 0.574 2.144 0 0.856-0.231 1.621-0.574 2.149-0.344 0.527-0.77 0.8-1.215 0.8-0.446 0-0.871-0.273-1.215-0.8-0.344-0.528-0.574-1.293-0.574-2.149 0-0.851 0.23-1.617 0.574-2.144 0.344-0.528 0.769-0.801 1.215-0.801z" fill="#fd6200"/></g></svg>
