<?xml version="1.0" encoding="UTF-8"?>
<svg width="546.6051mm" height="420.92801mm" version="1.1" viewBox="0 0 546.6051 420.92801" xmlns="http://www.w3.org/2000/svg"><defs><marker id="a" overflow="visible" orient="auto"><path transform="matrix(-.4 0 0 -.4 -4 0)" d="m0 0 5-5-17.5 5 17.5 5z" fill-rule="evenodd" stroke="#000" stroke-width="1pt"/></marker><marker id="b" overflow="visible" orient="auto"><path transform="matrix(-.4 0 0 -.4 -4 0)" d="m0 0 5-5-17.5 5 17.5 5z" fill-rule="evenodd" stroke="#000" stroke-width="1pt"/></marker><marker id="c" overflow="visible" orient="auto"><path transform="matrix(-.4 0 0 -.4 -4 0)" d="m0 0 5-5-17.5 5 17.5 5z" fill-rule="evenodd" stroke="#000" stroke-width="1pt"/></marker><marker id="d" overflow="visible" orient="auto"><path transform="matrix(-.4 0 0 -.4 -4 0)" d="m0 0 5-5-17.5 5 17.5 5z" fill-rule="evenodd" stroke="#000" stroke-width="1pt"/></marker><marker id="av" overflow="visible" orient="auto"><path transform="matrix(-.4 0 0 -.4 -4 0)" d="m0 0 5-5-17.5 5 17.5 5z" fill-rule="evenodd" stroke="#000" stroke-width="1pt"/></marker><marker id="e" overflow="visible" orient="auto"><path transform="matrix(-.4 0 0 -.4 -4 0)" d="m0 0 5-5-17.5 5 17.5 5z" fill="#f00" fill-rule="evenodd" stroke="#f00" stroke-width="1pt"/></marker><marker id="f" overflow="visible" orient="auto"><path transform="matrix(-.4 0 0 -.4 -4 0)" d="m0 0 5-5-17.5 5 17.5 5z" fill="#f00" fill-rule="evenodd" stroke="#f00" stroke-width="1pt"/></marker><marker id="g" overflow="visible" orient="auto"><path transform="matrix(-.4 0 0 -.4 -4 0)" d="m0 0 5-5-17.5 5 17.5 5z" fill="#f00" fill-rule="evenodd" stroke="#f00" stroke-width="1pt"/></marker><marker id="h" overflow="visible" orient="auto"><path transform="matrix(-.4 0 0 -.4 -4 0)" d="m0 0 5-5-17.5 5 17.5 5z" fill="#f00" fill-rule="evenodd" stroke="#f00" stroke-width="1pt"/></marker><marker id="i" overflow="visible" orient="auto"><path transform="matrix(-.4 0 0 -.4 -4 0)" d="m0 0 5-5-17.5 5 17.5 5z" fill="#f00" fill-rule="evenodd" stroke="#f00" stroke-width="1pt"/></marker><marker id="j" overflow="visible" orient="auto"><path transform="matrix(-.4 0 0 -.4 -4 0)" d="m0 0 5-5-17.5 5 17.5 5z" fill="#f00" fill-rule="evenodd" stroke="#f00" stroke-width="1pt"/></marker><marker id="k" overflow="visible" orient="auto"><path transform="matrix(-.4 0 0 -.4 -4 0)" d="m0 0 5-5-17.5 5 17.5 5z" fill="#f00" fill-rule="evenodd" stroke="#f00" stroke-width="1pt"/></marker><marker id="l" overflow="visible" orient="auto"><path transform="matrix(-.4 0 0 -.4 -4 0)" d="m0 0 5-5-17.5 5 17.5 5z" fill="#f00" fill-rule="evenodd" stroke="#f00" stroke-width="1pt"/></marker><marker id="m" overflow="visible" orient="auto"><path transform="matrix(-.4 0 0 -.4 -4 0)" d="m0 0 5-5-17.5 5 17.5 5z" fill="#00f" fill-rule="evenodd" stroke="#00f" stroke-width="1pt"/></marker><marker id="n" overflow="visible" orient="auto"><path transform="matrix(-.4 0 0 -.4 -4 0)" d="m0 0 5-5-17.5 5 17.5 5z" fill="#00f" fill-rule="evenodd" stroke="#00f" stroke-width="1pt"/></marker><marker id="o" overflow="visible" orient="auto"><path transform="matrix(-.4 0 0 -.4 -4 0)" d="m0 0 5-5-17.5 5 17.5 5z" fill="#00f" fill-rule="evenodd" stroke="#00f" stroke-width="1pt"/></marker><marker id="p" overflow="visible" orient="auto"><path transform="matrix(-.4 0 0 -.4 -4 0)" d="m0 0 5-5-17.5 5 17.5 5z" fill="#00f" fill-rule="evenodd" stroke="#00f" stroke-width="1pt"/></marker><marker id="q" overflow="visible" orient="auto"><path transform="matrix(-.4 0 0 -.4 -4 0)" d="m0 0 5-5-17.5 5 17.5 5z" fill="#00f" fill-rule="evenodd" stroke="#00f" stroke-width="1pt"/></marker><marker id="r" overflow="visible" orient="auto"><path transform="matrix(-.4 0 0 -.4 -4 0)" d="m0 0 5-5-17.5 5 17.5 5z" fill="#00f" fill-rule="evenodd" stroke="#00f" stroke-width="1pt"/></marker><marker id="s" overflow="visible" orient="auto"><path transform="matrix(-.4 0 0 -.4 -4 0)" d="m0 0 5-5-17.5 5 17.5 5z" fill="#00f" fill-rule="evenodd" stroke="#00f" stroke-width="1pt"/></marker><marker id="t" overflow="visible" orient="auto"><path transform="matrix(-.4 0 0 -.4 -4 0)" d="m0 0 5-5-17.5 5 17.5 5z" fill="#00f" fill-rule="evenodd" stroke="#00f" stroke-width="1pt"/></marker><marker id="u" overflow="visible" orient="auto"><path transform="matrix(-.4 0 0 -.4 -4 0)" d="m0 0 5-5-17.5 5 17.5 5z" fill="#00f" fill-rule="evenodd" stroke="#00f" stroke-width="1pt"/></marker><marker id="v" overflow="visible" orient="auto"><path transform="matrix(-.4 0 0 -.4 -4 0)" d="m0 0 5-5-17.5 5 17.5 5z" fill="#00f" fill-rule="evenodd" stroke="#00f" stroke-width="1pt"/></marker><marker id="w" overflow="visible" orient="auto"><path transform="matrix(-.4 0 0 -.4 -4 0)" d="m0 0 5-5-17.5 5 17.5 5z" fill="#00f" fill-rule="evenodd" stroke="#00f" stroke-width="1pt"/></marker><marker id="x" overflow="visible" orient="auto"><path transform="matrix(-.4 0 0 -.4 -4 0)" d="m0 0 5-5-17.5 5 17.5 5z" fill="#00f" fill-rule="evenodd" stroke="#00f" stroke-width="1pt"/></marker><marker id="y" overflow="visible" orient="auto"><path transform="matrix(-.4 0 0 -.4 -4 0)" d="m0 0 5-5-17.5 5 17.5 5z" fill="#00f" fill-rule="evenodd" stroke="#00f" stroke-width="1pt"/></marker><marker id="z" overflow="visible" orient="auto"><path transform="matrix(-.4 0 0 -.4 -4 0)" d="m0 0 5-5-17.5 5 17.5 5z" fill="#00f" fill-rule="evenodd" stroke="#00f" stroke-width="1pt"/></marker><marker id="aa" overflow="visible" orient="auto"><path transform="matrix(-.4 0 0 -.4 -4 0)" d="m0 0 5-5-17.5 5 17.5 5z" fill="#00f" fill-rule="evenodd" stroke="#00f" stroke-width="1pt"/></marker><marker id="ab" overflow="visible" orient="auto"><path transform="matrix(-.4 0 0 -.4 -4 0)" d="m0 0 5-5-17.5 5 17.5 5z" fill="#00f" fill-rule="evenodd" stroke="#00f" stroke-width="1pt"/></marker><marker id="ac" overflow="visible" orient="auto"><path transform="matrix(-.4 0 0 -.4 -4 0)" d="m0 0 5-5-17.5 5 17.5 5z" fill="#00f" fill-rule="evenodd" stroke="#00f" stroke-width="1pt"/></marker><marker id="ad" overflow="visible" orient="auto"><path transform="matrix(-.4 0 0 -.4 -4 0)" d="m0 0 5-5-17.5 5 17.5 5z" fill="#00f" fill-rule="evenodd" stroke="#00f" stroke-width="1pt"/></marker><marker id="ae" overflow="visible" orient="auto"><path transform="matrix(-.4 0 0 -.4 -4 0)" d="m0 0 5-5-17.5 5 17.5 5z" fill="#00f" fill-rule="evenodd" stroke="#00f" stroke-width="1pt"/></marker><marker id="af" overflow="visible" orient="auto"><path transform="matrix(-.4 0 0 -.4 -4 0)" d="m0 0 5-5-17.5 5 17.5 5z" fill="#00f" fill-rule="evenodd" stroke="#00f" stroke-width="1pt"/></marker><marker id="ag" overflow="visible" orient="auto"><path transform="matrix(-.4 0 0 -.4 -4 0)" d="m0 0 5-5-17.5 5 17.5 5z" fill="#00f" fill-rule="evenodd" stroke="#00f" stroke-width="1pt"/></marker><marker id="ah" overflow="visible" orient="auto"><path transform="matrix(-.4 0 0 -.4 -4 0)" d="m0 0 5-5-17.5 5 17.5 5z" fill="#f00" fill-rule="evenodd" stroke="#f00" stroke-width="1pt"/></marker><marker id="ai" overflow="visible" orient="auto"><path transform="matrix(-.4 0 0 -.4 -4 0)" d="m0 0 5-5-17.5 5 17.5 5z" fill="#f00" fill-rule="evenodd" stroke="#f00" stroke-width="1pt"/></marker><marker id="aj" overflow="visible" orient="auto"><path transform="matrix(-.4 0 0 -.4 -4 0)" d="m0 0 5-5-17.5 5 17.5 5z" fill="#f00" fill-rule="evenodd" stroke="#f00" stroke-width="1pt"/></marker><marker id="ak" overflow="visible" orient="auto"><path transform="matrix(-.4 0 0 -.4 -4 0)" d="m0 0 5-5-17.5 5 17.5 5z" fill="#f00" fill-rule="evenodd" stroke="#f00" stroke-width="1pt"/></marker><marker id="al" overflow="visible" orient="auto"><path transform="matrix(-.4 0 0 -.4 -4 0)" d="m0 0 5-5-17.5 5 17.5 5z" fill="#f00" fill-rule="evenodd" stroke="#f00" stroke-width="1pt"/></marker><marker id="am" overflow="visible" orient="auto"><path transform="matrix(-.4 0 0 -.4 -4 0)" d="m0 0 5-5-17.5 5 17.5 5z" fill="#f00" fill-rule="evenodd" stroke="#f00" stroke-width="1pt"/></marker><marker id="an" overflow="visible" orient="auto"><path transform="matrix(-.4 0 0 -.4 -4 0)" d="m0 0 5-5-17.5 5 17.5 5z" fill="#f00" fill-rule="evenodd" stroke="#f00" stroke-width="1pt"/></marker><marker id="ao" overflow="visible" orient="auto"><path transform="matrix(-.4 0 0 -.4 -4 0)" d="m0 0 5-5-17.5 5 17.5 5z" fill="#f00" fill-rule="evenodd" stroke="#f00" stroke-width="1pt"/></marker><marker id="ap" overflow="visible" orient="auto"><path transform="matrix(-.4 0 0 -.4 -4 0)" d="m0 0 5-5-17.5 5 17.5 5z" fill="#00f" fill-rule="evenodd" stroke="#00f" stroke-width="1pt"/></marker><marker id="aq" overflow="visible" orient="auto"><path transform="matrix(-.4 0 0 -.4 -4 0)" d="m0 0 5-5-17.5 5 17.5 5z" fill="#00f" fill-rule="evenodd" stroke="#00f" stroke-width="1pt"/></marker><marker id="ar" overflow="visible" orient="auto"><path transform="matrix(-.4 0 0 -.4 -4 0)" d="m0 0 5-5-17.5 5 17.5 5z" fill="#00f" fill-rule="evenodd" stroke="#00f" stroke-width="1pt"/></marker><marker id="as" overflow="visible" orient="auto"><path transform="matrix(-.4 0 0 -.4 -4 0)" d="m0 0 5-5-17.5 5 17.5 5z" fill="#00f" fill-rule="evenodd" stroke="#00f" stroke-width="1pt"/></marker><marker id="at" overflow="visible" orient="auto"><path transform="matrix(-.4 0 0 -.4 -4 0)" d="m0 0 5-5-17.5 5 17.5 5z" fill="#00f" fill-rule="evenodd" stroke="#00f" stroke-width="1pt"/></marker><marker id="au" overflow="visible" orient="auto"><path transform="matrix(-.4 0 0 -.4 -4 0)" d="m0 0 5-5-17.5 5 17.5 5z" fill="#00f" fill-rule="evenodd" stroke="#00f" stroke-width="1pt"/></marker><marker id="aw" overflow="visible" orient="auto"><path transform="matrix(-.4 0 0 -.4 -4 0)" d="m0 0 5-5-17.5 5 17.5 5z" fill="#00f" fill-rule="evenodd" stroke="#00f" stroke-width="1pt"/></marker><marker id="ax" overflow="visible" orient="auto"><path transform="matrix(-.4 0 0 -.4 -4 0)" d="m0 0 5-5-17.5 5 17.5 5z" fill="#00f" fill-rule="evenodd" stroke="#00f" stroke-width="1pt"/></marker></defs><g><path transform="translate(34.447375,9.019886)" d="m-173.99489 48.003116c4.15786-64.634068 20.28484-64.634068 68.41461-64.634068 48.129767 0 128.259116 0 248.09915-25.757326 119.84004-25.757327 279.3797-77.268842 358.85643-34.270166 79.47673 42.998673 78.88115 180.502094 81.31231 261.708464s7.88869 106.106 9.38054 155.17227c1.49185 49.06626-0.98208 122.29337-51.68903 154.79986s-149.64114 24.2887-224.86799 8.39102-126.73844-39.47394-165.16629-51.26237c-38.42786-11.78844-63.769894-11.78844-113.73556-11.78844s-124.551474 0-161.84526-11.53173c-37.29378-11.53173-37.29378-34.59451-41.1996-110.76134-3.90583-76.16684-11.71718-205.43211-7.55931-270.066174z" fill="#fff"/><path transform="translate(34.447375,9.019886)" d="m-173.99489 48.003116c4.15786-64.634068 20.28484-64.634068 68.41461-64.634068h176.640233c48.381117 0 65.011737 0 117.929297 44.602216s142.11815 133.802816 195.16097 186.845636c53.04283 53.04282 69.92544 69.92543 70.11413 86.61941s-16.31594 33.19861-46.17637 41.45109c-29.86042 8.25249-73.07482 8.25249-120.43938 23.12317-47.36455 14.87069-98.87614 44.61091-137.30388 59.48135s-63.769774 14.87044-113.73544 14.87044-124.551474 0-161.84526-11.53173c-37.29378-11.53173-37.29378-34.59451-41.1996-110.76134-3.90583-76.16684-11.71718-205.43211-7.55931-270.066174z" fill="#00c400"/><path transform="translate(34.447375,9.019886)" d="m-173.99489 48.003116c4.15786-64.634068 20.28484-64.634068 68.41461-64.634068h176.640233c48.381117 0 65.011737 0 117.929297 44.602216s142.11815 133.802816 195.16097 186.845636c53.04283 53.04282 69.92544 69.92543 70.11413 86.61941s-16.31594 33.19861-46.17637 41.45109c-29.86042 8.25249-73.07482 8.25249-120.43938 23.12317-47.36455 14.87069-98.87614 44.61091-137.30388 59.48135s-63.769774 14.87044-113.73544 14.87044-124.551474 0-161.84526-11.53173c-37.29378-11.53173-37.29378-34.59451-41.1996-110.76134-3.90583-76.16684-11.71718-205.43211-7.55931-270.066174z" fill="#00c400"/></g><g transform="translate(57.125946,9.019886)"><path transform="translate(3.1750001,3.7041668)" d="m-73.306607 72.312117c26.756612-4.277122 76.8876609-4.277122 122.045784 18.003928 45.158124 22.281045 85.341733 66.841095 114.387933 104.630415 29.04621 37.78932 46.95355 68.80575 55.90732 85.81451 8.95376 17.00876 8.95376 20.00913 7.0297 24.84179-1.92405 4.83265-5.77197 11.49743-17.29607 31.45776-11.52409 19.96032-30.72352 53.21469-84.60276 69.84218-53.879246 16.62748-142.434693 16.62748-186.713436 12.4827-44.278744-4.14478-44.278744-12.43428-44.278744-67.40745 0-54.97316 0-156.62574 1.69094-211.73026 1.69093-55.104514 5.07272-63.658451 31.829333-67.935573z" fill="#00a000"/><path d="m-73.446128 286.82129c19.999552 44.13644 56.271751 46.65628 74.40771035 41.84875 18.13595965-4.80753 18.13595965-16.94219 34.10063465-38.97444s47.892734-53.96031 63.857083-71.06842c15.96435-17.1081 15.96435-19.39578 15.79793-20.82803s-0.49944-2.00905-15.582504-17.21408c-15.083064-15.20502-44.915063-45.03702-59.831489-62.25474-14.916427-17.21772-14.916427-21.820385-14.916427-25.812727 0-3.992341 0-7.374061-20.8812359-10.829068-20.8812361-3.455006-62.6414851-6.982643-81.6596471 34.131055-19.018162 41.1137-15.291608 126.86526 4.707945 171.0017z" fill="#008000"/><g fill="none" stroke="#000"><path d="m0 0h480" marker-end="url(#av)"/><path transform="translate(0,100.00012)" d="m0 0h480" marker-end="url(#d)"/><path transform="translate(0,200.00012)" d="m0 0h480" marker-end="url(#c)"/><path transform="translate(0,300.00012)" d="m0 0h480" marker-end="url(#b)"/><path transform="translate(0,400.00012)" d="m0 0h480" marker-end="url(#a)"/></g><text x="-1.4433256" y="2.2517745" fill="#000000" font-family="sans-serif" font-size="10.5833px" stroke-width=".264583" text-align="end" text-anchor="end" style="line-height:1.25" xml:space="preserve"><tspan x="-1.4433255" y="2.2517745" stroke-width=".264583" text-align="end" text-anchor="end">primary 0</tspan></text><g transform="translate(-300)"><path d="m313.66025 4.9999956-5.7735-3e-7 -2.88675-4.999997802 2.88675-4.999997498 5.7735 3e-7 2.88675 4.999997762z" fill="#00f"/><text x="315.8006" y="2.2507172" font-family="sans-serif" font-size="7.05556px" stroke-width=".264583" text-align="end" text-anchor="end" style="line-height:1.25" xml:space="preserve"><tspan x="315.8006" y="2.2507172" fill="#ffffff" stroke-width=".264583">b1</tspan></text></g><g transform="translate(-290.00043)"><g transform="translate(0,400)"><path d="m328.66068 4.9999956-5.7735-3e-7 -2.88675-4.999997802 2.88675-4.999997498 5.7735 3e-7 2.88675 4.999997762z" fill="#f00"/><text x="330.80103" y="2.2507172" font-family="sans-serif" font-size="7.05556px" stroke-width=".264583" text-align="end" text-anchor="end" style="line-height:1.25" xml:space="preserve"><tspan x="330.80103" y="2.2507172" fill="#ffffff" stroke-width=".264583">b1</tspan></text></g></g><g transform="translate(-300,100)"><path d="m313.66025 4.9999956-5.7735-3e-7 -2.88675-4.999997802 2.88675-4.999997498 5.7735 3e-7 2.88675 4.999997762z" fill="#00f"/><text x="315.8006" y="2.2507172" font-family="sans-serif" font-size="7.05556px" stroke-width=".264583" text-align="end" text-anchor="end" style="line-height:1.25" xml:space="preserve"><tspan x="315.8006" y="2.2507172" fill="#ffffff" stroke-width=".264583">b1</tspan></text></g><g transform="translate(-300,200)"><path d="m313.66025 4.9999956-5.7735-3e-7 -2.88675-4.999997802 2.88675-4.999997498 5.7735 3e-7 2.88675 4.999997762z" fill="#00f"/><text x="315.8006" y="2.2507172" font-family="sans-serif" font-size="7.05556px" stroke-width=".264583" text-align="end" text-anchor="end" style="line-height:1.25" xml:space="preserve"><tspan x="315.8006" y="2.2507172" fill="#ffffff" stroke-width=".264583">b1</tspan></text></g><g transform="translate(-300,300)"><path d="m313.66025 4.9999956-5.7735-3e-7 -2.88675-4.999997802 2.88675-4.999997498 5.7735 3e-7 2.88675 4.999997762z" fill="#00f"/><text x="315.8006" y="2.2507172" font-family="sans-serif" font-size="7.05556px" stroke-width=".264583" text-align="end" text-anchor="end" style="line-height:1.25" xml:space="preserve"><tspan x="315.8006" y="2.2507172" fill="#ffffff" stroke-width=".264583">b1</tspan></text></g><path d="m108.66025 4.9999956-5.7735-3e-7 -2.886751-4.999997802 2.886751-4.999997498 5.7735 3e-7 2.88675 4.999997762z" fill="#00f"/><text x="110.27143" y="2.2507172" font-family="sans-serif" font-size="7.05556px" stroke-width=".264583" text-align="end" text-anchor="end" style="line-height:1.25" xml:space="preserve"><tspan x="110.27143" y="2.2507172" fill="#ffffff" stroke-width=".264583">b2</tspan></text><g transform="translate(0,100)"><path d="m108.66025 4.9999956-5.7735-3e-7 -2.886751-4.999997802 2.886751-4.999997498 5.7735 3e-7 2.88675 4.999997762z" fill="#00f"/><text x="110.27143" y="2.2507172" font-family="sans-serif" font-size="7.05556px" stroke-width=".264583" text-align="end" text-anchor="end" style="line-height:1.25" xml:space="preserve"><tspan x="110.27143" y="2.2507172" fill="#ffffff" stroke-width=".264583">b2</tspan></text></g><g fill="none"><path transform="translate(0,200.00015)" d="m215 99.999457c-28.76331-31.648148-57.55958-63.332563-86.33975-94.9992544" marker-end="url(#h)" stroke="#f00" stroke-width=".5"/><path transform="translate(0,200.00015)" d="m215 99.999457c-30.5905-33.714641-61.21604-67.467901-91.82443-101.2022585" stroke="#fff" stroke-width="2"/><path transform="translate(-3.7041668)" d="m111.547 200h17.73804" stroke="#fff" stroke-width="2"/></g><g transform="translate(0,200)"><path d="m108.66025 4.9999956-5.7735-3e-7 -2.886751-4.999997802 2.886751-4.999997498 5.7735 3e-7 2.88675 4.999997762z" fill="#00f"/><text x="110.27143" y="2.2507172" font-family="sans-serif" font-size="7.05556px" stroke-width=".264583" text-align="end" text-anchor="end" style="line-height:1.25" xml:space="preserve"><tspan x="110.27143" y="2.2507172" fill="#ffffff" stroke-width=".264583">b2</tspan></text></g><g transform="translate(0,300)"><path d="m108.66025 4.9999956-5.7735-3e-7 -2.886751-4.999997802 2.886751-4.999997498 5.7735 3e-7 2.88675 4.999997762z" fill="#00f"/><text x="110.27143" y="2.2507172" font-family="sans-serif" font-size="7.05556px" stroke-width=".264583" text-align="end" text-anchor="end" style="line-height:1.25" xml:space="preserve"><tspan x="110.27143" y="2.2507172" fill="#ffffff" stroke-width=".264583">b2</tspan></text></g><g fill="none" stroke="#00f" stroke-width=".5"><path d="M 99.999995,-2.5018664e-6 C 71.134482,31.760848 42.440151,63.333347 13.660249,95" marker-end="url(#ax)"/><path d="M 99.999997,-2.5018664e-6 C 71.236385,64.963175 42.440112,130.00012 13.660249,195" marker-end="url(#aw)"/><path transform="translate(0,99.999793)" d="M 99.999995,-2.5018664e-6 C 71.134482,31.760848 42.440151,63.333347 13.660249,95" marker-end="url(#at)"/><path transform="translate(0,99.999793)" d="M 99.999997,-2.5018664e-6 C 71.236385,64.963175 42.440112,130.00012 13.660249,195" marker-end="url(#au)"/><path transform="translate(0,99.999793)" d="m99.999999 100.0002c-28.763573 31.64862-57.559843 63.33321-86.33975 94.9998" marker-end="url(#as)"/><path d="M 99.999999,199.99999 C 71.134747,168.23943 42.440412,136.66694 13.660248,105" marker-end="url(#ar)"/><path d="M 99.999999,299.99999 C 71.134637,234.80701 42.440301,170.0003 13.660248,105" marker-end="url(#aq)"/><path transform="translate(0,99.999793)" d="m99.999999 200.0002c-28.86525-31.76056-57.559584-63.33306-86.339751-95" marker-end="url(#ap)"/></g><g transform="translate(-290.00043,-100)"><g transform="translate(0,400)"><path d="m328.66068 4.9999956-5.7735-3e-7 -2.88675-4.999997802 2.88675-4.999997498 5.7735 3e-7 2.88675 4.999997762z" fill="#f00"/><text x="330.80103" y="2.2507172" font-family="sans-serif" font-size="7.05556px" stroke-width=".264583" text-align="end" text-anchor="end" style="line-height:1.25" xml:space="preserve"><tspan x="330.80103" y="2.2507172" fill="#ffffff" stroke-width=".264583">b1</tspan></text></g></g><g transform="translate(-290.00043,-200)"><g transform="translate(0,400)"><path d="m328.66068 4.9999956-5.7735-3e-7 -2.88675-4.999997802 2.88675-4.999997498 5.7735 3e-7 2.88675 4.999997762z" fill="#f00"/><text x="330.80103" y="2.2507172" font-family="sans-serif" font-size="7.05556px" stroke-width=".264583" text-align="end" text-anchor="end" style="line-height:1.25" xml:space="preserve"><tspan x="330.80103" y="2.2507172" fill="#ffffff" stroke-width=".264583">b1</tspan></text></g></g><g transform="translate(-290.00043,-300)"><g transform="translate(0,400)"><path d="m328.66068 4.9999956-5.7735-3e-7 -2.88675-4.999997802 2.88675-4.999997498 5.7735 3e-7 2.88675 4.999997762z" fill="#f00"/><text x="330.80103" y="2.2507172" font-family="sans-serif" font-size="7.05556px" stroke-width=".264583" text-align="end" text-anchor="end" style="line-height:1.25" xml:space="preserve"><tspan x="330.80103" y="2.2507172" fill="#ffffff" stroke-width=".264583">b1</tspan></text></g></g><g transform="translate(-4.9999965)"><g transform="translate(-195.00043,-300)"><g transform="translate(0,400)"><path d="m328.66068 4.9999956-5.7735-3e-7 -2.88675-4.999997802 2.88675-4.999997498 5.7735 3e-7 2.88675 4.999997762z" fill="#f00"/><text x="330.27185" y="2.2507172" font-family="sans-serif" font-size="7.05556px" stroke-width=".264583" text-align="end" text-anchor="end" style="line-height:1.25" xml:space="preserve"><tspan x="330.27185" y="2.2507172" fill="#ffffff" stroke-width=".264583">b2</tspan></text></g></g></g><path transform="translate(0,99.999793)" d="M 120,2.0449813e-4 C 92.90214,31.648896 65.773479,63.333561 38.660246,95.000207" fill="none" marker-end="url(#ao)" stroke="#f00" stroke-width=".5"/><path transform="translate(0,99.999793)" d="M 120,2.0449813e-4 C 92.902105,64.963392 65.773444,130.00034 38.660246,195.00021" fill="none" marker-end="url(#an)" stroke="#f00" stroke-width=".5"/><g transform="translate(-4.9999965,99.999614)"><g transform="translate(-195.00043,-300)"><g transform="translate(0,400)"><path d="m328.66068 4.9999956-5.7735-3e-7 -2.88675-4.999997802 2.88675-4.999997498 5.7735 3e-7 2.88675 4.999997762z" fill="#f00"/><text x="330.27185" y="2.2507172" font-family="sans-serif" font-size="7.05556px" stroke-width=".264583" text-align="end" text-anchor="end" style="line-height:1.25" xml:space="preserve"><tspan x="330.27185" y="2.2507172" fill="#ffffff" stroke-width=".264583">b2</tspan></text></g></g></g><g transform="translate(-4.9999965,199.99961)"><g transform="translate(-195.00043,-300)"><g transform="translate(0,400)"><path d="m328.66068 4.9999956-5.7735-3e-7 -2.88675-4.999997802 2.88675-4.999997498 5.7735 3e-7 2.88675 4.999997762z" fill="#f00"/><text x="330.27185" y="2.2507172" font-family="sans-serif" font-size="7.05556px" stroke-width=".264583" text-align="end" text-anchor="end" style="line-height:1.25" xml:space="preserve"><tspan x="330.27185" y="2.2507172" fill="#ffffff" stroke-width=".264583">b2</tspan></text></g></g></g><g transform="translate(0,299.99961)"><g transform="translate(-195.00043,-300)"><g transform="translate(0,400)"><path d="m328.66068 4.9999956-5.7735-3e-7 -2.88675-4.999997802 2.88675-4.999997498 5.7735 3e-7 2.88675 4.999997762z" fill="#f00"/><text x="330.27185" y="2.2507172" font-family="sans-serif" font-size="7.05556px" stroke-width=".264583" text-align="end" text-anchor="end" style="line-height:1.25" xml:space="preserve"><tspan x="330.27185" y="2.2507172" fill="#ffffff" stroke-width=".264583">b2</tspan></text></g></g></g><g fill="none" stroke="#f00" stroke-width=".5"><path transform="translate(0,99.999793)" d="m120 99.999818c-27.097599-31.648258-54.22626-63.332793-81.339754-94.9996154" marker-end="url(#am)"/><path transform="translate(0,99.999793)" d="m120 99.999818c-27.097859 31.648822-54.226517 63.333612-81.339754 95.000392" marker-end="url(#al)"/><path transform="translate(0,199.99932)" d="m120 100.00029c-27.097861 31.64867-54.226518 63.3333-81.339754 94.99992" marker-end="url(#ak)"/><path transform="translate(0,199.99932)" d="m120 100.00029c-27.097599-31.648258-54.226257-63.33279-81.339754-94.9996144" marker-end="url(#aj)"/><path transform="translate(0,299.99951)" d="m125 99.999818c-28.763309-31.648106-57.559581-63.332481-86.339754-94.9991424" marker-end="url(#ai)"/><path transform="translate(0,199.99932)" d="m125 200.00001c-28.763419-64.96252-57.559691-129.999229-86.339754-194.9993344" marker-end="url(#ah)"/></g><g transform="translate(95.000001)"><path d="m108.66025 4.9999956-5.7735-3e-7 -2.886751-4.999997802 2.886751-4.999997498 5.7735 3e-7 2.88675 4.999997762z" fill="#00f"/><text x="110.27143" y="2.2507172" font-family="sans-serif" font-size="7.05556px" stroke-width=".264583" text-align="end" text-anchor="end" style="line-height:1.25" xml:space="preserve"><tspan x="110.27143" y="2.2507172" fill="#ffffff" stroke-width=".264583">b3</tspan></text></g><g transform="translate(95.000001,100)"><path d="m108.66025 4.9999956-5.7735-3e-7 -2.886751-4.999997802 2.886751-4.999997498 5.7735 3e-7 2.88675 4.999997762z" fill="#00f"/><text x="110.27143" y="2.2507172" font-family="sans-serif" font-size="7.05556px" stroke-width=".264583" text-align="end" text-anchor="end" style="line-height:1.25" xml:space="preserve"><tspan x="110.27143" y="2.2507172" fill="#ffffff" stroke-width=".264583">b3</tspan></text></g><g transform="translate(95.000001,200)"><path d="m108.66025 4.9999956-5.7735-3e-7 -2.886751-4.999997802 2.886751-4.999997498 5.7735 3e-7 2.88675 4.999997762z" fill="#00f"/><text x="110.27143" y="2.2507172" font-family="sans-serif" font-size="7.05556px" stroke-width=".264583" text-align="end" text-anchor="end" style="line-height:1.25" xml:space="preserve"><tspan x="110.27143" y="2.2507172" fill="#ffffff" stroke-width=".264583">b3</tspan></text></g><g transform="translate(190)"><path d="m108.66025 4.9999956-5.7735-3e-7 -2.886751-4.999997802 2.886751-4.999997498 5.7735 3e-7 2.88675 4.999997762z" fill="#00f"/><text x="110.27143" y="2.2507172" font-family="sans-serif" font-size="7.05556px" stroke-width=".264583" text-align="end" text-anchor="end" style="line-height:1.25" xml:space="preserve"><tspan x="110.27143" y="2.2507172" fill="#ffffff" stroke-width=".264583">b4</tspan></text></g><g transform="translate(190,100)"><path d="m108.66025 4.9999956-5.7735-3e-7 -2.886751-4.999997802 2.886751-4.999997498 5.7735 3e-7 2.88675 4.999997762z" fill="#00f"/><text x="110.27143" y="2.2507172" font-family="sans-serif" font-size="7.05556px" stroke-width=".264583" text-align="end" text-anchor="end" style="line-height:1.25" xml:space="preserve"><tspan x="110.27143" y="2.2507172" fill="#ffffff" stroke-width=".264583">b4</tspan></text></g><g transform="translate(190,200)"><path d="m108.66025 4.9999956-5.7735-3e-7 -2.886751-4.999997802 2.886751-4.999997498 5.7735 3e-7 2.88675 4.999997762z" fill="#00f"/><text x="110.27143" y="2.2507172" font-family="sans-serif" font-size="7.05556px" stroke-width=".264583" text-align="end" text-anchor="end" style="line-height:1.25" xml:space="preserve"><tspan x="110.27143" y="2.2507172" fill="#ffffff" stroke-width=".264583">b4</tspan></text></g><g fill="none" stroke="#00f" stroke-width=".5"><path transform="translate(95.000464)" d="M 99.999995,-2.5018664e-6 C 71.134482,31.760848 42.440151,63.333347 13.660249,95" marker-end="url(#af)"/><path transform="translate(95.000464)" d="M 99.999997,-2.5018664e-6 C 71.236385,64.963175 42.440112,130.00012 13.660249,195" marker-end="url(#ag)"/><path transform="translate(95.000464,99.999793)" d="m99.999999 100.0002c-28.763573 31.64862-57.559843 63.33321-86.33975 94.9998" marker-end="url(#ad)"/><path transform="translate(95.000464)" d="m99.999999 199.99999c-28.865362-65.19292-57.559697-129.999561-86.339751-194.999806" marker-end="url(#ae)"/><path transform="translate(95.000464,-2.2738424e-5)" d="m99.999999 100.0002c-28.763573 31.64862-57.559843 63.33321-86.33975 94.9998" marker-end="url(#ab)"/><path transform="translate(95.000464,-99.999816)" d="M 99.999999,199.99999 C 71.134747,168.23943 42.440412,136.66694 13.660248,105" marker-end="url(#ac)"/><path transform="translate(190.00046)" d="M 99.999995,-2.5018664e-6 C 71.134482,31.760848 42.440151,63.333347 13.660249,95" marker-end="url(#w)"/><path transform="translate(190.00046)" d="M 99.999997,-2.5018664e-6 C 71.236385,64.963175 42.440112,130.00012 13.660249,195" marker-end="url(#x)"/><path transform="translate(190.00046)" d="M 99.999999,199.99999 C 71.134747,168.23943 42.440412,136.66694 13.660248,105" marker-end="url(#y)"/><path transform="translate(190.00046,-2.2738424e-5)" d="m99.999999 100.0002c-28.763573 31.64862-57.559843 63.33321-86.33975 94.9998" marker-end="url(#z)"/><path transform="translate(190.00046,-99.999816)" d="M 99.999999,199.99999 C 71.134747,168.23943 42.440412,136.66694 13.660248,105" marker-end="url(#aa)"/><path transform="translate(190.00046)" d="m99.999999 199.99999c-28.865362-65.19292-57.559697-129.999561-86.339751-194.999806" marker-end="url(#v)"/></g><g transform="translate(285.00046)"><path d="m108.66025 4.9999956-5.7735-3e-7 -2.886751-4.999997802 2.886751-4.999997498 5.7735 3e-7 2.88675 4.999997762z" fill="#00f"/><text x="110.27143" y="2.2507172" font-family="sans-serif" font-size="7.05556px" stroke-width=".264583" text-align="end" text-anchor="end" style="line-height:1.25" xml:space="preserve"><tspan x="110.27143" y="2.2507172" fill="#ffffff" stroke-width=".264583">b5</tspan></text></g><g transform="translate(285.00046,100)"><path d="m108.66025 4.9999956-5.7735-3e-7 -2.886751-4.999997802 2.886751-4.999997498 5.7735 3e-7 2.88675 4.999997762z" fill="#00f"/><text x="110.27143" y="2.2507172" font-family="sans-serif" font-size="7.05556px" stroke-width=".264583" text-align="end" text-anchor="end" style="line-height:1.25" xml:space="preserve"><tspan x="110.27143" y="2.2507172" fill="#ffffff" stroke-width=".264583">b5</tspan></text></g><g transform="translate(285.00046,200)"><path d="m108.66025 4.9999956-5.7735-3e-7 -2.886751-4.999997802 2.886751-4.999997498 5.7735 3e-7 2.88675 4.999997762z" fill="#00f"/><text x="110.27143" y="2.2507172" font-family="sans-serif" font-size="7.05556px" stroke-width=".264583" text-align="end" text-anchor="end" style="line-height:1.25" xml:space="preserve"><tspan x="110.27143" y="2.2507172" fill="#ffffff" stroke-width=".264583">b5</tspan></text></g><g transform="translate(285.00046,300)"><path d="m108.66025 4.9999956-5.7735-3e-7 -2.886751-4.999997802 2.886751-4.999997498 5.7735 3e-7 2.88675 4.999997762z" fill="#00f"/><text x="110.27143" y="2.2507172" font-family="sans-serif" font-size="7.05556px" stroke-width=".264583" text-align="end" text-anchor="end" style="line-height:1.25" xml:space="preserve"><tspan x="110.27143" y="2.2507172" fill="#ffffff" stroke-width=".264583">b5</tspan></text></g><g fill="none" stroke="#00f" stroke-width=".5"><path transform="translate(285.00092)" d="M 99.999995,-2.5018664e-6 C 71.134482,31.760848 42.440151,63.333347 13.660249,95" marker-end="url(#m)"/><path transform="translate(285.00092)" d="M 99.999997,-2.5018664e-6 C 71.236385,64.963175 42.440112,130.00012 13.660249,195" marker-end="url(#n)"/><path transform="translate(285.00092)" d="M 99.999999,199.99999 C 71.134747,168.23943 42.440412,136.66694 13.660248,105" marker-end="url(#o)"/><path transform="translate(285.00092,-2.2738424e-5)" d="m99.999999 100.0002c-28.763573 31.64862-57.559843 63.33321-86.33975 94.9998" marker-end="url(#p)"/><path transform="translate(285.00092,-99.999816)" d="M 99.999999,199.99999 C 71.134747,168.23943 42.440412,136.66694 13.660248,105" marker-end="url(#q)"/><path transform="translate(285.00092)" d="m99.999999 199.99999c-28.865362-65.19292-57.559697-129.999561-86.339751-194.999806" marker-end="url(#r)"/><path transform="translate(285.00092)" d="m99.999539 300c-28.865259-98.62539-57.559441-196.66625-86.339291-294.999816" marker-end="url(#s)"/><path transform="translate(285.00092)" d="m99.999539 300c-28.865211-65.19299-57.559392-129.9997-86.339291-195" marker-end="url(#t)"/><path transform="translate(285.00092)" d="m99.999539 300c-28.865256-31.76057-57.55959-63.33307-86.33975-95" marker-end="url(#u)"/></g><g transform="translate(90.000004,199.99961)"><g transform="translate(-195.00043,-300)"><g transform="translate(0,400)"><path d="m328.66068 4.9999956-5.7735-3e-7 -2.88675-4.999997802 2.88675-4.999997498 5.7735 3e-7 2.88675 4.999997762z" fill="#f00"/><text x="330.27185" y="2.2507172" font-family="sans-serif" font-size="7.05556px" stroke-width=".264583" text-align="end" text-anchor="end" style="line-height:1.25" xml:space="preserve"><tspan x="330.27185" y="2.2507172" fill="#ffffff" stroke-width=".264583">b3</tspan></text></g></g></g><g transform="translate(90.000004,300)"><g transform="translate(-195.00043,-300)"><g transform="translate(0,400)"><path d="m328.66068 4.9999956-5.7735-3e-7 -2.88675-4.999997802 2.88675-4.999997498 5.7735 3e-7 2.88675 4.999997762z" fill="#f00"/><text x="330.27185" y="2.2507172" font-family="sans-serif" font-size="7.05556px" stroke-width=".264583" text-align="end" text-anchor="end" style="line-height:1.25" xml:space="preserve"><tspan x="330.27185" y="2.2507172" fill="#ffffff" stroke-width=".264583">b3</tspan></text></g></g></g><g transform="translate(325)"><g transform="translate(-195.00043,-300)"><g transform="translate(0,400)"><path d="m328.66068 4.9999956-5.7735-3e-7 -2.88675-4.999997802 2.88675-4.999997498 5.7735 3e-7 2.88675 4.999997762z" fill="#f00"/><text x="330.27185" y="2.2507172" font-family="sans-serif" font-size="7.05556px" stroke-width=".264583" text-align="end" text-anchor="end" style="line-height:1.25" xml:space="preserve"><tspan x="330.27185" y="2.2507172" fill="#ffffff" stroke-width=".264583">b3</tspan></text></g></g></g><g transform="translate(325,100.00039)"><g transform="translate(-195.00043,-300)"><g transform="translate(0,400)"><path d="m328.66068 4.9999956-5.7735-3e-7 -2.88675-4.999997802 2.88675-4.999997498 5.7735 3e-7 2.88675 4.999997762z" fill="#f00"/><text x="330.27185" y="2.2507172" font-family="sans-serif" font-size="7.05556px" stroke-width=".264583" text-align="end" text-anchor="end" style="line-height:1.25" xml:space="preserve"><tspan x="330.27185" y="2.2507172" fill="#ffffff" stroke-width=".264583">b3</tspan></text></g></g></g><path transform="translate(0,99.999793)" d="M 450,2.0449813e-4 C 342.94779,31.648699 235.77367,63.333233 128.66025,94.999821" fill="none" marker-end="url(#l)" stroke="#f00" stroke-width=".5"/><g transform="translate(285.00046,100)"><path d="m108.66025 4.9999956-5.7735-3e-7 -2.886751-4.999997802 2.886751-4.999997498 5.7735 3e-7 2.88675 4.999997762z" fill="#00f"/><text x="110.27143" y="2.2507172" font-family="sans-serif" font-size="7.05556px" stroke-width=".264583" text-align="end" text-anchor="end" style="line-height:1.25" xml:space="preserve"><tspan x="110.27143" y="2.2507172" fill="#ffffff" stroke-width=".264583">b5</tspan></text></g><g fill="none" stroke="#f00" stroke-width=".5"><path transform="translate(0,99.999793)" d="M 450,2.0449813e-4 C 344.61335,98.277524 239.10684,196.66661 133.66025,294.99982" marker-end="url(#k)"/><path transform="translate(0,99.999793)" d="m450 100.00059c-105.38659 64.96276-210.8931 129.99945-316.33975 194.99923" marker-end="url(#j)"/><path transform="translate(0,99.999793)" d="m450 100.00059c-107.05207-31.648709-214.2262-63.333503-321.33975-95.0003874" marker-end="url(#i)"/><path transform="translate(0,200.00015)" d="m215 99.999457c-27.09787 31.648703-54.22652 63.333363-81.33975 95.000003" marker-end="url(#g)"/><path transform="translate(0,200.00015)" d="m215 199.99985c-28.76342-64.96263-57.55969-129.999452-86.33975-194.9996474" marker-end="url(#f)"/><path transform="translate(0,200.00015)" d="m215 199.99985c-28.76331-31.64853-57.55958-63.33332-86.33975-95.00039" marker-end="url(#e)"/></g><g fill="#000000" font-family="sans-serif" font-size="10.5833px" stroke-width=".264583" text-anchor="end"><text x="-1.4433256" y="102.25163" text-align="end" style="line-height:1.25" xml:space="preserve"><tspan x="-1.4433255" y="102.25163" stroke-width=".264583" text-align="end" text-anchor="end">primary 1</tspan></text><text x="-1.4433256" y="202.25163" text-align="end" style="line-height:1.25" xml:space="preserve"><tspan x="-1.4433255" y="202.25163" stroke-width=".264583" text-align="end" text-anchor="end">primary 2</tspan></text><text x="-1.4433256" y="302.25162" text-align="end" style="line-height:1.25" xml:space="preserve"><tspan x="-1.4433255" y="302.25162" stroke-width=".264583" text-align="end" text-anchor="end">primary 3</tspan></text><text x="-1.4433256" y="402.25162" text-align="end" style="line-height:1.25" xml:space="preserve"><tspan x="-1.4433255" y="402.25162" stroke-width=".264583" text-align="end" text-anchor="end">primary 4</tspan></text></g><path d="m108.66025 205h-5.7735l-2.886751-5 2.886751-5h5.7735l2.88675 5z" fill="#00f" stroke="#fff" stroke-linejoin="round" stroke-width="2"/><text x="110.27143" y="202.25072" font-family="sans-serif" font-size="7.05556px" stroke-width=".264583" text-align="end" text-anchor="end" style="line-height:1.25" xml:space="preserve"><tspan x="110.27143" y="202.25072" fill="#ffffff" stroke-width=".264583">b2</tspan></text><path d="m223.66025 304.9996h-5.7735l-2.88675-5 2.88675-4.99999h5.7735l2.88675 4.99999z" fill="#f00" stroke="#fff" stroke-linejoin="round" stroke-width="2"/><text x="225.27142" y="302.25034" font-family="sans-serif" font-size="7.05556px" stroke-width=".264583" text-align="end" text-anchor="end" style="line-height:1.25" xml:space="preserve"><tspan x="225.27142" y="302.25034" fill="#ffffff" stroke-width=".264583">b3</tspan></text><path d="m393.66071 305h-5.7735l-2.88675-5 2.88675-5h5.7735l2.88675 5z" fill="#00f" stroke="#fff" stroke-linejoin="round" stroke-width="2"/><text x="395.27188" y="302.25073" font-family="sans-serif" font-size="7.05556px" stroke-width=".264583" text-align="end" text-anchor="end" style="line-height:1.25" xml:space="preserve"><tspan x="395.27188" y="302.25073" fill="#ffffff" stroke-width=".264583">b5</tspan></text><path transform="translate(0,200.00015)" d="m385.00046 99.99985c-52.78754-1.31e-4 -105.63538-2.61e-4 -158.45346-3.92e-4" fill="none" stroke="#fff" stroke-width="2"/></g></svg>
