<?xml version="1.0" encoding="UTF-8"?>
<svg width="716.26483mm" height="460.186mm" version="1.1" viewBox="0 0 716.26483 460.186" xmlns="http://www.w3.org/2000/svg"><defs><marker id="a" overflow="visible" orient="auto"><path transform="matrix(-.4 0 0 -.4 -4 0)" d="m0 0 5-5-17.5 5 17.5 5z" fill-rule="evenodd" stroke="#000" stroke-width="1pt"/></marker><marker id="b" overflow="visible" orient="auto"><path transform="matrix(-.4 0 0 -.4 -4 0)" d="m0 0 5-5-17.5 5 17.5 5z" fill-rule="evenodd" stroke="#000" stroke-width="1pt"/></marker><marker id="c" overflow="visible" orient="auto"><path transform="matrix(-.4 0 0 -.4 -4 0)" d="m0 0 5-5-17.5 5 17.5 5z" fill-rule="evenodd" stroke="#000" stroke-width="1pt"/></marker><marker id="d" overflow="visible" orient="auto"><path transform="matrix(-.4 0 0 -.4 -4 0)" d="m0 0 5-5-17.5 5 17.5 5z" fill-rule="evenodd" stroke="#000" stroke-width="1pt"/></marker><marker id="e" overflow="visible" orient="auto"><path transform="matrix(-.4 0 0 -.4 -4 0)" d="m0 0 5-5-17.5 5 17.5 5z" fill-rule="evenodd" stroke="#000" stroke-width="1pt"/></marker><marker id="f" overflow="visible" orient="auto"><path transform="matrix(-.4 0 0 -.4 -4 0)" d="m0 0 5-5-17.5 5 17.5 5z" fill-rule="evenodd" stroke="#000" stroke-width="1pt"/></marker><marker id="g" overflow="visible" orient="auto"><path transform="matrix(-.4 0 0 -.4 -4 0)" d="m0 0 5-5-17.5 5 17.5 5z" fill-rule="evenodd" stroke="#000" stroke-width="1pt"/></marker><marker id="h" overflow="visible" orient="auto"><path transform="matrix(-.4 0 0 -.4 -4 0)" d="m0 0 5-5-17.5 5 17.5 5z" fill-rule="evenodd" stroke="#000" stroke-width="1pt"/></marker><marker id="i" overflow="visible" orient="auto"><path transform="matrix(-.4 0 0 -.4 -4 0)" d="m0 0 5-5-17.5 5 17.5 5z" fill-rule="evenodd" stroke="#000" stroke-width="1pt"/></marker><marker id="j" overflow="visible" orient="auto"><path transform="matrix(-.4 0 0 -.4 -4 0)" d="m0 0 5-5-17.5 5 17.5 5z" fill="#f00" fill-rule="evenodd" stroke="#f00" stroke-width="1pt"/></marker><marker id="k" overflow="visible" orient="auto"><path transform="matrix(-.4 0 0 -.4 -4 0)" d="m0 0 5-5-17.5 5 17.5 5z" fill="#f00" fill-rule="evenodd" stroke="#f00" stroke-width="1pt"/></marker><marker id="l" overflow="visible" orient="auto"><path transform="matrix(-.4 0 0 -.4 -4 0)" d="m0 0 5-5-17.5 5 17.5 5z" fill="#f00" fill-rule="evenodd" stroke="#f00" stroke-width="1pt"/></marker><marker id="m" overflow="visible" orient="auto"><path transform="matrix(-.4 0 0 -.4 -4 0)" d="m0 0 5-5-17.5 5 17.5 5z" fill="#f00" fill-rule="evenodd" stroke="#f00" stroke-width="1pt"/></marker><marker id="n" overflow="visible" orient="auto"><path transform="matrix(-.4 0 0 -.4 -4 0)" d="m0 0 5-5-17.5 5 17.5 5z" fill="#f00" fill-rule="evenodd" stroke="#f00" stroke-width="1pt"/></marker><marker id="o" overflow="visible" orient="auto"><path transform="matrix(-.4 0 0 -.4 -4 0)" d="m0 0 5-5-17.5 5 17.5 5z" fill="#f00" fill-rule="evenodd" stroke="#f00" stroke-width="1pt"/></marker><marker id="p" overflow="visible" orient="auto"><path transform="matrix(-.4 0 0 -.4 -4 0)" d="m0 0 5-5-17.5 5 17.5 5z" fill-rule="evenodd" stroke="#000" stroke-width="1pt"/></marker><marker id="q" overflow="visible" orient="auto"><path transform="matrix(-.4 0 0 -.4 -4 0)" d="m0 0 5-5-17.5 5 17.5 5z" fill-rule="evenodd" stroke="#000" stroke-width="1pt"/></marker><marker id="r" overflow="visible" orient="auto"><path transform="matrix(-.4 0 0 -.4 -4 0)" d="m0 0 5-5-17.5 5 17.5 5z" fill-rule="evenodd" stroke="#000" stroke-width="1pt"/></marker><marker id="s" overflow="visible" orient="auto"><path transform="matrix(-.4 0 0 -.4 -4 0)" d="m0 0 5-5-17.5 5 17.5 5z" fill-rule="evenodd" stroke="#000" stroke-width="1pt"/></marker><marker id="t" overflow="visible" orient="auto"><path transform="matrix(-.4 0 0 -.4 -4 0)" d="m0 0 5-5-17.5 5 17.5 5z" fill-rule="evenodd" stroke="#000" stroke-width="1pt"/></marker><marker id="u" overflow="visible" orient="auto"><path transform="matrix(-.4 0 0 -.4 -4 0)" d="m0 0 5-5-17.5 5 17.5 5z" fill-rule="evenodd" stroke="#000" stroke-width="1pt"/></marker><marker id="v" overflow="visible" orient="auto"><path transform="matrix(-.4 0 0 -.4 -4 0)" d="m0 0 5-5-17.5 5 17.5 5z" fill-rule="evenodd" stroke="#000" stroke-width="1pt"/></marker><marker id="w" overflow="visible" orient="auto"><path transform="matrix(-.4 0 0 -.4 -4 0)" d="m0 0 5-5-17.5 5 17.5 5z" fill-rule="evenodd" stroke="#000" stroke-width="1pt"/></marker></defs><g transform="translate(91.659225,45.357143)"><rect x="-91.659225" y="-45.357143" width="716.26483" height="460.186" fill="#fff"/></g><g transform="translate(91.659225,45.357143)" fill="none" stroke="#000"><path d="m0 0h620" marker-end="url(#e)"/><path transform="matrix(1,0,0,-1,0,100)" d="m0 0h620" marker-end="url(#d)"/><path transform="translate(0,200)" d="m0 0h620" marker-end="url(#c)"/><path transform="matrix(1,0,0,-1,0,300)" d="m0 0h620" marker-end="url(#b)"/><path transform="translate(0,400)" d="m0 0h620" marker-end="url(#a)"/></g><g transform="translate(91.659225,45.357143)"><text x="-1.4433256" y="2.2517745" fill="#000000" font-family="sans-serif" font-size="10.5833px" stroke-width=".264583" text-align="end" text-anchor="end" style="line-height:1.25" xml:space="preserve"><tspan x="-1.4433271" y="2.2517745" stroke-width=".264583" text-align="end" text-anchor="end">primary</tspan></text><text x="-1.4433256" y="302.25226" fill="#0000ff" font-family="sans-serif" font-size="10.5833px" stroke-width=".264583" text-align="end" text-anchor="end" style="line-height:1.25" xml:space="preserve"><tspan x="-1.4433271" y="302.25226" fill="#0000ff" stroke-width=".264583" text-align="end" text-anchor="end">primary</tspan></text><g transform="translate(-208.59042,-42.717197)"><rect x="273.59042" y="37.717197" width="10" height="10" fill="#f00" stroke-linejoin="round"/><text x="283.19421" y="44.967915" font-family="sans-serif" font-size="7.05556px" stroke-width=".264583" text-align="end" text-anchor="end" style="line-height:1.25" xml:space="preserve"><tspan x="283.19421" y="44.967915" fill="#ffffff" stroke-width=".264583">q0</tspan></text></g><g transform="translate(45.000008)"><rect x="79.999992" y="-4.9999995" width="10" height="10" fill="#00f" stroke-linejoin="round"/><text x="89.60379" y="2.2507176" font-family="sans-serif" font-size="7.05556px" stroke-width=".264583" text-align="end" text-anchor="end" style="line-height:1.25" xml:space="preserve"><tspan x="89.60379" y="2.2507176" fill="#ffffff" stroke-width=".264583">q0</tspan></text></g><g transform="translate(-196.85239)"><rect x="441.85239" y=".00012209643" width="20" height="10" stroke-linejoin="round" stroke-width="1.41421"/><text x="460.95868" y="7.8137827" font-family="sans-serif" font-size="7.05556px" stroke-width=".264583" text-align="end" text-anchor="end" style="line-height:1.25" xml:space="preserve"><tspan x="460.95868" y="7.8137827" fill="#ffffff" stroke-width=".264583">head</tspan></text><rect x="441.85239" y="-9.9998779" width="10" height="10" fill="#f00" stroke-linejoin="round"/><text x="449.33948" y="-2.7491605" font-family="sans-serif" font-size="7.05556px" stroke-width=".264583" text-align="end" text-anchor="end" style="line-height:1.25" xml:space="preserve"><tspan x="449.33948" y="-2.7491605" fill="#ffffff" stroke-width=".264583">0</tspan></text><rect x="451.85239" y="-9.9998779" width="10" height="10" fill="#00f" stroke-linejoin="round"/><text x="459.33948" y="-2.7491605" font-family="sans-serif" font-size="7.05556px" stroke-width=".264583" text-align="end" text-anchor="end" style="line-height:1.25" xml:space="preserve"><tspan x="459.33948" y="-2.7491605" fill="#ffffff" stroke-width=".264583">0</tspan></text></g><g transform="translate(-181.85239,99.999878)"><rect x="441.85239" y=".00012209643" width="20" height="10" stroke-linejoin="round" stroke-width="1.41421"/><text x="460.95868" y="7.8137827" font-family="sans-serif" font-size="7.05556px" stroke-width=".264583" text-align="end" text-anchor="end" style="line-height:1.25" xml:space="preserve"><tspan x="460.95868" y="7.8137827" fill="#ffffff" stroke-width=".264583">head</tspan></text><rect x="441.85239" y="-9.9998779" width="10" height="10" fill="#f00" stroke-linejoin="round"/><text x="449.33948" y="-2.7491605" font-family="sans-serif" font-size="7.05556px" stroke-width=".264583" text-align="end" text-anchor="end" style="line-height:1.25" xml:space="preserve"><tspan x="449.33948" y="-2.7491605" fill="#ffffff" stroke-width=".264583">0</tspan></text><rect x="451.85239" y="-9.9998779" width="10" height="10" fill="#00f" stroke-linejoin="round"/><text x="459.33948" y="-2.7491605" font-family="sans-serif" font-size="7.05556px" stroke-width=".264583" text-align="end" text-anchor="end" style="line-height:1.25" xml:space="preserve"><tspan x="459.33948" y="-2.7491605" fill="#ffffff" stroke-width=".264583">0</tspan></text></g><g transform="translate(-181.85239,199.99988)"><rect x="441.85239" y=".00012209643" width="20" height="10" stroke-linejoin="round" stroke-width="1.41421"/><text x="460.95868" y="7.8137827" font-family="sans-serif" font-size="7.05556px" stroke-width=".264583" text-align="end" text-anchor="end" style="line-height:1.25" xml:space="preserve"><tspan x="460.95868" y="7.8137827" fill="#ffffff" stroke-width=".264583">head</tspan></text><rect x="441.85239" y="-9.9998779" width="10" height="10" fill="#f00" stroke-linejoin="round"/><text x="449.33948" y="-2.7491605" font-family="sans-serif" font-size="7.05556px" stroke-width=".264583" text-align="end" text-anchor="end" style="line-height:1.25" xml:space="preserve"><tspan x="449.33948" y="-2.7491605" fill="#ffffff" stroke-width=".264583">0</tspan></text><rect x="451.85239" y="-9.9998779" width="10" height="10" fill="#00f" stroke-linejoin="round"/><text x="459.33948" y="-2.7491605" font-family="sans-serif" font-size="7.05556px" stroke-width=".264583" text-align="end" text-anchor="end" style="line-height:1.25" xml:space="preserve"><tspan x="459.33948" y="-2.7491605" fill="#ffffff" stroke-width=".264583">0</tspan></text></g><path d="m298.66025 4.9999956-5.7735-3e-7 -2.88675-4.999997802 2.88675-4.999997498 5.7735 3e-7 2.88675 4.999997762z"/><path transform="matrix(1,0,0,-1,269.86703,232.78369)" d="m10.132968 42.783687c5.629458 60.798163 11.258889 121.596023 16.888295 182.393613" fill="none" marker-end="url(#w)" stroke="#000" stroke-width=".5"/><path transform="matrix(1,0,0,-1,269.86703,132.78369)" d="m10.132968 42.783687c4.878889 27.209191 9.757728 54.418107 14.636523 81.626773" fill="none" marker-end="url(#v)" stroke="#000" stroke-width=".5"/><text x="298.15472" y="2.2507172" font-family="sans-serif" font-size="7.05556px" stroke-width=".264583" text-align="end" text-anchor="end" style="line-height:1.25" xml:space="preserve"><tspan x="298.15472" y="2.2507172" fill="#ffffff" stroke-width=".264583">a</tspan></text><g transform="translate(53.147614)"><rect x="441.85239" y=".00012209643" width="20" height="10" stroke-linejoin="round" stroke-width="1.41421"/><text x="460.95868" y="7.8137827" font-family="sans-serif" font-size="7.05556px" stroke-width=".264583" text-align="end" text-anchor="end" style="line-height:1.25" xml:space="preserve"><tspan x="460.95868" y="7.8137827" fill="#ffffff" stroke-width=".264583">head</tspan></text><rect x="441.85239" y="-9.9998779" width="10" height="10" fill="#f00" stroke-linejoin="round"/><text x="449.33948" y="-2.7491605" font-family="sans-serif" font-size="7.05556px" stroke-width=".264583" text-align="end" text-anchor="end" style="line-height:1.25" xml:space="preserve"><tspan x="449.33948" y="-2.7491605" fill="#ffffff" stroke-width=".264583">1</tspan></text><rect x="451.85239" y="-9.9998779" width="10" height="10" fill="#00f" stroke-linejoin="round"/><text x="459.33948" y="-2.7491605" font-family="sans-serif" font-size="7.05556px" stroke-width=".264583" text-align="end" text-anchor="end" style="line-height:1.25" xml:space="preserve"><tspan x="459.33948" y="-2.7491605" fill="#ffffff" stroke-width=".264583">0</tspan></text></g><g transform="translate(68.147614,99.999878)"><rect x="441.85239" y=".00012209643" width="20" height="10" stroke-linejoin="round" stroke-width="1.41421"/><text x="460.95868" y="7.8137827" font-family="sans-serif" font-size="7.05556px" stroke-width=".264583" text-align="end" text-anchor="end" style="line-height:1.25" xml:space="preserve"><tspan x="460.95868" y="7.8137827" fill="#ffffff" stroke-width=".264583">head</tspan></text><rect x="441.85239" y="-9.9998779" width="10" height="10" fill="#f00" stroke-linejoin="round"/><text x="449.33948" y="-2.7491605" font-family="sans-serif" font-size="7.05556px" stroke-width=".264583" text-align="end" text-anchor="end" style="line-height:1.25" xml:space="preserve"><tspan x="449.33948" y="-2.7491605" fill="#ffffff" stroke-width=".264583">1</tspan></text><rect x="451.85239" y="-9.9998779" width="10" height="10" fill="#00f" stroke-linejoin="round"/><text x="459.33948" y="-2.7491605" font-family="sans-serif" font-size="7.05556px" stroke-width=".264583" text-align="end" text-anchor="end" style="line-height:1.25" xml:space="preserve"><tspan x="459.33948" y="-2.7491605" fill="#ffffff" stroke-width=".264583">0</tspan></text></g><g transform="translate(68.147614,199.99988)"><rect x="441.85239" y=".00012209643" width="20" height="10" stroke-linejoin="round" stroke-width="1.41421"/><text x="460.95868" y="7.8137827" font-family="sans-serif" font-size="7.05556px" stroke-width=".264583" text-align="end" text-anchor="end" style="line-height:1.25" xml:space="preserve"><tspan x="460.95868" y="7.8137827" fill="#ffffff" stroke-width=".264583">head</tspan></text><rect x="441.85239" y="-9.9998779" width="10" height="10" fill="#f00" stroke-linejoin="round"/><text x="449.33948" y="-2.7491605" font-family="sans-serif" font-size="7.05556px" stroke-width=".264583" text-align="end" text-anchor="end" style="line-height:1.25" xml:space="preserve"><tspan x="449.33948" y="-2.7491605" fill="#ffffff" stroke-width=".264583">1</tspan></text><rect x="451.85239" y="-9.9998779" width="10" height="10" fill="#00f" stroke-linejoin="round"/><text x="459.33948" y="-2.7491605" font-family="sans-serif" font-size="7.05556px" stroke-width=".264583" text-align="end" text-anchor="end" style="line-height:1.25" xml:space="preserve"><tspan x="459.33948" y="-2.7491605" fill="#ffffff" stroke-width=".264583">0</tspan></text></g><path d="m546.66025 4.9999956-5.7735-3e-7 -2.88675-4.999997802 2.88675-4.999997498 5.7735 3e-7 2.88675 4.999997762z"/><path transform="matrix(1,0,0,-1,517.86703,232.78369)" d="m10.132968 42.783687c5.629458 60.798163 11.258889 121.596023 16.888295 182.393613" fill="none" marker-end="url(#t)" stroke="#000" stroke-width=".5"/><path transform="matrix(1,0,0,-1,517.86703,132.78369)" d="m10.132968 42.783687c4.878889 27.209191 9.757728 54.418107 14.636523 81.626773" fill="none" marker-end="url(#u)" stroke="#000" stroke-width=".5"/><text x="546.15472" y="2.2507172" font-family="sans-serif" font-size="7.05556px" stroke-width=".264583" text-align="end" text-anchor="end" style="line-height:1.25" xml:space="preserve"><tspan x="546.15472" y="2.2507172" fill="#ffffff" stroke-width=".264583">a</tspan></text><g transform="translate(71.40958,-42.717197)"><rect x="273.59042" y="37.717197" width="10" height="10" fill="#f00" stroke-linejoin="round"/><text x="283.19421" y="44.967915" font-family="sans-serif" font-size="7.05556px" stroke-width=".264583" text-align="end" text-anchor="end" style="line-height:1.25" xml:space="preserve"><tspan x="283.19421" y="44.967915" fill="#ffffff" stroke-width=".264583">q1</tspan></text></g><g transform="translate(-181.85239,299.99988)"><rect x="441.85239" y=".00012209643" width="20" height="10" stroke-linejoin="round" stroke-width="1.41421"/><text x="460.95868" y="7.8137827" font-family="sans-serif" font-size="7.05556px" stroke-width=".264583" text-align="end" text-anchor="end" style="line-height:1.25" xml:space="preserve"><tspan x="460.95868" y="7.8137827" fill="#ffffff" stroke-width=".264583">head</tspan></text><rect x="441.85239" y="-9.9998779" width="10" height="10" fill="#f00" stroke-linejoin="round"/><text x="449.33948" y="-2.7491605" font-family="sans-serif" font-size="7.05556px" stroke-width=".264583" text-align="end" text-anchor="end" style="line-height:1.25" xml:space="preserve"><tspan x="449.33948" y="-2.7491605" fill="#ffffff" stroke-width=".264583">0</tspan></text><rect x="451.85239" y="-9.9998779" width="10" height="10" fill="#00f" stroke-linejoin="round"/><text x="459.33948" y="-2.7491605" font-family="sans-serif" font-size="7.05556px" stroke-width=".264583" text-align="end" text-anchor="end" style="line-height:1.25" xml:space="preserve"><tspan x="459.33948" y="-2.7491605" fill="#ffffff" stroke-width=".264583">0</tspan></text></g><path transform="matrix(1,0,0,-1,284.86697,232.78369)" d="M -4.8669735,-57.216312 C 5.7625046,36.915476 16.391915,131.04666 27.021263,225.1773" fill="none" marker-end="url(#s)" stroke="#000" stroke-width=".5"/><path d="m313.66025 4.9999956-5.7735-3e-7 -2.88675-4.999997802 2.88675-4.999997498 5.7735 3e-7 2.88675 4.999997762z" fill="#00f"/><text x="315.8006" y="2.2507172" font-family="sans-serif" font-size="7.05556px" stroke-width=".264583" text-align="end" text-anchor="end" style="line-height:1.25" xml:space="preserve"><tspan x="315.8006" y="2.2507172" fill="#ffffff" stroke-width=".264583">b1</tspan></text><path transform="translate(250.39614,67.216434)" d="M -4.8669735,-57.216312 C 1.2589302,35.601927 7.3847949,128.41958 13.510625,221.2367" fill="none" marker-end="url(#r)" stroke="#000" stroke-width=".5"/><text x="-1.4433256" y="402.25226" fill="#ff0000" font-family="sans-serif" font-size="10.5833px" stroke-width=".264583" text-align="end" text-anchor="end" style="line-height:1.25" xml:space="preserve"><tspan x="-1.4433271" y="402.25226" fill="#ff0000" stroke-width=".264583" text-align="end" text-anchor="end">primary</tspan></text><g transform="translate(-181.85239,399.99988)"><rect x="441.85239" y=".00012209643" width="20" height="10" stroke-linejoin="round" stroke-width="1.41421"/><text x="460.95868" y="7.8137827" font-family="sans-serif" font-size="7.05556px" stroke-width=".264583" text-align="end" text-anchor="end" style="line-height:1.25" xml:space="preserve"><tspan x="460.95868" y="7.8137827" fill="#ffffff" stroke-width=".264583">head</tspan></text><rect x="441.85239" y="-9.9998779" width="10" height="10" fill="#f00" stroke-linejoin="round"/><text x="449.33948" y="-2.7491605" font-family="sans-serif" font-size="7.05556px" stroke-width=".264583" text-align="end" text-anchor="end" style="line-height:1.25" xml:space="preserve"><tspan x="449.33948" y="-2.7491605" fill="#ffffff" stroke-width=".264583">0</tspan></text><rect x="451.85239" y="-9.9998779" width="10" height="10" fill="#00f" stroke-linejoin="round"/><text x="459.33948" y="-2.7491605" font-family="sans-serif" font-size="7.05556px" stroke-width=".264583" text-align="end" text-anchor="end" style="line-height:1.25" xml:space="preserve"><tspan x="459.33948" y="-2.7491605" fill="#ffffff" stroke-width=".264583">0</tspan></text></g><path transform="translate(250.39614,67.216434)" d="M -4.8669735,-57.216312 C 0.69597881,68.440381 6.2589004,194.09638 11.821795,319.75177" fill="none" marker-end="url(#q)" stroke="#000" stroke-width=".5"/><path transform="matrix(1,0,0,-1,299.86739,232.78369)" d="m-19.867394-157.21631c15.6296595 127.465411 31.259209 254.929925 46.888657 382.39361" fill="none" marker-end="url(#p)" stroke="#000" stroke-width=".5"/><path d="m328.66068 4.9999956-5.7735-3e-7 -2.88675-4.999997802 2.88675-4.999997498 5.7735 3e-7 2.88675 4.999997762z" fill="#f00"/><text x="330.80103" y="2.2507172" font-family="sans-serif" font-size="7.05556px" stroke-width=".264583" text-align="end" text-anchor="end" style="line-height:1.25" xml:space="preserve"><tspan x="330.80103" y="2.2507172" fill="#ffffff" stroke-width=".264583">b1</tspan></text><g transform="translate(0,100)"><path d="m328.66068 4.9999956-5.7735-3e-7 -2.88675-4.999997802 2.88675-4.999997498 5.7735 3e-7 2.88675 4.999997762z" fill="#f00"/><text x="330.80103" y="2.2507172" font-family="sans-serif" font-size="7.05556px" stroke-width=".264583" text-align="end" text-anchor="end" style="line-height:1.25" xml:space="preserve"><tspan x="330.80103" y="2.2507172" fill="#ffffff" stroke-width=".264583">b1</tspan></text></g><g transform="translate(0,200)"><path d="m328.66068 4.9999956-5.7735-3e-7 -2.88675-4.999997802 2.88675-4.999997498 5.7735 3e-7 2.88675 4.999997762z" fill="#f00"/><text x="330.80103" y="2.2507172" font-family="sans-serif" font-size="7.05556px" stroke-width=".264583" text-align="end" text-anchor="end" style="line-height:1.25" xml:space="preserve"><tspan x="330.80103" y="2.2507172" fill="#ffffff" stroke-width=".264583">b1</tspan></text></g><g transform="translate(0,400)"><path d="m328.66068 4.9999956-5.7735-3e-7 -2.88675-4.999997802 2.88675-4.999997498 5.7735 3e-7 2.88675 4.999997762z" fill="#f00"/><text x="330.80103" y="2.2507172" font-family="sans-serif" font-size="7.05556px" stroke-width=".264583" text-align="end" text-anchor="end" style="line-height:1.25" xml:space="preserve"><tspan x="330.80103" y="2.2507172" fill="#ffffff" stroke-width=".264583">b1</tspan></text></g><g fill="none" stroke="#f00" stroke-width=".5"><path transform="matrix(1,0,0,-1,324.86754,232.78369)" d="m3.793136-162.21631c7.742761 129.132073 15.485469 258.263253 23.228127 387.39361" marker-end="url(#o)"/><path transform="matrix(1,0,0,-1,322.22169,232.78369)" d="m6.438986 37.78369c6.860793 62.46484 13.721551 124.92937 20.582277 187.39361" marker-end="url(#n)"/><path transform="matrix(1,0,0,-1,319.04667,232.78369)" d="m9.614006 137.78369c5.802428 29.13125 11.604847 58.26245 17.407257 87.39361" marker-end="url(#m)"/></g><g transform="translate(321.40917,-42.717197)"><rect x="273.59042" y="37.717197" width="10" height="10" fill="#f00" stroke-linejoin="round"/><text x="283.19421" y="44.967915" font-family="sans-serif" font-size="7.05556px" stroke-width=".264583" text-align="end" text-anchor="end" style="line-height:1.25" xml:space="preserve"><tspan x="283.19421" y="44.967915" fill="#ffffff" stroke-width=".264583">q2</tspan></text></g><g transform="translate(68.147199,299.99988)"><rect x="441.85239" y=".00012209643" width="20" height="10" stroke-linejoin="round" stroke-width="1.41421"/><text x="460.95868" y="7.8137827" font-family="sans-serif" font-size="7.05556px" stroke-width=".264583" text-align="end" text-anchor="end" style="line-height:1.25" xml:space="preserve"><tspan x="460.95868" y="7.8137827" fill="#ffffff" stroke-width=".264583">head</tspan></text><rect x="441.85239" y="-9.9998779" width="10" height="10" fill="#f00" stroke-linejoin="round"/><text x="449.33948" y="-2.7491605" font-family="sans-serif" font-size="7.05556px" stroke-width=".264583" text-align="end" text-anchor="end" style="line-height:1.25" xml:space="preserve"><tspan x="449.33948" y="-2.7491605" fill="#ffffff" stroke-width=".264583">1</tspan></text><rect x="451.85239" y="-9.9998779" width="10" height="10" fill="#00f" stroke-linejoin="round"/><text x="459.33948" y="-2.7491605" font-family="sans-serif" font-size="7.05556px" stroke-width=".264583" text-align="end" text-anchor="end" style="line-height:1.25" xml:space="preserve"><tspan x="459.33948" y="-2.7491605" fill="#ffffff" stroke-width=".264583">0</tspan></text></g><path transform="matrix(1,0,0,-1,534.86656,232.78369)" d="M -4.8669735,-57.216312 C 6.1378029,38.416671 17.142508,134.04903 28.14715,229.68085" fill="none" marker-end="url(#f)" stroke="#000" stroke-width=".5"/><path transform="translate(500.39573,67.216434)" d="M -4.8669735,-57.216312 C 1.2589302,35.601927 7.3847949,128.41958 13.510625,221.2367" fill="none" marker-end="url(#g)" stroke="#000" stroke-width=".5"/><g transform="translate(68.147199,399.99988)"><rect x="441.85239" y=".00012209643" width="20" height="10" stroke-linejoin="round" stroke-width="1.41421"/><text x="460.95868" y="7.8137827" font-family="sans-serif" font-size="7.05556px" stroke-width=".264583" text-align="end" text-anchor="end" style="line-height:1.25" xml:space="preserve"><tspan x="460.95868" y="7.8137827" fill="#ffffff" stroke-width=".264583">head</tspan></text><rect x="441.85239" y="-9.9998779" width="10" height="10" fill="#f00" stroke-linejoin="round"/><text x="449.33948" y="-2.7491605" font-family="sans-serif" font-size="7.05556px" stroke-width=".264583" text-align="end" text-anchor="end" style="line-height:1.25" xml:space="preserve"><tspan x="449.33948" y="-2.7491605" fill="#ffffff" stroke-width=".264583">1</tspan></text><rect x="451.85239" y="-9.9998779" width="10" height="10" fill="#00f" stroke-linejoin="round"/><text x="459.33948" y="-2.7491605" font-family="sans-serif" font-size="7.05556px" stroke-width=".264583" text-align="end" text-anchor="end" style="line-height:1.25" xml:space="preserve"><tspan x="459.33948" y="-2.7491605" fill="#ffffff" stroke-width=".264583">0</tspan></text></g><path transform="translate(500.39573,67.216434)" d="M -4.8669735,-57.216312 C 0.69597881,68.440381 6.2589004,194.09638 11.821795,319.75177" fill="none" marker-end="url(#h)" stroke="#000" stroke-width=".5"/><path transform="matrix(1,0,0,-1,549.86698,232.78369)" d="m-19.867394-157.21631c15.6296595 127.465411 31.259209 254.929925 46.888657 382.39361" fill="none" marker-end="url(#i)" stroke="#000" stroke-width=".5"/><g transform="translate(249.99959)"><path d="m328.66068 4.9999956-5.7735-3e-7 -2.88675-4.999997802 2.88675-4.999997498 5.7735 3e-7 2.88675 4.999997762z" fill="#f00"/><text x="330.80103" y="2.2507172" font-family="sans-serif" font-size="7.05556px" stroke-width=".264583" text-align="end" text-anchor="end" style="line-height:1.25" xml:space="preserve"><tspan x="330.80103" y="2.2507172" fill="#ffffff" stroke-width=".264583">b2</tspan></text></g><g transform="translate(249.99959,100)"><path d="m328.66068 4.9999956-5.7735-3e-7 -2.88675-4.999997802 2.88675-4.999997498 5.7735 3e-7 2.88675 4.999997762z" fill="#f00"/><text x="330.80103" y="2.2507172" font-family="sans-serif" font-size="7.05556px" stroke-width=".264583" text-align="end" text-anchor="end" style="line-height:1.25" xml:space="preserve"><tspan x="330.80103" y="2.2507172" fill="#ffffff" stroke-width=".264583">b2</tspan></text></g><g transform="translate(249.99959,200)"><path d="m328.66068 4.9999956-5.7735-3e-7 -2.88675-4.999997802 2.88675-4.999997498 5.7735 3e-7 2.88675 4.999997762z" fill="#f00"/><text x="330.80103" y="2.2507172" font-family="sans-serif" font-size="7.05556px" stroke-width=".264583" text-align="end" text-anchor="end" style="line-height:1.25" xml:space="preserve"><tspan x="330.80103" y="2.2507172" fill="#ffffff" stroke-width=".264583">b2</tspan></text></g><g transform="translate(249.99959,400)"><path d="m328.66068 4.9999956-5.7735-3e-7 -2.88675-4.999997802 2.88675-4.999997498 5.7735 3e-7 2.88675 4.999997762z" fill="#f00"/><text x="330.80103" y="2.2507172" font-family="sans-serif" font-size="7.05556px" stroke-width=".264583" text-align="end" text-anchor="end" style="line-height:1.25" xml:space="preserve"><tspan x="330.80103" y="2.2507172" fill="#ffffff" stroke-width=".264583">b2</tspan></text></g><g fill="none" stroke="#f00" stroke-width=".5"><path transform="matrix(1,0,0,-1,574.86713,232.78369)" d="m3.793136-162.21631c7.742761 129.132073 15.485469 258.263253 23.228127 387.39361" marker-end="url(#j)"/><path transform="matrix(1,0,0,-1,572.22128,232.78369)" d="m6.438986 37.78369c6.860793 62.46484 13.721551 124.92937 20.582277 187.39361" marker-end="url(#k)"/><path transform="matrix(1,0,0,-1,569.04626,232.78369)" d="m9.614006 137.78369c5.802428 29.13125 11.604847 58.26245 17.407257 87.39361" marker-end="url(#l)"/></g><g font-family="sans-serif" font-size="7.05556px" stroke-width=".264583" text-anchor="end"><text transform="rotate(-79.693475)" x="41.294003" y="288.38474" text-align="end" style="line-height:1.25" xml:space="preserve"><tspan x="41.293999" y="288.38474" stroke-width=".264583">availability + integrity</tspan></text><text transform="rotate(-84.074086)" x="-80.011086" y="295.16931" text-align="end" style="line-height:1.25" xml:space="preserve"><tspan x="-80.011086" y="295.16931" stroke-width=".264583">availability + integrity</tspan></text><text transform="rotate(-82.89498)" x="-203.34328" y="310.52502" text-align="end" style="line-height:1.25" xml:space="preserve"><tspan x="-203.34328" y="310.52502" stroke-width=".264583">integrity only</tspan></text><text transform="rotate(-82.89498)" x="-303.9646" y="322.49973" text-align="end" style="line-height:1.25" xml:space="preserve"><tspan x="-303.9646" y="322.49973" stroke-width=".264583">integrity only</tspan></text><text transform="rotate(-79.693475)" x="85.83329" y="533.31" text-align="end" style="line-height:1.25" xml:space="preserve"><tspan x="85.83329" y="533.31" stroke-width=".264583">availability + integrity</tspan></text><text transform="rotate(-84.074086)" x="-54.309711" y="542.78101" text-align="end" style="line-height:1.25" xml:space="preserve"><tspan x="-54.309715" y="542.78101" stroke-width=".264583">availability + integrity</tspan></text><text transform="rotate(-82.89498)" x="-172.42113" y="558.60565" text-align="end" style="line-height:1.25" xml:space="preserve"><tspan x="-172.42113" y="558.60565" stroke-width=".264583">integrity only</tspan></text><text transform="rotate(-82.89498)" x="-273.04245" y="570.58038" text-align="end" style="line-height:1.25" xml:space="preserve"><tspan x="-273.04245" y="570.58038" stroke-width=".264583">integrity only</tspan></text></g><g font-family="sans-serif" font-size="10.5833px" stroke-width=".264583"><text x="-0.38499233" y="102.25227" fill="#ff0000" text-align="end" text-anchor="end" style="line-height:1.25" xml:space="preserve"><tspan x="-0.38499203" y="102.25227" fill="#ff0000" stroke-width=".264583" text-align="end" text-anchor="end">mary</tspan></text><text x="-41.657799" y="102.25227" fill="#0000ff" style="line-height:1.25" xml:space="preserve"><tspan x="-41.657799" y="102.25227" fill="#0000ff" stroke-width=".264583">pri</tspan></text></g><g transform="translate(0,99.999999)" font-family="sans-serif" font-size="10.5833px" stroke-width=".264583"><text x="-0.38499233" y="102.25227" fill="#ff0000" text-align="end" text-anchor="end" style="line-height:1.25" xml:space="preserve"><tspan x="-0.38499203" y="102.25227" fill="#ff0000" stroke-width=".264583" text-align="end" text-anchor="end">mary</tspan></text><text x="-41.657799" y="102.25227" fill="#0000ff" style="line-height:1.25" xml:space="preserve"><tspan x="-41.657799" y="102.25227" fill="#0000ff" stroke-width=".264583">pri</tspan></text></g><path transform="translate(18.266815,-22.584568)" d="m-43.845239-17.386905c-10.331082 0-20.662431 0-25.828238 25.325043s-5.165807 75.972841-9.953469 101.297112c-4.787662 25.32427-14.362869 25.32427-23.938524 25.32427" fill="none" stroke="#000" stroke-width="5"/><path transform="matrix(1,0,0,-1,18.266815,246.53447)" d="m-43.845239-17.386905c-10.331082 0-20.662431 0-25.828238 25.325043s-5.165807 75.972841-9.953469 101.297112c-4.787662 25.32427-14.362869 25.32427-23.938524 25.32427" fill="none" stroke="#000" stroke-width="5"/></g></svg>
