<?xml version="1.0" encoding="UTF-8"?>
<svg width="426.35718mm" height="22.67857mm" version="1.1" viewBox="0 0 426.35718 22.67857" xmlns="http://www.w3.org/2000/svg"><defs><marker id="a" overflow="visible" orient="auto"><path transform="matrix(-.4 0 0 -.4 -4 0)" d="m0 0 5-5-17.5 5 17.5 5z" fill-rule="evenodd" stroke="#000" stroke-width="1pt"/></marker></defs><rect width="426.35718" height="22.67857" fill="#fff" stroke-linejoin="round" stroke-width="1.76458"/><g transform="translate(43.845242,11.339286)"><path d="m0 0h380" fill="none" marker-end="url(#a)" stroke="#000"/><text x="-1.4433256" y="2.2517745" fill="#000000" font-family="sans-serif" font-size="10.5833px" stroke-width=".264583" text-align="end" text-anchor="end" style="line-height:1.25" xml:space="preserve"><tspan x="-1.4433271" y="2.2517745" stroke-width=".264583" text-align="end" text-anchor="end">primary</tspan></text><g transform="translate(-168.59042,-42.717197)"><rect x="273.59042" y="37.717197" width="10" height="10" fill="#f00" stroke-linejoin="round"/><text x="283.19421" y="44.967915" font-family="sans-serif" font-size="7.05556px" stroke-width=".264583" text-align="end" text-anchor="end" style="line-height:1.25" xml:space="preserve"><tspan x="283.19421" y="44.967915" fill="#ffffff" stroke-width=".264583">q1</tspan></text></g><g transform="translate(165.00001)"><rect x="79.999992" y="-4.9999995" width="10" height="10" fill="#00f" stroke-linejoin="round"/><text x="89.60379" y="2.2507176" font-family="sans-serif" font-size="7.05556px" stroke-width=".264583" text-align="end" text-anchor="end" style="line-height:1.25" xml:space="preserve"><tspan x="89.60379" y="2.2507176" fill="#ffffff" stroke-width=".264583">q1</tspan></text></g><g transform="translate(85.000004)"><rect x="34.999996" y=".00012209643" width="20" height="10" stroke-linejoin="round" stroke-width="1.41421"/><text x="46.219681" y="7.8137827" font-family="sans-serif" font-size="7.05556px" stroke-width=".264583" text-align="center" text-anchor="middle" style="line-height:1.25" xml:space="preserve"><tspan x="46.219681" y="7.8137827" fill="#ffffff" stroke-width=".264583" text-align="center" text-anchor="middle">h2</tspan></text><rect x="34.999996" y="-9.9998779" width="10" height="10" fill="#f00" stroke-linejoin="round"/><text x="42.487087" y="-2.7491605" font-family="sans-serif" font-size="7.05556px" stroke-width=".264583" text-align="end" text-anchor="end" style="line-height:1.25" xml:space="preserve"><tspan x="42.487087" y="-2.7491605" fill="#ffffff" stroke-width=".264583">1</tspan></text><rect x="44.999996" y="-9.9998779" width="10" height="10" fill="#00f" stroke-linejoin="round"/><text x="52.487087" y="-2.7491605" font-family="sans-serif" font-size="7.05556px" stroke-width=".264583" text-align="end" text-anchor="end" style="line-height:1.25" xml:space="preserve"><tspan x="52.487087" y="-2.7491605" fill="#ffffff" stroke-width=".264583">0</tspan></text></g><g transform="translate(-98.590424,-42.717197)"><rect x="273.59042" y="37.717197" width="10" height="10" fill="#f00" stroke-linejoin="round"/><text x="283.19421" y="44.967915" font-family="sans-serif" font-size="7.05556px" stroke-width=".264583" text-align="end" text-anchor="end" style="line-height:1.25" xml:space="preserve"><tspan x="283.19421" y="44.967915" fill="#ffffff" stroke-width=".264583">q2</tspan></text></g><g transform="translate(-154.99985)"><path d="m323.6601 4.9999956-5.7735-3e-7 -2.88675-4.999997802 2.88675-4.999997498 5.7735 3e-7 2.88675 4.999997762z" fill="#f00"/><text x="325.27127" y="2.2507172" font-family="sans-serif" font-size="7.05556px" stroke-width=".264583" text-align="end" text-anchor="end" style="line-height:1.25" xml:space="preserve"><tspan x="325.27127" y="2.2507172" fill="#ffffff" stroke-width=".264583">b2</tspan></text></g><g transform="translate(3.8146973e-6)"><rect x="34.999996" y=".00012209643" width="20" height="10" stroke-linejoin="round" stroke-width="1.41421"/><text x="46.219681" y="7.8137827" font-family="sans-serif" font-size="7.05556px" stroke-width=".264583" text-align="center" text-anchor="middle" style="line-height:1.25" xml:space="preserve"><tspan x="46.219681" y="7.8137827" fill="#ffffff" stroke-width=".264583" text-align="center" text-anchor="middle">h1</tspan></text><rect x="34.999996" y="-9.9998779" width="10" height="10" fill="#f00" stroke-linejoin="round"/><text x="42.487087" y="-2.7491605" font-family="sans-serif" font-size="7.05556px" stroke-width=".264583" text-align="end" text-anchor="end" style="line-height:1.25" xml:space="preserve"><tspan x="42.487087" y="-2.7491605" fill="#ffffff" stroke-width=".264583">0</tspan></text><rect x="44.999996" y="-9.9998779" width="10" height="10" fill="#00f" stroke-linejoin="round"/><text x="52.487087" y="-2.7491605" font-family="sans-serif" font-size="7.05556px" stroke-width=".264583" text-align="end" text-anchor="end" style="line-height:1.25" xml:space="preserve"><tspan x="52.487087" y="-2.7491605" fill="#ffffff" stroke-width=".264583">0</tspan></text></g><g transform="translate(-230)"><path d="m298.66025 4.9999956-5.7735-3e-7 -2.88675-4.999997802 2.88675-4.999997498 5.7735 3e-7 2.88675 4.999997762z"/><text x="298.15472" y="2.2507172" font-family="sans-serif" font-size="7.05556px" stroke-width=".264583" text-align="end" text-anchor="end" style="line-height:1.25" xml:space="preserve"><tspan x="298.15472" y="2.2507172" fill="#ffffff" stroke-width=".264583">a</tspan></text></g><g transform="translate(-253.59042,-42.717197)"><rect x="273.59042" y="37.717197" width="10" height="10" fill="#f00" stroke-linejoin="round"/><text x="283.19421" y="44.967915" font-family="sans-serif" font-size="7.05556px" stroke-width=".264583" text-align="end" text-anchor="end" style="line-height:1.25" xml:space="preserve"><tspan x="283.19421" y="44.967915" fill="#ffffff" stroke-width=".264583">q0</tspan></text></g><g transform="translate(-74.999992)"><rect x="79.999992" y="-4.9999995" width="10" height="10" fill="#00f" stroke-linejoin="round"/><text x="89.60379" y="2.2507176" font-family="sans-serif" font-size="7.05556px" stroke-width=".264583" text-align="end" text-anchor="end" style="line-height:1.25" xml:space="preserve"><tspan x="89.60379" y="2.2507176" fill="#ffffff" stroke-width=".264583">q0</tspan></text></g><g transform="translate(-230)"><path d="m313.66025 4.9999956-5.7735-3e-7 -2.88675-4.999997802 2.88675-4.999997498 5.7735 3e-7 2.88675 4.999997762z" fill="#00f"/><text x="315.27142" y="2.2507172" font-family="sans-serif" font-size="7.05556px" stroke-width=".264583" text-align="end" text-anchor="end" style="line-height:1.25" xml:space="preserve"><tspan x="315.27142" y="2.2507172" fill="#ffffff" stroke-width=".264583">b1</tspan></text></g><g transform="translate(-34.999846)"><path d="m133.6601 4.9999956-5.7735-3e-7 -2.88675-4.999997802 2.88675-4.999997498 5.7735 3e-7 2.88675 4.999997762z" fill="#f00"/><text x="135.27127" y="2.2507172" font-family="sans-serif" font-size="7.05556px" stroke-width=".264583" text-align="end" text-anchor="end" style="line-height:1.25" xml:space="preserve"><tspan x="135.27127" y="2.2507172" fill="#ffffff" stroke-width=".264583">b1</tspan></text></g><g transform="translate(-145)"><path d="m298.66025 4.9999956-5.7735-3e-7 -2.88675-4.999997802 2.88675-4.999997498 5.7735 3e-7 2.88675 4.999997762z"/><text x="298.15472" y="2.2507172" font-family="sans-serif" font-size="7.05556px" stroke-width=".264583" text-align="end" text-anchor="end" style="line-height:1.25" xml:space="preserve"><tspan x="298.15472" y="2.2507172" fill="#ffffff" stroke-width=".264583">a</tspan></text></g><g transform="translate(155)"><rect x="34.999996" y=".00012209643" width="20" height="10" stroke-linejoin="round" stroke-width="1.41421"/><text x="46.219681" y="7.8137827" font-family="sans-serif" font-size="7.05556px" stroke-width=".264583" text-align="center" text-anchor="middle" style="line-height:1.25" xml:space="preserve"><tspan x="46.219681" y="7.8137827" fill="#ffffff" stroke-width=".264583" text-align="center" text-anchor="middle">h3</tspan></text><rect x="34.999996" y="-9.9998779" width="10" height="10" fill="#f00" stroke-linejoin="round"/><text x="42.487087" y="-2.7491605" font-family="sans-serif" font-size="7.05556px" stroke-width=".264583" text-align="end" text-anchor="end" style="line-height:1.25" xml:space="preserve"><tspan x="42.487087" y="-2.7491605" fill="#ffffff" stroke-width=".264583">2</tspan></text><rect x="44.999996" y="-9.9998779" width="10" height="10" fill="#00f" stroke-linejoin="round"/><text x="52.487087" y="-2.7491605" font-family="sans-serif" font-size="7.05556px" stroke-width=".264583" text-align="end" text-anchor="end" style="line-height:1.25" xml:space="preserve"><tspan x="52.487087" y="-2.7491605" fill="#ffffff" stroke-width=".264583">0</tspan></text></g><g transform="translate(-74.999999)"><path d="m298.66025 4.9999956-5.7735-3e-7 -2.88675-4.999997802 2.88675-4.999997498 5.7735 3e-7 2.88675 4.999997762z"/><text x="298.15472" y="2.2507172" font-family="sans-serif" font-size="7.05556px" stroke-width=".264583" text-align="end" text-anchor="end" style="line-height:1.25" xml:space="preserve"><tspan x="298.15472" y="2.2507172" fill="#ffffff" stroke-width=".264583">a</tspan></text></g><g transform="translate(-43.590424,-42.717197)"><rect x="273.59042" y="37.717197" width="10" height="10" fill="#f00" stroke-linejoin="round"/><text x="283.19421" y="44.967915" font-family="sans-serif" font-size="7.05556px" stroke-width=".264583" text-align="end" text-anchor="end" style="line-height:1.25" xml:space="preserve"><tspan x="283.19421" y="44.967915" fill="#ffffff" stroke-width=".264583">q6</tspan></text></g><g transform="translate(225)"><rect x="34.999996" y=".00012209643" width="20" height="10" stroke-linejoin="round" stroke-width="1.41421"/><text x="46.219681" y="7.8137827" font-family="sans-serif" font-size="7.05556px" stroke-width=".264583" text-align="center" text-anchor="middle" style="line-height:1.25" xml:space="preserve"><tspan x="46.219681" y="7.8137827" fill="#ffffff" stroke-width=".264583" text-align="center" text-anchor="middle">h4</tspan></text><rect x="34.999996" y="-9.9998779" width="10" height="10" fill="#f00" stroke-linejoin="round"/><text x="42.487087" y="-2.7491605" font-family="sans-serif" font-size="7.05556px" stroke-width=".264583" text-align="end" text-anchor="end" style="line-height:1.25" xml:space="preserve"><tspan x="42.487087" y="-2.7491605" fill="#ffffff" stroke-width=".264583">6</tspan></text><rect x="44.999996" y="-9.9998779" width="10" height="10" fill="#00f" stroke-linejoin="round"/><text x="52.487087" y="-2.7491605" font-family="sans-serif" font-size="7.05556px" stroke-width=".264583" text-align="end" text-anchor="end" style="line-height:1.25" xml:space="preserve"><tspan x="52.487087" y="-2.7491605" fill="#ffffff" stroke-width=".264583">1</tspan></text></g><g transform="translate(-4.9999986)"><path d="m298.66025 4.9999956-5.7735-3e-7 -2.88675-4.999997802 2.88675-4.999997498 5.7735 3e-7 2.88675 4.999997762z"/><text x="298.15472" y="2.2507172" font-family="sans-serif" font-size="7.05556px" stroke-width=".264583" text-align="end" text-anchor="end" style="line-height:1.25" xml:space="preserve"><tspan x="298.15472" y="2.2507172" fill="#ffffff" stroke-width=".264583">a</tspan></text></g><g transform="translate(-4.9999986)"><path d="m313.66025 4.9999956-5.7735-3e-7 -2.88675-4.999997802 2.88675-4.999997498 5.7735 3e-7 2.88675 4.999997762z" fill="#00f"/><text x="315.27142" y="2.2507172" font-family="sans-serif" font-size="7.05556px" stroke-width=".264583" text-align="end" text-anchor="end" style="line-height:1.25" xml:space="preserve"><tspan x="315.27142" y="2.2507172" fill="#ffffff" stroke-width=".264583">b2</tspan></text></g><g transform="translate(230.00015)"><path d="m133.6601 4.9999956-5.7735-3e-7 -2.88675-4.999997802 2.88675-4.999997498 5.7735 3e-7 2.88675 4.999997762z" fill="#f00"/><text x="135.27127" y="2.2507172" font-family="sans-serif" font-size="7.05556px" stroke-width=".264583" text-align="end" text-anchor="end" style="line-height:1.25" xml:space="preserve"><tspan x="135.27127" y="2.2507172" fill="#ffffff" stroke-width=".264583">b7</tspan></text></g><g transform="translate(280)"><rect x="34.999996" y=".00012209643" width="20" height="10" stroke-linejoin="round" stroke-width="1.41421"/><text x="46.219681" y="7.8137827" font-family="sans-serif" font-size="7.05556px" stroke-width=".264583" text-align="center" text-anchor="middle" style="line-height:1.25" xml:space="preserve"><tspan x="46.219681" y="7.8137827" fill="#ffffff" stroke-width=".264583" text-align="center" text-anchor="middle">h5</tspan></text><rect x="34.999996" y="-9.9998779" width="10" height="10" fill="#f00" stroke-linejoin="round"/><text x="42.487087" y="-2.7491605" font-family="sans-serif" font-size="7.05556px" stroke-width=".264583" text-align="end" text-anchor="end" style="line-height:1.25" xml:space="preserve"><tspan x="42.487087" y="-2.7491605" fill="#ffffff" stroke-width=".264583">6</tspan></text><rect x="44.999996" y="-9.9998779" width="10" height="10" fill="#00f" stroke-linejoin="round"/><text x="52.487087" y="-2.7491605" font-family="sans-serif" font-size="7.05556px" stroke-width=".264583" text-align="end" text-anchor="end" style="line-height:1.25" xml:space="preserve"><tspan x="52.487087" y="-2.7491605" fill="#ffffff" stroke-width=".264583">1</tspan></text></g><g transform="translate(50.000005)"><path d="m298.66025 4.9999956-5.7735-3e-7 -2.88675-4.999997802 2.88675-4.999997498 5.7735 3e-7 2.88675 4.999997762z"/><text x="298.15472" y="2.2507172" font-family="sans-serif" font-size="7.05556px" stroke-width=".264583" text-align="end" text-anchor="end" style="line-height:1.25" xml:space="preserve"><tspan x="298.15472" y="2.2507172" fill="#ffffff" stroke-width=".264583">a</tspan></text></g></g></svg>
