<?xml version="1.0" encoding="UTF-8"?>
<svg width="449.93646mm" height="74.674324mm" version="1.1" viewBox="0 0 449.93647 74.674324" xmlns="http://www.w3.org/2000/svg" xmlns:xlink="http://www.w3.org/1999/xlink"><defs><marker id="o" overflow="visible" orient="auto"><path transform="matrix(-.4 0 0 -.4 -4 0)" d="m0 0 5-5-17.5 5 17.5 5z" fill-rule="evenodd" stroke="#000" stroke-width="1pt"/></marker><marker id="p" overflow="visible" orient="auto"><path transform="matrix(.4 0 0 .4 4 0)" d="m0 0 5-5-17.5 5 17.5 5z" fill="#f00" fill-rule="evenodd" stroke="#f00" stroke-width="1pt"/></marker><marker id="q" overflow="visible" orient="auto"><path transform="matrix(.4 0 0 .4 4 0)" d="m0 0 5-5-17.5 5 17.5 5z" fill="#f00" fill-rule="evenodd" stroke="#f00" stroke-width="1pt"/></marker><marker id="r" overflow="visible" orient="auto"><path transform="matrix(.4 0 0 .4 4 0)" d="m0 0 5-5-17.5 5 17.5 5z" fill="#f00" fill-rule="evenodd" stroke="#f00" stroke-width="1pt"/></marker><marker id="s" overflow="visible" orient="auto"><path transform="matrix(.4 0 0 .4 4 0)" d="m0 0 5-5-17.5 5 17.5 5z" fill="#f00" fill-rule="evenodd" stroke="#f00" stroke-width="1pt"/></marker><marker id="t" overflow="visible" orient="auto"><path transform="matrix(.4 0 0 .4 4 0)" d="m0 0 5-5-17.5 5 17.5 5z" fill-rule="evenodd" stroke="#000" stroke-width="1pt"/></marker><marker id="u" overflow="visible" orient="auto"><path transform="matrix(.4 0 0 .4 4 0)" d="m0 0 5-5-17.5 5 17.5 5z" fill-rule="evenodd" stroke="#000" stroke-width="1pt"/></marker><marker id="j" overflow="visible" orient="auto"><path transform="matrix(.4 0 0 .4 4 0)" d="m0 0 5-5-17.5 5 17.5 5z" fill-rule="evenodd" stroke="#000" stroke-width="1pt"/></marker><marker id="k" overflow="visible" orient="auto"><path transform="matrix(.4 0 0 .4 4 0)" d="m0 0 5-5-17.5 5 17.5 5z" fill="#f00" fill-rule="evenodd" stroke="#f00" stroke-width="1pt"/></marker><marker id="l" overflow="visible" orient="auto"><path transform="matrix(.4 0 0 .4 4 0)" d="m0 0 5-5-17.5 5 17.5 5z" fill="#00f" fill-rule="evenodd" stroke="#00f" stroke-width="1pt"/></marker><marker id="m" overflow="visible" orient="auto"><path transform="matrix(.4 0 0 .4 4 0)" d="m0 0 5-5-17.5 5 17.5 5z" fill-rule="evenodd" stroke="#000" stroke-width="1pt"/></marker><marker id="n" overflow="visible" orient="auto"><path transform="matrix(.4 0 0 .4 4 0)" d="m0 0 5-5-17.5 5 17.5 5z" fill="#00f" fill-rule="evenodd" stroke="#00f" stroke-width="1pt"/></marker><marker id="v" overflow="visible" orient="auto"><path transform="matrix(.4 0 0 .4 4 0)" d="m0 0 5-5-17.5 5 17.5 5z" fill="#f00" fill-rule="evenodd" stroke="#f00" stroke-width="1pt"/></marker></defs><g transform="translate(44.808754,34.687088)"><rect x="-44.808754" y="-34.687088" width="449.93646" height="74.674324" fill="#fff" stroke-linejoin="round" stroke-width="4.99999"/><path d="m0 0h400" fill="none" marker-end="url(#o)" stroke="#000"/><text x="-1.4433256" y="2.2517745" fill="#000000" font-family="sans-serif" font-size="10.5833px" stroke-width=".264583" text-align="end" text-anchor="end" style="line-height:1.25" xml:space="preserve"><tspan x="-1.4433271" y="2.2517745" stroke-width=".264583" text-align="end" text-anchor="end">primary</tspan></text><g transform="translate(-158.59042,-42.717197)"><rect x="273.59042" y="37.717197" width="10" height="10" fill="#f00" stroke-linejoin="round"/><text x="283.19421" y="44.967915" font-family="sans-serif" font-size="7.05556px" stroke-width=".264583" text-align="end" text-anchor="end" style="line-height:1.25" xml:space="preserve"><tspan x="283.19421" y="44.967915" fill="#ffffff" stroke-width=".264583">q1</tspan></text></g><g transform="translate(15.000008)"><rect x="79.999992" y="-4.9999995" width="10" height="10" fill="#00f" stroke-linejoin="round"/><text x="89.60379" y="2.2507176" font-family="sans-serif" font-size="7.05556px" stroke-width=".264583" text-align="end" text-anchor="end" style="line-height:1.25" xml:space="preserve"><tspan x="89.60379" y="2.2507176" fill="#ffffff" stroke-width=".264583">q1</tspan></text></g><g transform="translate(120)"><rect x="34.999996" y=".00012209643" width="20" height="10" stroke-linejoin="round" stroke-width="1.41421"/><text x="46.219681" y="7.8137827" font-family="sans-serif" font-size="7.05556px" stroke-width=".264583" text-align="center" text-anchor="middle" style="line-height:1.25" xml:space="preserve"><tspan x="46.219681" y="7.8137827" fill="#ffffff" stroke-width=".264583" text-align="center" text-anchor="middle">h2</tspan></text><rect x="34.999996" y="-9.9998779" width="10" height="10" fill="#f00" stroke-linejoin="round"/><text x="42.487087" y="-2.7491605" font-family="sans-serif" font-size="7.05556px" stroke-width=".264583" text-align="end" text-anchor="end" style="line-height:1.25" xml:space="preserve"><tspan x="42.487087" y="-2.7491605" fill="#ffffff" stroke-width=".264583">1</tspan></text><rect x="44.999996" y="-9.9998779" width="10" height="10" fill="#00f" stroke-linejoin="round"/><text x="52.487087" y="-2.7491605" font-family="sans-serif" font-size="7.05556px" stroke-width=".264583" text-align="end" text-anchor="end" style="line-height:1.25" xml:space="preserve"><tspan x="52.487087" y="-2.7491605" fill="#ffffff" stroke-width=".264583">1</tspan></text></g><g transform="translate(-75)"><path d="m298.66025 4.9999956-5.7735-3e-7 -2.88675-4.999997802 2.88675-4.999997498 5.7735 3e-7 2.88675 4.999997762z"/><text x="298.15472" y="2.2507172" font-family="sans-serif" font-size="7.05556px" stroke-width=".264583" text-align="end" text-anchor="end" style="line-height:1.25" xml:space="preserve"><tspan x="298.15472" y="2.2507172" fill="#ffffff" stroke-width=".264583">a</tspan></text></g><g transform="translate(91.409576,-42.717197)"><rect x="273.59042" y="37.717197" width="10" height="10" fill="#f00" stroke-linejoin="round"/><text x="283.19421" y="44.967915" font-family="sans-serif" font-size="7.05556px" stroke-width=".264583" text-align="end" text-anchor="end" style="line-height:1.25" xml:space="preserve"><tspan x="283.19421" y="44.967915" fill="#ffffff" stroke-width=".264583">q2</tspan></text></g><g transform="translate(-40)"><path d="m313.66025 4.9999956-5.7735-3e-7 -2.88675-4.999997802 2.88675-4.999997498 5.7735 3e-7 2.88675 4.999997762z" fill="#00f"/><text x="315.27142" y="2.2507172" font-family="sans-serif" font-size="7.05556px" stroke-width=".264583" text-align="end" text-anchor="end" style="line-height:1.25" xml:space="preserve"><tspan x="315.27142" y="2.2507172" fill="#ffffff" stroke-width=".264583">b2</tspan></text></g><text transform="translate(65)" fill="#0000ff" font-family="sans-serif" font-size="7.05556px" stroke-width=".264583" text-align="center" text-anchor="middle" style="line-height:1.25" xml:space="preserve"><textPath startOffset="50%" xlink:href="#b"><tspan fill="#0000ff" stroke-width=".264583" text-align="center" text-anchor="middle">references</tspan></textPath></text><g transform="translate(65)"><path id="b" transform="translate(54.692879,5.14439)" d="m2.3990204-11.423921c6.8096325-7.139609 13.6191226-14.279068 20.1365686-14.812439 6.517446-0.533372 12.742047 5.53914 18.966504 11.611511" fill="none" marker-start="url(#v)" stroke="#f00" stroke-width=".5"/><text fill="#ff0000" font-family="sans-serif" font-size="7.05556px" stroke-width=".264583" text-align="center" text-anchor="middle" style="line-height:1.25" xml:space="preserve"><textPath startOffset="50%" xlink:href="#b"><tspan fill="#ff0000" stroke-width=".264583" text-align="center" text-anchor="middle">references</tspan></textPath></text></g><g font-family="sans-serif" font-size="7.05556px" stroke-width=".264583" text-anchor="middle"><path id="f" transform="translate(118.31631,-6.694112)" d="m-17.423586 0.68989394c13.417168-11.17754694 26.8340939-22.35489194 38.353155-22.79646994 11.519061-0.441578 21.139133 9.85233 30.759141 20.1461699" fill="none" marker-start="url(#n)" stroke="#00f" stroke-width=".5"/><text fill="#0000ff" text-align="center" style="line-height:1.25" xml:space="preserve"><textPath startOffset="50%" xlink:href="#f"><tspan fill="#0000ff" stroke-width=".264583" text-align="center" text-anchor="middle">references</tspan></textPath></text><path id="a" transform="translate(180.13319,10.629208)" d="m-3.1072591-16.379573c8.645059-5.487725 17.2900141-10.975383 24.7251541-10.682771s13.659741 6.365124 19.884198 12.437495" fill="none" marker-start="url(#m)" stroke="#000" stroke-width=".5"/><text fill="#000000" text-align="center" style="line-height:1.25" xml:space="preserve"><textPath startOffset="50%" xlink:href="#a">signatures for</textPath></text><path id="e" transform="translate(229.51231,11.741517)" d="m-3.1072591-16.379573c8.645059-5.487725 17.2900141-10.975383 24.7251541-10.682771s13.659741 6.365124 19.884198 12.437495" fill="none" marker-start="url(#l)" stroke="#00f" stroke-width=".5"/><text fill="#0000ff" text-align="center" style="line-height:1.25" xml:space="preserve"><textPath startOffset="50%" xlink:href="#e">includes</textPath></text></g><path d="m323.6601 4.9999956-5.7735-3e-7 -2.88675-4.999997802 2.88675-4.999997498 5.7735 3e-7 2.88675 4.999997762z" fill="#f00"/><text x="325.27127" y="2.2507172" font-family="sans-serif" font-size="7.05556px" stroke-width=".264583" text-align="end" text-anchor="end" style="line-height:1.25" xml:space="preserve"><tspan x="325.27127" y="2.2507172" fill="#ffffff" stroke-width=".264583">b2</tspan></text><path id="d" transform="translate(279.51215,11.741517)" d="m-3.1072591-16.379573c8.645059-5.487725 17.2900141-10.975383 24.7251541-10.682771s13.659741 6.365124 19.884198 12.437495" fill="none" marker-start="url(#k)" stroke="#f00" stroke-width=".5"/><text fill="#ff0000" font-family="sans-serif" font-size="7.05556px" stroke-width=".264583" text-align="center" text-anchor="middle" style="line-height:1.25" xml:space="preserve"><textPath startOffset="50%" xlink:href="#d">includes</textPath></text><rect x="80" y="-4.9999995" width="10" height="10" stroke-linejoin="round"/><text x="90.132965" y="2.2507176" font-family="sans-serif" font-size="7.05556px" stroke-width=".264583" text-align="end" text-anchor="end" style="line-height:1.25" xml:space="preserve"><tspan x="90.132965" y="2.2507176" fill="#ffffff" stroke-width=".264583">wh</tspan></text><path id="c" transform="matrix(1,0,0,-1,101.41103,1.2848699)" d="m-13.844504-5.367014c12.2241407-9.158578 24.447995-18.316941 36.242539-18.345496 11.794545-0.02856 23.158237 9.072348 34.521641 18.1730222" fill="none" marker-start="url(#j)" stroke="#000" stroke-width=".5"/><text fill="#000000" font-family="sans-serif" font-size="7.05556px" stroke-width=".264583" text-align="center" text-anchor="middle" style="line-height:1.25" xml:space="preserve"><textPath startOffset="50%" xlink:href="#c">includes</textPath></text><g transform="translate(-29.999996)"><rect x="34.999996" y=".00012209643" width="20" height="10" stroke-linejoin="round" stroke-width="1.41421"/><text x="46.219681" y="7.8137827" font-family="sans-serif" font-size="7.05556px" stroke-width=".264583" text-align="center" text-anchor="middle" style="line-height:1.25" xml:space="preserve"><tspan x="46.219681" y="7.8137827" fill="#ffffff" stroke-width=".264583" text-align="center" text-anchor="middle">h1</tspan></text><rect x="34.999996" y="-9.9998779" width="10" height="10" fill="#f00" stroke-linejoin="round"/><text x="42.487087" y="-2.7491605" font-family="sans-serif" font-size="7.05556px" stroke-width=".264583" text-align="end" text-anchor="end" style="line-height:1.25" xml:space="preserve"><tspan x="42.487087" y="-2.7491605" fill="#ffffff" stroke-width=".264583">0</tspan></text><rect x="44.999996" y="-9.9998779" width="10" height="10" fill="#00f" stroke-linejoin="round"/><text x="52.487087" y="-2.7491605" font-family="sans-serif" font-size="7.05556px" stroke-width=".264583" text-align="end" text-anchor="end" style="line-height:1.25" xml:space="preserve"><tspan x="52.487087" y="-2.7491605" fill="#ffffff" stroke-width=".264583">0</tspan></text></g><g transform="translate(-225)"><path d="m298.66025 4.9999956-5.7735-3e-7 -2.88675-4.999997802 2.88675-4.999997498 5.7735 3e-7 2.88675 4.999997762z"/><text x="298.15472" y="2.2507172" font-family="sans-serif" font-size="7.05556px" stroke-width=".264583" text-align="end" text-anchor="end" style="line-height:1.25" xml:space="preserve"><tspan x="298.15472" y="2.2507172" fill="#ffffff" stroke-width=".264583">a</tspan></text></g><g><path transform="translate(30.133194,10.629208)" d="m-3.1072591-16.379573c8.645059-5.487725 17.2900141-10.975383 24.7251541-10.682771s13.659741 6.365124 19.884198 12.437495" fill="none" marker-start="url(#u)" stroke="#000" stroke-width=".5"/><text transform="translate(-150)" fill="#000000" font-family="sans-serif" font-size="7.05556px" stroke-width=".264583" text-align="center" text-anchor="middle" style="line-height:1.25" xml:space="preserve"><textPath startOffset="50%" xlink:href="#a">signatures for</textPath></text><path id="i" transform="matrix(1,0,0,-1,104.4309,10.993739)" d="m-31.464599 4.2689752c18.37282-14.8484002 36.7447804-29.6961052 52.302256-30.0918512 15.557476-0.395745 28.297711 13.660712 41.03767 27.7168656" fill="none" marker-start="url(#t)" stroke="#000" stroke-width=".5"/><text fill="#000000" font-family="sans-serif" font-size="7.05556px" stroke-width=".264583" text-align="center" text-anchor="middle" style="line-height:1.25" xml:space="preserve"><textPath startOffset="50%" xlink:href="#i">includes</textPath></text><path id="h" transform="translate(329.01734,11.741517)" d="m-3.1072591-16.379573c8.645059-5.487725 17.2900141-10.975383 24.7251541-10.682771s13.659741 6.365124 19.884198 12.437495" fill="none" marker-start="url(#s)" stroke="#f00" stroke-width=".5"/><text fill="#ff0000" font-family="sans-serif" font-size="7.05556px" stroke-width=".264583" text-align="center" text-anchor="middle" style="line-height:1.25" xml:space="preserve"><textPath startOffset="50%" xlink:href="#h">includes</textPath></text></g><g fill="none" stroke="#f00" stroke-width=".5"><path id="g" transform="translate(7.1166664,-23.502476)" d="m328.27225 57.675945c11.05456-10.253505 22.10912-20.50702 33.16366-30.760505" fill="none" marker-start="url(#r)" stroke="#f00" stroke-width=".5"/><path transform="translate(10.291667,-23.502476)" d="m328.27225 57.675945c11.05456-10.253505 22.10912-20.50702 33.16366-30.760505" marker-start="url(#q)"/><path transform="translate(13.466667,-23.502476)" d="m328.27225 57.675945c11.05456-10.253505 22.10912-20.50702 33.16366-30.760505" marker-start="url(#p)"/></g><text fill="#ff0000" font-family="sans-serif" font-size="7.05556px" stroke-width=".264583" text-align="center" text-anchor="middle" style="line-height:1.25" xml:space="preserve"><textPath startOffset="50%" xlink:href="#g">includes</textPath></text></g></svg>
