<?xml version="1.0" encoding="UTF-8"?>
<svg width="305.10565mm" height="59.470467mm" version="1.1" viewBox="0 0 305.10565 59.470467" xmlns="http://www.w3.org/2000/svg"><defs><marker id="a" overflow="visible" orient="auto"><path transform="matrix(-.4 0 0 -.4 -4 0)" d="m0 0 5-5-17.5 5 17.5 5z" fill-rule="evenodd" stroke="#000" stroke-width="1pt"/></marker><marker id="b" overflow="visible" orient="auto"><path transform="matrix(-.4 0 0 -.4 -4 0)" d="m0 0 5-5-17.5 5 17.5 5z" fill-rule="evenodd" stroke="#000" stroke-width="1pt"/></marker><marker id="c" overflow="visible" orient="auto"><path transform="matrix(-.4 0 0 -.4 -4 0)" d="m0 0 5-5-17.5 5 17.5 5z" fill-rule="evenodd" stroke="#000" stroke-width="1pt"/></marker><marker id="d" overflow="visible" orient="auto"><path transform="matrix(-.4 0 0 -.4 -4 0)" d="m0 0 5-5-17.5 5 17.5 5z" fill-rule="evenodd" stroke="#000" stroke-width="1pt"/></marker><marker id="e" overflow="visible" orient="auto"><path transform="matrix(-.4 0 0 -.4 -4 0)" d="m0 0 5-5-17.5 5 17.5 5z" fill-rule="evenodd" stroke="#000" stroke-width="1pt"/></marker><marker id="f" overflow="visible" orient="auto"><path transform="matrix(-.4 0 0 -.4 -4 0)" d="m0 0 5-5-17.5 5 17.5 5z" fill-rule="evenodd" stroke="#000" stroke-width="1pt"/></marker></defs><g transform="translate(-23.650497,-83.419408)"><rect x="18.14926" y="75.298531" width="316.45212" height="74.135727" fill="#fffffe"/><text x="24.648026" y="94.344849" fill="#000000" font-family="sans-serif" font-size="10.5833px" stroke-width=".264583" style="line-height:1.25" xml:space="preserve"><tspan x="24.648026" y="94.344849" stroke-width=".264583">client</tspan></text><path d="m54.30921 90.515349h34.813597" fill="none" marker-end="url(#f)" stroke="#000"/><text x="55.075111" y="87.465675" fill="#000000" font-family="sans-serif" font-size="5.29167px" stroke-width=".264583" style="line-height:1.25" xml:space="preserve"><tspan x="55.075111" y="87.465675" stroke-width=".264583">transactions</tspan></text><text x="92.910522" y="94.344849" fill="#000000" font-family="sans-serif" font-size="10.5833px" stroke-width=".264583" style="line-height:1.25" xml:space="preserve"><tspan x="92.910522" y="94.344849" stroke-width=".264583">mempool</tspan></text><path transform="translate(90.222917)" d="m54.30921 90.515349h34.813597" fill="none" marker-end="url(#e)" stroke="#000"/><text x="144.2397" y="87.465675" fill="#000000" font-family="sans-serif" font-size="5.29167px" stroke-width=".264583" style="line-height:1.25" xml:space="preserve"><tspan x="144.2397" y="87.465675" stroke-width=".264583">headers</tspan></text><text x="182.0751" y="94.344849" fill="#000000" font-family="sans-serif" font-size="10.5833px" stroke-width=".264583" style="line-height:1.25" xml:space="preserve"><tspan x="182.0751" y="94.344849" stroke-width=".264583">consensus</tspan></text><path transform="translate(185.20833)" d="m54.30921 90.515349h34.813597" fill="none" marker-end="url(#d)" stroke="#000"/><text x="239.22511" y="87.465675" fill="#000000" font-family="sans-serif" font-size="5.29167px" stroke-width=".264583" style="line-height:1.25" xml:space="preserve"><tspan x="239.22511" y="87.465675" stroke-width=".264583">ordering info</tspan></text><text x="277.06052" y="94.344849" fill="#000000" font-family="sans-serif" font-size="10.5833px" stroke-width=".264583" style="line-height:1.25" xml:space="preserve"><tspan x="277.06052" y="94.344849" stroke-width=".264583">execution</tspan></text><path transform="translate(0,1.5875)" d="m125.67708 97.129932c27.96724 8.703498 55.93416 17.406898 82.33464 17.290688 26.40047-0.11621 51.23368-9.05153 76.06722-17.98696" fill="none" marker-end="url(#c)" stroke="#000" stroke-width=".5"/><path transform="matrix(-1,0,0,1,411.46175,2.1166667)" d="m107.92215 95.389252c34.81407 15.318188 69.62571 30.635308 101.36524 30.983568 31.73954 0.34826 60.40216-14.27316 89.06512-28.894752" fill="none" marker-end="url(#b)" stroke="#000" stroke-width=".5"/><text transform="rotate(15.470183)" x="160.90497" y="61.201992" fill="#000000" font-family="sans-serif" font-size="5.29167px" stroke-width=".264583" style="line-height:1.25" xml:space="preserve"><tspan x="160.90497" y="61.201992" stroke-width=".264583">transactions</tspan></text><text transform="rotate(-22.898731)" x="182.88168" y="212.58246" fill="#000000" font-family="sans-serif" font-size="5.29167px" stroke-width=".264583" style="line-height:1.25" xml:space="preserve"><tspan x="182.88168" y="212.58246" stroke-width=".264583">garbage collection info</tspan></text><path transform="matrix(-1,0,0,1,411.46175,1.5875)" d="m88.426536 96.781796c41.312754 22.164984 82.622564 44.328394 128.752264 44.270464 46.12969-0.0579 97.07258-22.33818 148.01582-44.6186" fill="none" marker-end="url(#a)" stroke="#000" stroke-width=".5"/><text transform="rotate(-25.05068)" x="179.25717" y="231.99919" fill="#000000" font-family="sans-serif" font-size="5.29167px" stroke-width=".264583" style="line-height:1.25" xml:space="preserve"><tspan x="179.25717" y="231.99919" stroke-width=".264583">light client reads</tspan></text><g fill="none" stroke="#000" stroke-linejoin="round"><rect x="91.708961" y="84.348373" width="51.126251" height="12.532894" stroke-width=".499999"/><rect x="23.841917" y="84.348373" width="29.973921" height="12.532894" stroke-width=".382841"/><rect x="181.84703" y="84.348373" width="55.737713" height="12.532894" stroke-width=".522062"/><rect x="276.65967" y="84.348373" width="51.844719" height="12.532894" stroke-width=".5035"/></g></g></svg>
